<svg id="Capa_3" enable-background="new 0 0 453.543 453.543" height="512" viewBox="0 0 453.543 453.543" width="512" xmlns="http://www.w3.org/2000/svg"><g><path d="m345.353 60.964c-1.236-5.709-5.873-10.072-11.657-10.882-129.006-18.072-273.355-4.096-311.606.218-5.905.666-10.751 4.998-12.085 10.789-19.541 84.802-5.423 165.308.273 191.471 1.182 5.432 5.457 9.645 10.909 10.729 5.609 1.116 11.425 2.115 17.399 3.016.024 17.833.802 68.341 8.877 67.82 7.292-.471 38.2-41.18 53.553-62 93.631 4.44 199.572-5.997 232.073-9.573 6.04-.665 10.955-5.152 12.19-11.103 18.449-88.815 5.675-164.6.074-190.485z" fill="#f8627f"/><path d="m203.297 213.163c.895-4.137 4.256-7.298 8.447-7.885 93.479-13.095 198.075-2.968 225.793.158 4.279.483 7.79 3.622 8.757 7.818 14.159 61.448 3.929 119.784-.198 138.741-.857 3.936-3.954 6.989-7.905 7.775-4.064.808-8.279 1.532-12.607 2.186-.017 12.922-.581 49.52-6.432 49.143-5.284-.341-27.68-29.839-38.805-44.926-67.846 3.218-144.612-4.345-168.162-6.937-4.377-.482-7.938-3.733-8.833-8.045-13.369-64.357-4.113-119.272-.055-138.028z" fill="#ffdcbd"/><path d="m34.808 48.761c-5.466 38.416-7.808 77.378-7.508 116.172.147 19.046.975 38.116 3.032 57.056.758 6.979.765 16.561 6.857 21.307 3.402 2.651 7.663 2.414 11.686 3.179 5.66 1.077 7.606 5.331 7.98 10.669.852 12.148-.237 24.758-1.502 36.841-1.36 12.988-3.616 25.863-6.659 38.56-.428 1.787 2.326 2.55 2.755.76 5.237-21.849 8.086-44.254 8.36-66.724.088-7.209 1.2-18.141-6.769-21.826-4.145-1.916-9.178-.79-13.161-3.071-3.922-2.246-5.029-7.217-5.672-11.343-2.879-18.485-3.535-37.521-3.921-56.196-.415-20.09.01-40.199 1.113-60.262 1.183-21.522 3.126-43.02 6.163-64.362.256-1.799-2.496-2.576-2.754-.76z" fill="#4f021b"/><g fill="#fff"><path d="m185.764 208.866s-84.486-40.73-60.513-79.365c23.972-38.635 60.513 1.862 60.513 1.862s29.326-42.359 53.298-8.379-53.298 85.882-53.298 85.882z"/><path d="m308.617 318.428s-59.763-28.811-42.805-56.14c16.957-27.33 42.805 1.317 42.805 1.317s20.744-29.964 37.701-5.927c16.958 24.036-37.701 60.75-37.701 60.75z"/><path d="m325.818 125.291c-7.932 1.145-16.384-11.941-18.88-29.228s1.911-32.229 9.842-33.374c7.932-1.145 16.384 11.941 18.88 29.228s-1.911 32.229-9.842 33.374z"/><path d="m336.26 149.336c-3.56 4.364-9.984 5.016-14.348 1.456s-5.016-9.984-1.456-14.348 9.984-5.016 14.348-1.456c4.365 3.56 5.017 9.984 1.456 14.348z"/><path d="m222.354 281.111c7.931 1.145 16.384-11.941 18.88-29.228s-1.911-32.229-9.842-33.374-16.384 11.941-18.88 29.228 1.91 32.229 9.842 33.374z"/><path d="m211.911 305.157c3.56 4.364 9.984 5.016 14.348 1.456s5.016-9.984 1.456-14.348-9.984-5.016-14.348-1.456c-4.364 3.559-5.016 9.983-1.456 14.348z"/></g><path d="m427.859 204.924c4.493 30.123 6.742 60.693 6.112 91.154-.152 7.383-.488 14.762-1.05 22.125-.272 3.568-.595 7.133-.987 10.69-.412 3.748-.811 8.285-4.331 10.487-2.491 1.558-5.572 1.838-8.001 3.552-2.269 1.601-3.633 4.066-4.371 6.698-1.54 5.497-1.059 11.712-.847 17.352.553 14.744 2.416 29.396 3.338 44.114.114 1.826 2.972 1.839 2.857 0-.831-13.26-2.41-26.463-3.134-39.732-.338-6.199-.919-12.821.109-18.978.548-3.28 1.831-6.27 4.918-7.837 2.88-1.462 6.141-1.793 8.503-4.203 4.146-4.23 3.896-11.777 4.394-17.248.694-7.63 1.126-15.283 1.355-22.94.456-15.164.125-30.35-.797-45.491-1.03-16.902-2.816-33.755-5.314-50.503-.269-1.812-3.022-1.041-2.754.76z" fill="#4f021b"/></g></svg>