<svg id="Capa_3" enable-background="new 0 0 453.543 453.543" height="512" viewBox="0 0 453.543 453.543" width="512" xmlns="http://www.w3.org/2000/svg"><g><g fill="#ffdcbd"><path d="m114.146 354.003c.194.496.396.987.598 1.48l.068.149c-.37-.929-.605-1.51-.739-1.832z"/><path d="m107.793 332.979c.054.282.111.564.168.845l.086.356c-.2-1.073-.321-1.672-.382-1.946.045.249.081.498.128.745z"/><path d="m375.136 307.105c-.38-31.08-8.062-62.015-25.081-88.325-16.507-25.518-39.765-46.796-68.348-57.929-28.62-11.147-60.241-13.179-89.976-5.181-29.486 7.93-56.241 23.898-76.67 46.71-20.307 22.676-33.512 51.938-36.118 82.337-2.716 31.683 4.338 64.635 19.67 92.479 14.622 26.557 37.01 49.107 64.416 62.373 27.339 13.234 58.894 17.132 88.7 11.419 30.122-5.774 57.773-20.376 79.782-41.688 21.838-21.147 36.57-49.025 41.806-78.949 1.234-7.051 1.829-14.189 1.853-21.345.002-.648-.011-1.279-.034-1.901zm-267.207-24.139-.02.079zm224.043 35.807c-.065.306-.275 1.216-.377 1.67-.068.269-.131.514-.165.642-.239.901-.489 1.799-.751 2.694-.914 3.12-1.962 6.2-3.142 9.229-1.217 3.125-2.572 6.196-4.057 9.203-.716 1.449-1.462 2.884-2.238 4.302-.343.627-.814 1.271-1.092 1.936l-.351.582c-3.443 5.615-7.346 10.944-11.644 15.934-4.567 5.303-9.594 10.181-14.955 14.674-12.409 9.847-26.484 17.4-41.565 22.254-9.898 2.888-20.107 4.631-30.417 5.029-2.534.098-5.072.118-7.607.057-.719-.017-1.437-.05-2.156-.071l-.046-.001c-1.354-.102-2.707-.203-4.058-.342-5.275-.542-10.512-1.445-15.66-2.719-2.298-.569-4.577-1.212-6.833-1.927-1.17-.371-2.32-.826-3.496-1.173 4.146 1.222-.35-.154-1.32-.546-4.686-1.891-9.239-4.111-13.615-6.638-.944-.545-1.88-1.105-2.807-1.678-1.02-.631-4.904-3.444-.888-.519-1.932-1.407-3.906-2.743-5.793-4.212-1.882-1.465-3.715-2.991-5.498-4.576-.972-.864-1.929-1.745-2.87-2.643-.436-.416-1.306-1.333-1.834-1.892-2.865-3.152-5.649-6.341-8.198-9.774-.717-.966-1.419-1.942-2.105-2.93-.249-.358-.496-.834-.777-1.227-1.109-1.783-2.198-3.576-3.217-5.415-1.183-2.134-2.299-4.304-3.349-6.506-.436-.916-.858-1.839-1.272-2.766.124.311.259.651.42 1.057-.157-.397-.318-.793-.48-1.189l-.066-.142c-.348-.785-.917-2.286-.527-1.346-1.789-4.592-3.306-9.29-4.538-14.062-.281-1.09-.534-2.185-.79-3.28.054.291.113.608.181.984-.079-.434-.169-.866-.257-1.298l-.103-.428c-.145-.623-.284-1.531-.159-.977-.468-2.538-.87-5.088-1.186-7.649-.319-2.585-.562-5.179-.728-7.779-.077-1.193-.137-2.388-.182-3.583-.031-.837.011-3.728-.016-3.466.166-4.851.438-9.657 1.17-14.478.385-2.539.895-5.047 1.421-7.559.081-.336.168-.67.256-1.002.358-1.351.742-2.695 1.152-4.032 1.763-5.759 3.992-11.376 6.645-16.783.61-1.244 1.242-2.478 1.896-3.699.327-.611.659-1.219.997-1.823l.109-.182-.238.355c1.675-2.489 3.142-5.11 4.857-7.579 6.409-9.225 14.097-17.495 22.691-24.716 12.394-9.859 26.458-17.422 41.527-22.293 6.602-1.938 13.337-3.389 20.169-4.238 3.695-.459 7.41-.749 11.13-.871 1.813-.059 3.626-.079 5.44-.057.842.01 1.683.029 2.524.057.359.012.718.028 1.076.04l.027.001c6.996.514 13.927 1.563 20.725 3.312 1.638.421 3.265.88 4.881 1.376.75.23 1.497.469 2.241.715.903.298 4.258 1.669.432.106 3.178 1.298 6.362 2.516 9.461 4.005 3.057 1.468 6.045 3.08 8.951 4.829.625.377 1.237.775 1.851 1.168.078.048.321.2.612.386.466.298.934.592 1.403.885-.45-.282-.803-.503-1.089-.684.31.2.628.409.836.556.709.5 1.413 1.009 2.111 1.526 2.7 2.001 5.307 4.127 7.813 6.367 1.212 1.084 2.401 2.194 3.564 3.33l.078.077c.437.459 1.1 1.15 1.314 1.383 2.287 2.48 4.461 5.063 6.519 7.736 1 1.298 1.971 2.619 2.914 3.959l.07.103c.247.465.697 1.011.935 1.388 1.765 2.801 3.411 5.677 4.934 8.616.767 1.48 1.503 2.976 2.208 4.487.307.658.607 1.32.903 1.984 1.426 3.595 2.735 7.228 3.845 10.935.557 1.862 1.071 3.736 1.541 5.621.219.879.423 1.762.626 2.645l.003.013c.763 3.904 1.345 7.844 1.748 11.802.216 2.128.381 4.261.495 6.397.051.957.092 1.915.123 2.873.012.368.024 1.14.034 1.796-.076 6.463-.669 12.906-1.865 19.26-.151.804-.312 1.61-.482 2.414z"/><path d="m300.224 201.86-.355-.228c-.23-.147-.463-.29-.693-.437-.119-.074.121.082 1.048.665z"/></g><path d="m227.299 158.955s-135.539-65.343-97.08-127.325 97.08 2.987 97.08 2.987 47.047-67.956 85.505-13.442c38.459 54.515-85.505 137.78-85.505 137.78z" fill="#f8627f"/><path d="m219.702 121.75c-21.189-5.503-40.546-18.283-56.081-33.469-15.256-14.912-27.34-33.15-27.084-55.251.049-4.252.608-8.283 1.592-12.111-2.71 3.053-5.355 6.595-7.91 10.712-38.459 61.982 97.08 127.325 97.08 127.325s21.925-14.728 44.473-35.85c-17.28 2.936-35.26 3.01-52.07-1.356z" fill="#f44770"/><path d="m267.998 152.007c0 9.798-2.594 8.226-39.932 8.226s-42.404 1.572-42.404-8.226 5.066-10.01 42.404-10.01c37.339 0 39.932.212 39.932 10.01z" fill="#ffacb3"/><path d="m293.306 68.15c-5.405-1.423-7.272-12.126-4.17-23.906 3.101-11.78 9.996-20.176 15.401-18.753s7.272 12.126 4.171 23.906c-3.102 11.78-9.997 20.176-15.402 18.753z" fill="#fff"/><path d="m293.469 86.432c-3.474 1.834-7.776.504-9.61-2.969-1.834-3.474-.504-7.776 2.969-9.61 3.474-1.834 7.776-.504 9.61 2.969 1.834 3.474.505 7.777-2.969 9.61z" fill="#fff"/><path d="m344.613 300.564c-.205 49.274-37.75 92.404-82.568 109.053-22.544 8.374-47.279 10.068-70.367 2.847-22.636-7.08-42.533-21.912-56.762-40.782-14.186-18.813-23.049-41.809-23.863-65.445-.815-23.663 6.846-46.726 20.609-65.883 27.681-38.532 78.552-60.554 125.441-50.409 44.959 9.728 79.221 47.838 86.187 93.005.899 5.828 1.303 11.719 1.323 17.614.006 1.821 2.837 1.825 2.831 0-.158-47.215-28.951-91.364-73.326-108.486-46.241-17.841-100.152-1.842-133.728 33.371-16.567 17.375-28.156 39.507-31.324 63.422-3.203 24.184 2.377 48.981 14.232 70.177 11.772 21.049 29.767 38.807 51.399 49.591 22.117 11.025 47.08 13.867 71.196 8.661 47.787-10.317 91.149-50.093 99.946-99.051 1.049-5.839 1.581-11.753 1.606-17.685.006-1.821-2.824-1.824-2.832 0z" fill="#4f021b"/></g></svg>