<svg id="Capa_3" enable-background="new 0 0 453.543 453.543" viewBox="0 0 453.543 453.543" xmlns="http://www.w3.org/2000/svg"><g><path d="m322.745 392.548s-168.092-82.953-212.638-226.087c-44.547-143.135 99.969-156.992 162-79.177 0 0 50.742-111.018 128.396-82.643 77.654 28.374 76.999 244.395-77.758 387.907z" fill="#f8627f"/><path d="m363.472 340.8c-85.912-.373-148.644-62.633-184.034-135.478-18.015-37.081-33.61-77.86-32.966-119.713.214-13.921 2.563-28.849 7.63-42.417-39.966 10.485-66.836 49.876-43.995 123.268 44.547 143.135 212.638 226.087 212.638 226.087 17.764-16.473 33.474-33.909 47.292-51.899-2.174.097-4.357.162-6.565.152z" fill="#f44770"/><path d="m411.909 100.961c-9.533 1.837-20.768-12.104-25.093-31.139s-.104-35.955 9.43-37.792c9.533-1.837 20.768 12.104 25.093 31.139 4.325 19.034.103 35.955-9.43 37.792z" fill="#fff"/><path d="m426.38 126.941c-3.99 5.104-11.732 6.286-17.292 2.64s-6.833-10.739-2.844-15.843c3.99-5.104 11.732-6.286 17.292-2.64 5.561 3.646 6.834 10.739 2.844 15.843z" fill="#fff"/><path d="m57.186 453.543s-77.415-123.543-48.468-236.489c28.945-112.946 130.277-63.118 139.573 13.722 0 0 78.917-52.78 118.742-2.292 39.825 50.489-48.802 193.233-209.847 225.059z" fill="#ffacb3"/><path d="m105.275 435.912c-56.724-35.321-72.835-102.15-66.525-164.824 3.213-31.903 9.537-65.267 27.051-92.712 5.825-9.129 13.475-18.053 22.369-24.967-30.739-9.376-64.61 5.732-79.452 63.645-28.947 112.946 48.468 236.489 48.468 236.489 18.486-3.653 36.004-8.782 52.497-15.051-1.478-.823-2.949-1.672-4.408-2.58z" fill="#f78996"/><path d="m235.26 296.908c-7.062-2.676-8.807-16.492-3.899-30.859 4.908-14.368 14.61-23.845 21.671-21.17 7.062 2.676 8.808 16.492 3.9 30.859-4.908 14.368-14.611 23.845-21.672 21.17z" fill="#fff"/><path d="m234.234 320.016c-4.725 1.75-10.332-.629-12.526-5.312-2.192-4.684-.14-9.899 4.585-11.649 4.726-1.75 10.333.629 12.526 5.312s.14 9.899-4.585 11.649z" fill="#fff"/><g fill="#4f021b"><path d="m272.209 83.448c-5.887 14.66-8.574 30.586-7.83 46.369.209 4.427.698 8.835 1.428 13.206.264 1.583 2.674.912 2.411-.665-2.534-15.183-1.753-30.882 2.226-45.75 1.137-4.247 2.538-8.416 4.176-12.496.599-1.492-1.818-2.141-2.411-.664z"/><path d="m146.633 228.509c.8 17.823-2.673 35.734-10.164 51.934-.671 1.451 1.483 2.722 2.159 1.262 7.677-16.602 11.326-34.916 10.505-53.195-.072-1.603-2.573-1.612-2.5-.001z"/><path d="m115.458 425.675c15.918-5.858 30.828-14.475 44.879-23.893 16.939-11.355 32.878-24.297 47.424-38.592 8.328-8.185 16.194-16.848 23.387-26.05.98-1.253-.777-3.035-1.768-1.768-12.663 16.198-27.371 30.773-43.159 43.915-14.8 12.321-30.667 23.508-47.539 32.817-7.697 4.247-15.633 8.121-23.889 11.16-1.497.551-.85 2.968.665 2.411z"/><path d="m434.688 140.954c-4.191 25.436-10.472 50.517-18.757 74.928-8.296 24.448-18.595 48.21-30.774 70.975-6.809 12.729-14.206 25.139-22.154 37.189-.888 1.347 1.276 2.6 2.159 1.262 14.276-21.642 26.756-44.455 37.289-68.145 10.456-23.519 19.023-47.873 25.547-72.772 3.696-14.107 6.729-28.383 9.1-42.772.26-1.575-2.149-2.251-2.41-.665z"/></g></g></svg>