<svg id="Capa_3" enable-background="new 0 0 453.543 453.543" height="512" viewBox="0 0 453.543 453.543" width="512" xmlns="http://www.w3.org/2000/svg"><g><path d="m233.997 234.322c1.352 13.351.431 26.839-2.851 39.858-3.335 13.229-9.237 25.077-16.32 36.656-6.624 10.829-13.351 22.07-14.266 35.044-.784 11.113 3.612 21.432 12.703 27.965 19.872 14.281 44.891 4.392 62.008-9.274 18.534-14.798 34.007-35.915 40.838-58.792 1.762-5.903 2.109-12.854-2.637-17.503-4.233-4.147-9.999-3.286-14.363.15-5.433 4.277-9.751 10.579-13.619 16.248-4.217 6.18-7.837 12.732-10.901 19.555.877.37 1.754.739 2.631 1.109 1.836-7.899 3.576-16.871-1.607-23.925-4.131-5.623-11.29-6.772-17.27-3.37-6.768 3.85-9.553 11.882-10.779 19.137-1.333 7.89-.861 15.903.441 23.763 2.801 16.897 9.421 33.081 10.702 50.245 1.231 16.504-4.058 32.59-15.936 44.331-14.086 13.922-35.31 18.54-54.074 12.553-1.769-.564-2.526 2.214-.765 2.776 14.792 4.72 31.306 3.212 44.922-4.316 12.651-6.994 22.228-19.137 26.477-32.916 9.858-31.972-13.456-62.098-9.232-94.03 1.126-8.515 5.227-21.262 16.014-20.657 4.797.269 8.121 4.416 9.409 8.722 1.655 5.533.19 11.468-1.078 16.921-.35 1.507 1.932 2.664 2.631 1.109 4.963-11.051 11.43-21.403 19.376-30.56 3.552-4.093 9.736-10.007 14.986-4.81 5.005 4.953 2.796 12.493.692 18.251-7.593 20.778-20.975 39.417-38.135 53.362-16.362 13.297-40.761 23.371-59.763 9.072-9.35-7.036-12.307-18.463-10.196-29.675 2.262-12.02 9.209-22.247 15.412-32.535 13.567-22.5 20.091-48.197 17.43-74.465-.186-1.825-3.067-1.843-2.88.001z" fill="#4f021b"/><path d="m234.944 235.209s-200.56-96.689-143.652-188.405 143.652 4.42 143.652 4.42 69.616-100.556 126.524-19.89c56.908 80.665-126.524 203.875-126.524 203.875z" fill="#ffacb3"/><path d="m350.438 41.743c-3.437 3.741-12.833.7-20.986-6.792s-11.976-16.598-8.539-20.338c3.437-3.741 12.833-.7 20.986 6.792 8.154 7.491 11.977 16.597 8.539 20.338z" fill="#fff"/><path d="m360.026 52.752c0 3.57-2.894 6.465-6.465 6.465-3.57 0-6.465-2.895-6.465-6.465s2.894-6.465 6.465-6.465c3.57 0 6.465 2.895 6.465 6.465z" fill="#fff"/><path d="m242.412 229.973c11.491-8.249 34.676-25.646 58.339-47.811-25.568 4.345-52.173 4.455-77.049-2.006-31.354-8.143-59.996-27.054-82.984-49.524-22.574-22.066-40.456-49.053-40.077-81.757.073-6.291.899-12.256 2.355-17.921-4.009 4.518-7.924 9.759-11.705 15.851-49.818 80.29 97.672 164.388 135.196 184.098-.935 1.157-1.862 2.429-2.749 3.818-4.488 7.028-6.214 13.946-3.854 15.454 1.964 1.255 6.136-1.668 10.069-6.724.581 6.435 2.548 11.179 4.892 11.179 2.342 0 4.308-4.735 4.89-11.161 3.928 5.045 8.092 7.959 10.054 6.706 2.36-1.507.635-8.426-3.853-15.454-1.132-1.773-2.329-3.364-3.524-4.748z" fill="#f78996"/></g></svg>