<svg id="Capa_3" enable-background="new 0 0 453.543 453.543" height="512" viewBox="0 0 453.543 453.543" width="512" xmlns="http://www.w3.org/2000/svg"><g><path d="m448.811 156.796c-10.988-34.486-26.764-52.998-44.624-60.39l-81.404-19.401-44.293 48.523-6.636 7.828c-13.993-25.589-46.879-76.617-90.428-85.255l.02-.003-69.406-16.541-6.67 27.988-35.443 5.333-29.19 87.169 52.572 87.299c1.986 4.912 4.087 9.815 6.295 14.698l39.448 152.669 74.326 17.714c-.001 0 279.604-129.012 235.433-267.631z" fill="#f44770"/><path d="m323.888 217.544-22.231 78.566 78.992 18.826c23.389-21.48 43.941-45.178 57.205-70.231z" fill="#ffd092"/><path d="m218.329 66.129-38.309 21.361-22.231 78.566 119.785 28.547-25.406-92.38c-9.278-12.709-20.685-25.817-33.839-36.094z" fill="#ffd092"/><path d="m374.485 139.083c-44.17-138.619-169.55-8.823-169.55-8.823s-80.058-179.882-181.901-59.865c-90.768 106.966 116.016 336.318 116.016 336.318s279.606-129.011 235.435-267.63z" fill="#f8627f"/><path d="m368.436 89.151c4.339 4.549 8.003 9.863 11.366 15.147 8.173 12.841 14.292 27.007 17.739 41.845 4.74 20.401 4.001 41.699-1.907 61.782-5.357 18.212-14.703 34.998-25.771 50.331-21.358 29.589-49.082 54.445-77.969 76.489-25.974 19.821-53.511 37.592-81.871 53.794-9.642 5.508-19.391 10.834-29.254 15.936-4.753 2.459-9.719 4.617-14.399 7.205-.211.117-.439.209-.657.312-1.683.789-.217 3.282 1.459 2.496 12.652-5.933 24.986-12.616 37.18-19.426 28.194-15.746 55.589-33.034 81.563-52.236 29.655-21.923 58.104-46.466 80.847-75.662 10.704-13.741 20.124-28.582 26.793-44.715 8.473-20.495 11.872-42.873 8.974-64.907-3.299-25.088-14.275-50.409-31.148-69.444-.296-.334-.592-.668-.9-.991-1.288-1.349-3.33.697-2.045 2.044z" fill="#4f021b"/><path d="m225.671 194.426 23.7-99.444c-25.617 15.806-44.435 35.277-44.435 35.277s-9.129-20.489-25.124-43.022l-21.708 91.086-158.069-37.671c.523 28.277 9.311 58.858 22.237 88.874l116.985 27.88-27.686 116.171c16.168 20.588 27.48 33.135 27.48 33.135s16.624-7.677 41.096-21.269l26.676-111.935 99.499 23.713c23.309-21.407 43.806-45.015 57.074-69.973z" fill="#ffdcbd"/><g fill="#4f021b"><path d="m223.296 114.473c-7.736-18.806-20.245-36.414-34.027-51.198-6.889-7.389-14.428-14.124-22.564-20.113-1.499-1.104-2.943 1.403-1.459 2.496 22.411 16.497 40.429 39.272 52.739 64.165.672 1.358 1.326 2.725 1.947 4.107.184.409.704 1.619.578 1.312.696 1.697 3.494.954 2.786-.769z"/><path d="m156.655 178.62c23.355 5.566 46.711 11.132 70.066 16.698 1.808.431 2.58-2.355.768-2.787-23.355-5.566-46.711-11.132-70.066-16.698-1.808-.431-2.58 2.355-.768 2.787z"/><path d="m137.617 258.501c23.355 5.566 46.711 11.132 70.066 16.698 1.808.431 2.58-2.356.768-2.787-23.355-5.566-46.711-11.132-70.066-16.698-1.808-.431-2.579 2.356-.768 2.787z"/></g><path d="m67.817 62.791c4.951 6.145-1.12 21.992-13.559 35.394s-26.538 19.286-31.49 13.141c-4.951-6.145 1.12-21.992 13.56-35.395 12.439-13.402 26.537-19.285 31.489-13.14z" fill="#fff"/><path d="m85.696 47.189c5.277.256 9.068 5.412 8.469 11.517-.599 6.104-5.362 10.846-10.639 10.59-5.276-.256-9.068-5.412-8.469-11.517.6-6.105 5.363-10.846 10.639-10.59z" fill="#fff"/></g></svg>