<svg id="Capa_3" enable-background="new 0 0 453.543 453.543" height="512" viewBox="0 0 453.543 453.543" width="512" xmlns="http://www.w3.org/2000/svg"><g><path d="m170.962 226.688c-6.277-16.382-11.377-33.198-15.192-50.323-1.946-8.739-3.585-17.556-4.845-26.42.352 2.479-.15-1.181-.175-1.368-.146-1.11-.287-2.221-.423-3.332-.226-1.852-.438-3.706-.634-5.561-.472-4.453-.86-8.914-1.163-13.382-.56-8.248-.821-16.525-.53-24.789.133-3.779.381-7.554.773-11.315.029-.282.456-3.666.112-1.116.137-1.019.281-2.037.44-3.054.316-2.032.679-4.056 1.092-6.07.798-3.897 1.785-7.761 2.994-11.551.453-1.419.936-2.828 1.451-4.226.162-.439 1.174-3.295.196-.595.405-1.117.93-2.208 1.421-3.288 1.357-2.986 2.868-5.904 4.537-8.728.907-1.536 1.861-3.044 2.863-4.521.493-.727.974-1.507 1.534-2.186-1.818 2.202.129-.124.393-.454 2.206-2.772 4.602-5.396 7.183-7.823 1.027-.965 2.115-2.203 3.315-2.929-2.46 1.489-.021.033.448-.315.951-.706 1.921-1.386 2.909-2.039 2.438-1.611 5.516-3.823 8.364-4.607-2.957.815-.271.143.368-.101.813-.31 1.631-.603 2.457-.878 1.65-.549 3.324-1.028 5.015-1.432.844-.202 1.693-.386 2.546-.55.604-.117 3.433-.854.356-.12 1.632-.39 3.495-.382 5.166-.45 1.434-.058 2.871-.063 4.305-.01.859.032 1.714.117 2.572.157 1.278.131 1.139.101-.417-.088.566.077 1.129.163 1.692.258 2.797.476 6.594.994 9.06 2.453-2.458-1.454-.145-.027.414.235.779.366 1.548.754 2.304 1.164 1.605.87 3.111 1.863 4.63 2.871-2.316-1.537.154.131.533.439.707.574 1.398 1.166 2.075 1.774 1.357 1.219 2.654 2.504 3.896 3.839 1.041 1.12 2.036 2.279 3.008 3.46-1.825-2.218.118.204.392.574.736.992 1.451 2.001 2.147 3.022 4.055 5.949 7.45 12.316 10.65 18.756 1.953 3.931 3.839 7.896 5.659 11.891.758 1.664 1.5 3.336 2.239 5.009 1.464 3.317-.889-2.159.508 1.187.564 1.35 1.138 2.696 1.695 4.049 3.206 7.779 6.162 15.66 8.865 23.628 6.228 18.361 11.108 37.178 14.589 56.251.854 4.678 1.625 9.372 2.309 14.078-.369-2.542.14 1.051.17 1.28.194 1.45.381 2.901.56 4.354.268 2.178.517 4.359.749 6.541 1.041 9.824 1.698 19.682 2.007 29.555.189 6.031 5.294 11.808 11.63 11.481 6.126-.316 11.683-5.168 11.482-11.63-1.162-37.188-7.357-74.355-18.533-109.85-5.584-17.734-12.447-35.057-20.341-51.889-6.987-14.899-14.742-30.274-26.98-41.621-12.156-11.267-28.293-17.224-44.881-16.287-17.039.963-32.626 7.942-45.278 19.266-25.517 22.84-33.209 58.743-32.861 91.601.439 41.459 9.135 83.354 23.945 122.008 2.156 5.628 7.961 10.064 14.259 7.976 5.503-1.824 10.292-8.215 7.976-14.259z" fill="#ffdcbd"/><path d="m157.69 202.901c-5.627-18.642-9.247-38.137-11.59-57.437-2.043-16.827-2.947-33.896-1.605-50.816 1.283-16.178 4.66-32.778 12.833-46.981 8.071-14.025 20.864-24.053 36.518-28.276 3.52-.95 5.717-1.462 9.029-1.53 15.566-.323 29.591 9.419 39.709 20.635 10.686 11.844 18.438 26.189 24.713 40.761 10.157 23.587 16.63 48.733 21.598 73.869 1.56 7.895 2.948 15.823 4.212 23.771.294 1.849 3.106 1.064 2.813-.776-4.576-28.765-10.706-57.526-20.763-84.921-6.183-16.843-13.875-33.498-24.792-47.838-10.71-14.068-25.818-27.057-44.218-28.337-3.203-.223-6.419-.032-9.551.681-13.311 3.034-25.439 9.57-34.393 20.002-10.515 12.25-15.991 27.992-18.726 43.701-3.015 17.315-3.036 35.072-1.654 52.549 1.879 23.757 6.113 47.626 12.711 70.544.113.391.226.783.343 1.173.541 1.794 3.358 1.03 2.813-.774z" fill="#4f021b"/><path d="m257.811 453.543s-252.95-89.458-196.837-206.801c56.113-117.342 172.655-13.587 172.655-13.587s70.173-129.602 148.943-40.455-124.761 260.843-124.761 260.843z" fill="#f8627f"/><path d="m370.728 206.619c-3.626 4.933-15.28 2.525-26.031-5.377s-16.527-18.307-12.902-23.24c3.626-4.933 15.281-2.525 26.031 5.377 10.752 7.902 16.528 18.307 12.902 23.24z" fill="#fff"/><path d="m383.659 218.546c.47 4.277-2.617 8.124-6.894 8.594-4.276.469-8.124-2.617-8.593-6.894-.47-4.277 2.617-8.124 6.894-8.594 4.277-.469 8.124 2.618 8.593 6.894z" fill="#fff"/><path d="m237.109 389.075c-38.627-5.633-75.422-24.521-105.912-48.416-29.941-23.465-54.907-53.441-58.752-92.666-.74-7.546-.534-14.799.466-21.777-4.209 5.939-8.21 12.731-11.938 20.526-56.112 117.343 196.838 206.801 196.838 206.801s35.997-30.37 71.855-72.193c-30.056 8.567-61.911 12.194-92.557 7.725z" fill="#f44770"/><path d="m248.008 295.192c4.354-2.002 9.118-6.233 12.967-12.009 6.815-10.23 8.157-21.311 2.996-24.749s-14.869 2.068-21.684 12.298c-.748 1.122-1.417 2.254-2.031 3.384-.978-.783-2.002-1.548-3.092-2.274-10.23-6.815-21.31-8.157-24.747-2.996-3.438 5.16 2.068 14.869 12.298 21.684 5.682 3.786 11.593 5.833 16.343 6.062-.244 17.764 4.199 54.706 5.123 58.633 1.209 5.14 6.356 8.326 11.495 7.117s8.326-6.356 7.116-11.495c-.921-3.909-10.153-39.408-16.784-55.655z" fill="#4f021b"/></g></svg>