<svg id="Capa_3" enable-background="new 0 0 453.543 453.543" height="512" viewBox="0 0 453.543 453.543" width="512" xmlns="http://www.w3.org/2000/svg"><g><path d="m391.686 208.552c-.354-5.657-4.018-10.151-8.61-10.559-173.547-15.41-281.976-3.889-309.494-.269-4.159.547-7.486 4.44-8.201 9.519-14.321 101.646-3.781 195.624.043 223.605.682 4.99 3.933 8.849 8.006 9.487 173.793 27.235 281.036 6.573 306.904.474 3.734-.88 6.651-4.456 7.378-9.054 11.924-75.409 6.096-189.319 3.974-223.203z" fill="#b8e3c5"/><path d="m274.451 199.908c-36.051-1.085-68.074-1.149-95.777-.617-3.004 41.474-4.691 87.495-4.691 136.011 0 41.101 1.218 80.386 3.414 116.658 37.582 2.433 70.376 2.525 98.201 1.401 2.25-36.659 3.499-76.429 3.499-118.059.001-48.276-1.669-94.08-4.646-135.394z" fill="#f8627f"/><path d="m87.645 391.214c2.657-57.572 6.794-140.449 79.298-148.865 23.024-2.672 45.996 1.091 68.88 3.354 23.267 2.301 46.717 3.999 70.098 4.371 21.236.338 42.166-1.249 63.193-4.085 8.145-1.098 16.288-2.431 24.298-4.312-.602-14.118-1.255-25.601-1.726-33.125-.354-5.657-4.018-10.151-8.61-10.559-173.547-15.41-281.976-3.889-309.494-.27-4.159.548-7.486 4.44-8.201 9.519-14.321 101.647-3.781 195.625.043 223.606.682 4.99 3.933 8.849 8.005 9.487 4.681.733 9.29 1.416 13.874 2.081-.422-17.058-.447-34.112.342-51.202z" fill="#9bd1a9"/><path d="m235.823 245.703c13.765 1.362 27.596 2.466 41.437 3.256-.734-16.925-1.676-33.318-2.809-49.051-36.051-1.085-68.074-1.149-95.777-.617-.987 13.626-1.816 27.785-2.506 42.32 19.936-.948 39.828 2.131 59.655 4.092z" fill="#f44770"/><path d="m237.531 29.036c-24.339 31.624-11.121 82.618-3.15 88.753 10.894 8.384 60.65 5.856 84.989-25.768s20.023-63.921-2.576-81.314-54.925-13.296-79.263 18.329zm17.103 13.522c18.997-24.684 33.764-21.972 46.822-11.922 13.058 10.049 19.46 23.63.463 48.313-18.997 24.684-51.745 31.342-58.039 26.498-4.606-3.545-8.243-38.206 10.754-62.889z" fill="#f8627f"/><path d="m139.33 10.707c-22.599 17.393-26.915 49.689-2.576 81.314 24.339 31.624 74.095 34.152 84.989 25.768 7.971-6.135 21.189-57.129-3.15-88.753-24.339-31.625-56.664-35.721-79.263-18.329zm72.913 94.74c-6.294 4.844-39.043-1.814-58.039-26.498-18.997-24.683-12.594-38.264.463-48.313s27.825-12.761 46.822 11.922 15.36 59.344 10.754 62.889z" fill="#f8627f"/><circle cx="226.54" cy="134.626" fill="#f8627f" r="30.546"/><path d="m408.061 138.867c-.389-1.905-4.416-3.418-9.463-3.556-190.754-5.189-309.934-1.31-340.18-.091-4.571.184-8.228 1.495-9.014 3.206-15.741 34.23-4.156 65.877.047 75.3.749 1.68 4.322 2.98 8.799 3.195 191.025 9.172 308.9 2.213 337.334.16 4.104-.296 7.311-1.501 8.11-3.049 13.104-25.395 6.699-63.755 4.367-75.165z" fill="#b8e3c5"/><path d="m110.968 111.003c-34.532 29.678-68.109 13.387-80.371 5.507-2.083-1.339-4.691.592-4.09 2.994 1.52 6.075 5.842 15.404 18.008 23.462 1.894 1.254 1.493 4.148-.668 4.849l-8.474 2.748c-2.614.848-2.485 4.606.188 5.24 16.604 3.939 54.039 8.422 83.786-20.298 33.523-32.366 67.746-11.993 77.259-5.153 1.375.989 3.305.519 4.045-1.004l2.411-4.957c.53-1.09.284-2.399-.618-3.209-8.594-7.712-52.539-43.642-91.476-10.179z" fill="#f8627f"/><path d="m342.919 111.003c34.532 29.678 68.109 13.387 80.371 5.507 2.083-1.339 4.69.592 4.09 2.994-1.52 6.075-5.842 15.404-18.008 23.462-1.893 1.254-1.492 4.148.668 4.849l8.474 2.748c2.613.848 2.485 4.606-.188 5.24-16.604 3.939-54.039 8.422-83.786-20.298-33.523-32.366-67.746-11.993-77.259-5.153-1.375.989-3.305.519-4.045-1.004l-2.411-4.957c-.53-1.09-.284-2.399.618-3.209 8.594-7.712 52.539-43.642 91.476-10.179z" fill="#f8627f"/><path d="m274.451 132.989c-36.051-.354-68.074-.375-95.777-.201-3.004 13.516-4.691 28.513-4.691 44.323 0 15.619.478 30.43 3.414 43.818 36.116.657 70.743.721 98.455.435 2.996-13.5 3.245-28.465 3.245-44.253.001-15.731-1.669-30.658-4.646-44.122z" fill="#f8627f"/><g fill="#4f021b"><path d="m257.772 129.982c-20.23.501-40.46 1.002-60.69 1.503-1.884.047-1.891 2.979 0 2.932l60.69-1.503c1.884-.046 1.891-2.979 0-2.932z"/><path d="m227.492 46.616c-6.621 22.469-5.783 46.724 2.428 68.667.655 1.752 3.491.993 2.828-.779-8.041-21.49-8.914-45.094-2.428-67.108.534-1.814-2.295-2.589-2.828-.78z"/><path d="m213.401 132.843c2.083-7.992 8.02-15.307 16.681-16.203 8.151-.843 16.074 5.378 15.112 13.987-.209 1.872 2.725 1.858 2.932 0 1.105-9.889-8.056-17.6-17.497-16.965-10.229.688-17.581 8.903-20.056 18.401-.476 1.828 2.352 2.607 2.828.78z"/><path d="m315.306 96.747c-26.047-1.775-52.247 9.161-69.299 28.931-1.227 1.422.838 3.506 2.073 2.074 16.596-19.241 41.874-29.799 67.226-28.072 1.883.127 1.875-2.806 0-2.933z"/><path d="m141.34 98.936c26.996-2.233 53.154 10.584 67.746 33.427 1.013 1.586 3.552.117 2.532-1.48-15.12-23.667-42.252-37.198-70.278-34.879-1.868.154-1.884 3.088 0 2.932z"/><path d="m59.047 144.658c24.11 1.708 48.327-7.459 65.31-24.644 1.328-1.344-.744-3.418-2.073-2.074-16.479 16.675-39.86 25.441-63.237 23.786-1.883-.134-1.874 2.799 0 2.932z"/><path d="m133.875 115.107c7.01-3.787 14.975-5.371 22.903-4.649 1.879.171 1.867-2.763 0-2.932-8.429-.767-16.942 1.03-24.383 5.05-1.661.896-.182 3.429 1.48 2.531z"/><path d="m399.287 140.549c-23.519 3.571-48.023-5.637-63.564-23.586-1.237-1.429-3.304.653-2.073 2.074 16.275 18.796 41.881 28.065 66.417 24.34 1.859-.282 1.069-3.108-.78-2.828z"/><path d="m321.853 111.143c-9.538-3.519-19.901-4.228-29.846-2.156-1.846.385-1.065 3.212.78 2.828 9.446-1.968 19.242-1.181 28.287 2.156 1.772.654 2.537-2.179.779-2.828z"/></g><path d="m369.061 381.267c6.153.023 11.1 10.913 11.05 24.325-.05 13.41-5.079 24.264-11.232 24.241s-11.1-10.913-11.05-24.325c.05-13.411 5.079-24.264 11.232-24.241z" fill="#fff"/><path d="m363.259 358.012c3.195-2.914 8.148-2.686 11.062.509s2.686 8.148-.509 11.062-8.148 2.686-11.062-.509c-2.914-3.196-2.687-8.148.509-11.062z" fill="#fff"/></g></svg>