<svg id="Capa_3" enable-background="new 0 0 453.543 453.543" height="512" viewBox="0 0 453.543 453.543" width="512" xmlns="http://www.w3.org/2000/svg"><g><path d="m444.385 173.86.03-.022-201.805-165.543c-9.184-7.533-22.431-7.458-31.528.179l-195.836 164.395-1.952 1.639-.14.118.02.015 213.598 156.808z" fill="#ffd092"/><path d="m238.45 353.582s-122.489-59.051-87.733-115.065 87.733 2.7 87.733 2.7 42.517-61.413 77.273-12.148c34.755 49.265-77.273 124.513-77.273 124.513z" fill="#f8627f"/><path d="m308.986 235.426c-2.099 2.285-7.838.427-12.817-4.148-4.979-4.576-7.314-10.137-5.215-12.421 2.099-2.285 7.838-.427 12.817 4.148 4.98 4.575 7.315 10.136 5.215 12.421z" fill="#fff"/><path d="m314.841 242.15c0 2.181-1.768 3.948-3.948 3.948-2.181 0-3.948-1.768-3.948-3.948s1.768-3.948 3.948-3.948c2.181 0 3.948 1.767 3.948 3.948z" fill="#fff"/><path d="m231.584 319.96c-19.149-4.973-36.641-16.523-50.681-30.246-13.787-13.477-24.708-29.958-24.476-49.932.045-3.842.549-7.485 1.438-10.945-2.449 2.759-4.84 5.96-7.148 9.681-34.756 56.014 87.733 115.065 87.733 115.065s19.814-13.31 40.191-32.398c-15.616 2.654-31.865 2.72-47.057-1.225z" fill="#f44770"/><path d="m156.467 173.86s-93.32-32.206-73.003-75.537 63.488-5.483 63.488-5.483 25.456-47.882 54.688-15.303-45.173 96.323-45.173 96.323z" fill="#f8627f"/><path d="m197.321 82.691c-1.32 1.825-5.615.972-9.593-1.906s-6.132-6.689-4.812-8.515c1.32-1.825 5.615-.972 9.593 1.905 3.978 2.879 6.132 6.691 4.812 8.516z" fill="#fff"/><path d="m202.112 87.043c.185 1.572-.94 2.997-2.512 3.181-1.572.185-2.997-.94-3.181-2.513s.94-2.997 2.513-3.181c1.571-.184 2.996.941 3.18 2.513z" fill="#fff"/><path d="m148.67 150.198c-14.228-1.964-27.819-8.811-39.105-17.517-11.082-8.55-20.352-19.509-21.877-33.93-.293-2.774-.238-5.444.11-8.014-1.532 2.197-2.985 4.707-4.335 7.586-20.317 43.332 73.003 75.537 73.003 75.537s13.159-11.275 26.235-26.764c-11.033 3.236-22.743 4.66-34.031 3.102z" fill="#f44770"/><path d="m276.662 90.737s-44.037-39.929-22.528-59.107 36.447 11.999 36.447 11.999 25.432-20.48 33.9 4.479c8.469 24.959-47.819 42.629-47.819 42.629z" fill="#f8627f"/><path d="m320.87 49.939c-1.163.698-3.339-.792-4.86-3.326-1.521-2.535-1.811-5.156-.648-5.854s3.339.792 4.86 3.327c1.521 2.534 1.811 5.155.648 5.853z" fill="#fff"/><path d="m322.492 53.483c-.27.914-1.23 1.436-2.145 1.166-.914-.27-1.436-1.23-1.166-2.145.27-.914 1.23-1.436 2.144-1.166.915.271 1.437 1.231 1.167 2.145z" fill="#fff"/><path d="m277.949 75.79c-7.412-4.457-13.315-11.466-17.501-18.958-4.111-7.358-6.647-15.62-4.076-23.965.494-1.605 1.157-3.07 1.959-4.41-1.368.854-2.767 1.899-4.196 3.173-21.509 19.178 22.528 59.107 22.528 59.107s9.956-3.126 20.863-8.604c-6.877-.822-13.697-2.807-19.577-6.343z" fill="#f44770"/><path d="m449.098 182.661c-.276-3.577-2.074-6.694-4.713-8.801l-217.613 157.588-213.598-156.807c-1.702 1.776-2.917 4.033-3.361 6.589-19.28 111.035-5.09 213.695.058 244.26.918 5.451 5.294 9.666 10.777 10.364 233.968 29.751 378.342 7.18 413.167.518 5.027-.961 8.955-4.867 9.934-9.89 16.05-82.376 8.205-206.808 5.349-243.821z" fill="#ffdcbd"/><path d="m140.689 265.956c-33.523 42.473-66.158 85.645-97.854 129.498-9.097 12.587-18.116 25.23-27.061 37.926-1.061 1.506 1.415 2.935 2.467 1.442 31.093-44.133 63.111-87.614 96.044-130.392 9.4-12.21 18.877-24.359 28.423-36.454 1.129-1.428-.88-3.463-2.019-2.02z" fill="#4f021b"/><path d="m442.319 430.747c-33.056-41.996-64.899-84.945-95.463-128.788-8.603-12.34-17.102-24.752-25.503-37.23-1.022-1.517-3.498-.089-2.467 1.442 30.022 44.585 61.328 88.302 93.895 131.063 9.077 11.918 18.252 23.761 27.518 35.533 1.136 1.444 3.145-.59 2.02-2.02z" fill="#4f021b"/><g fill="#fff"><path d="m428.935 324.019c7.759.8 14.66 16.089 15.413 34.148s-4.927 32.051-12.687 31.251c-7.759-.8-14.66-16.089-15.413-34.148s4.928-32.051 12.687-31.251z"/><path d="m427.526 298.262c3.851-3.526 10.11-2.6 13.978 2.068 3.869 4.668 3.883 11.312.031 14.838-3.851 3.526-10.11 2.6-13.978-2.068-3.869-4.669-3.883-11.312-.031-14.838z"/></g></g></svg>