<svg id="Capa_3" enable-background="new 0 0 453.543 453.543" viewBox="0 0 453.543 453.543" xmlns="http://www.w3.org/2000/svg"><g><path d="m433.319 109.571c7.108-13.84 4.811-31.944-5.527-43.571s-28.049-16.025-42.626-10.584c-2.358-12.708-13.641-23.226-26.484-24.686-12.842-1.46-26.199 6.257-31.349 18.112-7.173-11.285-22.256-16.84-35.034-12.902-12.779 3.938-22.12 17.017-21.697 30.383-15.142-3.113-31.664 4.848-39.342 18.127-4.53-13.83-17.64-24.839-32.276-25.901 4.038-12.747-1.397-27.874-12.626-35.135-11.228-7.262-27.253-6.014-37.222 2.898-1.735-12.808-12.493-23.863-25.249-25.948-12.756-2.084-26.472 4.972-32.194 16.562-12.55-9.197-30.79-9.776-43.899-1.395s-20.238 25.18-17.158 40.431c-12.948 2.987-23.49 14.474-25.36 27.63-1.87 13.157 5.056 27.126 16.658 33.604-11.738 6.803-19.262 20.31-18.867 33.873.395 13.562 8.693 26.608 20.808 32.716-10.768 8.429-15.753 23.579-12.094 36.755s15.742 23.586 29.314 25.256c-10.096 10.607-12.785 27.596-6.458 40.801 6.327 13.206 21.252 21.756 35.845 20.535-9.293 8.065-11.976 22.789-6.126 33.614 5.851 10.825 19.639 16.646 31.477 13.289-10.106 9.551-12.272 26.411-4.909 38.207s23.46 17.256 36.48 12.373c-3.542 15.568 4.448 33.03 18.544 40.527 11.608 6.173 26.492 5.121 37.492-1.936 8.723 8.142 21.445 12.119 33.165 9.577 15.604-3.385 28.037-18.018 28.858-33.963 11.203 8.237 28.179 7.356 38.469-1.996 10.29-9.351 12.787-26.166 5.656-38.103 10.48 6.447 25.332 4.591 33.904-4.237s9.99-23.727 3.238-34.014c13.712 5.141 30.398.967 40.075-10.023 9.677-10.991 11.705-28.071 4.87-41.022 13.515 2.081 27.972-4.655 35.074-16.341 7.101-11.686 6.42-27.621-1.652-38.658 13.319-2.587 24.849-12.887 28.914-25.832s.494-27.988-8.954-37.725c12.926-3.081 23.386-14.643 25.161-27.813 1.776-13.171-5.249-27.091-16.899-33.485z" fill="#f8627f"/><path d="m184.528 430.78s-142.326-130.254-145.259-284.519c-2.934-154.265 143.885-126.468 182.855-31.745 0 0 82.029-95.161 150.636-44.82s5.936 263.67-188.232 361.084z" fill="#ffacb3"/><path d="m393.32 98.265c-.438-1.176-.893-2.336-1.377-3.469-26.249-2.768-52.498-5.535-78.746-8.303-17.728-1.869-35.455-3.738-53.182-5.607-1.364.963-2.704 1.93-4.012 2.9 45.196 4.765 90.393 9.531 135.59 14.296.576.061 1.152.122 1.727.183z" fill="#ffdcbd"/><path d="m195.626 74.097c-23.005-2.425-46.009-4.851-69.014-7.277-21.062-2.221-42.125-4.441-63.187-6.662-.863.986-1.711 2.002-2.538 3.056 46.051 4.855 92.102 9.711 138.153 14.566-1.117-1.253-2.256-2.48-3.414-3.683z" fill="#ffdcbd"/><path d="m343.755 129.885c18.62 1.963 37.239 3.927 55.859 5.89-.019-1.65-.067-3.279-.14-4.891-41.562-4.382-83.124-8.765-124.687-13.147-16.915-1.784-33.831-3.567-50.747-5.351-1.248 1.355-1.917 2.129-1.917 2.129-.339-.824-.705-1.63-1.06-2.443-37.35-3.938-74.7-7.877-112.049-11.814-21.129-2.228-42.259-4.456-63.388-6.684-.471 1.544-.92 3.12-1.343 4.734 44.566 4.699 89.133 9.398 133.699 14.097 55.258 5.827 110.516 11.654 165.773 17.48z" fill="#ffdcbd"/><path d="m305.674 157.84c-62.195-6.558-124.39-13.115-186.585-19.673-26.504-2.795-53.009-5.589-79.513-8.384-.062 1.097-.129 2.187-.173 3.305 52.694 5.556 105.388 11.112 158.081 16.668 62.195 6.558 124.39 13.115 186.585 19.673l12.408 1.308c.196-1.09.398-2.182.576-3.263-30.459-3.211-60.919-6.423-91.379-9.634z" fill="#ffdcbd"/><path d="m101.492 171.605c-20.384-2.149-40.768-4.298-61.152-6.447.151 1.646.315 3.288.494 4.928 43.209 4.556 86.417 9.112 129.626 13.667 55.258 5.826 110.515 11.653 165.773 17.479 16.989 1.791 33.977 3.582 50.966 5.374.528-1.579 1.024-3.148 1.518-4.715-40.485-4.269-80.969-8.537-121.453-12.806-55.257-5.828-110.515-11.654-165.772-17.48z" fill="#ffdcbd"/><path d="m111.566 209.513c-21.748-2.293-43.497-4.586-65.245-6.879.259 1.141.542 2.273.814 3.409 47.609 5.02 95.218 10.04 142.828 15.06 61.215 6.454 122.431 12.909 183.647 19.363.494-1.058.975-2.114 1.456-3.17-25.638-2.703-51.276-5.406-76.913-8.109-62.196-6.559-124.391-13.116-186.587-19.674z" fill="#ffdcbd"/><path d="m93.969 242.951c-12.363-1.304-24.727-2.607-37.09-3.911.595 1.695 1.196 3.386 1.813 5.067 34.748 3.663 69.497 7.327 104.245 10.991 55.257 5.826 110.515 11.653 165.773 17.479 8.719.919 17.438 1.839 26.158 2.758.93-1.529 1.843-3.058 2.744-4.586-32.624-3.44-65.247-6.88-97.87-10.319-55.258-5.827-110.515-11.653-165.773-17.479z" fill="#ffdcbd"/><path d="m104.044 280.859c-10.411-1.098-20.821-2.195-31.232-3.293.556 1.169 1.109 2.34 1.673 3.5 35.985 3.794 71.969 7.588 107.954 11.383 50.005 5.272 100.01 10.545 150.015 15.817.776-1.025 1.536-2.053 2.299-3.081-14.708-1.551-29.417-3.102-44.125-4.652-62.194-6.559-124.389-13.116-186.584-19.674z" fill="#ffdcbd"/><path d="m92.799 314.967c1.039 1.751 2.085 3.485 3.135 5.206 19.827 2.09 39.654 4.181 59.481 6.272 49.474 5.216 98.948 10.433 148.422 15.649 1.389-1.475 2.759-2.956 4.118-4.442-18.578-1.959-37.157-3.918-55.735-5.876-53.141-5.603-106.281-11.206-159.421-16.809z" fill="#ffdcbd"/><path d="m121.401 358.152c17.839 1.881 35.678 3.762 53.517 5.643 31.838 3.357 63.675 6.714 95.513 10.071 1.155-.984 2.314-1.967 3.453-2.959-51.699-5.451-103.397-10.902-155.096-16.353.872 1.211 1.743 2.409 2.613 3.598z" fill="#ffdcbd"/><path d="m153.637 398.396c24.557 2.589 49.114 5.178 73.671 7.768 2.12-1.387 4.205-2.798 6.286-4.213-28.198-2.973-56.396-5.946-84.595-8.919 1.58 1.85 3.126 3.637 4.638 5.364z" fill="#ffdcbd"/><path d="m356.011 151.084c-9.966.732-19.773-14.871-21.905-34.848-2.132-19.978 4.219-36.766 14.185-37.497s19.773 14.871 21.904 34.849c2.133 19.977-4.218 36.765-14.184 37.496z" fill="#fff"/><path d="m367.679 179.382c-4.693 4.737-12.749 5.014-17.994.618s-5.694-11.799-1.001-16.536c4.692-4.737 12.749-5.014 17.994-.618s5.693 11.799 1.001 16.536z" fill="#fff"/><g fill="#4f021b"><path d="m425.659 170.664c-3.646-3.574-8.352-6.019-13.389-6.879-.665-.114-1.346.176-1.538.873-.165.601.204 1.423.873 1.538 4.635.792 8.925 2.941 12.286 6.236 1.15 1.127 2.919-.639 1.768-1.768z"/><path d="m432.128 107.329c-3.508 6.769-9.251 12.138-16.222 15.217-.622.275-.755 1.171-.448 1.71.365.641 1.096.72 1.71.448 7.319-3.233 13.439-9.012 17.119-16.114.739-1.425-1.417-2.691-2.159-1.261z"/><path d="m404.484 232.199c-3.063-2.043-6.126-4.087-9.19-6.13-.562-.375-1.384-.11-1.71.449-.358.613-.115 1.335.448 1.71 3.063 2.043 6.126 4.087 9.19 6.13.562.375 1.384.11 1.71-.448.359-.614.116-1.335-.448-1.711z"/><path d="m373.126 287.134c-3.902-.194-7.65-1.518-10.853-3.745-.555-.386-1.388-.102-1.71.448-.364.622-.107 1.324.449 1.71 3.562 2.477 7.787 3.872 12.115 4.087.675.034 1.25-.598 1.25-1.25-.001-.705-.574-1.216-1.251-1.25z"/><path d="m327.708 340.014c-1.277-3.128-3.434-5.777-6.289-7.598-.552-.352-1.403-.133-1.71.448-.327.619-.141 1.334.449 1.71.304.194.598.399.889.611.289.21-.19-.155.089.067l.168.135c.139.114.277.23.412.349.554.487 1.07 1.017 1.545 1.581l.172.208c.019.023.201.253.103.128-.096-.124.101.135.098.131l.159.219c.208.293.406.594.593.901.186.308.362.622.525.943.081.16.16.322.236.485l.111.246c.112.246-.07-.174.042.099.246.603.842 1.098 1.538.873.579-.186 1.134-.888.87-1.536z"/><path d="m290.961 377.367c-.387-.091-.769-.197-1.146-.322-.198-.065-.395-.136-.59-.21-.098-.037-.195-.076-.291-.115.124.051.011.005-.047-.022-.744-.334-1.459-.727-2.135-1.185-1.103-.748-2.379-2.016-3.132-3.11-.382-.556-1.097-.807-1.71-.448-.55.322-.833 1.151-.448 1.71 2.088 3.036 5.239 5.262 8.836 6.114.635.15 1.384-.198 1.538-.873.143-.642-.195-1.378-.875-1.539z"/><path d="m246.614 419.088c1.005-5.145.822-10.441-.589-15.494-.432-1.547-2.845-.89-2.411.665 1.287 4.61 1.507 9.464.589 14.165-.306 1.571 2.103 2.244 2.411.664z"/><path d="m128.176 406.286c1.143-6.538 3.84-12.758 7.946-17.985.42-.535.512-1.245 0-1.768-.429-.438-1.352-.53-1.768 0-4.376 5.569-7.367 12.102-8.589 19.089-.275 1.572 2.134 2.248 2.411.664z"/><path d="m95.343 355.167c3.587-.146 7.064-.992 10.333-2.469.615-.278.764-1.171.448-1.71-.37-.633-1.093-.727-1.71-.448-2.848 1.286-5.952 2-9.071 2.127-.675.027-1.25.555-1.25 1.25 0 .656.572 1.278 1.25 1.25z"/><path d="m71.253 309.274c.889-1.587 1.737-2.683 3.056-3.937.307-.292.624-.573.951-.842l.235-.19c.308-.248-.187.136.13-.101.162-.12.325-.24.49-.355.728-.509 1.494-.959 2.289-1.354.587-.291.797-1.17.449-1.71-.388-.601-1.082-.76-1.71-.448-3.371 1.672-6.21 4.395-8.047 7.676-.32.571-.156 1.391.448 1.71.588.311 1.367.161 1.709-.449z"/><path d="m40.532 247.354c4.806 1.947 10.081 2.673 15.235 2.1.671-.075 1.25-.521 1.25-1.25 0-.618-.575-1.325-1.25-1.25-4.969.552-9.936-.134-14.57-2.011-.626-.254-1.374.276-1.538.873-.196.715.245 1.284.873 1.538z"/><path d="m184.129 441.472c-5.68-5.738-9.431-13.296-10.451-21.318-.2-1.574-2.703-1.594-2.5 0 1.107 8.706 5 16.839 11.183 23.086 1.133 1.144 2.901-.623 1.768-1.768z"/><path d="m385.324 54.042c-5.367 1.632-9.703 5.771-11.653 11.018-.235.633.262 1.37.873 1.538.699.192 1.301-.238 1.538-.873 1.633-4.394 5.434-7.911 9.907-9.271 1.535-.468.88-2.882-.665-2.412z"/><path d="m326.364 48.601c.32 1.451.64 2.903.96 4.354.141.639.918 1.073 1.538.873.672-.217 1.024-.853.873-1.538-.32-1.451-.64-2.903-.96-4.354-.141-.639-.918-1.074-1.538-.873-.672.218-1.024.853-.873 1.538z"/><path d="m270.632 66.429c.015 1.276.03 2.553.045 3.829.008.654.569 1.28 1.25 1.25.671-.03 1.258-.549 1.25-1.25-.015-1.276-.03-2.553-.045-3.829-.008-.654-.569-1.28-1.25-1.25-.671.031-1.259.55-1.25 1.25z"/><path d="m230.018 84.364c1.713 6.889-.08 14.45-4.753 19.806-1.054 1.207.708 2.983 1.768 1.768 5.275-6.044 7.335-14.444 5.396-22.238-.388-1.561-2.8-.9-2.411.664z"/><path d="m30.562 54.43c.146 10.938 4.299 21.556 11.576 29.716 1.073 1.203 2.836-.57 1.768-1.768-6.833-7.661-10.707-17.689-10.844-27.948-.022-1.608-2.522-1.612-2.5 0z"/><path d="m23.139 118.175c3.315-1.599 7.006-2.229 10.666-1.927.674.056 1.25-.614 1.25-1.25 0-.723-.574-1.194-1.25-1.25-4.107-.339-8.223.481-11.928 2.268-.608.293-.77 1.16-.448 1.71.363.622 1.1.744 1.71.449z"/><path d="m90.966 17.697c3.983 3.958 6.811 8.92 8.197 14.36.397 1.558 2.809.898 2.411-.664-1.488-5.841-4.565-11.215-8.84-15.463-1.143-1.136-2.912.631-1.768 1.767z"/><path d="m144.533 34.842c.82-3.713 3.09-6.98 6.315-8.983 1.364-.847.11-3.011-1.262-2.159-3.753 2.331-6.51 6.154-7.464 10.476-.145.659.199 1.352.873 1.538.627.173 1.392-.21 1.538-.872z"/><path d="m197.778 57.665c-.428 1.548-.928 2.738-1.739 4.117-.807 1.373-1.618 2.402-2.756 3.523-.481.474-.475 1.293 0 1.768.482.482 1.285.475 1.768 0 2.442-2.405 4.224-5.441 5.138-8.743.174-.63-.215-1.388-.873-1.538-.661-.151-1.351.198-1.538.873z"/><path d="m24.732 184.754c3.08-3.744 7.263-6.394 11.976-7.538 1.563-.379.901-2.791-.665-2.411-5.09 1.235-9.751 4.134-13.08 8.18-.429.521-.51 1.258 0 1.768.443.443 1.338.525 1.769.001z"/><path d="m370.244 202.642c-7.41 15.956-15.699 31.5-24.818 46.544s-19.062 29.588-29.757 43.555c-10.672 13.936-22.115 27.286-34.231 39.986-12.144 12.729-24.973 24.803-38.422 36.143-13.471 11.359-27.567 21.971-42.214 31.766-1.793 1.199-3.595 2.385-5.404 3.56-1.344.873-.093 3.039 1.262 2.159 14.786-9.605 29.037-20.027 42.681-31.195 13.718-11.228 26.817-23.21 39.226-35.868 12.364-12.611 24.044-25.893 34.972-39.766 10.911-13.851 21.087-28.278 30.441-43.224 9.404-15.026 17.98-30.57 25.66-46.546.935-1.944 1.855-3.895 2.763-5.852.674-1.45-1.481-2.722-2.159-1.262z"/></g></g></svg>