<svg width="113" height="119" viewBox="0 0 113 119" fill="none" xmlns="http://www.w3.org/2000/svg">
<g id="001-heart 1" clip-path="url(#clip0_52_573)">
<g id="Group">
<path id="Vector" d="M108.004 8.21167C106.341 -2.32388 101.447 8.51655 99.1289 12.5375C96.8105 16.5585 99.5183 21.4712 99.5183 21.4712C99.5183 21.4712 106.136 22.5208 108.454 18.5001C110.772 14.4791 117.648 4.90622 108.004 8.21167Z" fill="#FFDCBD"/>
<path id="Vector_2" d="M55.791 115.264C55.791 115.264 -16.9534 78.3321 3.68766 43.2996C24.3287 8.26729 55.791 44.988 55.791 44.988C55.791 44.988 81.0411 6.57888 101.682 37.3905C122.323 68.2022 55.791 115.264 55.791 115.264Z" fill="#F8627F"/>
<path id="Vector_3" d="M0.441989 111.236C0.441989 111.236 -1.98323 97.2845 4.52754 96.7697C11.0383 96.2549 9.4328 104.328 9.4328 104.328C9.4328 104.328 16.8288 104.136 14.9156 110.093C13.0026 116.05 0.441989 111.236 0.441989 111.236Z" fill="#F44770"/>
<path id="Vector_4" d="M97.6815 41.3664C96.4348 42.795 93.0269 41.6337 90.0698 38.7719C87.1126 35.9104 85.7259 32.4324 86.9726 31.0034C88.2193 29.5745 91.6272 30.7361 94.5844 33.5978C97.5418 36.4596 98.9283 39.9377 97.6815 41.3664Z" fill="white"/>
<path id="Vector_5" d="M101.159 45.5718C101.159 46.9356 100.109 48.041 98.8142 48.041C97.5191 48.041 96.4694 46.9353 96.4694 45.5718C96.4694 44.2079 97.5193 43.1025 98.8142 43.1025C100.109 43.1022 101.159 44.2079 101.159 45.5718Z" fill="white"/>
<path id="Vector_6" d="M51.7137 94.2354C40.3415 91.1252 29.9527 83.9016 21.615 75.3187C13.4272 66.8903 6.9413 56.582 7.07883 44.0904C7.10524 41.6873 7.40497 39.4088 7.93316 37.2452C6.47888 38.9708 5.05898 40.9725 3.68766 43.2996C-16.9534 78.3321 55.791 115.264 55.791 115.264C55.791 115.264 67.5581 106.939 79.6596 95.0015C70.386 96.6614 60.7359 96.7031 51.7137 94.2354Z" fill="#F44770"/>
<g id="Group_2">
<path id="Vector_7" d="M85.9845 40.6052C92.5535 32.6294 98.6388 24.1213 104.191 15.3324C105.625 13.0625 107.016 10.7612 108.312 8.40084C108.541 7.98235 107.927 7.60452 107.697 8.02249C102.699 17.1265 96.6212 25.6549 90.3887 33.8529C88.7884 35.9577 87.159 38.0383 85.4812 40.0752C85.1822 40.4381 85.6835 40.9704 85.9845 40.6052Z" fill="#4F021B"/>
<path id="Vector_8" d="M8.94646 105.233C16.5976 100.835 24.0472 96.0558 31.272 90.9195C31.6497 90.651 31.2939 90.0011 30.9127 90.2722C23.6879 95.4085 16.2386 100.187 8.58718 104.586C8.18505 104.817 8.54383 105.465 8.94646 105.233Z" fill="#4F021B"/>
<path id="Vector_9" d="M30.2903 85.4389C29.9323 88.8225 31.0064 92.2644 33.1628 94.7932C33.4695 95.1529 33.9715 94.6214 33.6661 94.2632C31.6273 91.8727 30.6646 88.627 31.0019 85.4391C31.0527 84.9603 30.3407 84.964 30.2903 85.4389Z" fill="#4F021B"/>
<path id="Vector_10" d="M28.3983 88.0676C29.8095 90.6474 32.4612 92.3321 35.2825 92.4635C35.7405 92.4848 35.7397 91.7352 35.2825 91.7139C32.7103 91.5943 30.2966 90.0363 29.0129 87.6893C28.7845 87.2713 28.1691 87.6484 28.3983 88.0676Z" fill="#4F021B"/>
<path id="Vector_11" d="M86.6821 45.6004C87.0401 42.2167 85.966 38.7748 83.8094 36.246C83.5027 35.8863 83.0007 36.4179 83.3061 36.776C85.3449 39.1666 86.3076 42.4125 85.9703 45.6001C85.9194 46.0789 86.6318 46.0753 86.6821 45.6004Z" fill="#4F021B"/>
<path id="Vector_12" d="M88.5739 42.9716C87.1627 40.3919 84.511 38.7072 81.6896 38.576C81.2317 38.5547 81.2327 39.3043 81.6896 39.3256C84.2619 39.4452 86.6756 41.0032 87.9592 43.35C88.188 43.7679 88.8034 43.3906 88.5739 42.9716Z" fill="#4F021B"/>
<path id="Vector_13" d="M103.06 5.62488C103.571 8.04558 104.195 10.4366 104.932 12.792C104.998 13.0027 105.171 13.084 105.37 13.0539C107.543 12.7235 109.728 12.4997 111.92 12.3754C112.376 12.3496 112.379 11.5998 111.92 11.6257C109.664 11.7535 107.417 11.991 105.181 12.331C105.327 12.4184 105.473 12.5055 105.618 12.5929C104.882 10.2378 104.257 7.84644 103.746 5.42573C103.647 4.95503 102.96 5.15417 103.06 5.62488Z" fill="#4F021B"/>
<path id="Vector_14" d="M100.086 10.7389C100.597 13.1596 101.221 15.5507 101.958 17.906C102.024 18.1167 102.196 18.1981 102.396 18.1679C104.569 17.8375 106.754 17.6137 108.946 17.4894C109.402 17.4637 109.405 16.7138 108.946 16.7398C106.69 16.8675 104.443 17.105 102.207 17.445C102.353 17.5324 102.499 17.6195 102.644 17.7069C101.908 15.3518 101.283 12.9605 100.772 10.5397C100.673 10.069 99.9864 10.2682 100.086 10.7389Z" fill="#4F021B"/>
</g>
</g>
</g>
<defs>
<clipPath id="clip0_52_573">
<rect width="113" height="119" fill="white"/>
</clipPath>
</defs>
</svg>
