<?xml version="1.0" encoding="UTF-8"?>
<!-- Generator: Adobe Illustrator 27.1.1, SVG Export Plug-In . SVG Version: 6.00 Build 0)  -->
<svg xmlns="http://www.w3.org/2000/svg" xmlns:xlink="http://www.w3.org/1999/xlink" version="1.1" id="Capa_1" x="0px" y="0px" viewBox="0 0 512 512" style="enable-background:new 0 0 512 512;" xml:space="preserve" width="512" height="512">
<g>
	<path style="fill:#FFFFFF;" d="M510.349,237.942c-18.949-109.377-134.355-124.448-221.507-83.62   c-6.093-33.986-18.953-61.966-65.037-79.068c-3.744-1.234-7.96-0.086-10.556,2.966c-7.07,8.913,5.661,13.337-6.384,23.588   c-7.965,6.277-22.032,8.276-31.648,12.56c-44.451,10.8-83.689,54.796-90.137,99.891c-10.327-18.096-33.007-28.137-53.677-28.122   c-8.377,0.134-22.077,0.385-21.364,11.873c0.41,4.938,4.424,8.803,9.374,9.025c0.642,0.029,2.433,1.509,3.567,4.236   c1.983,5.023,2.545,11.305,4.539,16.707c-16.5-4.523-33.191,14.228-25.66,30.21c3.885,10.247,15.104,13.507,24.323,16.869   c7.443,2.771,15.067,5.435,22.823,7.978c-5.334,1.665-10.759,3.053-16.256,4.157c-14.793,3.051-13.137,24.948,1.973,25.638   c4.772,0.203,9.595,0.221,14.373,0.063c-6.335,8.455-15.279,29.413,1.501,31.087c7.645-0.336,7.303-7.055,17.715-4.772   c7.977,1.5,15.972,4.789,24.58,4.658c22.121,0.018,41.313-16.383,50.153-37.203c22.566,4.066,71.097,13.016,104.841,13.324   c19.285-0.149,39.782-0.723,60.304,0.108c-44.514,14.658-46.418,77.953-7.193,101.377c36.42,24.229,92.827,18.663,130.885-4.044   C491.161,383.685,519.371,302.788,510.349,237.942z"/>
	<g>
		<g>
			<path style="fill:#9C3621;" d="M463.366,249.503c-35.403,11.774-71.918,20.283-108.811,25.667     c-24.551,3.583-49.307,5.758-74.107,6.518c-15.312,0.469-35.108,2.061-116.454-6.844c-47.321-5.18-93.312-19.441-137.606-36.88     c-6.483-2.553-13.443,1.556-15.877,7.625c-2.568,6.403,1.569,13.492,7.624,15.877c3.755,1.478,7.522,2.925,11.303,4.332     c16.041,5.97,32.311,11.225,48.761,15.853c-13.558,6.897-28.283,12.076-43.69,15.171c-1.521,0.306-2.591,1.668-2.498,3.216     c0.095,1.582,1.366,2.855,2.95,2.922c25.188,1.071,51.195-3.233,75.772-13.029c4.922,1.128,9.853,2.222,14.8,3.249     c31.861,6.609,80.727,14.907,113.214,16.735c9.603,0.54,26.266-0.237,48.467-0.152c14.863,0.057,33.558,1.1,49.265,0.958     c48.329-0.436,85.293-0.046,101.708-4.03c15.085-3.662,10.38-26.411,25.179-31.137V249.503z"/>
			<g>
				<path style="fill:#00B2A7;" d="M19.676,197.165c15.983-3.417,33.323,0.536,46.396,10.345      c21.051,15.795,16.908,46.275,16.908,46.275c-13.176-8.284-17.656-2.829-26.933-7.328c-9.278-4.5-16.58-12.909-19.734-22.725      c-1.721-5.356-2.257-11.076-4.417-16.271C29.737,202.266,25.297,197.418,19.676,197.165z"/>
				<path style="fill:#9C3621;" d="M49.278,209.906c17.129,17.683,29.612,38.397,36.892,61.796c0,0,3.402-0.797,3.402-0.797      C85.59,246.298,70.434,223.052,49.278,209.906L49.278,209.906z"/>
			</g>
			<g>
				<path style="fill:#00B2A7;" d="M89.495,303.646c-9.043-0.759-18.336,2.006-25.493,7.584      c-7.158,5.578-12.109,13.914-13.582,22.868c4.72-5.059,12.539-5.79,19.36-4.632c6.821,1.158,13.363,3.849,20.259,4.412      c10.736,0.877,21.494-3.636,29.495-10.848c8.001-7.212,13.443-16.917,16.989-27.089c0,0-15.579,12.715-23.54,12.171      C105.022,307.567,97.447,304.313,89.495,303.646z"/>
				<path style="fill:#9C3621;" d="M70.99,315.197c31.739-12.983,37.177,23.538,71.029-31.017c0,0,2.245,1.372,2.245,1.372      C110.87,341.301,100.682,304.67,70.99,315.197L70.99,315.197z"/>
			</g>
		</g>
		<g>
			<g>
				<path style="fill:#00B2A7;" d="M500.448,239.508l-11.196-34.907c-3.664-7.342-8.221-14.508-13.76-21.425      c-6.389-7.972-14.054-14.699-22.553-20.194l-30.848-13.995c-11.753-3.502-24.077-5.378-36.255-5.745      c-2.125-0.059-4.308-0.073-6.521-0.044l-33.559,3.415c-11.562,2.11-23.301,5.173-34.511,9.115l-31.39,14.303      c-0.113-0.453-0.406-1.558-0.51-1.945c0.522,1.73,4.161-62.9-58.783-83.499c4.304,8.401-0.364,19.088-7.778,24.929      c-7.415,5.841-16.902,8.162-25.903,11.003c-2.909,0.918-5.848,1.949-8.68,3.181c-17.176,4.253-33.235,13.577-46.503,25.404      c-21.586,19.256-37.746,49.647-38.215,79.572v0.953c0,41.458,40.809,52.466,94.371,52.466c1.969,0,36.493,0.291,67.738,0.143      c4.252-0.02,5.275-0.59,9.451-0.605c53.055-0.192,109.375,0.059,122.817,2.367c8.03,1.378,16.325,3.986,21.821,10.009      c4.675,5.129,6.756,12.178,7.225,19.11c1.187,17.527-7.298,34.775-19.901,47.012c-15.884,15.421-38.979,26.557-61.064,28.868      c-6.913,0.724-14.163-0.039-20.241-3.409c-24.095-13.359-2.511-46.426,20.342-40.274c6.365,1.714,12.257,6.177,11.758,13.401      c-0.236,3.414-2.181,6.563-4.81,8.752c-2.629,2.189-5.893,3.497-9.216,4.31c5.009,1.957,10.691,1.717,15.832,0.138      c10.508-3.227,21.591-10.985,26.618-20.978c12.746-25.337-19.989-34.826-38.767-32.501      c-14.528,1.799-29.419,8.341-39.975,18.614c-9.543,8.636-15.783,22.672-15.002,36.137      c4.191,72.438,149.213,79.486,198.13-23.066c3.576-7.488,7.078-15.812,10.185-24.752l9.482-37.633      C502.661,272.1,503.116,255.745,500.448,239.508z"/>
			</g>
			<path style="opacity:0.38;fill:#192037;" d="M387.857,283.999c8.031,1.378,16.325,3.986,21.821,10.009     c3.838,4.211,5.925,9.716,6.81,15.388c2.597-5.115,3.508-10.803,1.248-16.38c-6.402-15.797-31.371-19.156-45.876-21.425     c-21.956-3.434-44.238-4.78-66.448-4.071c-10.986,0.351-21.955,1.206-32.862,2.568c-9.868,1.232-21.336,1.624-29.942,6.98     c-2.249,1.4-4.025,3.38-5.923,5.211c6.241,0,12.637-0.012,18.904-0.042c4.252-0.02,5.276-0.59,9.451-0.605     C318.095,281.441,374.415,281.691,387.857,283.999z"/>
			<g>
				<g>
					<path style="fill:#00B2A7;" d="M295.677,254.338c-4.932-3.25-11.369-3.352-17.108-1.958       c-14.819,3.602-26.609,17.181-28.226,32.328c-6.023-0.727-12.154-0.977-17.7,2.024c-2.609,1.412-4.783,3.585-5.943,6.315       c-2.07,4.872-0.35,9.084,2.283,12.798c1.33,1.876,4.077,1.993,5.553,0.229c2.917-3.488,6.305-6.581,10.048-9.164       c-0.416,4.156,1.668,8.351,4.972,10.861c1.892,1.437,4.582,0.446,5.357-1.801c0.61-1.77,1.609-3.408,2.925-4.74       c2.51,4.147,7.03,6.944,11.817,7.586c2.155,0.289,4.051-1.498,3.913-3.667c-0.207-3.244,0.417-6.542,1.831-9.471       c11,0.174,21.765-6.911,25.954-17.084C304.781,270.271,303.195,259.294,295.677,254.338z"/>
				</g>
				<path style="opacity:0.19;fill:#FFFFFF;" d="M285.646,249.389c-1.954-0.458-4.075-0.281-5.245,0.767      c-1.057,0.946-1.151,2.363-1.008,3.696c0.367,3.403,1.991,6.791,2.72,10.199c0.634,2.965,0.588,5.937,1.488,8.891      c0.358,1.176,0.88,2.365,1.827,3.395c0.947,1.03,2.374,1.889,3.932,2.11c1.482,0.211,2.919-0.174,3.995-0.825      c2.96-1.792,3.618-4.45,3.979-7.3c0.227-1.792,0.185-3.631-0.118-5.472c-0.607-3.68-2.263-7.38-4.917-10.723      c-1.331-1.676-2.988-3.326-5.238-4.279C286.611,249.658,286.133,249.504,285.646,249.389z"/>
			</g>
			<g>
				<g>
					<path style="fill:#00B2A7;" d="M412.431,254.965c-4.865-3.349-11.299-3.58-17.065-2.301       c-14.888,3.303-26.949,16.643-28.87,31.755c-6.007-0.848-12.131-1.221-17.737,1.668c-2.637,1.359-4.854,3.488-6.069,6.195       c-2.369,5.28-0.195,9.861,2.762,13.882c1.012,1.376,3.036,1.407,4.131,0.097c3.138-3.758,6.824-7.058,10.909-9.757       c-0.561,4.664,2.038,9.441,6.026,11.841c1.467,0.883,3.346,0.037,3.807-1.612c0.595-2.128,1.746-4.103,3.331-5.644       c2.636,4.56,7.676,7.574,12.907,7.965c1.613,0.121,2.946-1.233,2.8-2.845c-0.32-3.531,0.355-7.155,1.961-10.318       c10.994,0.396,21.9-6.472,26.293-16.559C421.213,271.077,419.848,260.07,412.431,254.965z"/>
				</g>
				<path style="opacity:0.19;fill:#FFFFFF;" d="M398.268,257.263c-1.954-0.458-4.075-0.281-5.245,0.767      c-1.057,0.946-1.151,2.363-1.008,3.696c0.367,3.403,1.991,6.791,2.72,10.199c0.634,2.965,0.588,5.937,1.488,8.891      c0.358,1.176,0.88,2.365,1.827,3.395c0.947,1.03,2.374,1.889,3.932,2.11c1.482,0.211,2.919-0.174,3.995-0.825      c2.96-1.792,3.618-4.45,3.978-7.3c0.227-1.792,0.185-3.631-0.118-5.473c-0.607-3.68-2.263-7.38-4.917-10.723      c-1.331-1.676-2.988-3.326-5.238-4.279C399.234,257.532,398.756,257.378,398.268,257.263z"/>
			</g>
			<g>
				<path style="fill:#F77800;" d="M316.782,194.167c-0.132,3.84-0.659,7.738-2.286,11.226c-1.641,3.488-4.528,6.521-8.206,7.635      c-5.701,1.715-11.958-1.583-15.49-6.375c-3.546-4.777-4.982-10.757-6.331-16.56c-1.7-7.342-3.415-14.669-5.129-22.011      c0.19,0.659,0.351,1.304,0.513,1.949c9.496-5.583,20.194-10.375,31.39-14.303c0.601,2.682,1.157,5.364,1.714,8.031      C315.053,173.782,317.178,183.923,316.782,194.167z"/>
				<path style="fill:#F77800;" d="M379.856,185.652c-0.659,3.796-1.715,7.591-3.81,10.815c-2.096,3.224-5.364,5.847-9.173,6.433      c-5.877,0.923-11.621-3.195-14.464-8.426c-2.858-5.217-3.458-11.343-4.001-17.263c-0.733-8.001-1.466-16.017-2.198-24.019      c-0.176-2.286-0.337-4.484-0.454-6.58c11.577-2.11,22.993-3.283,33.559-3.415c0.366,3.942,0.63,7.899,0.909,11.826      C380.94,165.239,381.643,175.57,379.856,185.652z"/>
				<path style="fill:#F77800;" d="M452.938,162.982c-0.293,0.791-0.586,1.583-0.894,2.359c-3.678,9.555-7.415,19.227-13.277,27.609      c-2.213,3.151-4.763,6.155-8.031,8.192c-3.268,2.037-7.342,3.019-11.035,1.949c-5.715-1.641-9.174-7.811-9.555-13.746      c-0.381-5.95,1.656-11.738,3.679-17.351c2.711-7.562,5.437-15.124,8.148-22.685c0.044-0.103,0.088-0.22,0.117-0.322      C433.037,152.211,443.515,156.842,452.938,162.982z"/>
				<path style="fill:#F77800;" d="M500.448,239.508c-7.459,6.375-15.05,12.749-23.828,17.146c-3.429,1.729-7.107,3.151-10.947,3.4      c-3.84,0.234-7.884-0.821-10.639-3.517c-4.25-4.176-4.367-11.24-1.876-16.648c2.491-5.408,7.034-9.54,11.475-13.511      c5.979-5.364,11.973-10.727,17.952-16.105c2.316-2.037,4.543-3.927,6.668-5.671      C494.938,215.943,498.514,227.696,500.448,239.508z"/>
				<path style="fill:#F77800;" d="M500.272,287.736c-2.008,13.248-5.408,25.953-9.482,37.633      c-7.151,1.832-14.376,3.297-21.718,3.488c-3.854,0.088-7.782-0.176-11.357-1.597c-3.576-1.407-6.785-4.103-8.133-7.708      c-2.081-5.583,0.835-12.031,5.378-15.856c4.558-3.84,10.434-5.642,16.135-7.357c7.694-2.301,15.402-4.616,23.096-6.932      C496.301,288.806,498.323,288.249,500.272,287.736z"/>
			</g>
			<g>
				<g>
					<g>
						<path style="fill:#FFFFFF;" d="M152.257,171.083c-12.383,11.213-13.328,30.355-2.143,42.713        c6.296,6.952,15.15,10.281,23.872,9.832c6.77-0.306,13.445-2.905,18.835-7.79c0.521-0.484,1.041-0.969,1.515-1.531        c10.701-11.09,11.315-28.598,1.291-40.418c-0.21-0.295-0.416-0.524-0.637-0.778c-5.402-5.976-12.683-9.258-20.121-9.783        C166.884,162.709,158.678,165.27,152.257,171.083z"/>
					</g>
				</g>
				<path style="fill:#192037;" d="M163.443,168.12c-11.437,8.331-14.807,24.519-7.635,36.681      c5.567,9.441,15.833,14.372,26.07,13.589c8.841-0.676,16.525-6.795,19.455-15.169c3.43-9.804,1.68-21.083-5.446-29.487      c-0.21-0.295-0.416-0.524-0.637-0.778c-2.367-2.619-5.095-4.72-8.039-6.298c-7.429-3.984-16.632-3.618-23.515,1.281      C163.612,167.998,163.528,168.059,163.443,168.12z"/>
			</g>
			<g>
				<path style="fill:#192037;" d="M177.812,146.906c7.884-5.455,19.136-2.428,25.555,3.967c2.172,2.101,3.997,4.518,5.203,7.302      c0.145,0.336-0.008,0.727-0.344,0.873c-0.192,0.084-0.411,0.065-0.583-0.027c-4.902-2.69-9.24-5.649-14.209-7.778      c-4.934-2.163-9.709-2.992-15.255-3.136C177.559,148.119,177.295,147.24,177.812,146.906L177.812,146.906z"/>
			</g>
			<g>
				<g>
					<path style="fill:#192037;" d="M121.489,257.262c0,0,9.242,0.683,22.339-6.194c13.691-7.19,18.678-18.753,18.678-18.753       c0.385-0.355,1.005-0.327,1.324,0.103c-3.156,17.957-24.493,33.156-42.477,26.566       C120.53,258.694,120.636,257.408,121.489,257.262L121.489,257.262z"/>
				</g>
			</g>
			<path style="fill:#192037;" d="M111.593,235.853c-1.819-1.524-4.424-2.073-6.699-1.384c-2.857,0.865-4.566,3.321-5.08,6.151     c0.673-0.563,1.37-1.098,2.088-1.602c1.473-1.036,3.198-2.067,5.07-1.66c1.261,0.274,2.249,1.092,2.892,2.186     c0.539,0.917,0.834,1.956,1.06,2.995c0.098,0.453,0.188,0.918,0.417,1.32c0.229,0.403,0.632,0.74,1.095,0.756     c0.406,0.014,0.79-0.223,1.038-0.544c0.249-0.321,0.379-0.717,0.472-1.112c0.57-2.436-0.25-5.148-2.075-6.859     C111.782,236.015,111.688,235.933,111.593,235.853z"/>
			
				<ellipse transform="matrix(0.2298 -0.9732 0.9732 0.2298 -53.4877 406.1021)" style="fill:#F57486;" cx="229.822" cy="236.843" rx="34.659" ry="34.659"/>
			<path style="opacity:0.19;fill:#FFFFFF;" d="M234.062,104.272c-2.81,0.572-5.337,2.67-5.995,5.904     c-0.595,2.921,0.385,6.096,1.599,8.896c3.098,7.147,7.765,13.247,11.322,20.114c3.095,5.974,5.34,12.51,8.76,18.245     c1.362,2.283,2.939,4.462,4.927,5.952s4.446,2.218,6.576,1.446c2.025-0.733,3.533-2.734,4.379-5.023     c2.331-6.305,1.096-12.649-0.659-19.172c-1.104-4.101-2.581-8.09-4.39-11.874c-3.614-7.56-8.563-14.318-14.487-19.489     c-2.971-2.594-6.332-4.867-9.896-5.137C235.483,104.082,234.764,104.129,234.062,104.272z"/>
			<path style="opacity:0.19;fill:#FFFFFF;" d="M441.55,169.999c-4.565,0.929-8.67,4.339-9.74,9.593     c-0.966,4.746,0.625,9.904,2.597,14.454c5.034,11.613,12.616,21.523,18.395,32.681c5.028,9.707,8.676,20.326,14.233,29.645     c2.212,3.709,4.775,7.25,8.005,9.671c3.23,2.42,7.223,3.603,10.684,2.35c3.29-1.192,5.74-4.441,7.115-8.162     c3.787-10.243,1.78-20.551-1.072-31.15c-1.793-6.664-4.194-13.144-7.133-19.292c-5.872-12.282-13.913-23.262-23.537-31.665     c-4.827-4.214-10.288-7.908-16.079-8.346C443.859,169.69,442.69,169.767,441.55,169.999z"/>
		</g>
	</g>
</g>















</svg>
