<?xml version="1.0" encoding="UTF-8"?>
<!-- Generator: Adobe Illustrator 27.1.1, SVG Export Plug-In . SVG Version: 6.00 Build 0)  -->
<svg xmlns="http://www.w3.org/2000/svg" xmlns:xlink="http://www.w3.org/1999/xlink" version="1.1" id="Capa_1" x="0px" y="0px" viewBox="0 0 512 512" style="enable-background:new 0 0 512 512;" xml:space="preserve" width="512" height="512">
<g>
	<path style="fill:#FFFFFF;" d="M503.061,94.704c-31.87-3.821-70.049-4.161-94.284,18.017   c-12.579-21.84-41.966-30.909-66.879-34.158c-7.692-1.131-15.246-1.92-23.615-2.762c-3.913-0.565-7.905,1.276-9.93,4.737   c-4.685,9.449-1.347,14.909,0.313,20.411c6.768,18.87,17.184,36.821,30.187,52.282c-20.748,10.235-44.949,18.665-67.832,15.479   c-10.706-1.366-21.55-5.943-32.021-10.43c-55.573-28.335-120.773-8.751-159.871,38.875c-8.059-6.45-17.127-13.642-26.311-20.877   c-7.744-6.129-11.242-9.823-18.871-4.545c-3.49,3.057-4.373,8.136-2.12,12.191c8.698,15.67,16.134,32.055,23.941,48.165   c-6.184,11.861-11.652,24.609-15.414,37.529c-16.994-11.431-38.12,8.835-27.411,26.306c-16.39,7.415-17.539,31.805-1.599,40.623   c-9.53,11.634-9.733,30.026-0.145,41.852c14.784,20.161,48.124,15.945,57.717-6.709c40.86,42.541,120.582,56.526,182.563,50.407   c28.977,14.613,64.391,20.762,94.604,4.707c18.056-10.25,23.446-31.688,12.978-48.83c3.256-2.509,6.445-5.111,9.55-7.803   c1.548,9.526,10.506,17.062,20.199,16.883c24.98-0.43,27.863-36.304,3.295-40.718c2.533-3.016,5-6.109,7.378-9.275   c23.878-0.731,39.771-28.899,28.01-49.751c12.762-33.506,19.451-67.563,13.852-103.197c16.18-0.974,32.673-8.996,44.694-21.878   c12.61-13.513,21.279-32.316,25.765-55.884C512.98,100.838,508.684,95.111,503.061,94.704z"/>
	<g>
		<g>
			<g>
				<g>
					<path style="fill:#FFFFFF;" d="M478.914,155.636c-12.922,13.848-32.845,22.146-51.214,17.597       c5.059,11.32,6.022,24.006,5.858,36.372c-0.458,28.583-7.062,56.972-18.905,83.002c-9.132,20.02-21.439,38.603-36.408,54.785       c-34.418,37.154-82.804,61.002-133.206,65.608c-20.886,1.919-41.965,0.671-62.725-2.296       c-33.075-4.642-66.423-14.007-93.055-34.081c-4.266-3.223-8.369-6.787-12.148-10.59c-3.526-3.523-6.832-7.268-9.886-11.178       c-10.653-13.796-18.074-29.932-20.316-46.833c-0.782-5.727-0.943-11.546-0.467-17.353c0.252-3.17,0.74-6.312,1.377-9.454       c0,0,0,0-0.044-0.015c1.634-8.286,4.336-16.369,7.512-24.247c12.528-31.424,32.545-60.587,60.399-79.836       c27.853-19.249,64.05-27.727,96.555-18.344c17.572,5.026,33.597,14.917,51.459,18.757c2.95,0.623,5.854,1.083,8.758,1.395       c0,0,0,0,0.045,0.015c28.283,2.873,56.675-8.856,82.318-22.719c-0.074-0.074-0.104-0.133-0.179-0.206       c-16.651-16.996-29.558-37.741-37.349-60.258c-1.141-3.282-2.166-7.068-0.388-10.083c17.557,1.768,35.291,3.595,52.036,9.188       c17.991,6.002,36.702,20.175,35.414,39.121c8.543-15.974,25.972-25.682,43.696-29.231c13.818-2.76,27.977-2.353,42.095-1.22       c4.03,0.337,8.045,0.718,12.059,1.099C498.665,123.231,491.836,141.789,478.914,155.636z"/>
					<path style="opacity:0.56;fill:#F7D7B6;" d="M478.914,155.636c-12.922,13.848-32.845,22.146-51.214,17.597       c5.059,11.32,6.022,24.006,5.858,36.372c-0.458,28.583-7.062,56.972-18.905,83.002c-9.132,20.02-21.439,38.603-36.408,54.785       c-34.418,37.154-82.804,61.002-133.206,65.608c-20.886,1.919-41.965,0.671-62.725-2.296       c-33.075-4.642-66.423-14.007-93.055-34.081c-4.266-3.223-8.369-6.787-12.148-10.59c-3.526-3.523-6.832-7.268-9.886-11.178       c-10.653-13.796-18.074-29.932-20.316-46.833c-0.782-5.727-0.943-11.546-0.467-17.353c0.252-3.17,0.74-6.312,1.377-9.454       c0,0,0,0-0.044-0.015c1.634-8.286,4.336-16.369,7.512-24.247c12.528-31.424,32.545-60.587,60.399-79.836       c27.853-19.249,64.05-27.727,96.555-18.344c17.572,5.026,33.597,14.917,51.459,18.757c2.95,0.623,5.854,1.083,8.758,1.395       c0,0,0,0,0.045,0.015c28.283,2.873,56.675-8.856,82.318-22.719c-0.074-0.074-0.104-0.133-0.179-0.206       c-16.651-16.996-29.558-37.741-37.349-60.258c-1.141-3.282-2.166-7.068-0.388-10.083c17.557,1.768,35.291,3.595,52.036,9.188       c17.991,6.002,36.702,20.175,35.414,39.121c8.543-15.974,25.972-25.682,43.696-29.231c13.818-2.76,27.977-2.353,42.095-1.22       c4.03,0.337,8.045,0.718,12.059,1.099C498.665,123.231,491.836,141.789,478.914,155.636z"/>
					<path style="opacity:0.3;fill:#F57486;" d="M490.146,103.533c-3.86,15.831-10.454,31.113-21.497,42.967       c-12.914,13.856-32.84,22.151-51.21,17.598c5.063,11.318,6.018,24.009,5.862,36.373c-0.458,28.588-7.065,56.98-18.906,83.003       c-9.132,20.018-21.444,38.61-36.412,54.781c-34.41,37.158-82.807,61.01-133.206,65.615c-20.882,1.923-41.96,0.667-62.723-2.303       c-33.076-4.632-66.426-14-93.052-34.07c-0.641-0.458-1.269-0.968-1.897-1.465c-3.519-3.52-6.83-7.262-9.878-11.174       c-6.503-8.439-11.815-17.741-15.465-27.567l-1.779-55.148c1.478-5.142,3.297-10.205,5.299-15.19       c12.534-31.427,32.552-60.591,60.408-79.837s64.045-27.724,96.558-18.343c17.571,5.024,33.586,14.915,51.458,18.762       c31.165,6.673,62.828-6.005,91.115-21.313c-16.721-17.074-29.726-37.838-37.524-60.46c-1.152-3.284-2.172-7.078-0.393-10.088       c17.558,1.766,35.287,3.598,52.034,9.185c17.99,6.005,36.7,20.175,35.418,39.12c8.543-15.975,25.971-25.683,43.699-29.229       C461.872,101.989,476.028,102.395,490.146,103.533z"/>
					<g style="opacity:0.36;">
						<path style="fill:#F57486;" d="M371.646,354.178c-33.822,33.233-79.235,54.454-126.441,58.811        c-1.491-3.153-2.551-6.503-3.075-9.931c-0.458-2.865-0.549-5.796-0.222-8.687c0.929-8.256,10.184-8.86,15.304-15.409        c10.806-13.82,46.255-29.9,59.954-31.862c13.869-1.976,28.601-3.833,41.711,0.366c2.12,0.667,4.2,1.505,6.228,2.525        C367.42,351.156,369.605,352.556,371.646,354.178z"/>
					</g>
					<g>
						<path style="fill:#192037;" d="M71.459,284.678c5.326-2.206,10.363-3.503,15.99-3.586c5.7-0.258,10.985,0.999,16.818,1.489        c0.355,0.048,0.692-0.211,0.703-0.577c-8.799-8.822-26.736-8.976-34.263,1.763C70.36,284.251,70.923,284.93,71.459,284.678        L71.459,284.678z"/>
					</g>
				</g>
				<g>
					<path style="fill:#FFFFFF;" d="M319.541,425.519c-32.16,4.135-65.787-7.835-88.773-30.606       c-2.158-2.137-3.133-4.872-3.086-7.568c-0.021-4.442,2.684-8.779,7.37-10.445c17.046-5.989,42.831-14.877,46.382-15.338       c21.178-2.81,43.765-2.102,61.217,12.151c2.334,1.899,4.403,4.155,6.206,6.62c2.847,3.941,4.823,8.433,5.511,13.095       c0.443,2.856,0.383,5.744-0.3,8.575C350.7,416.472,334.296,423.658,319.541,425.519z"/>
				</g>
				<g style="opacity:0.56;">
					<path style="fill:#F7D7B6;" d="M319.541,425.519c-32.16,4.135-65.787-7.835-88.773-30.606       c-2.158-2.137-3.133-4.872-3.086-7.568c-0.021-4.442,2.684-8.779,7.37-10.445c17.046-5.989,42.831-14.877,46.382-15.338       c21.178-2.81,43.765-2.102,61.217,12.151c2.334,1.899,4.403,4.155,6.206,6.62c2.847,3.941,4.823,8.433,5.511,13.095       c0.443,2.856,0.383,5.744-0.3,8.575C350.7,416.472,334.296,423.658,319.541,425.519z"/>
				</g>
				<g style="opacity:0.3;">
					<path style="fill:#F57486;" d="M319.541,425.519c-32.16,4.135-65.787-7.835-88.773-30.606       c-2.158-2.137-3.133-4.872-3.086-7.568c-0.021-4.442,2.684-8.779,7.37-10.445c17.046-5.989,42.831-14.877,46.382-15.338       c21.178-2.81,43.765-2.102,61.217,12.151c2.334,1.899,4.403,4.155,6.206,6.62c2.847,3.941,4.823,8.433,5.511,13.095       c0.443,2.856,0.383,5.744-0.3,8.575C350.7,416.472,334.296,423.658,319.541,425.519z"/>
				</g>
				<g style="opacity:0.46;">
					<path style="fill:#F57486;" d="M154.869,228.72c3.25,0.774,6.878-0.211,10.023-1.585c3.799-1.66,7.491-3.884,11.622-4.23       c4.342-0.364,9.513,1.15,12.531-1.993c2.672-2.782,1.502-7.703-1.388-10.26c-6.155-5.444-18.743-6.171-26.34-4.619       c-5.037,1.029-9.967,3.902-12.176,8.544c-2.21,4.642-0.817,11.077,3.759,13.42C153.535,228.323,154.194,228.56,154.869,228.72z       "/>
					<path style="fill:#F57486;" d="M293.491,244.859c-2.576-2.036-6.184-2.957-9.24-4.45c-5.637-2.754-8.228-10.325-14.147-11.715       c-6.48-1.521-16.177,4.772-16.68,11.441c-0.318,4.209,2.437,8.03,5.497,10.938c4.845,4.605,10.825,8.008,17.259,9.821       c4.929,1.389,10.478,1.781,14.949-0.717c4.471-2.498,7.105-8.646,4.437-13.017       C295.008,246.249,294.301,245.499,293.491,244.859z"/>
					<path style="fill:#F57486;" d="M196.049,194.117c1.087-0.666,2.014-1.549,2.642-2.666c2.014-3.581,0.207-8.336-2.959-10.954       c-12.41-10.257-34.546-6.6-46.995,1.263c-2.603,1.644-5.116,3.627-6.568,6.342c-1.452,2.714-1.616,6.301,0.286,8.721       c1.764,2.245,4.888,3.024,7.732,2.781c2.845-0.243,5.534-1.341,8.25-2.223c7.72-2.508,15.985-3.323,24.046-2.371       c2.929,0.346,5.87,0.922,8.805,0.634C192.947,195.48,194.635,194.983,196.049,194.117z"/>
					<path style="fill:#F57486;" d="M124.284,236.447c3.823-4.536,6.938-9.729,8.418-13.018c1.644-3.653,2.856-8.038,0.903-11.534       c-1.687-3.02-5.403-4.478-8.858-4.307c-3.455,0.17-6.694,1.701-9.676,3.454c-4.834,2.841-9.379,6.458-12.219,11.293       c-2.84,4.834-3.741,11.048-1.309,16.1C107.613,251.037,117.175,244.88,124.284,236.447z"/>
					<path style="fill:#F57486;" d="M198.423,211.468c0.438,0.565,0.913,1.101,1.38,1.596c4.524,4.799,9.295,9.763,15.515,11.959       c6.22,2.195,14.307,0.62,17.373-5.22c2.096-3.991,1.321-9.099-1.253-12.799c-6.955-9.997-21.007-9.036-30.873-4.533       c-1.501,0.685-3.059,1.585-3.705,3.104C196.011,207.57,197.028,209.666,198.423,211.468z"/>
					<path style="fill:#F57486;" d="M227.893,263.102c4.338,0.194,8.697-0.858,12.176-3.411c5.2-3.816,7.783-11.277,5.074-17.13       c-2.575-5.562-9.086-8.445-15.216-8.464c-6.129-0.02-12,2.293-17.654,4.66c-2.366,0.991-4.835,2.082-6.383,4.127       c-5.963,7.88,10.083,17.181,15.694,19.048C223.61,262.606,225.749,263.006,227.893,263.102z"/>
					<path style="fill:#F57486;" d="M313.495,196.528c-8.027-3.53-16.889,4.201-23.144,8.914       c-4.804,3.62-10.013,7.923-10.643,13.905c-0.569,5.398,3.123,10.659,8.021,12.997c4.899,2.338,10.702,2.13,15.909,0.598       c8.201-2.413,15.695-8.522,17.9-16.782c1.822-6.825-0.964-16.263-7.739-19.493       C313.698,196.619,313.597,196.573,313.495,196.528z"/>
					<path style="fill:#F57486;" d="M372.24,187.652c2.29-6.77,1.023-15.011-4.83-18.924c-4.75-3.176-11.206-2.689-16.401-0.309       c-6.056,2.776-10.961,7.973-13.382,14.18c-2.358,6.047-3.549,27.023,6.325,27.607c3.417,0.202,6.574-1.674,9.465-3.507       c6.813-4.32,13.813-9.074,17.598-16.199C371.498,189.594,371.907,188.639,372.24,187.652z"/>
					<path style="fill:#F57486;" d="M333.679,229.044c-7.405-8.883-11.049,8.891-10.574,13.435c0.172,1.651,0.664,3.477,2.104,4.303       c1.369,0.785,3.177,0.348,4.412-0.635c1.235-0.983,2.023-2.407,2.771-3.797c1.124-2.09,2.245-4.229,2.688-6.561       C335.52,233.472,335.202,230.898,333.679,229.044z"/>
					<path style="fill:#F57486;" d="M278.564,199.703c-2.183-15.46-23.079-0.857-26.496,4.12c-1.242,1.809-2.204,4.075-0.972,6.178       c1.171,1.999,4.036,3.159,6.606,3.266c2.57,0.107,4.923-0.625,7.191-1.357c3.409-1.101,6.858-2.256,9.551-4.202       C277.122,205.773,278.989,202.91,278.564,199.703z"/>
					<path style="fill:#F57486;" d="M216.283,181.37c4.407,2.009,9.055,3.462,13.803,4.419c0.774,0.3,1.506,0.675,2.102,1.248       c1.049,1.007,1.522,2.455,2.253,3.712c1.469,2.527,4.12,4.333,7.01,4.775c2.889,0.443,5.959-0.488,8.117-2.46       c0.496-0.453,0.973-1.024,0.976-1.696c0.003-0.563-0.329-1.067-0.648-1.531c-1.511-2.199-3.021-4.399-4.532-6.599       c-1.397-2.034-2.808-4.085-4.595-5.787c-2.726-2.598-6.193-4.26-9.648-5.757c-3.167-1.372-6.471-2.66-9.922-2.702       c-3.451-0.042-7.117,1.404-8.844,4.391c-0.658,1.139-1.007,2.514-0.677,3.788C212.218,179.254,214.326,180.478,216.283,181.37z       "/>
				</g>
				<g>
					<g>
						<path style="fill:#C2B2BC;" d="M85.318,223.358c1.364-1.705,4.28-1.639,6.514,0.147c2.234,1.786,2.939,4.616,1.576,6.321        c-1.364,1.705-4.28,1.639-6.514-0.147C84.661,227.894,83.955,225.063,85.318,223.358z"/>
						<path style="fill:#C2B2BC;" d="M77.202,215.07c0.879-1.099,2.759-1.057,4.199,0.095c1.44,1.152,1.895,2.976,1.016,4.076        c-0.879,1.099-2.759,1.057-4.199-0.095C76.778,217.994,76.323,216.169,77.202,215.07z"/>
					</g>
					<g>
						<path style="fill:#FFFFFF;" d="M117.939,380.409c-0.788,2.036-3.589,2.849-6.257,1.817c-2.667-1.033-4.191-3.52-3.403-5.556        c0.788-2.036,3.589-2.849,6.257-1.817C117.204,375.885,118.727,378.373,117.939,380.409z"/>
						<path style="fill:#FFFFFF;" d="M128.17,385.875c-0.508,1.312-2.314,1.837-4.034,1.171c-1.719-0.665-2.702-2.269-2.193-3.582        c0.508-1.313,2.314-1.837,4.033-1.171C127.696,382.959,128.679,384.563,128.17,385.875z"/>
					</g>
					<g>
						<path style="fill:#FFFFFF;" d="M348.734,130.138c-1.505,1.581-4.405,1.265-6.477-0.708c-2.071-1.972-2.531-4.852-1.026-6.434        c1.505-1.581,4.405-1.264,6.477,0.708C349.78,125.676,350.239,128.557,348.734,130.138z"/>
						<path style="fill:#FFFFFF;" d="M356.106,139.095c-0.97,1.019-2.84,0.815-4.175-0.456c-1.336-1.271-1.632-3.128-0.661-4.148        c0.97-1.019,2.84-0.815,4.175,0.456C356.78,136.218,357.076,138.075,356.106,139.095z"/>
					</g>
					<g>
						<path style="fill:#FFFFFF;" d="M288.832,411.251c-0.004-2.183,2.311-3.957,5.171-3.963c2.86-0.005,5.182,1.76,5.186,3.943        c0.004,2.183-2.311,3.957-5.171,3.963C291.159,415.199,288.836,413.434,288.832,411.251z"/>
						<path style="fill:#FFFFFF;" d="M277.314,409.869c-0.003-1.407,1.49-2.551,3.334-2.555c1.844-0.004,3.341,1.134,3.344,2.542        c0.003,1.407-1.49,2.551-3.334,2.555C278.814,412.414,277.317,411.276,277.314,409.869z"/>
					</g>
				</g>
				<g>
					
						<ellipse transform="matrix(0.8724 -0.4888 0.4888 0.8724 -150.77 136.9823)" style="fill:#F57486;" cx="187.006" cy="357.293" rx="28.211" ry="28.211"/>
				</g>
				<g>
					<path style="fill:#F57486;" d="M70.877,311.172c-3.65,8.387-10.886,14.091-19.115,16.119       c-2.329-6.241-3.977-12.704-4.854-19.272c-0.785-5.718-0.942-11.54-0.471-17.349c0.262-3.166,0.746-6.306,1.387-9.46       c0,0,0,0-0.052-0.013c0.602-3.049,1.347-6.058,2.211-9.054c2.12,0.366,4.226,0.994,6.293,1.897       C70.55,280.268,77.092,296.884,70.877,311.172z"/>
				</g>
				<g>
					<g>
						<path style="fill:#192037;" d="M144.973,299.72c4.976,2.911,9.053,6.141,12.519,10.575c3.65,4.386,5.842,9.357,8.976,14.3        c0.176,0.312,0.586,0.424,0.885,0.212c1.713-12.342-9.002-26.727-22.107-26.236        C144.649,298.586,144.448,299.445,144.973,299.72L144.973,299.72z"/>
					</g>
					<g>
						<g>
							<path style="fill:#192037;" d="M138.469,323.349c-2.781,7.114-2.258,13.967,1.167,15.307         c3.425,1.34,8.455-3.341,11.236-10.455c2.78-7.114,2.258-13.967-1.167-15.307         C146.28,311.554,141.249,316.235,138.469,323.349z"/>
						</g>
					</g>
					<g>
						<g>
							<path style="fill:#192037;" d="M78.369,296.26c-2.618,7.176-1.939,14.015,1.515,15.276         c3.455,1.261,8.377-3.533,10.995-10.709c2.618-7.175,1.939-14.014-1.516-15.276C85.909,284.291,80.986,289.085,78.369,296.26         z"/>
						</g>
					</g>
				</g>
				<g>
					<g>
						<path style="fill:#192037;" d="M88.85,329.186c0,0,4.745,5.325,15.669,8.533c11.419,3.353,20.367-0.372,20.367-0.372        c0.403,0.01,0.731,0.357,0.677,0.766c-11.358,8.24-31.292,5.224-37.709-8.047C87.553,329.464,88.301,328.81,88.85,329.186        L88.85,329.186z"/>
					</g>
				</g>
				<g>
					<path style="fill:#F7D7B6;" d="M127.287,297.826c-2.292,0.677-4.779,0.896-7.283,0.567c-10.165-1.315-18.867-9.64-24.71-17.521       c-23.173-31.063-36.097-67.979-54.782-101.611c0.357,0.265,2.646,2.002,6.287,4.872c16.722,13.175,62.547,49.403,83.502,68.452       c4.209,3.845,8.287,8.239,10.769,13.292c0,0,0.045,0.015,0.03,0.059c1.884,3.871,2.882,8.19,2.163,12.933       C142.046,287.391,135.554,295.462,127.287,297.826z"/>
					<g style="opacity:0.36;">
						<path style="fill:#FFFFFF;" d="M73.493,238.121c5.761-7.058,8.88-16.322,9.011-25.563c-4.781-3.854-9.465-7.608-13.862-11.114        c-0.463,5.312-2.839,10.422-6.407,14.631C65.836,223.51,69.578,230.865,73.493,238.121z"/>
						<path style="fill:#FFFFFF;" d="M87.689,261.624c3.937-4.025,7.086-8.781,9.099-14.281c2.455-6.709,3.188-13.8,2.831-20.867        c-4.158-3.415-8.395-6.866-12.601-10.271c-0.883,9.707-4.743,19.203-11.148,26.359        C79.512,249.088,83.493,255.419,87.689,261.624z"/>
						<path style="fill:#FFFFFF;" d="M120.418,271.645c1.956-5.92,2.552-12.169,2.568-18.378c0.007-2.559-0.238-5.091-0.525-7.616        c-5.381-4.662-11.566-9.865-18.095-15.264c-0.057,6.545-1.042,13.056-3.424,19.2c-2.388,6.156-6.043,11.464-10.575,15.935        c0.89,1.253,1.686,2.561,2.608,3.796c4.786,6.456,11.512,13.146,19.37,16.1C115.934,281.548,118.693,276.867,120.418,271.645z        "/>
						<path style="fill:#FFFFFF;" d="M140.945,267.315c0.057-0.474,0.114-0.948,0.156-1.378c0.015-0.044-0.03-0.059-0.03-0.059        c-2.482-5.053-6.56-9.447-10.769-13.292c-0.861-0.783-1.767-1.596-2.709-2.434c0.07,1.983,0.093,3.966,0.026,5.95        c-0.221,6.586-1.183,13.232-3.615,19.389c-1.652,4.184-3.897,7.965-6.631,11.281c0.105,0.015,0.204,0.053,0.31,0.067        c2.504,0.329,4.991,0.11,7.283-0.567C133.233,283.908,139.726,275.836,140.945,267.315z"/>
						<path style="fill:#FFFFFF;" d="M63.94,197.698c-6.969-5.541-12.963-10.272-17.14-13.564        c4.514,9.015,8.822,18.156,13.19,27.264C62.9,207.359,64.524,202.551,63.94,197.698z"/>
					</g>
				</g>
			</g>
			<g>
				<g style="opacity:0.8;">
					<g>
						<path style="fill:#00B2A7;" d="M62.045,360.684c-1.661,13.22-13.727,22.594-26.947,20.933S12.505,367.89,14.166,354.67        c1.661-13.22,13.727-22.591,26.947-20.93S63.706,347.464,62.045,360.684z"/>
						<path style="fill:#00B2A7;" d="M62.045,360.684c-1.661,13.22-13.727,22.594-26.947,20.933S12.505,367.89,14.166,354.67        c1.661-13.22,13.727-22.591,26.947-20.93S63.706,347.464,62.045,360.684z"/>
						<path style="opacity:0.41;fill:#00B2A7;" d="M60.268,364.669c-4.078,11.597-17.265,17.522-29.45,13.24        c-12.187-4.29-18.758-17.163-14.678-28.759c4.079-11.596,17.261-17.521,29.448-13.235        C57.773,340.203,64.346,353.074,60.268,364.669z"/>
						<path style="opacity:0.32;fill:#FFFFFF;" d="M58.87,358.549c-0.318,1.371-0.972,2.658-2.089,3.834        c-2.417,2.56-5.774,2.592-8.341,0.2c-3.233-3.013-3.389-7.927-7.541-10.445c-3.848-2.332-9.599-2.945-11.177-7.83        c-1.226-3.785,1.631-6.253,4.768-7.208c4.391-1.336,8.573-0.288,12.696,1.481c6.054,2.594,10.497,8.442,11.658,14.888        C59.163,355.25,59.243,356.956,58.87,358.549z"/>
						<path style="opacity:0.32;fill:#FFFFFF;" d="M21.432,365.884c0.099-0.73,0.377-1.433,0.902-2.101        c1.136-1.452,2.884-1.632,4.339-0.51c1.832,1.414,2.153,3.968,4.44,5.079c2.12,1.028,5.148,1.068,6.208,3.539        c0.823,1.914-0.546,3.339-2.135,3.99c-2.225,0.91-4.456,0.567-6.691-0.155c-3.282-1.058-5.884-3.891-6.802-7.195        C21.44,367.618,21.315,366.733,21.432,365.884z"/>
						<path style="fill:#00B2A7;" d="M49.564,343.458c-0.527,1.407-3.235,1.691-6.043,0.639c-2.811-1.049-4.663-3.041-4.135-4.445        c0.525-1.406,3.229-1.695,6.04-0.64C48.238,340.063,50.087,342.054,49.564,343.458z M54.309,347.551        c-1.05-1.542-2.532-2.37-3.306-1.84c-0.773,0.526-0.542,2.204,0.509,3.749c1.054,1.544,2.534,2.367,3.309,1.843        C55.591,350.774,55.364,349.097,54.309,347.551z"/>
					</g>
				</g>
				<g style="opacity:0.8;">
					<g>
						<path style="fill:#00B2A7;" d="M421.441,306.273c-1.661,13.22-13.727,22.594-26.947,20.933        c-13.22-1.661-22.593-13.727-20.932-26.947c1.661-13.22,13.727-22.591,26.947-20.93S423.102,293.053,421.441,306.273z"/>
						<path style="fill:#00B2A7;" d="M421.441,306.273c-1.661,13.22-13.727,22.594-26.947,20.933        c-13.22-1.661-22.593-13.727-20.932-26.947c1.661-13.22,13.727-22.591,26.947-20.93S423.102,293.053,421.441,306.273z"/>
						<path style="opacity:0.41;fill:#00B2A7;" d="M419.664,310.257c-4.078,11.597-17.265,17.522-29.451,13.24        c-12.187-4.29-18.758-17.163-14.678-28.759c4.08-11.596,17.261-17.521,29.448-13.235        C417.169,285.791,423.742,298.663,419.664,310.257z"/>
						<path style="opacity:0.32;fill:#FFFFFF;" d="M418.266,304.137c-0.318,1.371-0.972,2.658-2.089,3.834        c-2.417,2.56-5.773,2.592-8.341,0.2c-3.233-3.013-3.389-7.927-7.541-10.445c-3.848-2.331-9.599-2.945-11.177-7.83        c-1.225-3.785,1.631-6.253,4.768-7.208c4.391-1.336,8.573-0.288,12.696,1.481c6.054,2.594,10.497,8.442,11.658,14.888        C418.559,300.839,418.639,302.544,418.266,304.137z"/>
						<path style="opacity:0.32;fill:#FFFFFF;" d="M380.827,311.473c0.099-0.73,0.377-1.433,0.903-2.101        c1.135-1.452,2.884-1.632,4.339-0.51c1.832,1.414,2.153,3.968,4.44,5.079c2.12,1.028,5.148,1.068,6.208,3.539        c0.823,1.914-0.546,3.339-2.135,3.99c-2.225,0.91-4.456,0.567-6.691-0.155c-3.283-1.058-5.884-3.891-6.802-7.195        C380.836,313.207,380.711,312.321,380.827,311.473z"/>
						<path style="fill:#00B2A7;" d="M408.96,289.047c-0.527,1.407-3.235,1.691-6.043,0.639c-2.811-1.049-4.663-3.041-4.135-4.445        c0.525-1.406,3.229-1.695,6.04-0.64C407.634,285.651,409.483,287.642,408.96,289.047z M413.705,293.139        c-1.05-1.542-2.532-2.37-3.306-1.84c-0.773,0.526-0.542,2.204,0.509,3.749c1.053,1.544,2.534,2.367,3.308,1.843        C414.987,296.363,414.76,294.685,413.705,293.139z"/>
					</g>
				</g>
				<g style="opacity:0.8;">
					<g>
						<path style="fill:#00B2A7;" d="M377.417,341.629c-1.228,9.773-10.148,16.703-19.921,15.475        c-9.773-1.228-16.702-10.148-15.475-19.922c1.228-9.773,10.148-16.701,19.921-15.473        C371.715,322.938,378.645,331.856,377.417,341.629z"/>
						<path style="fill:#00B2A7;" d="M377.417,341.629c-1.228,9.773-10.148,16.703-19.921,15.475        c-9.773-1.228-16.702-10.148-15.475-19.922c1.228-9.773,10.148-16.701,19.921-15.473        C371.715,322.938,378.645,331.856,377.417,341.629z"/>
						<path style="opacity:0.41;fill:#00B2A7;" d="M376.103,344.575c-3.015,8.574-12.763,12.953-21.772,9.788        c-9.009-3.172-13.867-12.688-10.851-21.26c3.016-8.572,12.761-12.953,21.77-9.784        C374.259,326.488,379.118,336.004,376.103,344.575z"/>
						<path style="opacity:0.32;fill:#FFFFFF;" d="M375.07,340.051c-0.235,1.014-0.718,1.965-1.544,2.835        c-1.787,1.893-4.268,1.916-6.166,0.148c-2.39-2.227-2.505-5.86-5.575-7.722c-2.845-1.723-7.096-2.177-8.263-5.788        c-0.906-2.798,1.206-4.622,3.525-5.329c3.246-0.988,6.338-0.213,9.385,1.095c4.476,1.917,7.76,6.241,8.618,11.006        C375.286,337.612,375.346,338.873,375.07,340.051z"/>
						<path style="opacity:0.32;fill:#FFFFFF;" d="M347.393,345.474c0.073-0.54,0.279-1.059,0.667-1.553        c0.84-1.074,2.132-1.207,3.208-0.377c1.354,1.045,1.591,2.934,3.282,3.755c1.567,0.76,3.806,0.79,4.59,2.616        c0.608,1.415-0.404,2.469-1.579,2.95c-1.645,0.673-3.294,0.419-4.947-0.114c-2.427-0.782-4.35-2.876-5.029-5.319        C347.399,346.755,347.306,346.101,347.393,345.474z"/>
						<path style="fill:#00B2A7;" d="M368.19,328.895c-0.39,1.04-2.391,1.25-4.468,0.473c-2.078-0.776-3.447-2.248-3.057-3.286        c0.388-1.039,2.387-1.253,4.465-0.473C367.21,326.385,368.577,327.857,368.19,328.895z M371.698,331.92        c-0.776-1.14-1.872-1.752-2.444-1.361c-0.571,0.388-0.401,1.63,0.377,2.772c0.779,1.142,1.873,1.75,2.446,1.362        C372.646,334.303,372.478,333.063,371.698,331.92z"/>
					</g>
				</g>
				<g style="opacity:0.8;">
					<g>
						<path style="fill:#00B2A7;" d="M399.448,367.996c-0.734,5.84-6.063,9.98-11.902,9.246c-5.839-0.734-9.979-6.063-9.246-11.903        c0.734-5.839,6.063-9.978,11.902-9.245C396.041,356.828,400.181,362.157,399.448,367.996z"/>
						<path style="fill:#00B2A7;" d="M399.448,367.996c-0.734,5.84-6.063,9.98-11.902,9.246c-5.839-0.734-9.979-6.063-9.246-11.903        c0.734-5.839,6.063-9.978,11.902-9.245C396.041,356.828,400.181,362.157,399.448,367.996z"/>
						<path style="opacity:0.41;fill:#00B2A7;" d="M398.663,369.756c-1.801,5.123-7.626,7.74-13.008,5.848        c-5.383-1.895-8.285-7.581-6.483-12.703c1.802-5.122,7.624-7.739,13.007-5.846        C397.561,358.949,400.464,364.635,398.663,369.756z"/>
						<path style="opacity:0.32;fill:#FFFFFF;" d="M398.046,367.053c-0.141,0.606-0.429,1.174-0.922,1.694        c-1.068,1.131-2.55,1.145-3.684,0.088c-1.428-1.331-1.497-3.502-3.331-4.614c-1.7-1.03-4.24-1.301-4.937-3.459        c-0.541-1.672,0.72-2.762,2.106-3.184c1.94-0.59,3.787-0.127,5.608,0.654c2.674,1.146,4.637,3.729,5.149,6.576        C398.175,365.596,398.21,366.349,398.046,367.053z"/>
						<path style="opacity:0.32;fill:#FFFFFF;" d="M381.509,370.293c0.044-0.323,0.167-0.633,0.399-0.928        c0.502-0.642,1.274-0.721,1.917-0.225c0.809,0.624,0.951,1.753,1.961,2.243c0.936,0.454,2.274,0.472,2.742,1.563        c0.364,0.845-0.241,1.475-0.943,1.763c-0.983,0.402-1.968,0.25-2.956-0.068c-1.45-0.467-2.599-1.719-3.005-3.178        C381.512,371.059,381.457,370.668,381.509,370.293z"/>
						<path style="fill:#00B2A7;" d="M393.935,360.387c-0.233,0.622-1.429,0.747-2.669,0.282c-1.242-0.464-2.06-1.343-1.826-1.963        c0.232-0.621,1.426-0.749,2.668-0.283C393.349,358.887,394.166,359.767,393.935,360.387z M396.031,362.195        c-0.464-0.681-1.118-1.047-1.46-0.813c-0.341,0.232-0.239,0.974,0.225,1.656c0.465,0.682,1.119,1.046,1.461,0.814        C396.597,363.619,396.497,362.878,396.031,362.195z"/>
					</g>
				</g>
				<g style="opacity:0.8;">
					<g>
						<path style="fill:#00B2A7;" d="M35.965,318.405c-0.904,7.198-7.473,12.301-14.671,11.397        c-7.197-0.904-12.3-7.474-11.396-14.671c0.904-7.197,7.473-12.299,14.67-11.395C31.767,304.64,36.87,311.208,35.965,318.405z"/>
						<path style="fill:#00B2A7;" d="M35.965,318.405c-0.904,7.198-7.473,12.301-14.671,11.397        c-7.197-0.904-12.3-7.474-11.396-14.671c0.904-7.197,7.473-12.299,14.67-11.395C31.767,304.64,36.87,311.208,35.965,318.405z"/>
						<path style="opacity:0.41;fill:#00B2A7;" d="M34.998,320.575c-2.22,6.314-9.4,9.54-16.034,7.209        c-6.635-2.336-10.212-9.344-7.991-15.657c2.221-6.313,9.398-9.539,16.032-7.206C33.639,307.255,37.218,314.262,34.998,320.575        z"/>
						<path style="opacity:0.32;fill:#FFFFFF;" d="M34.237,317.243c-0.173,0.747-0.529,1.447-1.137,2.087        c-1.316,1.394-3.143,1.411-4.541,0.109c-1.76-1.64-1.845-4.316-4.105-5.687c-2.095-1.269-5.226-1.603-6.085-4.263        c-0.667-2.061,0.888-3.404,2.596-3.924c2.391-0.727,4.668-0.157,6.912,0.806c3.296,1.412,5.715,4.596,6.347,8.105        C34.396,315.447,34.44,316.376,34.237,317.243z"/>
						<path style="opacity:0.32;fill:#FFFFFF;" d="M13.854,321.237c0.054-0.398,0.205-0.78,0.491-1.144        c0.618-0.791,1.57-0.889,2.362-0.278c0.997,0.77,1.172,2.16,2.417,2.765c1.154,0.56,2.803,0.582,3.38,1.927        c0.448,1.042-0.297,1.818-1.163,2.172c-1.211,0.495-2.426,0.309-3.643-0.084c-1.787-0.576-3.203-2.118-3.703-3.917        C13.859,322.181,13.791,321.699,13.854,321.237z"/>
						<path style="fill:#00B2A7;" d="M29.171,309.027c-0.287,0.766-1.761,0.921-3.29,0.348c-1.53-0.571-2.538-1.656-2.251-2.42        c0.286-0.766,1.758-0.923,3.288-0.348C28.449,307.179,29.455,308.263,29.171,309.027z M31.754,311.255        c-0.572-0.84-1.379-1.29-1.8-1.002c-0.421,0.286-0.295,1.2,0.277,2.041c0.574,0.841,1.38,1.289,1.801,1.003        C32.452,313.01,32.328,312.097,31.754,311.255z"/>
					</g>
				</g>
				<g style="opacity:0.8;">
					<g>
						<path style="fill:#00B2A7;" d="M39.275,287.19c-0.664,5.285-5.488,9.032-10.772,8.368c-5.285-0.664-9.032-5.488-8.368-10.773        c0.664-5.285,5.488-9.031,10.773-8.367C36.192,277.082,39.939,281.905,39.275,287.19z"/>
						<path style="fill:#00B2A7;" d="M39.275,287.19c-0.664,5.285-5.488,9.032-10.772,8.368c-5.285-0.664-9.032-5.488-8.368-10.773        c0.664-5.285,5.488-9.031,10.773-8.367C36.192,277.082,39.939,281.905,39.275,287.19z"/>
						<path style="opacity:0.41;fill:#00B2A7;" d="M38.565,288.783c-1.631,4.636-6.902,7.005-11.774,5.293        c-4.872-1.715-7.499-6.861-5.868-11.497c1.631-4.636,6.9-7.004,11.772-5.291C37.568,279.002,40.195,284.148,38.565,288.783z"/>
						<path style="opacity:0.32;fill:#FFFFFF;" d="M38.006,286.336c-0.127,0.548-0.388,1.062-0.835,1.533        c-0.966,1.024-2.308,1.036-3.335,0.08c-1.292-1.204-1.355-3.169-3.014-4.176c-1.539-0.932-3.837-1.177-4.468-3.13        c-0.49-1.513,0.652-2.5,1.906-2.882c1.756-0.534,3.427-0.115,5.075,0.592c2.42,1.037,4.196,3.375,4.66,5.952        C38.123,285.018,38.155,285.7,38.006,286.336z"/>
						<path style="opacity:0.32;fill:#FFFFFF;" d="M23.039,289.269c0.04-0.292,0.151-0.573,0.361-0.84        c0.454-0.581,1.153-0.652,1.735-0.204c0.732,0.565,0.861,1.586,1.775,2.03c0.847,0.411,2.058,0.427,2.482,1.415        c0.329,0.765-0.218,1.335-0.854,1.595c-0.889,0.364-1.781,0.227-2.675-0.062c-1.312-0.423-2.352-1.555-2.719-2.876        C23.043,289.962,22.993,289.608,23.039,289.269z"/>
						<path style="fill:#00B2A7;" d="M34.286,280.304c-0.211,0.563-1.293,0.676-2.416,0.256c-1.124-0.419-1.864-1.216-1.653-1.777        c0.21-0.562,1.291-0.678,2.415-0.256C33.756,278.946,34.495,279.742,34.286,280.304z M36.183,281.94        c-0.42-0.617-1.012-0.947-1.322-0.736c-0.309,0.21-0.217,0.881,0.204,1.499c0.421,0.617,1.013,0.946,1.323,0.737        C36.695,283.229,36.605,282.558,36.183,281.94z"/>
					</g>
				</g>
			</g>
		</g>
	</g>
</g>















</svg>
