<?xml version="1.0" encoding="UTF-8"?>
<!-- Generator: Adobe Illustrator 27.1.1, SVG Export Plug-In . SVG Version: 6.00 Build 0)  -->
<svg xmlns="http://www.w3.org/2000/svg" xmlns:xlink="http://www.w3.org/1999/xlink" version="1.1" id="Capa_1" x="0px" y="0px" viewBox="0 0 512 512" style="enable-background:new 0 0 512 512;" xml:space="preserve" width="512" height="512">
<g>
	<path style="fill:#FFFFFF;" d="M492.905,356.83c-2-9.686-15.577-10.538-18.992-1.289c-1.526-4.426-6.654-7.332-11.34-6.197   c1.286-3.259,2.238-4.621,2.543-5.008c5.197-3.169,11.272-4.786,16.813-8.441c8.229-5.304,14.351-13.783,16.798-23.262   c2.918-10.073,0.86-35.796-14.068-33.476c-4.255,0.86-7.445,4.403-7.854,8.724c-1.159,4.339-10.319,6.933-14.657,9.048   c0.748-7.355,0.995-13.213-0.168-21.113c2.265-2.172,3.972-4.8,5.014-7.646c2.935,2.757,7.223,2.606,10.882,1.758   c5.107-0.824,8.705-5.458,8.239-10.609c-0.568-6.276-1.883-12.566-3.915-18.73c0.686-9.925-0.201-29.808-15.656-43.197   c-13.082-11.185-31.954-17.174-48.963-13.28c2.713-13.785-1.813-31.207-5.981-42.242c-0.851-2.48-1.656-4.823-2.308-6.994   c-2.002-7.532-12.721-9.497-17.262-3.139c-3.959-10.639-25.712-37.898-36.445-21.582c-7.823-5.546-16.301-10.169-25.209-13.713   c-3.18-1.276-6.853-0.772-9.572,1.289c-10.788-9.782-23.508-17.392-37.406-22.224c-4.463-1.577-9.594,0.333-11.893,4.61   c-1.462,2.699-1.544,5.82-0.426,8.494c-14.742-3.361-29.952-4.518-44.988-3.33c-6.763,0.346-11.176,8.165-8.084,14.124   c-13.612,0.098-27.11,1.936-40.139,5.465c-4.261,1.14-7.27,5.06-7.273,9.47c-10.516,1.545-20.868,4.096-30.963,7.636   c-4.698,1.586-7.516,6.758-6.324,11.563c-5.219,1.56-10.308,3.536-15.195,5.914c-5.837,2.665-7.306,10.774-3.047,15.482   c-4.981,1.003-9.874,2.445-14.653,4.321c-6.212,2.225-8.274,10.77-3.864,15.594c-10.241,10.492-18.94,22.584-25.547,35.591   c-2.641,4.984-0.183,11.529,5.05,13.575l-8.846,14.118c-2.994,4.596-1.317,11.167,3.477,13.79   c-4.242,9.701-7.832,19.69-10.731,29.864c-1.399,4.772,1.149,9.983,5.764,11.822l-4.395,7.882   c-4.896-1.847-10.841,1.038-12.481,5.88c-3.91-10.375-19.345-7.582-19.196,3.488c0.219,11.051-0.472,22.92-2.058,35.389   c-7.439-0.041-14.664,1.277-21.406,3.913c-10.532,4.139-6.671,20.057,4.529,18.975c4.883,3.505,5.595,11.983,9.22,17.058   c-3.278,13.02-6.664,23.574-9.023,30.375c-3.603,9.613,4.256,20.746,14.551,20.466c-0.026,0.01,471.237-3.513,471.253-3.507   c5.213-0.039,10.01-2.677,12.83-7.058c2.823-4.384,3.24-9.848,1.115-14.615C502.8,394.224,496.827,375.711,492.905,356.83z"/>
	<g>
		<g>
			<path style="fill:#00B2A7;" d="M39.534,310.665l12.87,26.439c3.924-8.164,5.9-17.256,5.717-26.312     c3.937,12.265,9.036,24.157,15.205,35.465c6.564-13.99,8.925-29.522,11.213-44.806c4.336,13.773,6.717,28.159,7.052,42.594     c7.365-6.624,11.816-16.378,11.994-26.282c1.883,8.465,5.582,16.522,10.774,23.467c5.876-3.192,9.826-9.661,9.98-16.346     c4.117,7.354,9.815,13.818,16.595,18.824l240.972,48.17c6.78-5.007,12.478-11.471,16.595-18.824     c0.154,6.685,4.103,13.155,9.98,16.346c5.193-6.945,8.892-15.002,10.774-23.467c0.178,9.904,4.629,19.658,11.994,26.282     c0.335-14.435,2.717-28.822,7.052-42.594c2.288,15.283,4.649,30.815,11.212,44.806c6.169-11.308,11.267-23.2,15.205-35.465     c-0.183,9.056,1.792,18.149,5.717,26.312l12.87-26.439c4.07,19.596,10.253,38.752,18.4,57.032     c1.632,3.661-1.016,7.787-5.024,7.816L25.543,427.19c-3.845,0.029-6.551-3.758-5.291-7.391     C26.335,402.265,40.442,356.416,39.534,310.665z"/>
		</g>
		<g>
			<g>
				<path style="fill:#F7D7B6;" d="M237.192,394.797v-10.269l-64.313-15.026l0.097,33.442c0.014,5.174,2.973,10.077,8.003,12.669      c7.018,3.617,20.381,2.724,32.686,2.724c21.191,0,35.955-3.679,35.955-12.189C249.62,401.655,244.83,397.613,237.192,394.797z"/>
				<path style="opacity:0.27;fill:#9C3621;" d="M237.192,394.797v-10.269l-64.313-15.026l0.097,33.442      c0.014,5.174,2.973,10.077,8.003,12.669c7.018,3.617,20.381,2.724,32.686,2.724c21.191,0,35.955-3.679,35.955-12.189      C249.62,401.655,244.83,397.613,237.192,394.797z"/>
			</g>
			<g>
				<path style="fill:#F7D7B6;" d="M377.894,384.711v-10.269H313.58l0.097,18.416c0.014,5.174,2.973,10.077,8.003,12.669      c7.018,3.617,20.381,2.724,32.686,2.724c21.191,0,35.956-3.679,35.956-12.189C390.321,391.57,385.531,387.527,377.894,384.711z"/>
				<path style="opacity:0.27;fill:#9C3621;" d="M377.894,384.711v-10.269H313.58l0.097,18.416      c0.014,5.174,2.973,10.077,8.003,12.669c7.018,3.617,20.381,2.724,32.686,2.724c21.191,0,35.956-3.679,35.956-12.189      C390.321,391.57,385.531,387.527,377.894,384.711z"/>
			</g>
			<g>
				<path style="fill:#F7D7B6;" d="M236.839,241.185c-65.514,0-117.43,36.316-118.623,81.079      c-0.457,17.154,3.096,30.179,9.829,40.074c-1.625,1.506-3.239,3.019-4.848,4.521c-10.597,9.888-22.011,19.802-36.015,23.537      c20.924,4.893,43.682,0.977,61.967-10.252c20.789,10.351,50.414,12.483,83.861,12.483c65.514,0,168.172,15.261,204.702-88.279      C452.609,262.12,302.353,241.185,236.839,241.185z"/>
			</g>
			<path style="fill:#F7D7B6;" d="M197.19,394.797v-10.269l-64.313-15.026l0.097,33.442c0.014,5.174,2.973,10.077,8.003,12.669     c7.018,3.617,20.381,2.724,32.685,2.724c21.191,0,35.956-3.679,35.956-12.189C209.618,401.655,204.828,397.613,197.19,394.797z"/>
			<path style="fill:#9C3621;" d="M399.902,137.71c-4.577,6.638-9.155,13.277-13.733,19.915     c2.266-16.892-6.857-34.735-21.877-42.788c3.755,6.077,5.446,13.405,4.734,20.513c-11.491-13.045-26.095-23.33-42.249-29.755     c4.655,5.833,6.664,13.7,5.375,21.051c-11.842-19.338-30.53-34.388-51.948-41.835c6.77,5.238,11.545,12.992,13.174,21.394     c-20.813-9.035-43.855-12.884-66.475-11.104c10.07,2.417,19.097,8.917,24.582,17.701c-23.33-5.221-47.928-4.676-71.003,1.575     c6.235,2.699,12.47,5.397,18.705,8.096c-19.079-0.517-38.247,2.481-56.257,8.797c6.753,2.62,13.506,5.24,20.259,7.86     c-14.041-0.132-28.102,3.037-40.729,9.18c3.592,4.922,7.185,9.845,10.777,14.767c-9.952-0.115-19.922,1.712-29.187,5.348     c3.506,1.094,7.012,2.187,10.518,3.281c-14.403,11.789-26.318,26.602-34.747,43.196c4.889-3.211,10.76-4.907,16.608-4.797     c-6.946,11.086-13.893,22.172-20.839,33.258c4.225-1.636,8.451-3.272,12.677-4.907c-7.935,14.59-14.254,30.058-18.804,46.03     c4.863-4.75,11.15-8.022,17.83-9.281c-5.885,10.555-11.77,21.11-17.654,31.664c3.451-1.894,6.901-3.788,10.352-5.682     c-0.935,11.936-1.871,23.872-2.806,35.808c2.602-4.047,5.203-8.094,7.805-12.141c-0.246,8.553-0.493,17.106-0.739,25.659     c4.206-4.49,9.84-5.973,15.985-6.182c-0.985,6.956-1.138,14.03-0.419,21.019c3.41-3.717,6.819-7.434,10.228-11.151     c-2.026,12.092,2.049,25.05,10.631,33.806c3.599-7.417,8.039-17.887,16.274-17.502c84.238,3.938,110.806-39.985,110.223-85.125     c23.318-8.778,48.75,4.379,72.068-4.399l79.208-74.907C417.286,176.999,405.038,154.807,399.902,137.71z"/>
			<path style="fill:#F7D7B6;" d="M318.021,394.797v-10.269h-64.313l0.097,18.416c0.014,5.174,2.973,10.077,8.003,12.669     c7.018,3.617,20.381,2.724,32.686,2.724c21.191,0,35.955-3.679,35.955-12.189C330.449,401.655,325.659,397.613,318.021,394.797z"/>
			<g>
				<path style="fill:#F7D7B6;" d="M396.333,224.74c-6.305-19.782-24.977-33.254-45.739-33.349      c-0.173-0.001-0.347-0.001-0.521-0.001c-33.031,0-62.4,14.239-81.224,36.351c-1.62-0.227-3.272-0.389-4.957-0.389      c-18.435,0-33.387,13.932-33.387,31.119c0,11.501,6.706,21.529,16.669,26.907v0.081c0,51.951,9.659,107.397,66.503,107.397      c54.678,0,107.395-25.91,129.947-68.179c6.292-11.793,9.347-25.222,9.347-39.219c0-9.995-4.892-28.657-4.892-28.657      C434.697,272.622,403.918,248.538,396.333,224.74z"/>
				<g>
					<path style="fill:#F57486;" d="M249.76,274.641c7.465,8.096,8.728-1.533,16.824-8.998c8.096-7.465,19.959-9.939,12.494-18.034       c-7.465-8.096-20.079-8.607-28.175-1.143C242.807,253.931,242.295,266.545,249.76,274.641z"/>
				</g>
				<path style="fill:#9C3621;" d="M403.493,223.793c-1.407-8.536-2.87-17.246-6.931-24.885      c-4.983-9.375-13.576-16.44-23.006-21.317c-9.431-4.876-19.746-7.756-30.009-10.474l-84.485,60.563      c14.904-2.551,30.02,8.203,37.074,17.349c-0.668-7.205-2.795-14.271-6.213-20.648c19.081-1.588,38.659,3.655,54.394,14.566      c-2.683-9.494-9.254-17.827-17.861-22.65c13.588-0.179,27.18,4.863,37.364,13.861c-0.612-8.471-4.256-16.691-10.122-22.833      c13.452,3.228,25.853,10.7,34.993,21.085c-3.081-5.917-6.162-11.833-9.243-17.75      C388.296,213.201,396.572,217.72,403.493,223.793z"/>
				<g>
					<g>
						<g>
							<path style="fill:#192037;" d="M339.107,247.633c-4.257,1.869-7.823,4.079-11.012,7.313c-3.331,3.178-5.55,6.964-8.52,10.637         c-0.171,0.234-0.509,0.286-0.728,0.087c-0.226-10.07,9.695-20.613,20.148-18.985         C339.472,246.753,339.554,247.462,339.107,247.633L339.107,247.633z"/>
						</g>
					</g>
					<g>
						<g>
							<path style="fill:#192037;" d="M371.933,239.886c4.618-0.543,8.811-0.441,13.197,0.735c4.48,1.055,8.307,3.198,12.727,4.864         c0.265,0.116,0.584-0.011,0.672-0.293c-4.897-8.802-18.784-12.874-26.978-6.18         C371.173,239.312,371.461,239.964,371.933,239.886L371.933,239.886z"/>
						</g>
					</g>
					<g>
						<g>
							<path style="fill:#192037;" d="M350.022,275.228c1.835,7.089,0.556,13.553-2.857,14.438         c-3.413,0.885-7.668-4.145-9.503-11.234c-1.835-7.089-0.556-13.553,2.857-14.438         C343.932,263.109,348.187,268.139,350.022,275.228z"/>
						</g>
					</g>
					<g>
						<g>
							<path style="fill:#192037;" d="M394.256,262.291c1.835,7.09,0.556,13.554-2.857,14.438         c-3.413,0.884-7.668-4.145-9.503-11.235c-1.835-7.089-0.556-13.553,2.857-14.437         C388.166,250.172,392.42,255.202,394.256,262.291z"/>
						</g>
					</g>
				</g>
				<g>
					<path style="fill:#192037;" d="M449.064,271.762c1.731-0.285,3.407-0.964,4.838-1.979c2.265-1.606,3.982-4.075,4.36-6.825       c0.344-2.502-0.446-5.108-1.991-7.106c-2.654-3.433-7.57-4.917-11.681-3.526c-8.255,2.793-9.919,15.154-1.407,18.787       C445.03,271.901,447.084,272.089,449.064,271.762z"/>
					<path style="opacity:0.39;fill:#FFFFFF;" d="M449.254,261.8c0.694-0.114,1.365-0.386,1.939-0.793       c0.908-0.643,1.596-1.633,1.747-2.735c0.138-1.003-0.179-2.047-0.798-2.847c-1.064-1.376-3.033-1.97-4.681-1.413       c-3.308,1.119-3.975,6.072-0.564,7.528C447.637,261.856,448.46,261.931,449.254,261.8z"/>
				</g>
				<g>
					<g>
						<path style="fill:#192037;" d="M353.171,299.709c0,0,6.484,5.838,20.196,8.273c14.335,2.546,24.714-3.184,24.714-3.184        c0.491-0.042,0.936,0.336,0.926,0.84c-12.705,11.543-37.348,10.549-46.931-4.726        C351.632,300.222,352.453,299.326,353.171,299.709L353.171,299.709z"/>
					</g>
				</g>
				
					<ellipse transform="matrix(0.9205 -0.3908 0.3908 0.9205 -103.3883 147.0088)" style="fill:#F57486;" cx="309.509" cy="327.531" rx="34.299" ry="34.299"/>
			</g>
		</g>
		<path style="opacity:0.34;fill:#FFFFFF;" d="M286.615,400.487c-0.487,1.503-0.089,3.309,1.433,4.55    c1.374,1.121,3.325,1.565,5.143,1.789c4.642,0.573,9.17,0.099,13.793,0.373c4.022,0.239,8.101,1.043,12.088,1.058    c1.587,0.006,3.18-0.121,4.524-0.641c1.344-0.52,2.419-1.483,2.609-2.719c0.182-1.175-0.451-2.467-1.421-3.527    c-2.673-2.919-6.367-4.15-10.302-5.184c-2.474-0.65-4.994-1.09-7.498-1.313c-5.004-0.446-9.96-0.026-14.352,1.314    c-2.203,0.672-4.346,1.621-5.489,3.243C286.914,399.756,286.737,400.112,286.615,400.487z"/>
		<path style="opacity:0.34;fill:#FFFFFF;" d="M161.074,400.487c-0.487,1.503-0.089,3.309,1.433,4.55    c1.374,1.121,3.325,1.565,5.143,1.789c4.641,0.573,9.17,0.099,13.793,0.373c4.022,0.239,8.101,1.043,12.088,1.058    c1.587,0.006,3.18-0.121,4.524-0.641c1.344-0.52,2.418-1.483,2.609-2.719c0.182-1.175-0.451-2.467-1.421-3.527    c-2.673-2.919-6.367-4.15-10.302-5.184c-2.474-0.65-4.994-1.09-7.498-1.313c-5.004-0.446-9.96-0.026-14.352,1.314    c-2.203,0.672-4.346,1.621-5.489,3.243C161.373,399.756,161.196,400.112,161.074,400.487z"/>
		<g>
			<path style="fill:#9C3621;" d="M421.262,193.254c13.81-1.952,28.334,2.45,38.876,11.582     c16.974,14.704,11.625,40.403,11.625,40.403c-10.72-7.84-14.86-3.464-22.488-7.85c-7.629-4.385-13.341-11.98-15.439-20.525     c-1.145-4.662-1.259-9.563-2.787-14.115C429.52,198.198,426.031,193.805,421.262,193.254z"/>
			<path style="fill:#192037;" d="M445.698,205.871c13.523,16.077,22.91,34.457,27.707,54.811c0,0,2.943-0.475,2.943-0.475     C474.431,239.021,462.92,218.327,445.698,205.871L445.698,205.871z"/>
		</g>
		<g>
			<path style="fill:#9C3621;" d="M9.807,359.335c12.991-5.075,28.138-4.13,40.497,2.334c19.9,10.408,20.602,36.648,20.602,36.648     c-12.236-5.165-15.258,0.045-23.69-2.469c-8.432-2.514-15.738-8.592-19.745-16.426c-2.186-4.274-3.424-9.018-5.957-13.096     C18.981,362.248,14.575,358.775,9.807,359.335z"/>
			<path style="fill:#192037;" d="M36.489,365.996c16.857,12.537,30.219,28.266,39.567,46.972c0,0,2.755-1.139,2.755-1.139     C72.074,391.652,56.114,374.159,36.489,365.996L36.489,365.996z"/>
		</g>
		<g>
			<path style="fill:#F77800;" d="M476.636,327.618c6.171-3.977,10.763-10.337,12.597-17.446c1.835-7.109,0.893-14.896-2.583-21.363     c-0.528,5.573-5.179,9.901-10.122,12.526c-4.944,2.625-10.465,4.13-15.163,7.173c-7.315,4.738-11.982,12.941-13.551,21.513     c-1.569,8.573-0.265,17.48,2.483,25.75c0,0,3.709-15.841,9.08-19.422C464.748,332.769,471.21,331.115,476.636,327.618z"/>
			<path style="fill:#192037;" d="M482.795,311.079c-13.935,23.99-35.449,3.265-30.217,54.944c0,0-2.116,0.229-2.116,0.229     C444.347,314.034,468.96,332.484,482.795,311.079L482.795,311.079z"/>
		</g>
	</g>
</g>















</svg>
