<?xml version="1.0" encoding="UTF-8"?>
<!-- Generator: Adobe Illustrator 27.1.1, SVG Export Plug-In . SVG Version: 6.00 Build 0)  -->
<svg xmlns="http://www.w3.org/2000/svg" xmlns:xlink="http://www.w3.org/1999/xlink" version="1.1" id="Capa_1" x="0px" y="0px" viewBox="0 0 512 512" style="enable-background:new 0 0 512 512;" xml:space="preserve" width="512" height="512">
<g>
	<path style="fill:#FFFFFF;" d="M21.537,261.132c-43.229,24.612-5.956,87.182,36.372,60.51   c6.945,14.572,16.973,28.561,29.619,41.264c-25.115,76.55,60.839,107.092,111.534,57.275   c58.362,11.558,129.049,0.014,171.53-31.917c16.324,22.976,40.024,40.178,67.075,40.045c32.745,0.569,56.274-27.736,50.152-60.064   c-3.296-20.82-17.573-39.879-36.109-52.054c34.03,0.93,57.314-39.172,39.885-68.255c29.109-9.359,26.436-51.741-3.947-57.079   c4.642-21.217-20.438-37.355-37.785-24.533C427.772,85.158,326.202,52.185,255.985,94.091   c-8.374-14.974-25.326-25.058-42.499-24.946c-25.326-0.153-47.632,20.861-60.345,42.829C88.945,1.926-20.308,123.684,87.687,182.07   c-1.474,1.187-2.921,2.427-4.338,3.721C30.338,139.033-34.428,218.816,21.537,261.132z"/>
	<g>
		<g>
			<g>
				<g>
					<path style="fill:#C2B2BC;" d="M352.542,301.047c-16.996,18.94,18.667,78.66,42.421,99.976       c23.754,21.316,56.788,23.241,73.784,4.301c16.996-18.94,11.518-51.574-12.236-72.89       C432.758,311.119,369.538,282.107,352.542,301.047z"/>
					<g>
						<path style="fill:#FFFFFF;" d="M467.308,356.956c-1.746,0.489-2.642,2.74-2.001,5.028c0.641,2.287,2.576,3.745,4.322,3.256        c1.746-0.49,2.642-2.74,2.001-5.028C470.989,357.925,469.054,356.467,467.308,356.956z"/>
						<path style="fill:#FFFFFF;" d="M463.604,348.061c-1.126,0.315-1.703,1.767-1.29,3.241c0.413,1.475,1.661,2.415,2.786,2.099        c1.126-0.315,1.703-1.766,1.29-3.241C465.977,348.686,464.729,347.746,463.604,348.061z"/>
					</g>
					<path style="opacity:0.27;fill:#192037;" d="M380.919,381.775c13.714-11.517,25.458-25.196,35.197-40.204       c4.938-7.61,9.626-15.527,13.936-23.51c0.498-0.923,0.988-1.861,1.47-2.804c-28.483-15.964-66.396-28.232-78.98-14.209       c-13.433,14.97,6.029,55.4,26.507,82.223C379.668,382.766,380.307,382.288,380.919,381.775z"/>
				</g>
				<path style="fill:#C2B2BC;" d="M228.177,81.97c-25.136-10.601-48.619,7.955-62.284,27.904c-5.065,7.381-9.4,15.423-13.09,23.744      c-3.812-8.913-8.39-17.529-13.787-25.398c-13.683-19.949-37.165-38.506-62.284-27.904c-19.914,8.39-28.444,30.237-23.396,50.604      c2.489,10.079,8.356,18.678,15.841,25.937c9.366,9.069,21.289,16.05,32.413,21.168c11.628,5.361,23.796,9.296,36.156,12.586      c6.04,1.619,12.133,3.064,18.243,4.474c3.882-0.94,7.764-1.915,11.628-2.942c12.203-3.273,24.214-7.172,35.703-12.464      c11.124-5.118,23.048-12.098,32.396-21.168c7.502-7.259,13.352-15.858,15.858-25.937      C256.621,112.207,248.091,90.36,228.177,81.97z"/>
				<g>
					<path style="fill:#FFFFFF;" d="M228.273,89.997c0.853-1.23,0.238-3.132-1.374-4.249c-1.611-1.117-3.608-1.025-4.461,0.204       c-0.852,1.23-0.238,3.132,1.373,4.249C225.423,91.318,227.42,91.227,228.273,89.997z"/>
					<path style="fill:#FFFFFF;" d="M235.307,93.703c0.55-0.793,0.153-2.019-0.885-2.739c-1.039-0.72-2.326-0.661-2.876,0.132       c-0.55,0.793-0.153,2.019,0.885,2.739C233.47,94.554,234.758,94.495,235.307,93.703z"/>
				</g>
				<g>
					<path style="fill:#FFFFFF;" d="M104.963,86.021c0.853-1.23,0.238-3.132-1.373-4.249c-1.611-1.117-3.608-1.025-4.461,0.204       c-0.852,1.23-0.237,3.132,1.374,4.249C102.113,87.342,104.11,87.251,104.963,86.021z"/>
					<path style="fill:#FFFFFF;" d="M111.997,89.727c0.55-0.793,0.153-2.019-0.885-2.739c-1.039-0.72-2.326-0.661-2.876,0.132       c-0.549,0.793-0.153,2.019,0.886,2.739C110.16,90.579,111.447,90.52,111.997,89.727z"/>
				</g>
				<path style="opacity:0.27;fill:#192037;" d="M228.033,110.203c-8.153,8.39-15.001,17.984-20.647,28.218      c-5.765,10.449-10.279,21.567-13.643,33.012c-1.319,4.486-2.456,9.026-3.421,13.602c4.393-1.62,8.731-3.391,12.996-5.356      c11.124-5.118,23.048-12.098,32.396-21.168c7.502-7.259,13.352-15.858,15.858-25.937c3.209-12.947,0.912-26.477-6.289-36.783      C239.047,99.962,233.27,104.814,228.033,110.203z"/>
				<path style="fill:#C2B2BC;" d="M444.312,188.893c-7.627-62.11-58.315-103.216-119.755-103.216      c-64.402,0-117.017,45.153-120.577,112.332c-0.067-0.018-0.149-0.007-0.206-0.048c-86.894-63.416-147.477,8.251-147.477,75.948      c0,71.186,84.468,140.634,187.694,140.634c96.552,0,178.9-46.639,198.25-180.283c2.005-9.314,3.099-18.998,3.099-28.961      C445.772,199.252,445.394,193.811,444.312,188.893z"/>
				<path style="opacity:0.34;fill:#FFFFFF;" d="M394.767,316.28c-1.883-3.839-6.057-6.6-11.353-6.147      c-4.783,0.409-9.411,3.219-13.369,6.207c-10.103,7.626-18.015,17.077-27.518,25.248c-8.268,7.109-17.714,13.227-25.492,20.705      c-3.096,2.977-5.955,6.223-7.589,9.765c-1.634,3.542-1.91,7.436,0.046,10.199c1.86,2.626,5.522,3.948,9.405,4.181      c10.692,0.641,20.193-3.923,29.79-9.323c6.035-3.395,11.761-7.285,17.05-11.567c10.568-8.556,19.41-18.705,25.427-29.581      c3.018-5.455,5.396-11.336,4.565-16.641C395.565,318.265,395.238,317.239,394.767,316.28z"/>
				<g>
					<path style="fill:#FFFFFF;" d="M419.98,142.174c-1.641,0.771-2.153,3.139-1.143,5.29c1.01,2.15,3.16,3.268,4.801,2.497       c1.641-0.771,2.153-3.139,1.143-5.29C423.77,142.521,421.621,141.403,419.98,142.174z"/>
					<path style="fill:#FFFFFF;" d="M414.857,134.014c-1.058,0.497-1.388,2.024-0.737,3.41c0.651,1.386,2.037,2.107,3.095,1.61       c1.058-0.497,1.388-2.024,0.737-3.41C417.301,134.237,415.915,133.517,414.857,134.014z"/>
				</g>
				<g>
					<path style="opacity:0.27;fill:#192037;" d="M245.71,351.792c0.287-7.749,0.416-15.65-0.97-23.309       c-0.643-3.553-1.55-7.603-3.747-10.557c-0.964-1.297-2.24-2.026-3.821-1.373c-1.559,0.645-2.841,1.971-4.001,3.153       c-3.022,3.081-5.989,6.216-9.02,9.292c-3.449,3.499-6.844,7.053-10.063,10.766c-3.247,3.743-6.202,7.713-9.271,11.601       c-3.178,4.027-6.427,7.999-9.712,11.939c-6.573,7.884-13.356,15.593-19.901,23.5c-3.659,4.42-7.277,8.874-10.896,13.327       c18.649,7.03,38.952,11.779,60.292,13.59c6.991-11.356,13.115-23.265,16.925-36.079       C244.032,369.21,245.384,360.576,245.71,351.792z"/>
					<path style="opacity:0.27;fill:#192037;" d="M177.599,357.348c4.954-9.722,10.353-19.174,15.968-28.528       c5.884-9.803,11.823-19.768,15.507-30.645c-11.803-0.372-23.638,0.38-35.279,2.385c-21.508,3.705-42.253,11.592-60.596,23.449       c-4.416,2.854-8.572,5.988-12.453,9.54c-3.731,3.415-7.221,7.082-10.664,10.785c-1.079,1.16-2.156,2.325-3.235,3.488       c17.683,20.366,42.121,37.774,70.875,49.697C164.614,384.269,170.818,370.654,177.599,357.348z"/>
				</g>
				<path style="fill:#C2B2BC;" d="M239.954,297.669c19.863,22.135-21.815,91.928-49.576,116.838      c-27.76,24.911-66.366,27.161-86.229,5.026c-19.863-22.135-13.461-60.273,14.3-85.183      C146.209,309.439,220.091,275.534,239.954,297.669z"/>
				<g>
					<path style="fill:#FFFFFF;" d="M184.796,405.28c-1.191-1.368-3.608-1.212-5.4,0.348c-1.792,1.56-2.279,3.933-1.089,5.301       c1.191,1.367,3.608,1.212,5.4-0.348C185.499,409.021,185.987,406.648,184.796,405.28z"/>
					<path style="fill:#FFFFFF;" d="M191.244,398.12c-0.768-0.882-2.326-0.781-3.481,0.224c-1.155,1.006-1.469,2.536-0.702,3.418       c0.768,0.882,2.326,0.781,3.481-0.225C191.697,400.532,192.011,399.002,191.244,398.12z"/>
				</g>
			</g>
			<g>
				<g>
					<path style="fill:#192037;" d="M308.612,126.251c-7.616,0.907-14.305,2.681-20.888,6.249       c-6.782,3.411-12.096,8.311-18.546,12.676c-0.381,0.287-0.94,0.206-1.191-0.212c4.467-15.965,25.179-27.82,40.904-20.259       C309.61,125.04,309.398,126.195,308.612,126.251L308.612,126.251z"/>
				</g>
				<g>
					<path style="fill:#192037;" d="M391.699,145.194c-5.325-5.521-10.78-9.778-17.601-12.868       c-6.816-3.342-13.931-4.617-21.306-7.119c-0.459-0.13-0.732-0.625-0.551-1.077c15.42-6.087,37.381,3.254,40.858,20.352       C393.266,145.257,392.218,145.787,391.699,145.194L391.699,145.194z"/>
				</g>
				
					<ellipse transform="matrix(0.2298 -0.9732 0.9732 0.2298 104.541 555.0862)" style="fill:#F57486;" cx="402.961" cy="211.496" rx="35.712" ry="35.712"/>
				
					<ellipse transform="matrix(0.2298 -0.9732 0.9732 0.2298 -9.9951 408.526)" style="fill:#F57486;" cx="253.1" cy="210.578" rx="35.712" ry="35.712"/>
				<g>
					<g>
						<path style="fill:#192037;" d="M297.561,167.507c-0.322,8.446-3.88,15.167-7.946,15.013c-4.066-0.154-7.102-7.125-6.78-15.571        c0.322-8.445,3.88-15.167,7.947-15.013C294.848,152.091,297.884,159.062,297.561,167.507z"/>
					</g>
				</g>
				<g>
					<g>
						<path style="fill:#192037;" d="M377.302,167.997c-0.322,8.446-3.88,15.167-7.946,15.013c-4.067-0.154-7.102-7.125-6.78-15.571        c0.322-8.445,3.88-15.167,7.946-15.013C374.588,152.58,377.623,159.552,377.302,167.997z"/>
					</g>
				</g>
				<path style="fill:#192037;" d="M341.439,172.465c0-3.633-5.396-6.578-12.052-6.578c-6.656,0-12.052,2.945-12.052,6.578      c0,3.042,3.788,5.595,8.927,6.347c0.481,2.476,1.697,4.238,3.126,4.238c1.428,0,2.645-1.762,3.125-4.238      C337.651,178.06,341.439,175.507,341.439,172.465z"/>
				<path style="opacity:0.34;fill:#FFFFFF;" d="M335.667,169.844c0,1.694-2.812,3.067-6.28,3.067c-3.468,0-6.28-1.373-6.28-3.067      s2.812-3.067,6.28-3.067C332.856,166.776,335.667,168.15,335.667,169.844z"/>
				<g>
					<g>
						<path style="fill:#192037;" d="M308.184,180.124c0,0,3.875,6.376,14.508,11.742c11.116,5.61,21.026,3.469,21.026,3.469        c0.413,0.086,0.684,0.506,0.552,0.916c-13.244,6.331-33.184-0.543-37.277-15.411        C306.797,180.166,307.69,179.633,308.184,180.124L308.184,180.124z"/>
					</g>
				</g>
			</g>
		</g>
		<path style="opacity:0.34;fill:#FFFFFF;" d="M94.05,88.949c-2.06,1.276-3.385,3.783-2.835,6.744    c0.497,2.674,2.339,5.128,4.244,7.193c4.863,5.273,10.633,9.208,15.77,14.112c4.469,4.266,8.445,9.253,13.095,13.223    c1.851,1.58,3.84,3.012,5.929,3.736c2.089,0.724,4.3,0.663,5.749-0.594c1.378-1.195,1.919-3.334,1.834-5.537    c-0.234-6.065-3.337-11.169-6.916-16.28c-2.25-3.214-4.763-6.226-7.472-8.971c-5.413-5.483-11.629-9.904-18.096-12.692    c-3.244-1.398-6.693-2.412-9.638-1.648C95.125,88.389,94.564,88.631,94.05,88.949z"/>
		<path style="opacity:0.34;fill:#FFFFFF;" d="M167.27,127.553c1.27,2.064,3.774,3.396,6.736,2.854    c2.676-0.489,5.134-2.324,7.206-4.223c5.287-4.848,9.238-10.606,14.157-15.729c4.279-4.457,9.277-8.418,13.26-13.057    c1.586-1.846,3.023-3.832,3.753-5.918c0.73-2.087,0.676-4.298-0.577-5.75c-1.191-1.381-3.328-1.928-5.531-1.85    c-6.065,0.216-11.178,3.304-16.3,6.869c-3.22,2.241-6.24,4.745-8.992,7.446c-5.498,5.397-9.938,11.6-12.744,18.06    c-1.407,3.24-2.431,6.686-1.676,9.633C166.713,126.477,166.953,127.038,167.27,127.553z"/>
		<g>
			<g style="opacity:0.8;">
				<g>
					<path style="fill:#00B2A7;" d="M88.05,220.662c0,21.585-17.502,39.087-39.086,39.087c-21.584,0-39.086-17.502-39.086-39.087       c0-21.584,17.502-39.083,39.086-39.083C70.549,181.579,88.05,199.077,88.05,220.662z"/>
					<path style="fill:#00B2A7;" d="M88.05,220.662c0,21.585-17.502,39.087-39.086,39.087c-21.584,0-39.086-17.502-39.086-39.087       c0-21.584,17.502-39.083,39.086-39.083C70.549,181.579,88.05,199.077,88.05,220.662z"/>
					<path style="opacity:0.41;fill:#00B2A7;" d="M85.999,227.425c-4.214,19.464-24.213,31.649-44.663,27.228       c-20.454-4.435-33.615-23.799-29.399-43.261c4.216-19.462,24.206-31.647,44.659-27.219       C77.048,188.604,90.212,207.965,85.999,227.425z"/>
					<path style="opacity:0.32;fill:#FFFFFF;" d="M82.517,217.87c-0.235,2.268-1.025,4.468-2.583,6.585       c-3.368,4.603-8.757,5.332-13.367,2.005c-5.805-4.19-7.048-12.057-14.229-15.266c-6.657-2.97-16.023-2.795-19.546-10.328       c-2.734-5.836,1.359-10.379,6.209-12.549c6.789-3.034,13.722-2.194,20.705-0.183c10.254,2.947,18.577,11.45,21.744,21.576       C82.32,212.51,82.794,215.235,82.517,217.87z"/>
					<path style="opacity:0.32;fill:#FFFFFF;" d="M23.822,237.22c0.012-1.194,0.317-2.379,1.026-3.559       c1.532-2.564,4.306-3.206,6.871-1.696c3.23,1.902,4.261,5.944,8.162,7.267c3.615,1.225,8.49,0.678,10.693,4.434       c1.709,2.91-0.204,5.477-2.627,6.845c-3.392,1.912-7.048,1.811-10.786,1.103c-5.49-1.037-10.243-5.066-12.386-10.191       C24.185,240.005,23.805,238.608,23.822,237.22z"/>
					<path style="fill:#00B2A7;" d="M64.512,195.494c-0.564,2.368-4.858,3.371-9.584,2.248c-4.729-1.119-8.109-3.947-7.543-6.31       c0.56-2.366,4.847-3.376,9.579-2.248C61.695,190.304,65.069,193.131,64.512,195.494z M72.965,201.114       c-1.999-2.267-4.548-3.298-5.685-2.291c-1.136,1.001-0.426,3.652,1.576,5.923c2.005,2.27,4.551,3.293,5.69,2.294       C75.676,206.037,74.972,203.386,72.965,201.114z"/>
				</g>
			</g>
			<g style="opacity:0.8;">
				<g>
					<path style="fill:#00B2A7;" d="M63.063,292.485c0,14.104-11.436,25.54-25.539,25.54c-14.103,0-25.539-11.436-25.539-25.54       c0-14.103,11.436-25.537,25.539-25.537C51.628,266.948,63.063,278.382,63.063,292.485z"/>
					<path style="fill:#00B2A7;" d="M63.063,292.485c0,14.104-11.436,25.54-25.539,25.54c-14.103,0-25.539-11.436-25.539-25.54       c0-14.103,11.436-25.537,25.539-25.537C51.628,266.948,63.063,278.382,63.063,292.485z"/>
					<path style="opacity:0.41;fill:#00B2A7;" d="M61.723,296.904c-2.753,12.718-15.821,20.68-29.183,17.791       c-13.365-2.898-21.964-15.55-19.209-28.267c2.755-12.716,15.817-20.678,29.181-17.785       C55.874,271.538,64.476,284.189,61.723,296.904z"/>
					<path style="opacity:0.32;fill:#FFFFFF;" d="M59.447,290.661c-0.153,1.482-0.67,2.919-1.688,4.302       c-2.201,3.008-5.722,3.484-8.734,1.31c-3.793-2.738-4.605-7.878-9.298-9.975c-4.349-1.941-10.469-1.827-12.771-6.749       c-1.787-3.813,0.888-6.782,4.057-8.199c4.436-1.982,8.966-1.434,13.529-0.12c6.7,1.925,12.138,7.482,14.208,14.098       C59.319,287.158,59.629,288.939,59.447,290.661z"/>
					<path style="opacity:0.32;fill:#FFFFFF;" d="M21.096,303.305c0.008-0.78,0.207-1.555,0.671-2.325       c1.001-1.675,2.814-2.095,4.49-1.108c2.111,1.243,2.784,3.884,5.333,4.749c2.362,0.8,5.547,0.443,6.987,2.897       c1.117,1.901-0.133,3.579-1.716,4.472c-2.216,1.249-4.605,1.184-7.048,0.721c-3.587-0.678-6.693-3.31-8.093-6.659       C21.333,305.124,21.085,304.211,21.096,303.305z"/>
					<path style="fill:#00B2A7;" d="M47.683,276.04c-0.368,1.548-3.174,2.203-6.263,1.469c-3.09-0.731-5.298-2.579-4.929-4.123       c0.366-1.546,3.167-2.206,6.259-1.469C45.843,272.649,48.047,274.496,47.683,276.04z M53.206,279.712       c-1.306-1.481-2.972-2.155-3.715-1.497c-0.742,0.654-0.278,2.386,1.03,3.87c1.31,1.483,2.974,2.152,3.718,1.499       C54.978,282.929,54.518,281.197,53.206,279.712z"/>
				</g>
			</g>
			<g>
				<g style="opacity:0.8;">
					<g>
						<path style="fill:#00B2A7;" d="M487.123,274.741c-2.477,19.715-20.47,33.693-40.184,31.216        c-19.714-2.477-33.691-20.471-31.215-40.185c2.477-19.714,20.47-33.689,40.184-31.212        C475.622,237.036,489.599,255.027,487.123,274.741z"/>
						<path style="fill:#00B2A7;" d="M487.123,274.741c-2.477,19.715-20.47,33.693-40.184,31.216        c-19.714-2.477-33.691-20.471-31.215-40.185c2.477-19.714,20.47-33.689,40.184-31.212        C475.622,237.036,489.599,255.027,487.123,274.741z"/>
						<path style="opacity:0.41;fill:#00B2A7;" d="M484.473,280.683c-6.082,17.294-25.746,26.129-43.918,19.745        c-18.173-6.398-27.972-25.594-21.888-42.886c6.083-17.292,25.74-26.128,43.913-19.737        C480.752,244.198,490.554,263.393,484.473,280.683z"/>
						<path style="opacity:0.32;fill:#FFFFFF;" d="M482.389,271.556c-0.475,2.045-1.449,3.963-3.115,5.718        c-3.604,3.818-8.61,3.865-12.439,0.298c-4.821-4.493-5.054-11.822-11.245-15.576c-5.739-3.477-14.314-4.392-16.668-11.676        c-1.828-5.644,2.432-9.324,7.111-10.749c6.549-1.992,12.785-0.429,18.932,2.208c9.028,3.868,15.654,12.59,17.385,22.201        C482.825,266.638,482.944,269.181,482.389,271.556z"/>
						<path style="opacity:0.32;fill:#FFFFFF;" d="M426.559,282.496c0.148-1.089,0.563-2.137,1.346-3.133        c1.693-2.166,4.301-2.434,6.471-0.76c2.732,2.108,3.21,5.918,6.621,7.574c3.161,1.534,7.676,1.594,9.258,5.277        c1.227,2.854-0.814,4.98-3.184,5.95c-3.318,1.357-6.645,0.846-9.978-0.23c-4.895-1.578-8.774-5.802-10.144-10.73        C426.571,285.081,426.384,283.761,426.559,282.496z"/>
						<path style="fill:#00B2A7;" d="M468.511,249.053c-0.786,2.099-4.824,2.522-9.012,0.953c-4.191-1.565-6.953-4.535-6.166-6.628        c0.783-2.097,4.815-2.528,9.007-0.954C466.534,243.99,469.291,246.959,468.511,249.053z M475.587,255.156        c-1.566-2.299-3.776-3.534-4.93-2.745c-1.152,0.784-0.808,3.287,0.76,5.59c1.571,2.303,3.779,3.53,4.934,2.748        C477.499,259.963,477.16,257.461,475.587,255.156z"/>
					</g>
				</g>
				<g style="opacity:0.8;">
					<g>
						<path style="fill:#00B2A7;" d="M501.966,222.208c-1.348,10.733-11.145,18.343-21.878,16.995        c-10.733-1.348-18.343-11.145-16.994-21.878c1.348-10.733,11.145-18.341,21.877-16.993        C495.705,201.68,503.315,211.475,501.966,222.208z"/>
						<path style="fill:#00B2A7;" d="M501.966,222.208c-1.348,10.733-11.145,18.343-21.878,16.995        c-10.733-1.348-18.343-11.145-16.994-21.878c1.348-10.733,11.145-18.341,21.877-16.993        C495.705,201.68,503.315,211.475,501.966,222.208z"/>
						<path style="opacity:0.41;fill:#00B2A7;" d="M500.524,225.442c-3.311,9.416-14.017,14.226-23.91,10.75        c-9.894-3.483-15.229-13.934-11.917-23.348c3.312-9.414,14.014-14.225,23.908-10.745        C498.498,205.579,503.835,216.029,500.524,225.442z"/>
						<path style="opacity:0.32;fill:#FFFFFF;" d="M499.389,220.474c-0.259,1.113-0.789,2.158-1.696,3.113        c-1.962,2.079-4.687,2.104-6.772,0.162c-2.625-2.446-2.751-6.436-6.122-8.48c-3.124-1.893-7.793-2.391-9.074-6.357        c-0.995-3.073,1.324-5.076,3.871-5.852c3.565-1.085,6.961-0.234,10.307,1.202c4.915,2.106,8.522,6.854,9.465,12.087        C499.626,217.796,499.692,219.181,499.389,220.474z"/>
						<path style="opacity:0.32;fill:#FFFFFF;" d="M468.993,226.429c0.081-0.593,0.306-1.163,0.733-1.705        c0.922-1.179,2.342-1.325,3.523-0.414c1.487,1.148,1.748,3.222,3.604,4.124c1.721,0.835,4.179,0.868,5.04,2.873        c0.668,1.554-0.443,2.711-1.734,3.239c-1.806,0.739-3.618,0.461-5.432-0.125c-2.665-0.859-4.777-3.159-5.523-5.842        C469,227.837,468.899,227.118,468.993,226.429z"/>
						<path style="fill:#00B2A7;" d="M491.834,208.222c-0.428,1.142-2.626,1.373-4.906,0.519c-2.282-0.852-3.785-2.469-3.357-3.609        c0.426-1.142,2.621-1.376,4.904-0.52C490.757,205.465,492.258,207.082,491.834,208.222z M495.686,211.545        c-0.852-1.252-2.056-1.924-2.684-1.494c-0.627,0.427-0.44,1.79,0.413,3.044c0.855,1.254,2.057,1.922,2.686,1.496        C496.727,214.162,496.542,212.8,495.686,211.545z"/>
					</g>
				</g>
				<g style="opacity:0.8;">
					<g>
						<path style="fill:#00B2A7;" d="M477.993,187.718c-0.99,7.881-8.183,13.469-16.065,12.479        c-7.881-0.99-13.469-8.184-12.479-16.065c0.99-7.881,8.183-13.468,16.064-12.478        C473.395,172.644,478.983,179.836,477.993,187.718z"/>
						<path style="fill:#00B2A7;" d="M477.993,187.718c-0.99,7.881-8.183,13.469-16.065,12.479        c-7.881-0.99-13.469-8.184-12.479-16.065c0.99-7.881,8.183-13.468,16.064-12.478        C473.395,172.644,478.983,179.836,477.993,187.718z"/>
						<path style="opacity:0.41;fill:#00B2A7;" d="M476.933,190.093c-2.431,6.914-10.293,10.446-17.557,7.893        c-7.265-2.558-11.182-10.232-8.75-17.145c2.432-6.913,10.29-10.445,17.555-7.89        C475.446,175.507,479.365,183.181,476.933,190.093z"/>
						<path style="opacity:0.32;fill:#FFFFFF;" d="M476.1,186.444c-0.19,0.818-0.579,1.584-1.245,2.286        c-1.441,1.526-3.442,1.545-4.973,0.119c-1.927-1.796-2.021-4.726-4.496-6.227c-2.294-1.39-5.722-1.756-6.663-4.668        c-0.731-2.256,0.972-3.728,2.843-4.297c2.618-0.796,5.111-0.172,7.569,0.883c3.609,1.546,6.258,5.033,6.95,8.876        C476.274,184.478,476.322,185.495,476.1,186.444z"/>
						<path style="opacity:0.32;fill:#FFFFFF;" d="M453.781,190.818c0.059-0.436,0.225-0.854,0.538-1.252        c0.677-0.866,1.719-0.973,2.587-0.304c1.092,0.843,1.283,2.366,2.647,3.028c1.264,0.613,3.069,0.637,3.701,2.109        c0.491,1.141-0.326,1.991-1.273,2.379c-1.326,0.543-2.656,0.338-3.989-0.092c-1.957-0.631-3.508-2.32-4.055-4.289        C453.786,191.851,453.711,191.323,453.781,190.818z"/>
						<path style="fill:#00B2A7;" d="M470.552,177.448c-0.314,0.839-1.928,1.008-3.603,0.381c-1.676-0.625-2.78-1.813-2.465-2.65        c0.313-0.838,1.925-1.01,3.601-0.382C469.762,175.424,470.864,176.611,470.552,177.448z M473.381,179.888        c-0.626-0.919-1.51-1.413-1.971-1.097c-0.461,0.313-0.323,1.314,0.304,2.235c0.628,0.921,1.511,1.411,1.972,1.099        C474.145,181.81,474.01,180.81,473.381,179.888z"/>
					</g>
				</g>
			</g>
		</g>
	</g>
</g>















</svg>
