<?xml version="1.0" encoding="UTF-8"?>
<!-- Generator: Adobe Illustrator 27.1.1, SVG Export Plug-In . SVG Version: 6.00 Build 0)  -->
<svg xmlns="http://www.w3.org/2000/svg" xmlns:xlink="http://www.w3.org/1999/xlink" version="1.1" id="Capa_1" x="0px" y="0px" viewBox="0 0 512 512" style="enable-background:new 0 0 512 512;" xml:space="preserve" width="512" height="512">
<g>
	<path style="fill:#FFFFFF;" d="M511.999,245.271c0.159-9.233-12.102-13.36-17.587-6.086c-4.151-5.421-13.325-4.632-16.395,1.65   c-0.676,1.302-1.368,2.597-2.076,3.885c0.024-2.256,0.072-4.517,0.119-6.764c0.183-5.432-4.422-10.115-9.845-10.055   c-7.974-0.215-10.3,8.716-12.963,14.619c-6.806-3.907-13.489,0.809-15.414,7.791c-3.589-4.422-10.893-4.628-14.713-0.324   c-11.409-19.662-28.828-36.454-50.521-48.626c6.598-17.011,4.748-39.764-12.551-46.973c-14.871-5.792-31.955,2.879-36.892,18.308   c-0.871,2.612-1.98,6.264-3.089,10.385c-4.588-0.765-9.223-1.345-13.88-1.737c-0.209-24.976-0.819-46.99-1.856-66.98   c2.155-2.875,2.008-7.188,1.938-10.642c0-3.042-1.162-5.817-3.065-7.905c-0.553-7.838-1.185-15.327-1.886-22.328   c-0.619-6.191-5.785-10.861-12.018-10.861h-14.428c-3.349,0-6.575,1.406-8.852,3.858c-5.352,5.701-2.371,13.414-2.425,20.582   c-3.435,0.234-15.1-0.7-18.147,0.886c-0.454-5.916-0.954-11.608-1.495-17.012c-0.62-6.192-5.786-10.861-12.018-10.861h-14.427   c-3.349,0-6.575,1.406-8.851,3.857c-5.791,6.499-2.003,15.105-2.271,23.242c-2.659-0.172-15.48-0.257-18.1,0.057   c-0.095-8.466-2.867-16.22-12.562-16.539c0,0-14.427,0-14.427,0c-9.724,0.25-13.384,8.888-11.716,17.511   c-0.323-0.026-0.65-0.039-0.98-0.039h-14.427c-6.82-0.143-12.687,6.165-12.039,12.957c0.487,6.554,0.923,13.74,1.3,21.421   c-2.247,2.802-2.221,7.169-2.114,10.672c0,2.925,1.06,5.639,2.873,7.723c0.566,16.48,0.915,34.791,1.061,55.587   c-42.009,1.361-64.692,54.806-39.266,88.363c-1.788,5.093-3.254,10.375-4.392,15.818c-2.763-0.01-5.662,1.358-7.406,3.467   c-1.918-6.986-8.61-11.698-15.41-7.794c-2.654-5.903-4.982-14.84-12.956-14.622c-5.42-0.06-10.024,4.617-9.845,10.046   c0.046,2.255,0.092,4.525,0.113,6.79c-0.707-1.291-1.4-2.588-2.076-3.893c-3.066-6.288-12.25-7.081-16.401-1.655   c-6.284-8.126-19.707-1.885-17.347,8.242c6.562,29.223,7.306,71.603,7.132,95.131c-2.043,8.041-1.98,16.871,0.866,24.707   c11.103,32.204,50.293,29.147,83.603,30.79c18.098-0.835,110.301-1.367,130.325-1.356c1.819,0.24,4.757,0.018,6.41,0.093   c1.85-0.161,102.585,0.433,104.374,0.43c29.369,1.135,87.877,3.885,103.801-17.105l53.353,1.556   c3.668,0.111,7.27-1.375,9.798-4.036c2.446-2.573,3.745-6.085,3.566-9.635C499.981,354.958,500.661,275.691,511.999,245.271z"/>
	<g>
		<path style="fill:#00B2A7;" d="M487.359,266.325c-1.948-6.418-2.174-13.653-0.622-20.951    c-5.122,9.861-11.047,19.263-17.658,28.061c-3.375-10.905-3.142-23.262-2.878-35.686c-5.514,11.208-9.409,22.687-11.577,33.976    c-5.116-5.152-7.508-12.826-6.395-20.725c-2.618,6.758-6.632,13.116-11.68,18.541c-4.393-2.486-6.866-7.56-6.228-12.851    c-4.196,5.817-9.535,10.882-15.551,14.774l-15.405,0.116c0.002-9.622-0.02-18.964-0.18-28.042l-12.914,21.116    c-2.525-6.437-3.399-13.694-2.498-21.013c-4.247,9.891-9.34,19.32-15.173,28.144c-4.356-10.937-5.229-23.331-6.076-35.792    c-4.519,11.242-7.392,22.755-8.554,34.078c-5.585-5.168-8.667-12.864-8.26-20.786c-2.016,6.778-5.468,13.155-10.037,18.596    c-4.622-2.494-7.553-7.582-7.388-12.889c-3.681,5.835-8.575,10.914-14.252,14.818l-41.094,0.309v53.896l-77.999,0.587    c-4.308-3.483-8.064-7.665-11.022-12.349c0.153,5.067-2.559,9.909-6.855,12.483l-0.788,0.006    c-4.417-5.339-7.763-11.558-9.726-18.164c0.34,6.743-1.887,13.308-6.023,18.283l-2.522,0.019    c-1.287-10.493-4.027-21.123-8.205-31.518c-0.757,10.905-1.537,21.758-4.682,31.615l-3.906,0.029    c-4.76-7.627-9.01-15.656-12.61-24.039c0.889,7.278,0.008,14.494-2.517,20.895l-12.852-20.997    c1.004,7.435,1.566,15.725,1.815,24.338l-17.826,0.134c-6.014-3.893-11.35-8.959-15.54-14.779    c0.634,5.293-1.844,10.368-6.24,12.855c-5.044-5.427-9.054-11.787-11.665-18.547c1.106,7.901-1.293,15.577-6.415,20.731    c-2.158-11.293-6.043-22.775-11.548-33.987c0.253,12.428,0.474,24.789-2.912,35.697c-6.604-8.8-12.522-18.205-17.635-28.069    c1.545,7.3,1.312,14.537-0.643,20.957L9.865,299.135c9.076,40.42,7.437,103.722,6.986,116.627    c-0.045,1.278,1.213,2.506,2.554,2.506h90.556c0.37,0.791,1.197,1.39,2.13,1.39H283.34l207.071,6.038    c1.842,0.054,3.338-1.476,3.244-3.333c-1.104-21.826-6.383-141.467,8.479-177.091L487.359,266.325z"/>
		<g>
			<g>
				<g>
					<path style="fill:#00B2A7;" d="M148.465,429.667h-14.422c-1.252,0-2.258-1.034-2.228-2.285       c3.154-129.317,5.564-253.769,0.125-326.983c-0.096-1.293,0.924-2.383,2.221-2.383h14.428c1.146,0,2.107,0.856,2.221,1.996       c7.954,79.471,4.98,199.544-0.117,327.511C150.646,428.717,149.662,429.667,148.465,429.667z"/>
					<path style="fill:#9C3621;" d="M154.677,135.146c-6.309,3.036-13.886,2.501-22.197-0.106c-0.789-0.247-1.326-0.992-1.326-1.82       v-3.956c0-1.05,0.851-1.901,1.901-1.901h20.756c1.05,0,1.901,0.851,1.901,1.901v4.18       C155.713,134.159,155.322,134.836,154.677,135.146z"/>
					<path style="fill:#9C3621;" d="M157.156,220.473c-6.309,3.036-13.886,2.501-22.197-0.106c-0.789-0.248-1.326-0.993-1.326-1.82       v-3.957c0-1.05,0.851-1.901,1.901-1.901h20.756c1.05,0,1.901,0.851,1.901,1.901v4.18       C158.192,219.486,157.801,220.163,157.156,220.473z"/>
					<path style="fill:#9C3621;" d="M155.007,332.079c-6.309,3.037-13.886,2.501-22.197-0.106c-0.789-0.248-1.326-0.993-1.326-1.82       v-3.957c0-1.05,0.851-1.901,1.901-1.901h20.756c1.05,0,1.901,0.851,1.901,1.901v4.18       C156.043,331.091,155.652,331.769,155.007,332.079z"/>
				</g>
				<path style="opacity:0.19;fill:#FFFFFF;" d="M146.491,145.035c-0.851-0.048-1.803,1.389-2.367,4.274      c-0.509,2.605-0.61,5.774-0.601,8.641c0.023,7.318,0.607,13.982,0.792,21.133c0.16,6.221,0.018,12.792,0.297,18.857      c0.111,2.414,0.295,4.777,0.674,6.58c0.379,1.803,0.979,2.992,1.664,2.713c0.651-0.266,1.307-1.822,1.812-3.785      c1.392-5.406,1.794-11.588,2.072-18.045c0.175-4.06,0.232-8.091,0.172-12c-0.119-7.81-0.704-15.147-1.748-21.205      c-0.524-3.038-1.194-5.857-2.156-6.847C146.909,145.152,146.703,145.047,146.491,145.035z"/>
				<path style="opacity:0.19;fill:#FFFFFF;" d="M146.014,226.378c-1.027-0.056-2.203,2.104-2.936,6.416      c-0.662,3.895-0.84,8.623-0.881,12.898c-0.103,10.914,0.483,20.842,0.577,31.505c0.082,9.276-0.208,19.078,0.021,28.119      c0.091,3.599,0.27,7.119,0.696,9.802c0.426,2.682,1.129,4.445,1.962,4.016c0.791-0.408,1.612-2.741,2.258-5.678      c1.779-8.088,2.375-17.316,2.827-26.95c0.284-6.058,0.425-12.072,0.423-17.901c-0.003-11.646-0.579-22.579-1.732-31.595      c-0.578-4.522-1.337-8.715-2.482-10.174C146.518,226.544,146.271,226.392,146.014,226.378z"/>
				<path style="opacity:0.19;fill:#FFFFFF;" d="M144.217,339.805c-1.023-0.112-2.243,1.414-3.071,4.568      c-0.747,2.849-1.031,6.349-1.167,9.523c-0.347,8.102,0.015,15.519-0.13,23.447c-0.126,6.898-0.635,14.161-0.609,20.894      c0.01,2.68,0.11,5.308,0.475,7.33c0.364,2.022,1.026,3.38,1.866,3.117c0.798-0.249,1.668-1.927,2.378-4.065      c1.954-5.889,2.755-12.704,3.421-19.832c0.419-4.482,0.694-8.94,0.823-13.271c0.257-8.653-0.072-16.815-1.019-23.593      c-0.475-3.399-1.138-6.566-2.247-7.728C144.716,339.962,144.473,339.832,144.217,339.805z"/>
			</g>
			<g>
				<g>
					<path style="fill:#00B2A7;" d="M175.588,412.195h-14.422c-1.252,0-2.258-1.034-2.228-2.285       c3.154-129.317,5.564-253.769,0.125-326.983c-0.096-1.293,0.924-2.383,2.221-2.383h14.427c1.146,0,2.107,0.856,2.222,1.996       c7.954,79.471,4.98,199.544-0.117,327.511C177.769,411.246,176.785,412.195,175.588,412.195z"/>
					<path style="fill:#9C3621;" d="M181.801,117.674c-6.309,3.037-13.886,2.501-22.197-0.106c-0.789-0.248-1.326-0.993-1.326-1.82       v-3.957c0-1.05,0.851-1.901,1.901-1.901h20.756c1.05,0,1.901,0.851,1.901,1.901v4.18       C182.836,116.687,182.445,117.364,181.801,117.674z"/>
					<path style="fill:#9C3621;" d="M184.28,203.002c-6.309,3.036-13.886,2.501-22.197-0.106c-0.789-0.247-1.326-0.993-1.326-1.82       v-3.956c0-1.05,0.851-1.901,1.901-1.901h20.756c1.05,0,1.901,0.851,1.901,1.901v4.18       C185.315,202.014,184.924,202.691,184.28,203.002z"/>
					<path style="fill:#9C3621;" d="M182.131,314.607c-6.309,3.036-13.886,2.501-22.197-0.106c-0.789-0.248-1.326-0.993-1.326-1.82       v-3.957c0-1.05,0.851-1.901,1.902-1.901h20.756c1.05,0,1.901,0.851,1.901,1.901v4.18       C183.166,313.619,182.775,314.297,182.131,314.607z"/>
				</g>
				<path style="opacity:0.19;fill:#FFFFFF;" d="M173.614,127.563c-0.851-0.048-1.803,1.389-2.367,4.274      c-0.509,2.605-0.61,5.774-0.601,8.641c0.023,7.318,0.607,13.982,0.792,21.133c0.16,6.221,0.018,12.792,0.297,18.857      c0.111,2.414,0.295,4.777,0.674,6.58c0.379,1.803,0.979,2.992,1.664,2.713c0.651-0.266,1.307-1.822,1.812-3.785      c1.392-5.406,1.794-11.588,2.072-18.045c0.175-4.06,0.232-8.091,0.172-12c-0.119-7.81-0.704-15.147-1.748-21.205      c-0.523-3.038-1.193-5.857-2.156-6.847C174.033,127.68,173.826,127.575,173.614,127.563z"/>
				<path style="opacity:0.19;fill:#FFFFFF;" d="M173.138,208.906c-1.027-0.056-2.203,2.104-2.936,6.416      c-0.662,3.895-0.84,8.623-0.881,12.898c-0.103,10.914,0.483,20.842,0.578,31.505c0.082,9.276-0.208,19.078,0.021,28.119      c0.091,3.599,0.27,7.119,0.696,9.802c0.426,2.682,1.129,4.445,1.962,4.016c0.791-0.408,1.612-2.741,2.258-5.678      c1.779-8.088,2.375-17.316,2.827-26.95c0.284-6.058,0.425-12.072,0.423-17.901c-0.003-11.646-0.579-22.579-1.732-31.595      c-0.578-4.522-1.337-8.714-2.482-10.174C173.642,209.072,173.394,208.92,173.138,208.906z"/>
				<path style="opacity:0.19;fill:#FFFFFF;" d="M171.341,322.333c-1.023-0.112-2.243,1.414-3.07,4.568      c-0.747,2.849-1.031,6.35-1.167,9.524c-0.347,8.102,0.015,15.519-0.13,23.447c-0.126,6.898-0.635,14.161-0.609,20.894      c0.01,2.68,0.11,5.308,0.475,7.33c0.365,2.022,1.026,3.38,1.866,3.117c0.798-0.249,1.668-1.927,2.378-4.065      c1.954-5.889,2.755-12.704,3.421-19.832c0.419-4.482,0.694-8.94,0.823-13.271c0.258-8.653-0.072-16.815-1.019-23.593      c-0.475-3.399-1.138-6.566-2.246-7.728C171.839,322.491,171.596,322.361,171.341,322.333z"/>
			</g>
			<g>
				<g>
					<path style="fill:#00B2A7;" d="M204.587,428.565h-14.422c-1.252,0-2.258-1.034-2.228-2.285       c3.154-129.317,5.564-253.769,0.125-326.983c-0.096-1.293,0.924-2.383,2.221-2.383h14.428c1.146,0,2.107,0.856,2.221,1.996       c7.953,79.471,4.98,199.544-0.117,327.511C206.768,427.615,205.784,428.565,204.587,428.565z"/>
					<path style="fill:#9C3621;" d="M210.799,134.044c-6.309,3.036-13.886,2.501-22.197-0.106c-0.789-0.248-1.326-0.993-1.326-1.82       v-3.957c0-1.05,0.851-1.901,1.901-1.901h20.756c1.05,0,1.901,0.851,1.901,1.901v4.18       C211.835,133.057,211.444,133.734,210.799,134.044z"/>
					<path style="fill:#9C3621;" d="M213.278,219.371c-6.309,3.037-13.886,2.501-22.197-0.106c-0.789-0.248-1.326-0.993-1.326-1.82       v-3.957c0-1.05,0.851-1.901,1.901-1.901h20.756c1.05,0,1.901,0.851,1.901,1.901v4.18       C214.314,218.384,213.923,219.061,213.278,219.371z"/>
					<path style="fill:#9C3621;" d="M211.129,330.977c-6.309,3.037-13.886,2.501-22.197-0.106c-0.789-0.248-1.326-0.993-1.326-1.82       v-3.957c0-1.05,0.851-1.901,1.901-1.901h20.756c1.05,0,1.901,0.851,1.901,1.901v4.18       C212.165,329.989,211.774,330.667,211.129,330.977z"/>
				</g>
				<path style="opacity:0.19;fill:#FFFFFF;" d="M202.612,143.933c-0.851-0.048-1.803,1.389-2.367,4.274      c-0.509,2.605-0.61,5.774-0.601,8.641c0.023,7.318,0.607,13.982,0.792,21.133c0.16,6.221,0.018,12.792,0.297,18.857      c0.111,2.414,0.295,4.777,0.674,6.58c0.379,1.803,0.979,2.992,1.664,2.713c0.651-0.266,1.307-1.822,1.812-3.785      c1.392-5.406,1.794-11.589,2.072-18.045c0.175-4.059,0.232-8.091,0.172-12c-0.119-7.81-0.704-15.147-1.748-21.205      c-0.523-3.038-1.193-5.857-2.156-6.847C203.031,144.05,202.825,143.945,202.612,143.933z"/>
				<path style="opacity:0.19;fill:#FFFFFF;" d="M202.136,225.276c-1.027-0.056-2.203,2.104-2.936,6.416      c-0.662,3.895-0.84,8.622-0.881,12.898c-0.103,10.914,0.483,20.842,0.578,31.505c0.082,9.276-0.208,19.078,0.021,28.119      c0.091,3.599,0.27,7.119,0.696,9.802c0.426,2.682,1.129,4.445,1.962,4.016c0.792-0.408,1.612-2.741,2.258-5.678      c1.779-8.088,2.375-17.316,2.827-26.95c0.284-6.058,0.425-12.072,0.423-17.901c-0.003-11.646-0.579-22.579-1.732-31.595      c-0.578-4.522-1.337-8.715-2.482-10.174C202.64,225.442,202.393,225.29,202.136,225.276z"/>
				<path style="opacity:0.19;fill:#FFFFFF;" d="M200.339,338.702c-1.023-0.111-2.243,1.414-3.07,4.568      c-0.747,2.849-1.031,6.349-1.167,9.523c-0.347,8.102,0.015,15.519-0.13,23.447c-0.126,6.898-0.635,14.161-0.609,20.894      c0.01,2.68,0.11,5.308,0.475,7.33c0.364,2.022,1.026,3.38,1.865,3.117c0.798-0.249,1.668-1.927,2.378-4.065      c1.954-5.889,2.755-12.704,3.421-19.832c0.419-4.482,0.694-8.94,0.823-13.272c0.257-8.653-0.072-16.815-1.019-23.593      c-0.475-3.399-1.138-6.566-2.247-7.728C200.838,338.86,200.595,338.73,200.339,338.702z"/>
			</g>
			<g>
				<g>
					<path style="fill:#00B2A7;" d="M231.8,401.578h-14.422c-1.252,0-2.258-1.034-2.228-2.286       c3.154-129.317,5.564-253.769,0.125-326.983c-0.096-1.293,0.924-2.383,2.221-2.383h14.427c1.146,0,2.107,0.856,2.222,1.996       c7.953,79.471,4.98,199.544-0.117,327.511C233.981,400.629,232.997,401.578,231.8,401.578z"/>
					<path style="fill:#9C3621;" d="M238.013,107.058c-6.309,3.037-13.886,2.501-22.197-0.106c-0.789-0.248-1.326-0.993-1.326-1.82       v-3.957c0-1.05,0.851-1.901,1.901-1.901h20.756c1.05,0,1.901,0.851,1.901,1.901v4.18       C239.048,106.07,238.657,106.748,238.013,107.058z"/>
					<path style="fill:#9C3621;" d="M240.492,192.385c-6.309,3.036-13.886,2.501-22.197-0.106c-0.789-0.247-1.326-0.992-1.326-1.82       v-3.956c0-1.05,0.851-1.901,1.901-1.901h20.756c1.05,0,1.901,0.851,1.901,1.901v4.18       C241.528,191.397,241.136,192.075,240.492,192.385z"/>
					<path style="fill:#9C3621;" d="M238.343,303.99c-6.309,3.036-13.886,2.501-22.197-0.106c-0.789-0.248-1.326-0.993-1.326-1.82       v-3.957c0-1.05,0.851-1.901,1.901-1.901h20.756c1.05,0,1.901,0.851,1.901,1.901v4.18       C239.379,303.003,238.987,303.68,238.343,303.99z"/>
				</g>
				<path style="opacity:0.19;fill:#FFFFFF;" d="M229.826,116.947c-0.851-0.048-1.803,1.389-2.367,4.274      c-0.509,2.605-0.61,5.774-0.601,8.641c0.023,7.318,0.607,13.982,0.792,21.133c0.16,6.221,0.018,12.792,0.297,18.857      c0.111,2.414,0.295,4.777,0.674,6.58c0.379,1.803,0.979,2.992,1.664,2.713c0.651-0.266,1.307-1.822,1.812-3.785      c1.392-5.406,1.794-11.588,2.072-18.045c0.175-4.06,0.232-8.091,0.172-12c-0.119-7.81-0.704-15.147-1.748-21.205      c-0.523-3.038-1.193-5.857-2.156-6.847C230.245,117.063,230.039,116.959,229.826,116.947z"/>
				<path style="opacity:0.19;fill:#FFFFFF;" d="M229.35,198.289c-1.027-0.056-2.203,2.104-2.936,6.416      c-0.662,3.895-0.84,8.623-0.881,12.898c-0.103,10.914,0.483,20.842,0.578,31.505c0.082,9.276-0.208,19.078,0.021,28.119      c0.091,3.599,0.27,7.119,0.696,9.802c0.426,2.682,1.129,4.445,1.962,4.016c0.791-0.408,1.612-2.741,2.258-5.678      c1.779-8.088,2.375-17.316,2.827-26.95c0.284-6.058,0.425-12.071,0.423-17.901c-0.003-11.646-0.579-22.579-1.732-31.595      c-0.578-4.522-1.337-8.714-2.482-10.174C229.854,198.456,229.606,198.303,229.35,198.289z"/>
				<path style="opacity:0.19;fill:#FFFFFF;" d="M227.553,311.716c-1.023-0.112-2.243,1.414-3.071,4.568      c-0.747,2.849-1.031,6.35-1.167,9.523c-0.347,8.102,0.015,15.519-0.13,23.448c-0.126,6.898-0.635,14.161-0.609,20.894      c0.01,2.68,0.11,5.308,0.475,7.33c0.364,2.022,1.026,3.38,1.866,3.117c0.798-0.249,1.668-1.927,2.378-4.065      c1.954-5.889,2.755-12.704,3.421-19.832c0.419-4.482,0.694-8.94,0.823-13.271c0.257-8.653-0.072-16.815-1.019-23.593      c-0.475-3.399-1.138-6.566-2.247-7.728C228.052,311.874,227.808,311.744,227.553,311.716z"/>
			</g>
			<g>
				<g>
					<path style="fill:#00B2A7;" d="M264.275,428.565h-14.422c-1.252,0-2.258-1.034-2.228-2.285       c3.154-129.317,5.564-253.769,0.125-326.983c-0.096-1.293,0.924-2.383,2.221-2.383H264.4c1.146,0,2.108,0.856,2.222,1.996       c7.953,79.471,4.98,199.544-0.117,327.511C266.456,427.615,265.472,428.565,264.275,428.565z"/>
					<path style="fill:#9C3621;" d="M270.488,134.044c-6.309,3.036-13.886,2.501-22.197-0.106c-0.789-0.248-1.326-0.993-1.326-1.82       v-3.957c0-1.05,0.851-1.901,1.901-1.901h20.756c1.05,0,1.901,0.851,1.901,1.901v4.18       C271.523,133.057,271.132,133.734,270.488,134.044z"/>
					<path style="fill:#9C3621;" d="M272.967,219.371c-6.309,3.037-13.886,2.501-22.197-0.106c-0.789-0.248-1.326-0.993-1.326-1.82       v-3.957c0-1.05,0.851-1.901,1.901-1.901h20.756c1.05,0,1.902,0.851,1.902,1.901v4.18       C274.003,218.384,273.611,219.061,272.967,219.371z"/>
					<path style="fill:#9C3621;" d="M270.818,330.977c-6.309,3.037-13.886,2.501-22.197-0.106c-0.789-0.248-1.326-0.993-1.326-1.82       v-3.957c0-1.05,0.851-1.901,1.901-1.901h20.756c1.05,0,1.901,0.851,1.901,1.901v4.18       C271.854,329.989,271.462,330.667,270.818,330.977z"/>
				</g>
				<path style="opacity:0.19;fill:#FFFFFF;" d="M262.301,143.933c-0.851-0.048-1.803,1.389-2.367,4.274      c-0.51,2.605-0.61,5.774-0.601,8.641c0.023,7.318,0.607,13.982,0.792,21.133c0.16,6.221,0.018,12.792,0.297,18.857      c0.111,2.414,0.295,4.777,0.674,6.58c0.379,1.803,0.979,2.992,1.664,2.713c0.651-0.266,1.307-1.822,1.812-3.785      c1.392-5.406,1.794-11.589,2.072-18.045c0.175-4.059,0.232-8.091,0.172-12c-0.119-7.81-0.704-15.147-1.748-21.205      c-0.524-3.038-1.194-5.857-2.156-6.847C262.72,144.05,262.514,143.945,262.301,143.933z"/>
				<path style="opacity:0.19;fill:#FFFFFF;" d="M261.825,225.276c-1.027-0.056-2.203,2.104-2.936,6.416      c-0.662,3.895-0.84,8.622-0.881,12.898c-0.103,10.914,0.483,20.842,0.578,31.505c0.082,9.276-0.208,19.078,0.021,28.119      c0.091,3.599,0.27,7.119,0.696,9.802c0.426,2.682,1.129,4.445,1.962,4.016c0.792-0.408,1.612-2.741,2.258-5.678      c1.779-8.088,2.375-17.316,2.827-26.95c0.284-6.058,0.425-12.072,0.423-17.901c-0.003-11.646-0.579-22.579-1.732-31.595      c-0.578-4.522-1.337-8.715-2.482-10.174C262.329,225.442,262.081,225.29,261.825,225.276z"/>
				<path style="opacity:0.19;fill:#FFFFFF;" d="M260.028,338.702c-1.023-0.111-2.243,1.414-3.07,4.568      c-0.747,2.849-1.031,6.349-1.167,9.523c-0.347,8.102,0.015,15.519-0.13,23.447c-0.126,6.898-0.635,14.161-0.609,20.894      c0.01,2.68,0.11,5.308,0.475,7.33c0.365,2.022,1.026,3.38,1.866,3.117c0.798-0.249,1.668-1.927,2.378-4.065      c1.954-5.889,2.755-12.704,3.421-19.832c0.419-4.482,0.694-8.94,0.823-13.272c0.258-8.653-0.072-16.815-1.019-23.593      c-0.475-3.399-1.138-6.566-2.246-7.728C260.527,338.86,260.283,338.73,260.028,338.702z"/>
			</g>
			<g>
				<g>
					<path style="fill:#00B2A7;" d="M289.164,404.126h-14.422c-1.252,0-2.258-1.034-2.228-2.285       c3.154-129.317,5.564-253.769,0.125-326.983c-0.096-1.293,0.924-2.383,2.221-2.383h14.427c1.146,0,2.108,0.856,2.222,1.996       c7.953,79.471,4.98,199.544-0.117,327.511C291.345,403.176,290.361,404.126,289.164,404.126z"/>
					<path style="fill:#9C3621;" d="M295.376,109.605c-6.309,3.037-13.886,2.501-22.197-0.106c-0.789-0.248-1.326-0.993-1.326-1.82       v-3.957c0-1.05,0.851-1.901,1.901-1.901h20.756c1.05,0,1.901,0.851,1.901,1.901v4.18       C296.412,108.618,296.021,109.295,295.376,109.605z"/>
					<path style="fill:#9C3621;" d="M297.856,194.932c-6.309,3.037-13.886,2.501-22.197-0.106c-0.789-0.248-1.326-0.993-1.326-1.82       v-3.957c0-1.05,0.851-1.901,1.901-1.901h20.756c1.05,0,1.901,0.851,1.901,1.901v4.18       C298.891,193.945,298.5,194.622,297.856,194.932z"/>
					<path style="fill:#9C3621;" d="M295.707,306.538c-6.309,3.036-13.886,2.501-22.197-0.106c-0.789-0.247-1.326-0.993-1.326-1.82       v-3.957c0-1.05,0.851-1.901,1.901-1.901h20.756c1.05,0,1.901,0.851,1.901,1.901v4.18       C296.742,305.55,296.351,306.228,295.707,306.538z"/>
				</g>
				<path style="opacity:0.19;fill:#FFFFFF;" d="M287.19,119.494c-0.851-0.048-1.803,1.389-2.367,4.274      c-0.509,2.605-0.61,5.774-0.601,8.641c0.023,7.318,0.607,13.982,0.791,21.133c0.16,6.221,0.018,12.792,0.297,18.857      c0.111,2.414,0.295,4.777,0.674,6.58c0.379,1.803,0.979,2.992,1.664,2.713c0.651-0.266,1.307-1.822,1.812-3.785      c1.392-5.406,1.794-11.588,2.072-18.045c0.175-4.06,0.232-8.091,0.172-12c-0.119-7.81-0.704-15.147-1.748-21.205      c-0.523-3.038-1.194-5.857-2.156-6.847C287.609,119.611,287.402,119.506,287.19,119.494z"/>
				<path style="opacity:0.19;fill:#FFFFFF;" d="M286.714,200.837c-1.027-0.056-2.203,2.104-2.936,6.416      c-0.662,3.895-0.84,8.623-0.881,12.898c-0.103,10.914,0.483,20.842,0.578,31.505c0.082,9.276-0.208,19.078,0.021,28.119      c0.091,3.599,0.27,7.119,0.696,9.802c0.426,2.682,1.129,4.445,1.962,4.016c0.791-0.408,1.612-2.741,2.258-5.678      c1.779-8.088,2.375-17.316,2.827-26.95c0.284-6.058,0.425-12.072,0.423-17.901c-0.003-11.646-0.579-22.578-1.732-31.595      c-0.578-4.522-1.337-8.714-2.482-10.174C287.218,201.003,286.97,200.851,286.714,200.837z"/>
				<path style="opacity:0.19;fill:#FFFFFF;" d="M284.917,314.263c-1.023-0.111-2.243,1.414-3.07,4.568      c-0.747,2.849-1.031,6.349-1.167,9.523c-0.347,8.102,0.015,15.519-0.13,23.447c-0.126,6.898-0.635,14.161-0.609,20.894      c0.01,2.68,0.11,5.308,0.475,7.33c0.365,2.022,1.026,3.38,1.866,3.117c0.798-0.249,1.668-1.927,2.378-4.065      c1.954-5.889,2.755-12.704,3.421-19.832c0.419-4.482,0.694-8.94,0.823-13.272c0.257-8.653-0.072-16.815-1.019-23.593      c-0.475-3.399-1.138-6.566-2.247-7.728C285.415,314.421,285.172,314.291,284.917,314.263z"/>
			</g>
		</g>
		<g>
			<path style="fill:#192037;" d="M445.511,282.956c-10.499,1.794-19.93,1.798-27.985-0.504l-26.767,84.669     c47.415,1.016,54.871-6.505,54.871-6.505c10.707,10.673,20.027,9.199,26.671,5.057c6.521-4.066,10.888-11.179,12.346-19.066     c3.323-17.978,2.1-31.053-1.284-40.554C477.588,289.838,461.611,280.205,445.511,282.956z"/>
			<path style="opacity:0.13;fill:#C2B2BC;" d="M445.511,282.956c-10.499,1.794-19.93,1.798-27.985-0.504l-26.767,84.669     c47.415,1.016,54.871-6.505,54.871-6.505c10.707,10.673,20.027,9.199,26.671,5.057c6.521-4.066,10.888-11.179,12.346-19.066     c3.323-17.978,2.1-31.053-1.284-40.554C477.588,289.838,461.611,280.205,445.511,282.956z"/>
			<path style="opacity:0.14;fill:#FFFFFF;" d="M475.584,303.6c-1.954-0.7-4.283-0.281-5.86,1.605     c-1.424,1.704-1.96,4.18-2.215,6.498c-0.652,5.916,0.05,11.741-0.215,17.648c-0.23,5.139-1.192,10.323-1.134,15.429     c0.023,2.032,0.218,4.079,0.917,5.827c0.699,1.748,1.965,3.173,3.569,3.479c1.524,0.292,3.184-0.453,4.536-1.642     c3.725-3.276,5.246-7.946,6.507-12.934c0.793-3.136,1.313-6.341,1.553-9.538c0.48-6.387-0.161-12.755-1.979-18.449     c-0.912-2.855-2.183-5.648-4.303-7.194C476.537,304.02,476.073,303.775,475.584,303.6z"/>
			<g>
				<path style="fill:#192037;" d="M362.272,200.47c-4.634,9.921-23.319,27.913-33.138,24.213c-9.82-3.7-0.128-38.432,3.351-48.873      s14.261-15.906,24.081-12.207C366.385,167.302,369.623,184.731,362.272,200.47z"/>
				<path style="opacity:0.13;fill:#C2B2BC;" d="M362.272,200.47c-4.634,9.921-23.319,27.913-33.138,24.213      c-9.82-3.7-0.128-38.432,3.351-48.873s14.261-15.906,24.081-12.207C366.385,167.302,369.623,184.731,362.272,200.47z"/>
				<ellipse style="fill:#192037;" cx="291.513" cy="304.556" rx="136.685" ry="113.982"/>
				<ellipse style="opacity:0.13;fill:#C2B2BC;" cx="291.513" cy="304.556" rx="136.685" ry="113.982"/>
				<path style="opacity:0.14;fill:#FFFFFF;" d="M382.436,234.03c-2.681,0.662-5.051,2.873-5.598,6.191      c-0.494,2.997,0.529,6.21,1.767,9.033c3.16,7.206,7.798,13.3,11.392,20.208c3.126,6.01,5.452,12.616,8.884,18.373      c1.366,2.291,2.937,4.471,4.884,5.936c1.947,1.465,4.324,2.139,6.348,1.293c1.924-0.805,3.318-2.888,4.071-5.248      c2.071-6.498,0.72-12.937-1.135-19.544c-1.167-4.154-2.689-8.182-4.524-11.993c-3.666-7.613-8.593-14.37-14.413-19.482      c-2.919-2.564-6.204-4.79-9.632-4.965C383.795,233.797,383.106,233.865,382.436,234.03z"/>
			</g>
			<path style="fill:#192037;" d="M416.469,378.512c-50.748-16.869-141.565-5.771-141.565-5.771h-97.541     c0,0-90.817-11.098-141.566,5.771c-27.444,9.123-26.328,50.783,1.61,58.017c17.232,4.462,43.02,6.94,81.585,4.713l104.618-0.532     l-0.073,0.1h5.058l-0.073-0.1l104.751,0.532c38.565,2.227,64.353-0.251,81.585-4.713     C442.797,429.296,443.914,387.635,416.469,378.512z"/>
			<path style="opacity:0.14;fill:#FFFFFF;" d="M382.749,382.927c-1.084,1.865-1.229,4.372,0.141,6.432     c1.238,1.861,3.384,2.978,5.449,3.768c5.271,2.017,10.766,2.611,16.116,4.225c4.655,1.404,9.185,3.576,13.875,4.674     c1.867,0.437,3.786,0.699,5.545,0.372c1.76-0.328,3.352-1.316,3.996-2.906c0.613-1.512,0.307-3.4-0.476-5.07     c-2.156-4.6-6.089-7.234-10.371-9.672c-2.693-1.533-5.51-2.798-8.384-3.771c-5.741-1.945-11.72-2.726-17.348-2.134     c-2.823,0.297-5.669,0.979-7.566,2.824C383.349,382.036,383.02,382.462,382.749,382.927z"/>
			<g>
				<g>
					<g>
						<ellipse style="fill:#192037;" cx="330.522" cy="241.974" rx="42.509" ry="45.199"/>
						<ellipse style="fill:#F57486;" cx="330.522" cy="241.974" rx="24.367" ry="25.909"/>
					</g>
				</g>
				<g>
					<g>
						<ellipse style="fill:#192037;" cx="127.614" cy="251.521" rx="42.509" ry="45.199"/>
						<ellipse style="fill:#F57486;" cx="127.614" cy="251.521" rx="24.367" ry="25.909"/>
					</g>
				</g>
				<g>
					<ellipse style="fill:#192037;" cx="172.077" cy="302.862" rx="51.299" ry="56.922"/>
					<ellipse style="fill:#192037;" cx="294.272" cy="302.862" rx="51.299" ry="56.922"/>
				</g>
				<g>
					<path style="fill:#FFFFFF;" d="M365.609,350.488c0,38.299-49.629,73.333-49.629,73.333       c-23.774,9.686-53.41,14.085-85.541,14.085c-30.955,0-59.577-4.076-82.884-13.036c0,0-45.561-38.032-45.561-77.32       c0-1.796-13.103-6.099-13.103-6.099c-6.49-91.21,65.214-132.718,141.323-132.718c75.217,0,145.022,37.501,141.611,130.519       C371.824,339.252,365.609,347.966,365.609,350.488z"/>
					<path style="opacity:0.33;fill:#F7D7B6;" d="M365.609,350.488c0,38.299-49.629,73.333-49.629,73.333       c-23.774,9.686-53.41,14.085-85.541,14.085c-30.955,0-59.577-4.076-82.884-13.036c0,0-45.561-38.032-45.561-77.32       c0-1.796-13.103-6.099-13.103-6.099c-6.49-91.21,65.214-132.718,141.323-132.718c75.217,0,145.022,37.501,141.611,130.519       C371.824,339.252,365.609,347.966,365.609,350.488z"/>
					<g>
						<g>
							<path style="fill:#192037;" d="M247.903,309.47c2.872,25.607,25.461,44.125,50.373,41.364         c14.018-1.558,25.845-9.59,32.934-20.878c5.555-8.723,8.222-19.406,6.966-30.556c-0.136-1.089-0.273-2.176-0.546-3.277         c-4.194-23.397-25.075-40.022-48.313-38.223c-0.545-0.005-1.005,0.044-1.509,0.09c-12.042,1.327-22.433,7.438-29.589,16.243         C250.469,283.634,246.415,296.193,247.903,309.47z"/>
						</g>
					</g>
					<g>
						<path style="fill:#F57486;" d="M166.48,385.279c0,15.982-7.383,30.248-18.926,39.591        c-35.62-13.661-58.806-38.723-58.806-78.011c0-1.796,0.041-3.592,0.142-5.408c7.688-4.581,16.694-7.204,26.289-7.204        C143.517,334.247,166.48,357.09,166.48,385.279z"/>
						<path style="fill:#F57486;" d="M372.108,346.859c0,38.299-22.009,63.059-56.128,76.962        c-10.832-9.343-17.688-23.145-17.688-38.541c0-28.19,22.983-51.032,51.321-51.032c7.952,0,15.497,1.796,22.212,5.004        C372.007,341.814,372.108,344.337,372.108,346.859z"/>
					</g>
				</g>
				<g>
					<g>
						<g>
							<path style="fill:#FFFFFF;" d="M275.357,331.849c16.074,9.561,36.407,3.447,45.382-13.603         c5.047-9.596,5.41-20.679,1.871-30.2c-2.702-7.407-7.767-13.85-14.769-18.01c-0.689-0.398-1.378-0.794-2.133-1.111         c-15.354-7.738-33.863-1.868-42.685,13.691c-0.234,0.344-0.401,0.658-0.589,0.999c-4.343,8.238-5.209,17.555-3.139,26.014         C261.458,318.732,267.023,326.891,275.357,331.849z"/>
						</g>
					</g>
					<path style="fill:#00B2A7;" d="M268.324,320.53c12.73,9.588,30.83,7.274,41.013-5.245c7.905-9.718,9.443-22.969,5.022-34.048       c-3.818-9.57-12.916-15.816-22.697-15.937c-11.451-0.142-22.62,6.023-28.892,17.085c-0.234,0.344-0.401,0.658-0.589,0.998       c-1.903,3.61-3.138,7.427-3.752,11.288c-1.548,9.745,2.074,19.831,9.614,25.645C268.137,320.388,268.23,320.459,268.324,320.53       z"/>
				</g>
				<g>
					<g>
						<path style="fill:#192037;" d="M131.426,328.219c12.481,22.145,40.772,29.165,63.112,15.718        c12.57-7.571,20.608-20.097,22.952-33.522c1.884-10.409,0.306-21.342-5.133-30.982c-0.544-0.935-1.088-1.869-1.765-2.756        c-12.879-19.545-38.841-25.584-59.977-13.751c-0.514,0.234-0.927,0.481-1.383,0.744        c-10.802,6.492-18.226,16.634-21.581,27.819C123.964,303.481,124.955,316.738,131.426,328.219z"/>
					</g>
				</g>
				<g>
					<g>
						<g>
							<path style="fill:#FFFFFF;" d="M160.462,333.746c16.074,9.561,36.407,3.447,45.382-13.603         c5.048-9.596,5.41-20.679,1.871-30.2c-2.702-7.407-7.767-13.85-14.769-18.01c-0.689-0.398-1.378-0.794-2.133-1.11         c-15.354-7.738-33.863-1.868-42.685,13.691c-0.234,0.344-0.401,0.658-0.589,0.999c-4.343,8.238-5.209,17.555-3.139,26.014         C146.563,320.63,152.128,328.789,160.462,333.746z"/>
						</g>
					</g>
					<path style="fill:#00B2A7;" d="M153.429,322.428c12.73,9.588,30.83,7.274,41.013-5.245c7.905-9.718,9.443-22.969,5.022-34.048       c-3.818-9.57-12.916-15.815-22.697-15.937c-11.451-0.142-22.62,6.023-28.892,17.085c-0.234,0.344-0.401,0.658-0.589,0.998       c-1.903,3.61-3.138,7.427-3.752,11.288c-1.548,9.745,2.074,19.831,9.614,25.645       C153.242,322.286,153.335,322.357,153.429,322.428z"/>
				</g>
				<g>
					<path style="fill:#192037;" d="M286.949,248.24c10.914-8.029,26.488-3.573,35.374,5.838c3.007,3.092,5.533,6.65,7.202,10.747       c0.201,0.495-0.012,1.07-0.476,1.285c-0.266,0.123-0.568,0.095-0.806-0.039c-6.785-3.958-12.79-8.314-19.669-11.447       c-6.829-3.184-13.438-4.404-21.116-4.615C286.598,250.026,286.233,248.732,286.949,248.24L286.949,248.24z"/>
				</g>
				<g>
					<path style="fill:#192037;" d="M170.559,249.864c-8.363,1.581-15.646,4.118-22.698,8.758       c-7.281,4.468-12.846,10.587-19.699,16.154c-0.403,0.363-1.027,0.306-1.331-0.168c3.924-19.07,26.071-34.406,43.936-26.58       C171.585,248.373,171.425,249.745,170.559,249.864L170.559,249.864z"/>
				</g>
				<path style="fill:#192037;" d="M247.202,329.276c0-4.893-6.835-8.86-15.266-8.86c-8.432,0-15.267,3.967-15.267,8.86      c0,4.097,4.799,7.535,11.307,8.549c0.609,3.335,2.15,5.708,3.959,5.708c1.809,0,3.35-2.373,3.959-5.708      C242.403,336.812,247.202,333.374,247.202,329.276z"/>
				<g>
					<g>
						<path style="fill:#192037;" d="M210.059,338.49c0,0,4.144,7.4,15.633,13.706c12.011,6.592,22.79,4.225,22.79,4.225        c0.447,0.104,0.738,0.591,0.59,1.063c-14.44,7.168-36.018-0.975-40.315-18.179        C208.553,338.524,209.527,337.918,210.059,338.49L210.059,338.49z"/>
					</g>
				</g>
			</g>
		</g>
	</g>
</g>















</svg>
