<?xml version="1.0" encoding="UTF-8"?>
<!-- Generator: Adobe Illustrator 27.1.1, SVG Export Plug-In . SVG Version: 6.00 Build 0)  -->
<svg xmlns="http://www.w3.org/2000/svg" xmlns:xlink="http://www.w3.org/1999/xlink" version="1.1" id="Capa_1" x="0px" y="0px" viewBox="0 0 512 512" style="enable-background:new 0 0 512 512;" xml:space="preserve" width="512" height="512">
<g>
	<path style="fill:#FFFFFF;" d="M476.335,420.505c23.058-6.676,20.688-32.096-2.292-36.308c8.691-10.056,15.672-24.344,15.67-36.755   c0.388-15.037-8.356-26.816-22.527-27.368c-1.555-7.098-4.884-12.962-9.676-16.924c-2.545-10.152-6.619-20.001-12.135-29.332   c-12.133-20.526-21.177-42.213-26.882-64.459c-5.087-19.694-7.504-39.763-7.198-59.677c0.205-16.86-2.408-34.134-7.877-49.914   c52.056-36.088-5.913-109.131-52.9-66.589c-30.69-17.782-68.894-16.624-98.585,2.917c-24.694-30.688-76.22-12.39-75.791,27.26   c-0.209,17.048,10.837,33.381,26.627,39.631c-0.553,1.747-1.075,3.51-1.563,5.286c-37.833-6.132-79.622,14.591-93.854,50.925   c-1.676,4.243-3.013,8.631-4.113,13.064c-8.41,35.859-12.567,72.091-8.584,108.207c-41.419-15.72-74.969,31.944-55.09,68.738   c-60.051,11.432-48.884,101.6,14.167,96.003c16.717,12.08,39.081,13.494,58.398,16.707c-5.671,6.765-4.142,16.995,3.71,22.354   c6.592,4.73,14.938,5.327,20.462,5.723c50.508,3.738,107.248,0.659,158.328-1.467c37.115-1.603,129.893-5.456,165.917-7.003   c14.429-0.88,39.819-0.019,49.355-19.082C519.506,441.092,494.001,425.161,476.335,420.505z"/>
	<g>
		<g>
			<path style="fill:#9C3621;" d="M268.036,213.868c-0.319-9.383-1.081-18.729-2.856-27.98     c-3.99-20.795-13.772-41.549-31.939-54.788c-18.276-13.319-44.013-17.491-66.496-11.406     c-14.443,3.909-27.365,11.91-37.071,22.301c-10.263,10.988-14.567,22.329-17.639,36.06c-1.489,6.655-2.832,13.338-3.997,20.046     c-2.277,13.104-3.888,26.31-4.592,39.562c-1.396,26.291,0.824,52.854,8.483,78.308c6.209,20.638,16.658,41.258,35.445,54.24     c18.786,12.982,47.438,15.983,65.612,2.305c4.795,8.313,18.176,9.902,27.247,5.367c9.071-4.535,14.495-13.319,18.226-22.067     c14.308-33.542,10.19-70.802,9.809-106.755C268.142,237.346,268.434,225.578,268.036,213.868z"/>
			<g style="opacity:0.33;">
				<path style="opacity:0.49;fill:#192037;" d="M137.471,158.14c0.846-8.363,1.609-16.733,2.219-25.117      c-3.615,2.725-6.982,5.722-10.017,8.972c-4.988,5.34-8.561,10.767-11.276,16.508      C124.745,158.632,131.115,158.417,137.471,158.14z"/>
				<path style="opacity:0.49;fill:#192037;" d="M122.888,181.752c3.909,0.454,7.826,0.884,11.758,1.073      c0.038,0.002,0.076,0.002,0.114,0.004c0.868-7.531,1.719-15.064,2.494-22.604c-6.586,0.279-13.19,0.475-19.773,0.307      c-2.371,5.473-4.042,11.247-5.447,17.525c-0.18,0.802-0.336,1.609-0.511,2.412C115.322,180.824,119.113,181.314,122.888,181.752      z"/>
				<path style="opacity:0.49;fill:#192037;" d="M128.836,235.625c0.267-2.747,0.52-5.494,0.815-8.241      c0.544-5.073,1.13-10.142,1.711-15.212c-5.749,0.081-11.499,0.052-17.241-0.277c-2.704-0.155-5.401-0.404-8.092-0.706      c-1.111,8.09-1.95,16.21-2.446,24.35C111.944,236.402,120.435,236.191,128.836,235.625z"/>
				<path style="opacity:0.49;fill:#192037;" d="M127.09,255.773c0.468-6.022,0.969-12.041,1.539-18.057      c-8.358,0.544-16.832,0.747-25.182-0.1c-0.001,0.016-0.002,0.031-0.003,0.047c-0.281,5.291-0.408,10.593-0.381,15.895      C110.821,255.568,118.993,255.934,127.09,255.773z"/>
				<path style="opacity:0.49;fill:#192037;" d="M124.282,299.073c0.313-5.628,0.643-11.255,0.986-16.88      c0.119-1.948,0.273-3.89,0.398-5.836c-2.396-0.085-4.791-0.213-7.182-0.411c-4.334-0.36-8.569-1.137-12.867-1.729      c-0.536-0.074-1.064-0.155-1.588-0.243c0.69,7.842,1.785,15.65,3.311,23.391C112.976,298.035,118.625,298.588,124.282,299.073z"/>
				<path style="opacity:0.49;fill:#192037;" d="M123.01,338.251c-0.001-0.208-0.011-0.415-0.011-0.624      c0.003-5.111,0.11-10.219,0.264-15.326c-2.381-0.643-4.728-1.432-7.074-2.171c-1.074-0.338-2.151-0.671-3.231-0.996      c2.066,6.39,4.564,12.728,7.601,18.81C121.376,338.044,122.193,338.148,123.01,338.251z"/>
				<path style="opacity:0.49;fill:#192037;" d="M112.147,316.648c2.827,0.845,5.616,1.807,8.34,2.65      c0.939,0.291,1.885,0.556,2.835,0.808c0.212-6.318,0.509-12.634,0.85-18.948c-5.481-0.473-10.952-1.047-16.416-1.692      c1.153,5.543,2.529,11.051,4.17,16.505C111.995,316.198,112.078,316.422,112.147,316.648z"/>
				<path style="opacity:0.49;fill:#192037;" d="M108.068,272.52c2.174,0.393,4.361,0.711,6.556,0.962      c3.715,0.424,7.448,0.645,11.185,0.772c0.358-5.48,0.704-10.962,1.12-16.434c-7.953,0.137-16.133-0.192-23.843-2.102      c0.072,5.377,0.324,10.752,0.746,16.114C105.242,272.073,106.661,272.266,108.068,272.52z"/>
				<path style="opacity:0.49;fill:#192037;" d="M131.606,210.002c0.969-8.408,1.954-16.815,2.928-25.223      c-5.601-0.306-11.162-0.894-16.774-1.543c-2.207-0.255-4.435-0.508-6.671-0.72c-1.105,5.181-2.146,10.373-3.052,15.585      c-0.634,3.647-1.201,7.303-1.727,10.964C114.708,209.965,123.147,210.097,131.606,210.002z"/>
				<path style="opacity:0.49;fill:#192037;" d="M150.069,157.606c1.126-0.038,2.253-0.06,3.38-0.094      c0.08-0.695,0.165-1.389,0.244-2.084c1.234-10.772,2.318-21.556,3.428-32.341c0.003-0.025,0.006-0.049,0.008-0.074      c-5.415,2.255-10.527,5.093-15.241,8.399c-0.627,8.889-1.428,17.765-2.32,26.633      C143.075,157.888,146.578,157.726,150.069,157.606z"/>
				<path style="opacity:0.49;fill:#192037;" d="M147.541,182.927c0.974,0.002,1.947,0.002,2.921,0.004      c0.923-7.77,1.844-15.542,2.74-23.315c-2.955,0.087-5.911,0.174-8.864,0.301c-1.66,0.072-3.322,0.146-4.985,0.219      c-0.657,6.417-1.351,12.83-2.085,19.238c-0.134,1.173-0.274,2.346-0.41,3.519C140.416,182.985,143.984,182.921,147.541,182.927z      "/>
				<path style="opacity:0.49;fill:#192037;" d="M147.214,209.733c1.01-8.237,2.021-16.474,3.003-24.715      c-2.834-0.006-5.669-0.012-8.503-0.014c-1.703-0.002-3.396-0.058-5.087-0.126c-0.974,8.368-1.972,16.734-2.94,25.104      C138.191,209.914,142.701,209.808,147.214,209.733z"/>
				<path style="opacity:0.49;fill:#192037;" d="M135.642,235.117c2.869-0.237,5.737-0.469,8.606-0.703      c0.554-4.875,1.136-9.746,1.742-14.613c0.332-2.666,0.644-5.335,0.972-8.001c-1.826,0.05-3.652,0.093-5.479,0.148      c-2.68,0.08-5.361,0.146-8.043,0.197c-0.837,7.283-1.653,14.569-2.398,21.862c-0.05,0.492-0.088,0.985-0.137,1.478      C132.488,235.368,134.07,235.246,135.642,235.117z"/>
				<path style="opacity:0.49;fill:#192037;" d="M139.225,255.273c0.972-0.05,1.945-0.079,2.918-0.125      c0.56-6.229,1.176-12.453,1.87-18.669c-4.432,0.391-8.864,0.784-13.303,1.1c-0.587,6.044-1.083,12.093-1.548,18.144      C132.55,255.621,135.916,255.445,139.225,255.273z"/>
				<path style="opacity:0.49;fill:#192037;" d="M127.878,274.34c4.284,0.096,8.567,0.041,12.849-0.091      c0.34-5.684,0.737-11.365,1.23-17.038c-3.058,0.163-6.117,0.329-9.177,0.444c-1.247,0.047-2.507,0.086-3.772,0.119      c-0.414,5.519-0.792,11.041-1.151,16.565C127.863,274.339,127.87,274.34,127.878,274.34z"/>
				<path style="opacity:0.49;fill:#192037;" d="M139.88,300.182c0.001-5.265,0.102-10.533,0.308-15.805      c0.105-2.685,0.277-5.365,0.427-8.046c-4.296,0.132-8.594,0.167-12.888,0.065c-0.268,4.171-0.531,8.342-0.782,12.517      c-0.207,3.441-0.399,6.885-0.59,10.328C130.86,299.609,135.368,299.924,139.88,300.182z"/>
				<path style="opacity:0.49;fill:#192037;" d="M136.732,361.165c2.769,2.83,5.771,5.472,9.043,7.871      c-0.358-2.215-0.687-4.434-1.023-6.652C142.066,362.062,139.393,361.65,136.732,361.165z"/>
				<path style="opacity:0.49;fill:#192037;" d="M125.217,346.354c2.673,4.306,5.681,8.406,9.074,12.207      c3.355,0.699,6.734,1.26,10.133,1.682c-0.568-3.842-1.106-7.689-1.583-11.545c-0.241-1.947-0.421-3.897-0.631-5.846      c-5.695-0.719-11.388-1.509-17.086-2.243c0.008,1.246-0.01,2.491,0.009,3.738C125.142,345.018,125.196,345.684,125.217,346.354z      "/>
				<path style="opacity:0.49;fill:#192037;" d="M141.98,340.737c-0.528-5.163-0.99-10.329-1.313-15.501      c-0.333-0.043-0.666-0.077-0.999-0.122c-4.543-0.608-9.122-1.219-13.615-2.138c-0.248-0.051-0.492-0.119-0.739-0.174      c-0.151,5.236-0.204,10.474-0.198,15.713C130.74,339.24,136.357,340.023,141.98,340.737z"/>
				<path style="opacity:0.49;fill:#192037;" d="M140.568,323.174c-0.397-6.95-0.637-13.906-0.672-20.871      c-4.557-0.261-9.112-0.573-13.661-0.948c-0.346,6.418-0.633,12.839-0.84,19.262      C130.379,321.801,135.474,322.551,140.568,323.174z"/>
				<path style="opacity:0.49;fill:#192037;" d="M182.68,156.847c0.886-7.961,1.755-15.941,3.134-23.807      c0.94-5.362,2.045-10.704,2.996-16.067c-7.455-0.101-14.924,0.788-22.065,2.721c-2.522,0.683-4.977,1.532-7.397,2.455      c-0.364,3.274-0.685,6.556-1.019,9.837c-0.867,8.496-1.816,16.984-2.795,25.468C164.581,157.204,173.631,157.057,182.68,156.847      z"/>
				<path style="opacity:0.49;fill:#192037;" d="M179.545,182.859c0.68-5.56,1.368-11.118,2.054-16.677      c0.297-2.403,0.569-4.814,0.839-7.227c-9.048,0.219-18.099,0.347-27.145,0.591c-0.176,1.513-0.343,3.027-0.521,4.54      c-0.738,6.285-1.505,12.566-2.263,18.849C161.522,182.951,170.534,182.946,179.545,182.859z"/>
				<path style="opacity:0.49;fill:#192037;" d="M174.001,231.971c0.695-6.996,1.433-13.987,2.221-20.973      c-9.06,0.28-18.122,0.505-27.185,0.746c-0.655,5.43-1.318,10.859-1.965,16.29c-0.246,2.068-0.483,4.138-0.718,6.208      C155.57,233.491,164.787,232.738,174.001,231.971z"/>
				<path style="opacity:0.49;fill:#192037;" d="M172.014,254.218c0.532-6.698,1.105-13.392,1.757-20.077      c0.001-0.013,0.003-0.026,0.004-0.04c-0.646,0.053-1.292,0.113-1.938,0.165c-7.335,0.594-14.676,1.11-22.011,1.708      c-1.237,0.101-2.473,0.214-3.709,0.322c-0.699,6.246-1.312,12.502-1.875,18.762      C153.496,254.652,162.754,254.413,172.014,254.218z"/>
				<path style="opacity:0.49;fill:#192037;" d="M154.74,273.611c5.329-0.294,10.657-0.564,15.985-0.834      c0.339-5.488,0.708-10.975,1.133-16.458c-6.223,0.136-12.446,0.27-18.668,0.413c-3.043,0.07-6.084,0.214-9.123,0.371      c-0.495,5.686-0.926,11.376-1.27,17.072C146.78,274.029,150.761,273.83,154.74,273.611z"/>
				<path style="opacity:0.49;fill:#192037;" d="M147.994,300.63c7.136,0.306,14.277,0.441,21.418,0.492      c0.004-0.144,0.006-0.287,0.01-0.431c0.25-8.567,0.657-17.128,1.165-25.684c-8.339,0.419-16.681,0.792-25.019,1.151      c-0.961,0.041-1.924,0.065-2.886,0.101c-0.297,5.258-0.528,10.52-0.645,15.787c-0.062,2.751-0.091,5.501-0.092,8.25      C143.963,300.404,145.977,300.543,147.994,300.63z"/>
				<path style="opacity:0.49;fill:#192037;" d="M145.712,323.78c7.792,0.894,15.613,1.493,23.445,1.853      c-0.061-7.465,0.012-14.932,0.205-22.393c-9.137-0.066-18.272-0.344-27.396-0.832c0.036,7.016,0.271,14.022,0.684,21.018      C143.672,323.546,144.693,323.663,145.712,323.78z"/>
				<path style="opacity:0.49;fill:#192037;" d="M152.703,341.966c5.61,0.543,11.244,0.821,16.88,0.999      c-0.202-5.078-0.35-10.158-0.41-15.239c-8.821-0.406-17.623-1.145-26.388-2.23c0.333,5.174,0.763,10.343,1.291,15.505      C146.949,341.352,149.824,341.687,152.703,341.966z"/>
				<path style="opacity:0.49;fill:#192037;" d="M146.573,360.484c2.673,0.291,5.351,0.535,8.035,0.693      c5.36,0.316,10.725,0.379,16.092,0.414c-0.433-5.497-0.792-11-1.035-16.508c-7.853-0.292-15.694-0.819-23.49-1.736      c-0.621-0.073-1.242-0.156-1.864-0.232c0.47,4.371,0.994,8.739,1.605,13.1C146.116,357.641,146.361,359.06,146.573,360.484z"/>
				<path style="opacity:0.49;fill:#192037;" d="M170.873,363.789c-7.318-0.056-14.632-0.281-21.895-0.948      c-0.693-0.064-1.385-0.152-2.078-0.225c0.413,2.696,0.8,5.396,1.243,8.088c7.16,4.78,15.674,8.127,24.461,9.709      c-0.561-4.48-1.069-8.966-1.483-13.46C171.025,365.899,170.962,364.843,170.873,363.789z"/>
				<path style="opacity:0.49;fill:#192037;" d="M176.446,208.998c0.912-8.02,1.87-16.035,2.847-24.048      c-9.01,0.085-18.022,0.088-27.033,0.071c-0.994,8.224-1.982,16.448-2.975,24.671      C158.34,209.548,167.395,209.323,176.446,208.998z"/>
				<path style="opacity:0.49;fill:#192037;" d="M195.862,156.464c4.64-0.174,9.278-0.385,13.915-0.617      c0.768-5.237,1.602-10.463,2.423-15.709c0.971-6.2,1.795-12.528,1.849-18.838c-7.396-2.503-15.248-3.947-23.162-4.252      c-1.409,7.849-3.149,15.644-4.09,23.566c-0.641,5.397-1.316,10.79-1.978,16.185      C188.501,156.707,192.182,156.602,195.862,156.464z"/>
				<path style="opacity:0.49;fill:#192037;" d="M203.575,207.724c0.924-7.81,1.831-15.622,2.726-23.436      c-3.213,0.138-6.426,0.283-9.642,0.37c-5.092,0.138-10.184,0.221-15.276,0.277c-0.974,7.988-1.921,15.98-2.831,23.976      C186.896,208.597,195.238,208.209,203.575,207.724z"/>
				<path style="opacity:0.49;fill:#192037;" d="M200.927,229.638c0.814-6.608,1.611-13.219,2.396-19.831      c-1.858,0.108-3.714,0.232-5.573,0.33c-6.477,0.345-12.954,0.584-19.432,0.794c-0.784,6.95-1.513,13.906-2.207,20.865      C184.386,231.104,192.658,230.392,200.927,229.638z"/>
				<path style="opacity:0.49;fill:#192037;" d="M195.511,271.41c0.673-5.237,1.357-10.473,2.05-15.708      c-6.115,0.158-12.229,0.318-18.344,0.454c-1.764,0.039-3.528,0.078-5.291,0.117c-0.425,5.462-0.79,10.928-1.126,16.397      C180.372,272.285,187.943,271.888,195.511,271.41z"/>
				<path style="opacity:0.49;fill:#192037;" d="M174.947,361.618c4.538,0.03,9.077-0.003,13.616-0.02      c0.035-1.331,0.061-2.663,0.101-3.994c0.122-4.077,0.284-8.153,0.456-12.228c-5.78,0.023-11.564-0.029-17.344-0.211      c0.242,5.486,0.574,10.966,1,16.44C173.499,361.608,174.223,361.613,174.947,361.618z"/>
				<path style="opacity:0.49;fill:#192037;" d="M172.955,363.799c0.287,3.456,0.601,6.91,0.98,10.358      c0.242,2.2,0.527,4.392,0.816,6.583c4.465,0.653,8.975,0.837,13.396,0.524c0.095-5.845,0.216-11.688,0.362-17.532      C183.335,363.769,178.146,363.817,172.955,363.799z"/>
				<path style="opacity:0.49;fill:#192037;" d="M178.934,343.192c3.421,0.058,6.843,0.061,10.264,0.06      c0.225-5.047,0.485-10.092,0.791-15.135c-6.243,0.044-12.487-0.062-18.725-0.314c0.061,5.079,0.216,10.156,0.417,15.231      C174.099,343.099,176.518,343.151,178.934,343.192z"/>
				<path style="opacity:0.49;fill:#192037;" d="M190.128,326.033c0.486-7.694,1.057-15.382,1.784-23.057      c-6.809,0.188-13.622,0.283-20.434,0.257c-0.044,1.68-0.121,3.359-0.152,5.038c-0.109,5.813-0.14,11.629-0.091,17.445      C177.529,325.971,183.828,326.08,190.128,326.033z"/>
				<path style="opacity:0.49;fill:#192037;" d="M192.112,300.904c0.217-2.213,0.397-4.43,0.639-6.641      c0.756-6.909,1.6-13.81,2.48-20.708c-7.515,0.513-15.036,0.965-22.561,1.351c-0.516,8.738-0.877,17.484-1.128,26.232      C178.399,301.163,185.257,301.096,192.112,300.904z"/>
				<path style="opacity:0.49;fill:#192037;" d="M186.504,253.905c3.778-0.088,7.556-0.204,11.335-0.302      c0.965-7.283,1.926-14.567,2.83-21.855c-8.251,0.762-16.505,1.49-24.764,2.171c-0.26,2.653-0.536,5.304-0.777,7.959      c-0.373,4.094-0.699,8.194-1.026,12.293C178.235,254.086,182.369,254.001,186.504,253.905z"/>
				<path style="opacity:0.49;fill:#192037;" d="M202.216,182.402c1.443-0.05,2.883-0.141,4.325-0.202      c0.518-4.542,1.054-9.081,1.56-13.624c0.397-3.56,0.874-7.099,1.378-10.632c-6.407,0.319-12.816,0.591-19.224,0.804      c-1.896,0.063-3.793,0.101-5.69,0.151c-0.643,5.231-1.273,10.464-1.918,15.694c-0.339,2.747-0.671,5.495-1.007,8.242      C188.499,182.756,195.358,182.639,202.216,182.402z"/>
				<path style="opacity:0.49;fill:#192037;" d="M237.485,154.01c0.171-2.251,0.317-4.503,0.509-6.752      c0.327-3.834,0.642-7.671,0.926-11.51c-1.799-1.629-3.68-3.191-5.679-4.648c-5.183-3.777-10.989-6.766-17.128-9.041      c-0.141,7.955-1.42,15.886-2.727,23.711c-0.554,3.32-1.045,6.641-1.512,9.964C220.418,155.288,228.957,154.723,237.485,154.01z"/>
				<path style="opacity:0.49;fill:#192037;" d="M235.712,180.232c0.042-0.67,0.082-1.34,0.123-2.011      c0.461-7.368,0.948-14.734,1.49-22.096c-8.57,0.715-17.155,1.271-25.744,1.717c-0.794,5.833-1.497,11.674-2.159,17.543      c-0.253,2.24-0.523,4.477-0.778,6.716C217.682,181.685,226.705,181.057,235.712,180.232z"/>
				<path style="opacity:0.49;fill:#192037;" d="M221.72,227.643c3.705-0.376,7.406-0.791,11.109-1.186      c0.404-6.287,0.821-12.572,1.207-18.86c-9.527,0.823-19.066,1.515-28.611,2.086c-0.783,6.587-1.596,13.17-2.404,19.754      C209.256,228.863,215.49,228.276,221.72,227.643z"/>
				<path style="opacity:0.49;fill:#192037;" d="M231.072,252.514c0.308-4.216,0.611-8.432,0.898-12.649      c0.256-3.766,0.48-7.535,0.723-11.302c-9.97,1.064-19.947,2.057-29.931,2.988c-0.279,2.264-0.544,4.531-0.827,6.794      c-0.633,5.069-1.299,10.135-1.972,15.202C210.336,253.272,220.706,252.934,231.072,252.514z"/>
				<path style="opacity:0.49;fill:#192037;" d="M204.336,325.699c7.221-0.287,14.433-0.745,21.634-1.345      c0.286-7.659,0.618-15.315,1.119-22.964c0.005-0.083,0.013-0.165,0.018-0.248c-9.978,0.768-19.97,1.352-29.971,1.706      c-1.057,0.037-2.114,0.046-3.171,0.079c-0.729,7.682-1.281,15.377-1.76,23.077C196.25,325.952,200.295,325.859,204.336,325.699z      "/>
				<path style="opacity:0.49;fill:#192037;" d="M205.111,343.061c6.763-0.178,13.52-0.498,20.274-0.888      c0.159-5.246,0.318-10.491,0.506-15.735c-9.271,0.772-18.56,1.313-27.862,1.552c-1.983,0.051-3.968,0.079-5.953,0.103      c-0.301,5.054-0.537,10.112-0.76,15.171C195.914,343.246,200.513,343.182,205.111,343.061z"/>
				<path style="opacity:0.49;fill:#192037;" d="M196.313,361.587c9.495-0.099,18.989-0.335,28.476-0.723      c0.192-5.522,0.36-11.045,0.527-16.569c-8.765,0.505-17.54,0.837-26.319,0.982c-2.593,0.043-5.19,0.071-7.787,0.09      c-0.228,5.408-0.396,10.818-0.547,16.228C192.546,361.585,194.429,361.606,196.313,361.587z"/>
				<path style="opacity:0.49;fill:#192037;" d="M190.835,363.716c-0.081,0-0.163,0.001-0.244,0.002      c-0.012,0.46-0.035,0.919-0.046,1.379c-0.131,5.33-0.241,10.661-0.344,15.992c8.319-0.896,16.23-3.64,22.782-8.571      c2.233,3.871,6.336,6.266,10.991,7.281c0.299-5.612,0.53-11.226,0.733-16.838C213.422,363.419,202.126,363.653,190.835,363.716z      "/>
				<path style="opacity:0.49;fill:#192037;" d="M204.444,300.464c7.614-0.349,15.221-0.853,22.82-1.439      c0.672-9.444,1.626-18.865,2.404-28.301c0.001-0.011,0.002-0.023,0.003-0.034c-9.31,0.909-18.629,1.727-27.957,2.424      c-1.453,0.109-2.909,0.194-4.363,0.296c-1.179,9.129-2.285,18.265-3.186,27.42C197.591,300.725,201.019,300.621,204.444,300.464      z"/>
				<path style="opacity:0.49;fill:#192037;" d="M210.848,270.31c6.334-0.525,12.662-1.116,18.988-1.734      c0.376-4.644,0.742-9.289,1.085-13.936c-10.409,0.421-20.82,0.735-31.234,1.01c-0.693,5.207-1.383,10.416-2.062,15.625      C202.034,270.987,206.441,270.674,210.848,270.31z"/>
				<path style="opacity:0.49;fill:#192037;" d="M234.163,205.511c0.473-7.723,0.941-15.446,1.42-23.168      c-9.047,0.82-18.107,1.443-27.183,1.865c-0.893,7.798-1.808,15.594-2.732,23.389      C215.175,207.025,224.675,206.332,234.163,205.511z"/>
				<path style="opacity:0.49;fill:#192037;" d="M242.009,153.639c3.564-0.321,7.126-0.678,10.686-1.06      c-3.303-5.419-7.214-10.484-11.829-14.992c-0.424,5.42-0.908,10.835-1.333,16.255      C240.358,153.771,241.184,153.713,242.009,153.639z"/>
				<path style="opacity:0.49;fill:#192037;" d="M256.649,178.013c2.164-0.267,4.323-0.574,6.485-0.86      c-2.16-7.839-5.203-15.518-9.283-22.632c-4.82,0.525-9.645,1.001-14.477,1.419c-0.605,8.026-1.087,16.064-1.572,24.1      C244.091,179.442,250.376,178.787,256.649,178.013z"/>
				<path style="opacity:0.49;fill:#192037;" d="M260.165,202.932c2.39-0.271,4.776-0.577,7.164-0.866      c-0.459-5.416-1.121-10.814-2.15-16.177c-0.429-2.237-0.944-4.471-1.512-6.697c-4.175,0.554-8.353,1.083-12.537,1.566      c-4.483,0.518-8.969,0.987-13.459,1.41c-0.082,1.359-0.165,2.719-0.248,4.079c-0.391,6.358-0.78,12.716-1.169,19.074      C244.234,204.613,252.206,203.833,260.165,202.932z"/>
				<path style="opacity:0.49;fill:#192037;" d="M268.217,222.384c-0.031-2.841-0.085-5.68-0.181-8.515      c-0.111-3.243-0.302-6.478-0.542-9.71c-4.603,0.557-9.21,1.081-13.82,1.571c-5.844,0.621-11.694,1.171-17.548,1.688      c-0.384,6.271-0.775,12.542-1.176,18.812C246.049,225.034,257.14,223.766,268.217,222.384z"/>
				<path style="opacity:0.49;fill:#192037;" d="M238.473,252.235c9.945-0.45,19.885-1.018,29.817-1.71      c-0.007-0.487-0.019-0.977-0.024-1.463c-0.087-8.192,0.021-16.41-0.037-24.615c-2.304,0.287-4.605,0.604-6.909,0.883      c-8.827,1.068-17.664,2.059-26.504,3.011c-0.427,6.617-0.868,13.233-1.339,19.847c-0.101,1.417-0.227,2.832-0.335,4.248      C234.919,252.362,236.697,252.316,238.473,252.235z"/>
				<path style="opacity:0.49;fill:#192037;" d="M267.11,264.505c0.496-0.06,0.991-0.127,1.488-0.187      c-0.108-3.911-0.209-7.816-0.274-11.706c-11.772,0.822-23.558,1.451-35.349,1.943c-0.36,4.609-0.748,9.216-1.143,13.823      C243.604,267.21,255.364,265.914,267.11,264.505z"/>
				<path style="opacity:0.49;fill:#192037;" d="M260.665,295.769c2.81-0.334,5.614-0.709,8.42-1.07      c0.103-9.42-0.171-18.894-0.433-28.334c-3.358,0.405-6.713,0.843-10.073,1.232c-8.968,1.038-17.944,2.006-26.928,2.896      c-0.813,9.456-1.637,18.911-2.294,28.377C239.811,298.033,250.251,297.007,260.665,295.769z"/>
				<path style="opacity:0.49;fill:#192037;" d="M263.616,319.996c1.351-0.197,2.697-0.425,4.047-0.629      c0.86-7.449,1.254-14.983,1.384-22.557c-5.035,0.647-10.074,1.259-15.12,1.818c-8.223,0.911-16.461,1.677-24.709,2.335      c-0.19,2.845-0.371,5.69-0.522,8.538c-0.26,4.889-0.468,9.78-0.651,14.672C239.939,323.137,251.802,321.716,263.616,319.996z"/>
				<path style="opacity:0.49;fill:#192037;" d="M257.717,339.57c2.147-0.225,4.289-0.489,6.433-0.733      c1.447-5.709,2.495-11.496,3.243-17.338c-3.529,0.53-7.058,1.064-10.595,1.542c-9.583,1.293-19.195,2.385-28.829,3.225      c-0.189,5.262-0.348,10.525-0.505,15.788C237.565,341.44,247.653,340.624,257.717,339.57z"/>
				<path style="opacity:0.49;fill:#192037;" d="M238.764,360.182c6.114-0.362,12.224-0.82,18.327-1.35      c0.478-1.002,0.936-2.009,1.366-3.016c2.073-4.861,3.738-9.804,5.102-14.805c-3.986,0.449-7.976,0.876-11.969,1.26      c-8.051,0.773-16.116,1.393-24.189,1.884c-0.164,5.543-0.34,11.087-0.533,16.629C230.835,360.612,234.8,360.417,238.764,360.182      z"/>
				<path style="opacity:0.49;fill:#192037;" d="M226.792,362.865c-0.09,2.503-0.172,5.008-0.278,7.51      c-0.138,3.259-0.301,6.518-0.478,9.777c4.798,0.611,9.963-0.154,14.194-2.269c7.256-3.628,12.156-9.984,15.745-16.857      C246.263,361.853,236.532,362.444,226.792,362.865z"/>
			</g>
			<path style="opacity:0.25;fill:#192037;" d="M268.266,249.062c-0.124-11.716,0.168-23.484-0.23-35.193     c-0.319-9.383-1.081-18.729-2.857-27.98c-3.99-20.795-13.772-41.549-31.939-54.788c-9.805-7.146-21.763-11.631-34.208-13.339     c-5.747,13.777-7.337,28.985-8.758,43.783c-0.861,8.969-1.876,17.893-3.574,26.747c-1.688,8.8-3.918,17.499-6.747,26.003     c-5.625,16.911-13.625,33.07-24.182,47.454c-2.636,3.592-5.359,7.168-8.345,10.478c-3.027,3.354-6.303,6.471-9.607,9.55     c-6.638,6.188-13.673,12.356-18.666,20.017c-3.315,5.085-5.426,10.729-6.457,16.629c6.292,19.808,16.632,39.322,34.675,51.79     c18.786,12.982,47.438,15.983,65.612,2.305c4.795,8.313,18.176,9.902,27.247,5.367c9.07-4.535,14.495-13.319,18.226-22.067     C272.765,322.274,268.647,285.014,268.266,249.062z"/>
		</g>
		<g>
			<path style="fill:#00B2A7;" d="M497.107,442.369c-8.125-8.002-19.717-11.538-31.411-15c-9.286-2.749-8.707-12.481,0.905-14.559     c0.073-0.016,0.145-0.031,0.218-0.047c7.925-1.699,17.454-5.074,15.833-11.58c-0.913-3.662-5.005-6.45-9.971-7.399     c-22.163-4.234-45.469-5.283-68.187-3.092l-171.538-5.581c-46.167-1.291-93.105-2.526-137.853,5.802     c-10.978,2.043-22.002,4.747-30.903,9.83c-8.901,5.083-15.426,12.947-14.741,21.143c0.722,8.636,9.271,16.115,19.561,20.506     c10.29,4.391,22.215,6.228,33.904,8l31.071,4.711c6.416,0.973,6.267,7.727-0.209,8.459c-0.057,0.006-0.114,0.013-0.171,0.019     c-6.095,0.667-13.524,1.754-14.828,6.419c-0.625,2.233,0.649,4.51,2.884,6.114c4.139,2.97,9.911,3.507,15.426,3.902     c45.171,3.234,90.707,1.324,136.021-0.588c43.357-1.83,86.715-3.66,130.073-5.49c20.491-0.865,40.983-1.73,61.474-2.595     c14.404-0.608,31.499-2.376,36.36-13.117C503.459,452.847,501.738,446.929,497.107,442.369z"/>
			<path style="opacity:0.42;fill:#FFFFFF;" d="M497.107,442.369c-8.125-8.002-19.717-11.538-31.411-15     c-9.286-2.749-8.707-12.481,0.905-14.559c0.073-0.016,0.145-0.031,0.218-0.047c7.925-1.699,17.454-5.074,15.833-11.58     c-0.913-3.662-5.005-6.45-9.971-7.399c-22.163-4.234-45.469-5.283-68.187-3.092l-171.538-5.581     c-46.167-1.291-93.105-2.526-137.853,5.802c-10.978,2.043-22.002,4.747-30.903,9.83c-8.901,5.083-15.426,12.947-14.741,21.143     c0.722,8.636,9.271,16.115,19.561,20.506c10.29,4.391,22.215,6.228,33.904,8l31.071,4.711c6.416,0.973,6.267,7.727-0.209,8.459     c-0.057,0.006-0.114,0.013-0.171,0.019c-6.095,0.667-13.524,1.754-14.828,6.419c-0.625,2.233,0.649,4.51,2.884,6.114     c4.139,2.97,9.911,3.507,15.426,3.902c45.171,3.234,90.707,1.324,136.021-0.588c43.357-1.83,86.715-3.66,130.073-5.49     c20.491-0.865,40.983-1.73,61.474-2.595c14.404-0.608,31.499-2.376,36.36-13.117     C503.459,452.847,501.738,446.929,497.107,442.369z"/>
		</g>
		<g>
			<g>
				<path style="fill:#9C3621;" d="M265.695,405.511c0.641-15.957-9.483-29.69-23.388-33.027      c-19.915-4.726-142.426-10.551-191.824-13.52c-1.22-0.203-2.481-0.346-3.763-0.407c-0.957-0.045-1.898-0.048-2.84,0.012      c-9.78,0.349-18.604,5.069-24.811,12.471c-5.379,6.38-8.786,14.767-9.161,24.087c-0.372,9.258,2.331,17.913,7.158,24.775      c5.37,7.699,13.382,13.131,22.644,14.692l0.019,0.001c1.276,0.227,2.595,0.372,3.916,0.434      c1.953,0.092,155.035,2.453,184.631,1.708c0.02,0.001,0.02,0.001,0.02,0.001c2.593-0.067,4.89-0.154,6.868-0.26      C251.377,436.869,264.985,423.16,265.695,405.511z"/>
				<path style="opacity:0.74;fill:#192037;" d="M265.695,405.511c0.641-15.957-9.483-29.69-23.388-33.027      c-19.915-4.726-142.426-10.551-191.824-13.52c-1.22-0.203-2.481-0.346-3.763-0.407c-0.957-0.045-1.898-0.048-2.84,0.012      c-9.78,0.349-18.604,5.069-24.811,12.471c-5.379,6.38-8.786,14.767-9.161,24.087c-0.372,9.258,2.331,17.913,7.158,24.775      c5.37,7.699,13.382,13.131,22.644,14.692l0.019,0.001c1.276,0.227,2.595,0.372,3.916,0.434      c1.953,0.092,155.035,2.453,184.631,1.708c0.02,0.001,0.02,0.001,0.02,0.001c2.593-0.067,4.89-0.154,6.868-0.26      C251.377,436.869,264.985,423.16,265.695,405.511z"/>
				<path style="fill:#9C3621;" d="M80.456,398.46c-0.763,18.994-14.17,34.146-31.046,36.344c-1.89,0.243-3.812,0.319-5.765,0.227      c-1.321-0.062-2.639-0.208-3.916-0.434l-0.019-0.001c-9.262-1.561-17.274-6.993-22.644-14.692      c-4.828-6.862-7.53-15.517-7.158-24.775c0.375-9.32,3.782-17.707,9.161-24.087c6.207-7.402,15.031-12.122,24.811-12.471      c0.943-0.059,1.883-0.057,2.84-0.012c1.283,0.061,2.543,0.203,3.763,0.407C68.114,361.835,81.249,378.719,80.456,398.46z"/>
				<path style="opacity:0.39;fill:#192037;" d="M80.456,398.46c-0.763,18.994-14.17,34.146-31.046,36.344      c-1.89,0.243-3.812,0.319-5.765,0.227c-1.321-0.062-2.639-0.208-3.916-0.434l-0.019-0.001      c-9.262-1.561-17.274-6.993-22.644-14.692c-4.828-6.862-7.53-15.517-7.158-24.775c0.375-9.32,3.782-17.707,9.161-24.087      c6.207-7.402,15.031-12.122,24.811-12.471c0.943-0.059,1.883-0.057,2.84-0.012c1.283,0.061,2.543,0.203,3.763,0.407      c0.972,0.15,1.923,0.361,2.872,0.614c4.976,1.254,9.522,3.673,13.419,6.956C75.535,373.873,80.975,385.548,80.456,398.46z"/>
				<path style="opacity:0.48;fill:#192037;" d="M64.761,405.143c-3.495,16.307-21.51,23.92-34.468,15.031      c-17.972-11.601-11.992-39.604,2.273-51.783c6.058-5.121,13.287-7.879,20.788-8.814c4.976,1.254,9.522,3.673,13.419,6.956      c-9.446-4.606-23.167-0.262-30.95,6.254c-8.485,7.752-14.254,21.913-9.868,33.559c6.715,16.227,29.266,15.109,33.227-2.757      c0.903-3.846,0.782-7.991-0.654-11.407c-2.534-6.65-11.155-10.78-16.78-6.408c-3.893,2.811-5.804,9.313-3.038,13.52      c1.171,1.885,4.315,2.907,5.59,0.784c0.372-0.648,0.479-1.891,0.019-2.391c-2.824-3.253,1.581-7.829,4.487-4.696      c2.53,2.927,2.57,7.172,0.866,10.44c-2.437,4.772-8.555,5.669-12.629,2.981c-8.803-5.823-6.6-20.548,1.294-25.998      c4.374-3.329,10.219-3.635,14.86-1.669C62.934,382.346,67.608,394.941,64.761,405.143z"/>
				<g style="opacity:0.41;">
					<path style="fill:#192037;" d="M232.157,404.545c11.193,0.473,18.712,2.555,18.69,3.107       c-0.022,0.553-32.039-0.226-43.253-0.177c-13.928,0.061-118.382-3.422-118.349-4.243       C89.277,402.411,218.255,403.958,232.157,404.545z"/>
					<path style="fill:#192037;" d="M233.261,377.078c11.085,3.149,18.532,7.046,18.509,7.599       c-0.022,0.553-7.619,0.391-18.725-2.236c-13.795-3.263-142.461-12.527-142.428-13.349       C90.65,368.271,219.492,373.166,233.261,377.078z"/>
					<path style="fill:#192037;" d="M108.361,413.508c9.486-0.589,130.979,3.975,130.962,4.416       c-0.018,0.442-121.628-1.198-131.127-0.294c-11.218,1.068-21.851,0.336-21.827-0.262       C86.393,416.77,97.157,414.202,108.361,413.508z"/>
					<path style="fill:#192037;" d="M232.715,390.657c8.204,1.345,13.985,3.624,13.969,4.039c-0.017,0.415-5.907,0.871-14.123-0.199       c-9.592-1.249-133.433-7.609-133.411-8.159C99.171,385.788,223.135,389.086,232.715,390.657z"/>
					<path style="fill:#192037;" d="M251.802,426.022c-0.01,0.26-5.061,1.952-12.034,3.243c-3.542,0.656-26.698-1.273-50.449-2.356       c-29.981-1.367-100.702-2.061-100.702-2.061s5.251-1.509,16.752-1.42C140.153,423.696,251.81,425.827,251.802,426.022z"/>
				</g>
			</g>
			<g>
				<path style="fill:#9C3621;" d="M276.75,421.117c7.161-13.959,3.777-31.152-7.281-40.881      c-15.859-13.887-127.165-59.475-170.115-86.093c-1.007-0.773-2.075-1.513-3.198-2.189c-0.838-0.505-1.677-0.963-2.545-1.367      c-8.89-4.432-18.73-4.491-27.337-0.883c-7.444,3.097-13.954,8.944-18.137,17.097c-4.155,8.099-5.31,17.15-3.826,25.628      c1.624,9.49,6.547,18.235,14.185,24.123l0.017,0.01c1.048,0.822,2.167,1.591,3.322,2.288c1.709,1.03,3.459,1.895,5.249,2.594      c38.236,21.789,136.535,55.756,163.309,69.447c0.017,0.01,0.017,0.01,0.017,0.01c2.347,1.198,4.436,2.235,6.249,3.099      C251.001,442.215,268.83,436.556,276.75,421.117z"/>
				<path style="opacity:0.63;fill:#192037;" d="M276.75,421.117c7.161-13.959,3.777-31.152-7.281-40.881      c-15.859-13.887-127.165-59.475-170.115-86.093c-1.007-0.773-2.075-1.513-3.198-2.189c-0.838-0.505-1.677-0.963-2.545-1.367      c-8.89-4.432-18.73-4.491-27.337-0.883c-7.444,3.097-13.954,8.944-18.137,17.097c-4.155,8.099-5.31,17.15-3.826,25.628      c1.624,9.49,6.547,18.235,14.185,24.123l0.017,0.01c1.048,0.822,2.167,1.591,3.322,2.288c1.709,1.03,3.459,1.895,5.249,2.594      c38.236,21.789,136.535,55.756,163.309,69.447c0.017,0.01,0.017,0.01,0.017,0.01c2.347,1.198,4.436,2.235,6.249,3.099      C251.001,442.215,268.83,436.556,276.75,421.117z"/>
				<path style="fill:#9C3621;" d="M109.854,344.003c-8.524,16.615-26.768,23.663-42.768,17.441      c-1.791-0.699-3.541-1.564-5.249-2.594c-1.156-0.697-2.275-1.466-3.322-2.288l-0.017-0.01      c-7.639-5.888-12.561-14.633-14.185-24.123c-1.484-8.479-0.328-17.53,3.826-25.628c4.183-8.153,10.692-14.001,18.137-17.097      c8.607-3.608,18.446-3.549,27.337,0.883c0.867,0.404,1.707,0.862,2.545,1.367c1.122,0.676,2.19,1.416,3.198,2.189      C113.937,305.263,118.714,326.734,109.854,344.003z"/>
				<path style="opacity:0.39;fill:#192037;" d="M109.854,344.003c-8.524,16.615-26.768,23.663-42.768,17.441      c-1.791-0.699-3.541-1.564-5.249-2.594c-1.156-0.697-2.275-1.466-3.322-2.288l-0.017-0.01      c-7.639-5.888-12.561-14.633-14.185-24.123c-1.484-8.479-0.328-17.53,3.826-25.628c4.183-8.153,10.692-14.001,18.137-17.097      c8.607-3.608,18.446-3.549,27.337,0.883c0.867,0.404,1.707,0.862,2.545,1.367c1.122,0.676,2.19,1.416,3.198,2.189      c0.808,0.606,1.571,1.256,2.315,1.943c3.932,3.535,6.999,7.904,9.129,12.73C115.603,319.629,115.649,332.708,109.854,344.003z"/>
				<path style="opacity:0.48;fill:#192037;" d="M93.059,342.367c-9.858,12.887-29.111,10.957-37.03-3.278      c-11.283-19.093,5.625-41.234,23.411-45.206c7.532-1.641,15.135-0.6,22.229,2.202c3.932,3.535,6.999,7.904,9.129,12.73      c-6.547-8.701-20.609-11.472-30.26-9.42c-10.788,2.816-21.793,12.682-22.679,25.224c-0.694,17.769,19.935,27.708,30.852,13.652      c2.395-3.002,3.998-6.767,4.124-10.519c0.48-7.176-5.526-15.052-12.36-13.87c-4.642,0.625-9.035,5.513-8.298,10.617      c0.269,2.254,2.659,4.693,4.675,3.413c0.6-0.399,1.209-1.458,1.004-2.129c-1.183-4.279,4.646-6.234,5.951-2.023      c1.054,3.845-0.662,7.66-3.536,9.756c-4.149,3.086-9.991,0.92-12.525-3.461c-5.468-9.478,2.581-21.577,11.891-22.622      c5.286-0.855,10.639,1.706,13.978,5.715C100.837,321.093,99.817,334.624,93.059,342.367z"/>
				<g style="opacity:0.41;">
					<path style="fill:#192037;" d="M247.156,403.985c9.814,5.852,15.679,11.361,15.431,11.845       c-0.248,0.483-146.844-63.295-146.844-63.295S234.967,396.716,247.156,403.985z"/>
					<path style="fill:#192037;" d="M272.899,395.731c-0.248,0.484-142.202-72.343-141.834-73.061       c0.224-0.436,40.707,18.497,77.116,34.555C231.764,367.625,273.147,395.247,272.899,395.731z"/>
					<path style="fill:#192037;" d="M127.238,373.453c8.727,4.076,119.643,48.042,119.445,48.428       c-0.198,0.386-112.426-41.023-121.295-44.823c-10.473-4.487-19.679-10.299-19.411-10.822       C106.246,365.714,116.933,368.64,127.238,373.453z"/>
					<path style="fill:#192037;" d="M264.214,402.224c-0.186,0.363-132.885-59.511-132.638-59.992       c0.125-0.244,29.341,10.932,59.176,22.808C219.823,376.612,264.4,401.861,264.214,402.224z"/>
				</g>
			</g>
		</g>
		<g>
			<g>
				<g>
					<g>
						<circle style="fill:#9C3621;" cx="219.029" cy="63.198" r="32.951"/>
						<circle style="fill:#F57486;" cx="225.396" cy="66.394" r="23.434"/>
					</g>
					<g>
						<circle style="fill:#9C3621;" cx="380.986" cy="63.198" r="32.951"/>
						<circle style="fill:#F57486;" cx="378.922" cy="65.415" r="24.795"/>
					</g>
				</g>
				<path style="fill:#9C3621;" d="M450.901,328.427c0,23.273-8.529,44.96-23.252,63.186c-7.215,8.988-15.953,17.142-25.9,24.211      c-26.046,18.518-60.371,29.779-98.033,29.779c-32.656,0-62.811-8.467-87.23-22.793c-10.406-6.089-19.769-13.263-27.839-21.312      c-20.103-20.019-32.115-45.419-32.115-73.071c0-17.788,4.984-34.659,13.889-49.757c12.804-21.667,22.48-44.898,28.486-69.046      c0,0,24.858-38.975,24.566-59.37v-2.106c0-4.358-16.954-13.596-16.995-13.596v-0.021c5.359-58.661,46.858-104.289,97.24-104.289      c49.986,0,91.214,44.898,97.095,102.871c0,0-12.929,13.513-12.929,18.351v2.106c-0.313,21.083,21.166,58.077,21.166,58.077      c6.006,23.419,15.494,45.961,27.944,67.023C445.917,293.768,450.901,310.639,450.901,328.427z"/>
				<path style="opacity:0.27;fill:#F57486;" d="M413.789,359.21c4.512,16.087-2.075,33.083-16.416,42.97      c-0.659,0.455-1.325,0.904-1.996,1.349c-24.273,16.087-56.261,25.87-91.359,25.87c-30.433,0-58.535-7.355-81.292-19.801      c-0.097-0.053-0.194-0.106-0.291-0.159c-16.323-8.954-24.382-27.023-19.879-44.172      c18.302-69.702,59.082-142.646,106.436-142.646C354.999,222.62,394.77,291.405,413.789,359.21z"/>
				<g>
					<g>
						<path style="fill:#FFFFFF;" d="M316.32,207.641c-7.358,1.906-14.456,2.053-21.26,0.084c-1.504-0.435-2.64-1.703-2.81-3.26        c-1.171-10.754-0.991-21.972,0.288-33.586c3.733,2.169,7.549,3.545,11.449,3.941c1.335,0.167,2.669,0.208,4.025,0.125        c3.608-0.188,7.278-1.189,11.032-3.086c1.158,11.543,1.262,21.889,0.18,32.477C319.06,205.935,317.877,207.238,316.32,207.641        z"/>
						<path style="fill:#192037;" d="M308.012,174.945l-1.636,27.635c-1.209-1.071-2.202-20.628-2.389-27.76        C305.322,174.986,306.657,175.028,308.012,174.945z"/>
					</g>
					<g>
						<path style="fill:#192037;" d="M284.003,93.303c-6.815,0.811-12.799,2.399-18.689,5.591        c-6.068,3.052-10.823,7.436-16.593,11.341c-0.341,0.257-0.842,0.184-1.066-0.189c3.997-14.284,22.528-24.891,36.597-18.126        C284.896,92.219,284.706,93.252,284.003,93.303L284.003,93.303z"/>
					</g>
					<g>
						<path style="fill:#192037;" d="M358.342,110.252c-4.764-4.94-9.645-8.749-15.748-11.514        c-6.098-2.991-12.464-4.131-19.063-6.369c-0.41-0.116-0.655-0.559-0.493-0.964c13.797-5.446,33.446,2.911,36.556,18.209        C359.745,110.308,358.807,110.782,358.342,110.252L358.342,110.252z"/>
					</g>
					<path style="fill:#F57486;" d="M266.597,174.194c0,23.815-19.31,43.125-43.125,43.125c-9.134,0-17.6-2.836-24.566-7.695       c4.859-19.561,7.278-39.705,6.986-60.1v-2.106c0-4.358,0.208-8.633,0.584-12.867v-0.021c5.213-2.231,10.969-3.462,16.995-3.462       C247.286,131.068,266.597,150.379,266.597,174.194z"/>
					<path style="fill:#F57486;" d="M409.048,211.647c-6.298,3.608-13.596,5.672-21.375,5.672c-23.815,0-43.125-19.31-43.125-43.125       c0-23.815,19.31-43.125,43.125-43.125c4.588,0,8.988,0.709,13.138,2.044c0.48,4.692,0.73,9.467,0.73,14.305v2.106       C401.228,170.607,403.834,191.461,409.048,211.647z"/>
					<g>
						<g>
							<path style="fill:#192037;" d="M279.594,131.747c-0.346,9.086-4.174,16.317-8.549,16.151         c-4.375-0.166-7.64-7.665-7.294-16.751c0.347-9.085,4.174-16.317,8.549-16.151         C276.675,115.162,279.941,122.662,279.594,131.747z"/>
						</g>
					</g>
					<g>
						<g>
							<path style="fill:#192037;" d="M347.944,132.751c-0.347,9.086-4.174,16.317-8.549,16.151         c-4.375-0.166-7.64-7.665-7.293-16.751c0.346-9.085,4.174-16.316,8.549-16.151         C345.025,116.166,348.29,123.666,347.944,132.751z"/>
						</g>
					</g>
					<path style="fill:#192037;" d="M324.21,147.181c0-5.918-8.789-10.715-19.63-10.715c-10.842,0-19.631,4.797-19.631,10.715       c0,4.955,6.17,9.113,14.54,10.338c0.783,4.032,2.764,6.902,5.091,6.902c2.327,0,4.308-2.87,5.091-6.902       C318.039,156.294,324.21,152.136,324.21,147.181z"/>
					<g>
						<g>
							<path style="fill:#192037;" d="M284.129,163.912c0,0,6.482,5.325,19.759,7.065c13.879,1.82,23.598-4.136,23.598-4.136         c0.47-0.062,0.914,0.282,0.926,0.767c-11.699,11.641-35.411,11.761-45.282-2.493         C282.673,164.471,283.422,163.575,284.129,163.912L284.129,163.912z"/>
						</g>
					</g>
				</g>
			</g>
			<g>
				<path style="fill:#9C3621;" d="M273.497,309.242c2.892-9.137,7.238-19.284,14.589-25.938      c-7.478-15.634-25.253-33.302-37.426-40.102c-17.986-10.047-39.755-5.324-48.623,10.55c-8.868,15.874-1.476,36.888,16.51,46.935      c12.297,6.869,37.041,12.797,54.301,10.79C273.066,310.732,273.263,309.981,273.497,309.242z"/>
				<path style="fill:#9C3621;" d="M280.784,271.383l17.511,19.068c0.609,0.641,0.236,1.702-0.64,1.821l-10.854,1.472l6.134,12.819      c0.339,0.708-0.164,1.531-0.949,1.551l-13.016,0.339l6.036,8.852c0.584,0.856-0.251,1.964-1.235,1.64l-25.74-7.406      C258.031,311.539,261.889,275.363,280.784,271.383z"/>
				<path style="opacity:0.23;fill:#192037;" d="M280.784,271.383l17.511,19.068c0.609,0.641,0.236,1.702-0.64,1.821l-10.854,1.472      l6.134,12.819c0.339,0.708-0.164,1.531-0.949,1.551l-13.016,0.339l6.036,8.852c0.584,0.856-0.251,1.964-1.235,1.64l-25.74-7.406      C258.031,311.539,261.889,275.363,280.784,271.383z"/>
			</g>
			<g>
				<path style="fill:#9C3621;" d="M334.554,309.242c-2.892-9.137-7.239-19.284-14.59-25.938      c7.478-15.634,25.253-33.302,37.426-40.102c17.986-10.047,39.755-5.324,48.623,10.55c8.868,15.874,1.476,36.888-16.51,46.935      c-12.297,6.869-37.041,12.797-54.301,10.79C334.985,310.732,334.788,309.981,334.554,309.242z"/>
				<path style="fill:#9C3621;" d="M327.267,271.383l-17.511,19.068c-0.609,0.641-0.236,1.702,0.64,1.821l10.854,1.472      l-6.134,12.819c-0.339,0.708,0.164,1.531,0.949,1.551l13.016,0.339l-6.036,8.852c-0.584,0.856,0.251,1.964,1.235,1.64      l25.74-7.406C350.02,311.539,346.162,275.363,327.267,271.383z"/>
				<path style="opacity:0.23;fill:#192037;" d="M327.267,271.383l-17.511,19.068c-0.609,0.641-0.236,1.702,0.64,1.821l10.854,1.472      l-6.134,12.819c-0.339,0.708,0.164,1.531,0.949,1.551l13.016,0.339l-6.036,8.852c-0.584,0.856,0.251,1.964,1.235,1.64      l25.74-7.406C350.02,311.539,346.162,275.363,327.267,271.383z"/>
			</g>
			<g>
				<path style="fill:#F7D7B6;" d="M473.337,331.645c-4.115-2.589-9.455-2.435-14.955-0.117c0.505-10.641-2.877-19.399-9.869-22.773      c-7.083-3.418-16.187-0.51-24.283,6.708c-1.901-5.75-5.345-9.965-10.096-11.529c-11.003-3.622-24.813,8.295-30.846,26.618      c-0.893,2.711-1.56,5.408-2.017,8.048c-1.272,7.354-3.977,14.346-7.816,20.747c-1.654,2.758-3.212,5.638-4.658,8.634      c-17,35.227-8.53,68.025,14.375,79.079c22.906,11.054,51.574-3.822,68.574-39.049c1.957-4.055,3.621-8.139,5.003-12.21      c2.603-7.67,6.895-14.61,12.007-20.893c1.335-1.641,2.606-3.408,3.791-5.292C482.123,354.396,482.477,337.396,473.337,331.645z"/>
				
					<ellipse transform="matrix(0.4346 -0.9006 0.9006 0.4346 -126.834 589.1895)" style="opacity:0.27;fill:#F57486;" cx="405.855" cy="395.614" rx="42.641" ry="34.236"/>
				<path style="opacity:0.27;fill:#F57486;" d="M413.975,333.361c-4.016,8.321-11.288,13.128-16.243,10.737      c-4.955-2.391-5.717-11.075-1.701-19.396c4.016-8.321,11.288-13.128,16.243-10.737S417.991,325.04,413.975,333.361z"/>
				<path style="opacity:0.27;fill:#F57486;" d="M444.925,337.576c-4.016,8.321-11.288,13.128-16.243,10.737      c-4.955-2.391-5.717-11.075-1.701-19.396c4.016-8.321,11.288-13.128,16.243-10.736S448.941,329.256,444.925,337.576z"/>
				<path style="opacity:0.27;fill:#F57486;" d="M469.132,359.979c-4.016,8.321-11.288,13.128-16.243,10.737      s-5.717-11.075-1.701-19.396c4.016-8.321,11.288-13.128,16.243-10.737C472.385,342.974,473.147,351.658,469.132,359.979z"/>
			</g>
			<g>
				<path style="fill:#F7D7B6;" d="M156.038,335.091c4.115-2.589,9.455-2.435,14.955-0.117c-0.505-10.641,2.877-19.399,9.868-22.773      c7.083-3.418,16.188-0.51,24.283,6.708c1.902-5.75,5.345-9.965,10.096-11.529c11.003-3.623,24.813,8.295,30.846,26.618      c0.892,2.711,1.56,5.408,2.017,8.048c1.272,7.354,3.977,14.347,7.816,20.747c1.654,2.758,3.212,5.638,4.658,8.634      c17,35.227,8.53,68.025-14.375,79.079c-22.906,11.054-51.574-3.822-68.574-39.049c-1.957-4.055-3.621-8.139-5.003-12.21      c-2.603-7.67-6.895-14.609-12.007-20.893c-1.335-1.641-2.606-3.408-3.791-5.292      C147.251,357.842,146.898,340.841,156.038,335.091z"/>
				<path style="opacity:0.27;fill:#F57486;" d="M215.399,336.807c4.016,8.321,11.288,13.128,16.243,10.737      c4.955-2.391,5.717-11.075,1.701-19.396c-4.016-8.321-11.288-13.128-16.243-10.737      C212.145,319.802,211.384,328.486,215.399,336.807z"/>
				
					<ellipse transform="matrix(0.9006 -0.4346 0.4346 0.9006 -127.1118 117.5304)" style="opacity:0.27;fill:#F57486;" cx="193.421" cy="336.692" rx="9.962" ry="16.729"/>
				
					<ellipse transform="matrix(0.9006 -0.4346 0.4346 0.9006 -152.5167 137.3665)" style="opacity:0.27;fill:#F57486;" cx="224.091" cy="402.159" rx="34.236" ry="42.641"/>
				
					<ellipse transform="matrix(0.9006 -0.4346 0.4346 0.9006 -139.2544 109.2361)" style="opacity:0.27;fill:#F57486;" cx="169.215" cy="359.095" rx="9.962" ry="16.729"/>
			</g>
			<path style="opacity:0.34;fill:#F57486;" d="M342.409,53c-2.547,0.997-4.577,3.383-4.666,6.53     c-0.081,2.842,1.36,5.665,2.959,8.098c4.081,6.209,9.465,11.176,13.932,17.047c3.886,5.107,7.066,10.881,11.219,15.71     c1.653,1.922,3.492,3.712,5.604,4.786c2.112,1.074,4.541,1.356,6.416,0.283c1.783-1.021,2.872-3.147,3.292-5.437     c1.158-6.306-1.041-12.065-3.759-17.907c-1.709-3.673-3.75-7.179-6.07-10.438c-4.634-6.512-10.391-12.052-16.804-15.942     c-3.216-1.951-6.747-3.537-10.14-3.206C343.714,52.588,343.046,52.751,342.409,53z"/>
			<path style="opacity:0.34;fill:#F57486;" d="M340.13,268.593c0.443,2.7,2.246,5.202,5.098,5.981     c2.576,0.703,5.413-0.079,7.922-1.102c6.406-2.611,11.919-6.763,18.087-9.824c5.366-2.663,11.211-4.491,16.373-7.474     c2.055-1.188,4.022-2.586,5.388-4.407c1.366-1.821,2.067-4.125,1.432-6.187c-0.604-1.961-2.343-3.489-4.353-4.402     c-5.536-2.514-11.188-1.638-17.01-0.275c-3.661,0.857-7.23,2.075-10.625,3.617c-6.783,3.082-12.886,7.472-17.605,12.864     c-2.367,2.704-4.458,5.794-4.778,9.173C339.993,267.232,340.019,267.919,340.13,268.593z"/>
			<path style="opacity:0.34;fill:#F57486;" d="M219.44,243.941c-2.037,1.826-3.176,4.693-2.298,7.515     c0.793,2.549,2.979,4.519,5.192,6.084c5.648,3.994,12.114,6.407,18.013,9.959c5.132,3.09,9.818,7.033,15.111,9.778     c2.107,1.093,4.344,1.999,6.614,2.17c2.27,0.171,4.589-0.478,5.985-2.123c1.328-1.564,1.68-3.852,1.368-6.038     c-0.86-6.018-4.64-10.311-8.922-14.485c-2.692-2.624-5.639-4.977-8.767-7.009c-6.248-4.059-13.232-6.84-20.316-7.916     c-3.553-0.54-7.283-0.639-10.303,0.909C220.514,243.093,219.949,243.485,219.44,243.941z"/>
		</g>
	</g>
</g>















</svg>
