<?xml version="1.0" standalone="no"?>
<!DOCTYPE svg PUBLIC "-//W3C//DTD SVG 20010904//EN"
 "http://www.w3.org/TR/2001/REC-SVG-20010904/DTD/svg10.dtd">
<svg version="1.0" xmlns="http://www.w3.org/2000/svg"
 width="700.000000pt" height="700.000000pt" viewBox="0 0 700.000000 700.000000"
 preserveAspectRatio="xMidYMid meet">
<metadata>
Created by potrace 1.14, written by Peter Selinger 2001-2017
</metadata>
<g transform="translate(0.000000,700.000000) scale(0.100000,-0.100000)"
fill="#000000" stroke="none">
<path d="M2435 6972 c-231 -58 -429 -227 -520 -441 -71 -169 -74 -383 -8 -581
41 -124 157 -325 234 -405 21 -22 26 -34 19 -45 -5 -8 -10 -12 -10 -8 0 9
-153 -34 -210 -59 -64 -28 -153 -86 -237 -155 -206 -168 -408 -247 -638 -253
-170 -3 -315 33 -502 127 -102 51 -125 59 -138 48 -24 -20 -18 -58 25 -146 41
-85 134 -192 212 -244 44 -29 48 -37 37 -67 -6 -17 -26 -28 -81 -44 -86 -26
-98 -34 -98 -65 0 -27 19 -40 75 -48 74 -12 74 -12 62 -59 -12 -48 -15 -369
-4 -437 25 -159 91 -373 125 -403 23 -20 75 -33 147 -36 33 -1 60 -3 61 -4 1
-1 -2 -27 -6 -57 -4 -30 -11 -84 -14 -120 -4 -36 -8 -78 -10 -95 -3 -16 -7
-70 -11 -120 -3 -49 -8 -101 -10 -115 -2 -14 -7 -77 -11 -140 -3 -63 -7 -131
-9 -150 -22 -229 -22 -1242 -1 -1485 2 -22 7 -94 11 -160 3 -66 8 -138 10
-160 3 -22 9 -98 15 -170 6 -71 13 -143 15 -160 2 -16 7 -57 10 -90 14 -134
36 -292 46 -320 13 -39 38 -69 75 -88 24 -12 256 -50 439 -72 22 -2 56 -6 75
-9 19 -3 58 -8 85 -11 28 -3 64 -8 80 -10 17 -3 50 -7 75 -10 25 -2 66 -7 93
-10 90 -10 142 -15 197 -20 30 -3 74 -7 97 -10 23 -2 75 -7 115 -11 40 -3 91
-7 113 -9 22 -3 85 -7 140 -10 55 -3 109 -8 120 -10 133 -27 1656 -28 1915 0
19 2 80 6 135 10 55 4 102 8 105 10 3 2 44 6 92 10 49 3 96 8 106 10 10 1 45
6 77 10 85 10 155 19 230 31 17 3 46 7 65 10 19 2 46 6 60 9 57 12 76 15 105
19 88 12 245 50 281 67 66 31 88 86 109 274 3 28 8 61 10 74 2 14 7 54 11 90
4 36 8 80 10 96 1 17 6 64 9 105 3 41 8 95 10 120 2 25 7 92 10 150 4 58 8
132 10 165 24 359 24 1408 0 1905 -2 41 -6 154 -10 250 -4 96 -7 177 -7 180
-2 25 6 30 45 31 68 1 109 21 135 65 41 73 87 245 108 404 7 61 7 332 0 397
-7 56 -9 54 64 68 44 9 80 31 80 50 0 24 -26 41 -99 64 -54 17 -71 27 -71 41
0 10 -3 25 -6 33 -3 10 8 24 33 41 98 67 193 185 232 291 33 88 9 121 -63 84
-135 -69 -179 -89 -252 -113 -218 -73 -446 -68 -649 13 -105 43 -192 95 -310
188 -111 88 -173 127 -255 161 -44 18 -115 42 -140 47 -3 0 -14 6 -25 12 -19
11 -19 13 11 45 94 99 203 296 250 453 25 81 27 105 28 245 0 131 -3 164 -21
215 -66 192 -172 327 -335 427 -127 78 -262 112 -413 105 -122 -7 -148 -12
-231 -43 -95 -36 -149 -65 -239 -129 -154 -110 -284 -261 -367 -427 -29 -56
-54 -95 -56 -87 -2 8 -22 50 -44 94 -134 269 -401 496 -668 569 -110 30 -265
33 -365 8z m365 -360 c144 -63 313 -241 409 -432 28 -55 50 -101 50 -103 0 -1
2 -9 4 -17 14 -45 37 -128 42 -150 2 -14 8 -38 11 -55 4 -16 8 -102 10 -190 2
-137 0 -169 -17 -222 -15 -48 -26 -66 -47 -76 -81 -41 -294 0 -477 90 -189 93
-356 240 -459 403 -16 25 -37 56 -46 70 -63 96 -100 269 -75 350 43 141 188
283 345 337 79 27 181 25 250 -5z m1662 13 c105 -27 217 -104 299 -205 100
-123 107 -262 24 -436 -148 -308 -455 -548 -793 -619 -150 -31 -230 -15 -253
52 -14 41 -14 40 -23 98 -8 45 -8 209 -1 270 33 264 128 472 300 656 157 168
293 224 447 184z m-1896 -1449 c119 -14 251 -59 376 -129 73 -41 91 -58 83
-79 -5 -13 -45 -15 -253 -17 -136 -1 -393 -4 -572 -6 l-325 -4 30 24 c143 119
295 188 460 209 94 12 106 12 201 2z m2113 -7 c94 -15 186 -49 290 -109 46
-26 151 -108 151 -118 0 -4 -57 -7 -127 -5 -177 4 -700 11 -863 12 l-135 1 -2
28 c-2 32 3 36 117 93 128 64 233 96 350 106 36 3 66 7 68 8 4 3 83 -5 151
-16z"/>
</g>
</svg>
