<svg id="Capa_3" enable-background="new 0 0 453.543 453.543" height="512" viewBox="0 0 453.543 453.543" width="512" xmlns="http://www.w3.org/2000/svg"><g><path d="m433.492 31.297c-6.677-40.154-26.318 1.162-35.623 16.487s1.563 34.049 1.563 34.049 26.56 4 35.864-11.324c9.305-15.325 36.903-51.81-1.804-39.212z" fill="#ffdcbd"/><path d="m223.926 439.303s-291.971-140.757-209.125-274.276c82.846-133.518 209.125 6.435 209.125 6.435s101.345-146.388 184.191-28.956-184.191 296.797-184.191 296.797z" fill="#f8627f"/><path d="m1.774 423.952s-9.734-53.173 16.398-55.135 19.688 28.808 19.688 28.808 29.685-.734 22.006 21.97c-7.678 22.705-58.092 4.357-58.092 4.357z" fill="#f44770"/><path d="m392.06 157.659c-5.004 5.445-18.682 1.019-30.551-9.888-11.869-10.906-17.435-24.162-12.431-29.608s18.682-1.019 30.551 9.888c11.87 10.907 17.435 24.163 12.431 29.608z" fill="#fff"/><path d="m406.017 173.687c0 5.198-4.214 9.411-9.411 9.411-5.198 0-9.411-4.214-9.411-9.411 0-5.198 4.214-9.411 9.411-9.411 5.197-.001 9.411 4.213 9.411 9.411z" fill="#fff"/><path d="m207.561 359.158c-45.644-11.854-87.341-39.385-120.806-72.097-32.863-32.123-58.895-71.411-58.343-119.02.106-9.159 1.309-17.843 3.429-26.089-5.837 6.577-11.536 14.206-17.04 23.075-82.846 133.519 209.125 274.276 209.125 274.276s47.229-31.727 95.8-77.225c-37.221 6.326-75.953 6.485-112.165-2.92z" fill="#f44770"/><g fill="#4f021b"><path d="m345.112 154.758c26.366-30.398 50.79-62.825 73.074-96.322 5.755-8.651 11.339-17.422 16.54-26.418.922-1.595-1.546-3.035-2.467-1.442-20.061 34.698-44.455 67.202-69.47 98.447-6.423 8.022-12.963 15.952-19.697 23.715-1.2 1.383.812 3.412 2.02 2.02z"/><path d="m35.908 401.074c30.709-16.764 60.609-34.978 89.607-54.554 1.516-1.023.088-3.5-1.442-2.467-28.998 19.576-58.897 37.79-89.607 54.554-1.614.881-.174 3.35 1.442 2.467z"/><path d="m121.575 325.632c-1.437 12.896 2.874 26.014 11.529 35.652 1.231 1.371 3.246-.655 2.02-2.02-8.183-9.111-12.047-21.481-10.693-33.631.204-1.825-2.654-1.811-2.856-.001z"/><path d="m113.981 335.651c5.664 9.832 16.307 16.253 27.631 16.754 1.838.081 1.835-2.776 0-2.857-10.324-.456-20.012-6.394-25.164-15.339-.917-1.593-3.387-.156-2.467 1.442z"/><path d="m347.912 173.796c1.437-12.896-2.874-26.014-11.53-35.652-1.231-1.371-3.246.655-2.02 2.02 8.183 9.111 12.047 21.482 10.693 33.631-.204 1.825 2.655 1.811 2.857.001z"/><path d="m355.505 163.777c-5.664-9.832-16.307-16.253-27.631-16.753-1.838-.081-1.834 2.776 0 2.857 10.324.456 20.012 6.394 25.164 15.338.918 1.593 3.388.155 2.467-1.442z"/><path d="m413.646 21.438c2.051 9.226 4.558 18.339 7.515 27.316.264.803.958 1.113 1.757.998 8.721-1.259 17.493-2.112 26.292-2.586 1.829-.098 1.84-2.956 0-2.857-9.055.487-18.076 1.392-27.051 2.688.586.333 1.172.665 1.757.998-2.957-8.976-5.464-18.09-7.515-27.316-.399-1.794-3.154-1.035-2.755.759z"/><path d="m401.709 40.929c2.051 9.226 4.558 18.339 7.515 27.316.264.803.957 1.113 1.757.998 8.721-1.259 17.493-2.112 26.292-2.586 1.829-.098 1.84-2.956 0-2.857-9.055.487-18.076 1.392-27.051 2.688.586.333 1.172.665 1.757.998-2.957-8.976-5.464-18.09-7.515-27.316-.398-1.794-3.153-1.035-2.755.759z"/></g></g></svg>