<svg id="Capa_3" enable-background="new 0 0 453.543 453.543" height="512" viewBox="0 0 453.543 453.543" width="512" xmlns="http://www.w3.org/2000/svg"><g><path d="m449.098 102.712c-.477-6.18-5.409-11.089-11.591-11.534-233.636-16.834-379.608-4.249-416.653-.295-5.599.598-10.078 4.85-11.041 10.398-19.28 111.035-5.09 213.694.057 244.26.918 5.451 5.294 9.666 10.777 10.364 233.968 29.751 378.342 7.18 413.167.518 5.027-.962 8.954-4.867 9.933-9.89 16.053-82.376 8.207-206.808 5.351-243.821z" fill="#b8e3c5"/><path d="m430.482 162.628c-7.661 1.552-16.613-10.726-19.996-27.424-3.382-16.698.086-31.492 7.747-33.043 7.661-1.552 16.613 10.726 19.996 27.424 3.383 16.697-.086 31.491-7.747 33.043z" fill="#fff"/><path d="m432.471 185.002c-3.227 4.446-9.447 5.435-13.893 2.208s-5.435-9.447-2.208-13.893 9.447-5.435 13.893-2.208 5.435 9.447 2.208 13.893z" fill="#fff"/><path d="m377.846 331.69c-57.279.529-114.766 1.56-171.539-7.366-46.633-7.331-97.265-21.096-130.863-56.372-44.825-47.062-49.43-114.042-48.989-177.645-2.078.207-3.952.4-5.601.576-5.599.598-10.078 4.85-11.041 10.398-19.28 111.035-5.09 213.694.057 244.26.918 5.451 5.294 9.666 10.777 10.364 233.968 29.751 378.342 7.18 413.167.518 5.026-.962 8.954-4.867 9.933-9.89 1.005-5.155 1.915-10.476 2.74-15.929-22.896.758-45.829.875-68.641 1.086z" fill="#9bd1a9"/><g fill="#4f021b"><path d="m13.207 93.797c5.231 4.893 10.564 9.681 15.909 14.449 13.27 11.836 26.753 23.435 40.45 34.773 17.293 14.315 34.93 28.235 53.094 41.431 17.669 12.836 35.858 25.158 55.119 35.497 14.066 7.55 29.747 15.263 45.934 16.432 14.855 1.073 29.969-5.264 43.166-11.34 19.232-8.856 37.404-20.005 55.055-31.646 19.101-12.597 37.64-26.04 55.84-39.901 15.345-11.686 30.451-23.684 45.341-35.944 7.843-6.458 15.64-12.975 23.322-19.623.354-.307.709-.613 1.061-.921 1.388-1.212-.64-3.225-2.02-2.02-5.24 4.576-10.568 9.054-15.907 13.514-13.26 11.079-26.703 21.94-40.325 32.57-17.608 13.741-35.523 27.102-53.893 39.81-18.019 12.466-36.486 24.43-55.857 34.704-14.514 7.698-30.39 15.581-46.896 17.671-14.62 1.851-29.27-4.024-42.24-10.142-18.814-8.875-36.454-20.228-53.514-32.071-18.673-12.962-36.713-26.828-54.375-41.129-14.848-12.022-29.429-24.374-43.775-36.99-7.563-6.651-15.076-13.364-22.464-20.21-.335-.311-.671-.621-1.004-.934-1.342-1.255-3.367.761-2.021 2.02z"/><path d="m15.228 354.112c10.6-11.799 21.457-23.375 32.378-34.877 23.251-24.487 46.998-48.538 71.672-71.597 13.968-13.053 28.241-25.812 43.177-37.754 1.436-1.148-.597-3.158-2.02-2.02-27.176 21.729-52.387 45.929-76.992 70.491-20.146 20.11-39.842 40.676-59.145 61.597-3.717 4.028-7.427 8.062-11.09 12.139-1.227 1.365.788 3.392 2.02 2.021z"/><path d="m444.283 352.092c-10.6-11.799-21.457-23.375-32.378-34.877-23.251-24.487-46.998-48.538-71.673-71.597-13.968-13.053-28.241-25.812-43.176-37.754-1.422-1.137-3.457.872-2.02 2.02 27.176 21.729 52.386 45.929 76.992 70.491 20.146 20.11 39.842 40.676 59.145 61.597 3.717 4.028 7.427 8.062 11.09 12.139 1.231 1.372 3.246-.654 2.02-2.019z"/></g><path d="m228.418 274.464s-74.799-36.06-53.575-70.266c21.224-34.205 53.575 1.648 53.575 1.648s25.963-37.502 47.187-7.418c21.224 30.085-47.187 76.036-47.187 76.036z" fill="#f8627f"/></g></svg>