<svg id="Capa_3" enable-background="new 0 0 453.543 453.543" height="512" viewBox="0 0 453.543 453.543" width="512" xmlns="http://www.w3.org/2000/svg"><g><path d="m453.543 217.434c0 117.534-121.207 231.878-238.742 231.878s-214.801-105.723-214.801-223.257 126.058-221.824 243.592-221.824 209.951 95.669 209.951 213.203z" fill="#ffdcbd"/><path d="m64.195 193.404c0-78.889 64.669-151.404 144.552-186.211-106.295 17.723-208.747 112.903-208.747 218.862 0 117.534 97.268 223.257 214.802 223.257 57.738 0 116.351-27.604 161.057-69.613-30.748 14.519-63.949 22.927-96.863 22.927-117.534 0-214.801-99.077-214.801-209.222z" fill="#ffd092"/><path d="m160.315 237.676s-83.835-30.398-64.877-69.25 57.42-4.061 57.42-4.061 23.664-42.89 49.609-13.054c25.945 29.835-42.152 86.365-42.152 86.365z" fill="#f8627f"/><path d="m285.946 236.909s85.948-23.777 70.073-63.988c-15.875-40.21-56.929-8.52-56.929-8.52s-20.252-44.602-48.442-16.877c-28.191 27.725 35.298 89.385 35.298 89.385z" fill="#f8627f"/><path d="m388.515 105.303c-5.651 5.917-20.687.73-33.584-11.587s-18.771-27.098-13.12-33.015 20.687-.73 33.584 11.587c12.897 12.316 18.771 27.097 13.12 33.015z" fill="#fff"/><path d="m412.055 118.042c-.111 5.749-4.861 10.321-10.611 10.21-5.749-.111-10.321-4.861-10.21-10.611.111-5.749 4.861-10.321 10.61-10.21 5.751.111 10.322 4.861 10.211 10.611z" fill="#fff"/><path d="m59.051 223.104c8.622 29.97 24.409 57.765 45.769 80.495 21.744 23.139 49.257 40.778 79.802 49.709 32.227 9.423 67.303 9.5 99.451-.311 30.861-9.418 58.027-28.162 77.779-53.672 18.907-24.418 30.833-54.388 32.494-85.32.208-3.869.241-7.741.13-11.613-.052-1.835-2.91-1.842-2.857 0 .872 30.557-8.591 60.724-25.474 86.094-17.489 26.279-42.791 46.849-72.303 58.141-30.787 11.78-65.035 13.9-97.175 6.813-30.811-6.793-59.05-22.287-81.928-43.935-22.264-21.068-39.409-47.548-49.54-76.478-1.235-3.528-2.359-7.092-3.392-10.684-.508-1.762-3.266-1.012-2.756.761z" fill="#4f021b"/></g></svg>