<svg id="Capa_3" enable-background="new 0 0 453.543 453.543" viewBox="0 0 453.543 453.543" xmlns="http://www.w3.org/2000/svg"><g><path d="m125.709 63.205s17.026 349.463 81.802 374.377 178.384 21.924 206.288-17.938 28.869-380.57 28.869-380.57z" fill="#b8e3c5"/><path d="m442.668 39.075c2.089 27.44-67.172 55.086-154.697 61.75-87.526 6.663-160.173-10.179-162.262-37.619s67.171-55.086 154.697-61.75 160.173 10.179 162.262 37.619z" fill="#9bd1a9"/><path d="m185.816 326.826c-6.192 2.507-12.562 4.514-19.09 5.94-1.341.293-2.689.561-4.04.807-.772.141-1.546.273-2.32.399-.491.079-2.999.469-.965.168 2.032-.3-.479.05-.975.105-.78.087-1.561.167-2.343.239-1.759.162-3.522.288-5.287.372-6.689.321-13.344.024-20.001-.661-.718-.074-2.861-.156.385.07-.763-.053-1.584-.236-2.33-.357-1.357-.221-2.71-.467-4.059-.733-3.274-.647-6.523-1.425-9.733-2.339-3.02-.86-6.007-1.833-8.95-2.926-.884-.328-4.941-1.987-1.969-.707-1.801-.776-3.586-1.591-5.348-2.453-5.574-2.727-10.929-5.909-15.978-9.517-.608-.435-1.207-.881-1.812-1.32-2.263-1.645-.032.112.296.242-1.185-.471-2.496-2.023-3.458-2.848-2.551-2.187-5.007-4.483-7.362-6.878-2.095-2.13-4.107-4.341-6.036-6.621-.913-1.079-2.141-2.236-2.83-3.475.207.373 1.843 2.489.25.289-.438-.605-.884-1.205-1.318-1.814-3.689-5.174-6.974-10.634-9.826-16.312-.671-1.336-1.316-2.685-1.939-4.044-.223-.488-.906-1.599-.913-2.048.005.291 1.226 3.079.175.395-1.159-2.959-2.258-5.933-3.214-8.965-1.854-5.887-3.198-11.891-4.169-17.984-.146-.917-.796-2.428.072.562-.186-.641-.183-1.596-.247-2.227-.15-1.486-.27-2.976-.362-4.467-.198-3.219-.255-6.446-.163-9.669.088-3.096.373-6.161.679-9.241.175-1.768-.152.979-.137 1.017-.129-.334.289-1.816.372-2.289.334-1.901.724-3.791 1.174-5.668.717-2.988 1.593-5.938 2.63-8.831.351-.978 1.483-5.12.654-1.818.388-1.543 1.506-3.213 2.25-4.612 1.436-2.698 3.158-5.153 4.796-7.72 1.124-1.761-1.581 1.837-.219.25.495-.576.965-1.173 1.464-1.746 1.128-1.295 2.309-2.543 3.542-3.737 1.111-1.075 2.279-2.079 3.451-3.084.555-.475 2.202-1.445-.233.162.639-.422 1.248-.899 1.881-1.33 2.7-1.838 5.546-3.458 8.488-4.874.426-.205 2.653-1.298.883-.454-1.89.9 1.072-.421 1.468-.569 1.812-.68 3.649-1.289 5.507-1.83 3.029-.882 7.058-2.403 10.237-2.26-.431-.02-3.257.343-.418.059.968-.097 1.935-.199 2.906-.275 1.744-.137 3.493-.223 5.242-.254 3.958-.069 7.918.134 11.853.559.436.047 3.169.436 1.305.147-1.963-.304 1.574.28 1.939.345 2.153.38 4.293.823 6.421 1.321 3.841.899 7.637 1.988 11.382 3.223 3.76 1.241 7.459 2.647 11.123 4.146-2.443-1-.316-.129.147.079 1.205.54 2.411 1.074 3.61 1.628 1.993.922 3.968 1.883 5.936 2.859 6.849 3.4 16.162 2.062 20.026-5.251 3.496-6.617 2.071-16.392-5.251-20.026-29.269-14.528-63.02-24.148-95.352-14.197-14.814 4.559-28.846 12.91-38.614 25.101-9.74 12.156-16.156 26.619-18.65 42.017-4.812 29.713 1.244 60.203 16.17 86.303 15.05 26.316 38.39 46.345 66.415 57.662 30.909 12.482 67.64 12.712 98.565.193 7.07-2.862 12.853-9.878 10.223-18.005-2.211-6.83-10.407-13.299-18.006-10.223z" fill="#b8e3c5"/><path d="m298.097 332.091s-141.196-62.712-103.715-127.557 99.727-.048 99.727-.048 46.104-71.251 87.322-16.538-83.334 144.143-83.334 144.143z" fill="#f8627f"/><path d="m374.005 195.407c-2.303 2.669-8.885.763-14.703-4.256-5.817-5.019-8.666-11.252-6.363-13.921s8.885-.764 14.703 4.256c5.817 5.02 8.666 11.252 6.363 13.921z" fill="#fff"/><path d="m380.893 202.835c.077 2.476-1.867 4.547-4.344 4.624-2.476.077-4.546-1.867-4.624-4.344-.077-2.476 1.868-4.546 4.344-4.624 2.477-.077 4.547 1.868 4.624 4.344z" fill="#fff"/><path d="m289.107 294.152c-21.923-4.968-42.198-17.463-58.628-32.55-16.135-14.815-29.122-33.145-29.568-55.835-.086-4.365.358-8.52 1.245-12.481-2.683 3.22-5.284 6.94-7.774 11.247-37.482 64.846 103.714 127.558 103.714 127.558s22.029-15.819 44.491-38.218c-17.638 3.568-36.088 4.221-53.48.279z" fill="#f44770"/><path d="m399.468 389.384c-7.6-.462-12.945-14.265-11.938-30.831 1.007-16.565 7.984-29.619 15.584-29.157s12.945 14.265 11.938 30.83c-1.006 16.566-7.983 29.62-15.584 29.158z" fill="#fff"/><path d="m395.725 410.942c-4.153 3.375-10.255 2.745-13.631-1.408-3.375-4.153-2.744-10.256 1.409-13.631s10.256-2.744 13.631 1.409 2.744 10.255-1.409 13.63z" fill="#fff"/><g fill="#4f021b"><path d="m290.54 43.232c-29.426 2.369-58.934 7.871-86.484 18.724-16.54 6.516-35.038 14.576-48.25 27.29 29.574 10.817 78.01 15.701 132.166 11.578 63.746-4.854 117.768-20.84 141.629-39.767-43.403-18.859-91.836-21.627-139.061-17.825z"/><path d="m150.238 109.245c17.015 9.434 36.408 12.937 55.531 15.065 19.085 2.124 38.328 2.811 57.516 2.094 19.135-.714 38.22-2.82 57.055-6.264 18.891-3.455 37.533-8.272 55.729-14.416 18.056-6.097 35.68-13.496 52.659-22.151 2.158-1.1 4.304-2.221 6.441-3.36 1.42-.757.159-2.916-1.262-2.159-16.78 8.944-34.205 16.65-52.115 23.041-17.851 6.37-36.161 11.453-54.737 15.213-18.552 3.755-37.366 6.181-56.264 7.245-18.921 1.066-37.92.772-56.797-.917-19.029-1.703-38.657-4.298-56.18-12.348-2.145-.985-4.249-2.056-6.313-3.2-1.41-.783-2.672 1.376-1.263 2.157z"/><path d="m132.154 143.33c-.895 11.717-.306 23.49 1.695 35.068.273 1.582 2.683.912 2.411-.665-1.962-11.353-2.482-22.917-1.605-34.404.122-1.603-2.379-1.595-2.501.001z"/><path d="m157.556 333.077c2.215 10.588 4.431 21.177 6.646 31.765.329 1.574 2.74.908 2.411-.665-2.215-10.588-4.431-21.176-6.646-31.765-.33-1.574-2.74-.908-2.411.665z"/></g></g></svg>