<svg id="Capa_3" enable-background="new 0 0 453.543 453.543" height="512" viewBox="0 0 453.543 453.543" width="512" xmlns="http://www.w3.org/2000/svg"><g><path d="m112.251 59.128c-6.564-3.265-59.03 85.788-103.495 175.199l23.772 11.822c44.465-89.41 86.288-183.756 79.723-187.021z" fill="#f8627f"/><path d="m343.369 59.128c6.564-3.265 59.03 85.788 103.495 175.199l-23.771 11.822c-44.466-89.41-86.288-183.756-79.724-187.021z" fill="#f8627f"/><path d="m188.422 285.915c23.996 8.262 51.192 7.95 74.942-1.031 5.594-2.116 10.041-7.834 8.01-14.108-1.768-5.464-8.1-10.282-14.108-8.01-5.244 1.983-10.624 3.557-16.125 4.649-1.499.297-3.004.55-4.513.79-1.135.18-1.084.112.022.002-.675.067-1.349.156-2.025.224-2.872.288-5.755.453-8.641.496-2.716.041-5.433-.027-8.144-.204-1.355-.088-2.708-.204-4.059-.346-1.025-.108-2.164-.263-.489-.026-.672-.095-1.343-.197-2.014-.306-5.703-.925-11.298-2.367-16.759-4.248-5.679-1.955-12.792 2.232-14.108 8.01-1.452 6.38 1.931 12.014 8.011 14.108z" fill="#f8627f"/><path d="m112.217 394.502s-108.719-45.441-112.117-120.186c-3.397-74.745 80.266-88.759 113.816-33.55 0 0 25.481-54.36 74.744-27.605 49.264 26.756 34.4 130.804-76.443 181.341z" fill="#f8627f"/><path d="m111.988 372.989c-30.83-14.857-90.281-52.921-92.401-99.559-.692-15.234 3.127-27.666 11.046-35.952 6.648-6.957 16.006-10.789 26.349-10.789 16.001 0 31.054 9.05 40.266 24.206l18.89 31.086 15.44-32.936c.063-.128 11.754-23.783 30.692-23.783 5.178 0 10.926 1.696 17.082 5.039 11.126 6.043 17.162 19.408 16.559 36.668-1.066 30.549-23.843 75.832-83.923 106.02z" fill="#4f021b"/><g fill="#fff"><path d="m26.782 278.27c18.431-11.782 36.334-24.394 53.5-37.956 1.447-1.143-.594-3.16-2.027-2.027-16.973 13.41-34.696 25.859-52.92 37.508-1.55.99-.114 3.473 1.447 2.475z"/><path d="m136.632 256.396c4.506-3.889 8.995-7.807 13.23-11.994 4.169-4.122 8.08-8.493 11.974-12.873 1.222-1.375-.798-3.41-2.027-2.027-3.893 4.38-7.805 8.751-11.974 12.874-4.234 4.187-8.723 8.105-13.23 11.994-1.4 1.206.636 3.226 2.027 2.026z"/><path d="m49.432 320.04c19.271-11.727 37.973-24.313 55.891-38.028 1.446-1.106.019-3.598-1.447-2.476-17.918 13.715-36.62 26.301-55.891 38.028-1.574.958-.135 3.439 1.447 2.476z"/><path d="m87.778 351.91c27.994-17.563 55.166-36.697 80.287-58.197 1.404-1.202-.632-3.222-2.027-2.027-24.936 21.342-51.919 40.315-79.707 57.749-1.56.978-.122 3.459 1.447 2.475z"/><path d="m180.3 274.262c-4.784 1.601-11.491-5.554-14.981-15.981s-2.441-20.178 2.343-21.779 11.491 5.553 14.981 15.98c3.49 10.428 2.441 20.179-2.343 21.78z"/><path d="m183.347 288.435c-1.714 3.103-5.62 4.23-8.724 2.516s-4.23-5.62-2.516-8.724 5.62-4.23 8.724-2.516c3.104 1.715 4.23 5.621 2.516 8.724z"/></g><path d="m350.304 394.502s-108.719-45.441-112.117-120.186c-3.397-74.745 80.265-88.759 113.815-33.55 0 0 25.481-54.36 74.745-27.605 49.263 26.756 34.399 130.804-76.443 181.341z" fill="#f8627f"/><path d="m350.075 372.989c-30.83-14.857-90.281-52.921-92.401-99.559-.692-15.234 3.127-27.666 11.045-35.952 6.648-6.957 16.006-10.789 26.349-10.789 16.001 0 31.054 9.05 40.266 24.206l18.89 31.086 15.44-32.936c.063-.128 11.754-23.783 30.692-23.783 5.178 0 10.925 1.696 17.082 5.039 11.126 6.043 17.162 19.408 16.559 36.668-1.066 30.549-23.843 75.832-83.922 106.02z" fill="#4f021b"/><path d="m264.869 278.27c18.431-11.782 36.334-24.394 53.5-37.956 1.447-1.143-.594-3.16-2.027-2.027-16.973 13.41-34.696 25.859-52.919 37.508-1.551.99-.115 3.473 1.446 2.475z" fill="#fff"/><path d="m374.718 256.396c4.506-3.889 8.995-7.807 13.23-11.994 4.169-4.122 8.081-8.493 11.974-12.873 1.222-1.375-.798-3.41-2.027-2.027-3.893 4.38-7.805 8.751-11.974 12.874-4.234 4.187-8.723 8.105-13.229 11.994-1.4 1.206.635 3.226 2.026 2.026z" fill="#fff"/><path d="m287.518 320.04c19.271-11.727 37.973-24.313 55.891-38.028 1.445-1.106.019-3.598-1.447-2.476-17.918 13.715-36.62 26.301-55.891 38.028-1.574.958-.135 3.439 1.447 2.476z" fill="#fff"/><path d="m325.864 351.91c27.994-17.563 55.166-36.697 80.287-58.197 1.404-1.202-.632-3.222-2.027-2.027-24.936 21.342-51.92 40.315-79.707 57.749-1.559.978-.122 3.459 1.447 2.475z" fill="#fff"/><path d="m418.386 274.262c-4.784 1.601-11.491-5.554-14.982-15.981-3.49-10.427-2.441-20.178 2.343-21.779s11.491 5.553 14.981 15.98c3.491 10.428 2.442 20.179-2.342 21.78z" fill="#fff"/><path d="m421.433 288.435c-1.714 3.103-5.62 4.23-8.724 2.516s-4.23-5.62-2.516-8.724 5.62-4.23 8.724-2.516c3.105 1.715 4.231 5.621 2.516 8.724z" fill="#fff"/><path d="m14.205 228.554c9.808-10.944 23.662-17.823 38.336-18.88 1.83-.132 1.844-3 0-2.867-15.413 1.11-30.039 8.2-40.363 19.72-1.229 1.37.792 3.405 2.027 2.027z" fill="#4f021b"/><path d="m403.701 207.88c15.703-.051 30.783 8.543 38.735 22.085.934 1.59 3.413.149 2.476-1.447-8.455-14.398-24.512-23.56-41.211-23.505-1.845.006-1.848 2.873 0 2.867z" fill="#4f021b"/></g></svg>