<svg id="Capa_3" enable-background="new 0 0 453.543 453.543" height="512" viewBox="0 0 453.543 453.543" width="512" xmlns="http://www.w3.org/2000/svg"><g><g fill="#b8e3c5"><path d="m232.836 213.12s-131.922 124.343-158.459 168.562c-4.425 7.373-1.366 35.261-1.412 39.271-.155 13.395 101.108 44.073 135.243 28.086 26.774-12.54 129.672-194.022 129.672-194.022z"/><path d="m198.701 233.373s-125.412 126.469-125.737 154.526c-.155 13.395 101.108 44.073 135.243 28.086 26.774-12.54 111.71-168.132 111.71-168.132z"/><path d="m269.987 5.589c-55.583-4.463-55.794 211.092-55.794 211.092l124.675 16.691c29.867-75.868 41.07-166.166 42.666-190.094 1.596-23.926-55.964-33.226-111.547-37.689z"/><path d="m259.769.068c-55.583-4.463-55.794 211.092-55.794 211.092l124.675 16.691c29.867-75.868 41.07-166.166 42.666-190.094 1.596-23.926-55.964-33.226-111.547-37.689z"/><path d="m196.966 235.787c-5.794-1.541-10.235-11.201-6.722-24.29 2.691-10.026 8.891-19.762 14.685-18.221l136.738 26.452-9.661 36.329z"/><path d="m341.666 219.728c5.794 1.541 8.329 10.923 5.661 20.954s-9.528 16.915-15.322 15.374-8.329-10.922-5.661-20.954c2.668-10.031 9.528-16.914 15.322-15.374z"/></g><path d="m334.437 213.412c-18.168-6.119-36.827-10.77-55.641-14.413-17.092-3.31-34.406-5.877-51.791-6.984-7.342-.468-14.733-.691-22.077-.162-1.817.131-1.831 2.979 0 2.847 14.164-1.021 28.553.386 42.601 2.143 18.594 2.326 37.066 5.839 55.25 10.355 10.412 2.585 20.733 5.535 30.901 8.96 1.741.586 2.487-2.163.757-2.746z" fill="#4f021b"/><path d="m359.76 22.11c5.978 10.285 6.968 22.214 6.238 33.869-.787 12.585-3.093 25.125-5.185 37.545-4.381 26.01-9.785 51.848-16.198 77.434-3.652 14.57-7.636 29.054-11.929 43.449-.525 1.76 2.222 2.511 2.745.757 7.8-26.156 14.561-52.617 20.223-79.318 2.85-13.439 5.424-26.936 7.721-40.481 2.103-12.404 4.358-24.909 5.335-37.463.993-12.762.069-25.942-6.492-37.228-.921-1.584-3.382-.152-2.458 1.436z" fill="#4f021b"/><path d="m329.909 253.644c-7.402-2.487-9.264-13.054-8.352-19.752 1.004-7.373 5.455-13.824 11.808-17.625 1.571-.939.141-3.402-1.437-2.458-7.498 4.485-12.504 12.218-13.32 20.942-.744 7.95 2.114 18.805 10.543 21.637 1.742.586 2.489-2.162.758-2.744z" fill="#4f021b"/><path d="m334.815 243.807c-2.311-3.405-2.563-8.359-.014-11.738.472-.626 1.233-1.326 2.091-1.222.824.1 1.119 1.065 1.289 1.744.601 2.397.39 5.018-.268 7.376-.494 1.768 2.252 2.522 2.745.757.706-2.528.861-5.14.484-7.734-.326-2.247-1.378-4.631-3.902-4.947-2.468-.309-4.395 1.543-5.499 3.548-1.089 1.977-1.635 4.259-1.596 6.514.045 2.527.789 5.044 2.211 7.139 1.023 1.508 3.491.085 2.459-1.437z" fill="#4f021b"/><path d="m196.39 236.813c43.259 12.278 88.196 18.723 133.141 19.627 1.833.037 1.832-2.81 0-2.847-44.705-.899-89.356-7.313-132.384-19.525-1.766-.501-2.52 2.245-.757 2.745z" fill="#4f021b"/><path d="m315.366 254.298c-20.976 39.342-44.626 77.213-70.419 113.573-6.407 9.032-12.897 18.02-19.609 26.829-6.513 8.548-13.823 16.619-23.982 20.768-9.36 3.823-19.688 4.513-29.687 4.064-10.551-.473-21.086-2.063-31.39-4.349-23.357-5.181-45.663-14.494-65.812-27.385-1.548-.99-2.977 1.473-1.437 2.458 18.229 11.663 38.254 20.453 59.199 25.913 10.286 2.681 20.783 4.558 31.361 5.61 10.152 1.01 20.552 1.211 30.555-1.08 9.83-2.251 18.321-7.247 25.277-14.518 7.453-7.789 13.594-16.946 19.918-25.645 13.622-18.737 26.701-37.87 39.137-57.416 13.967-21.953 27.105-44.427 39.347-67.387.862-1.614-1.595-3.054-2.458-1.435z" fill="#4f021b"/><path d="m247.945 27.182c-20.513 24.314-29.692 142.513-29.692 142.513s55.323-1.711 108.029 15.231c0 0 27.273-99.993 26.438-136.755-32.37-17.051-68.144-20.757-104.775-20.989z" fill="#fff"/><path d="m262.648 15.152c25.739-.062 51.291 4.208 75.618 12.614 1.735.6 2.481-2.15.757-2.745-24.551-8.483-50.401-12.779-76.375-12.716-1.832.005-1.835 2.852 0 2.847z" fill="#4f021b"/><path d="m198.809 256.057s-70.009 72.47-95.227 108.072c-2.049 2.893-.75 6.931 2.618 8.035 19.08 6.258 74.248 23.319 90.241 16.922 19.444-7.777 91.221-116.339 91.221-116.339s-66.168-10.048-88.853-16.69z" fill="#fff"/><path d="m125.65 378.925c8.235-9.049 16.38-18.181 24.495-27.337 16.714-18.856 33.264-37.865 49.405-57.215 8.728-10.464 17.344-21.028 25.619-31.855 1.112-1.455-1.36-2.875-2.458-1.437-15.26 19.967-31.589 39.129-48.009 58.144-14.005 16.219-28.194 32.281-42.517 48.219-2.842 3.163-5.687 6.323-8.549 9.468-1.23 1.352.777 3.372 2.014 2.013z" fill="#4f021b"/><path d="m164.09 387.715c7.849-9.354 15.648-18.751 23.432-28.16 16.043-19.394 31.995-38.865 47.725-58.514 8.514-10.636 16.968-21.323 25.238-32.15 1.112-1.455-1.36-2.875-2.458-1.437-15.25 19.965-31.067 39.5-46.945 58.967-13.523 16.58-27.145 33.078-40.843 49.513-2.716 3.259-5.434 6.517-8.161 9.768-1.172 1.395.832 3.419 2.012 2.013z" fill="#4f021b"/><path d="m180.138 276.694c21.092 6.697 42.636 12.322 64.306 16.781 8.957 1.843 17.967 3.426 27.041 4.57 1.813.229 1.796-2.621 0-2.847-28.378-3.577-56.392-10.975-83.755-19.159-2.282-.683-4.564-1.37-6.835-2.091-1.75-.555-2.5 2.192-.757 2.746z" fill="#4f021b"/><path d="m158.315 299.811c22.553 6.825 45.492 12.705 68.578 17.41 9.211 1.877 18.472 3.517 27.8 4.691 1.813.228 1.797-2.621 0-2.847-29.886-3.763-59.403-11.558-88.312-19.859-2.44-.701-4.879-1.406-7.309-2.141-1.757-.531-2.508 2.216-.757 2.746z" fill="#4f021b"/><path d="m137.838 323.679c23.547 6.763 47.425 12.676 71.453 17.45 9.273 1.842 18.592 3.472 27.974 4.652 1.813.228 1.797-2.621 0-2.847-30.713-3.863-61.067-11.673-90.885-19.83-2.598-.711-5.196-1.426-7.785-2.17-1.764-.507-2.517 2.239-.757 2.745z" fill="#4f021b"/><path d="m115.574 349.35c23.567 7.407 47.552 13.856 71.719 18.965 9.294 1.965 18.644 3.684 28.071 4.872 1.813.229 1.797-2.621 0-2.847-30.897-3.893-61.393-12.453-91.178-21.343-2.623-.783-5.245-1.571-7.856-2.391-1.751-.552-2.501 2.196-.756 2.744z" fill="#4f021b"/><path d="m278.816 148.319s-61.215-45.746-36.02-72.906c25.196-27.16 48.104 10.924 48.104 10.924s30.057-29.304 43.93 1.609c13.874 30.914-56.014 60.373-56.014 60.373z" fill="#f8627f"/><path d="m277.252 128.641c-9.682-5.466-17.514-14.266-23.157-23.747-5.541-9.31-9.092-19.839-6.082-30.654.579-2.081 1.379-3.986 2.362-5.737-1.729 1.145-3.489 2.538-5.281 4.225-26.967 25.402 31.031 75.165 31.031 75.165s12.684-4.367 26.507-11.791c-8.864-.814-17.699-3.124-25.38-7.461z" fill="#f44770"/><path d="m325.327 102.93c-3.181.645-6.898-4.454-8.303-11.387-1.405-6.934.036-13.077 3.217-13.721s6.899 4.454 8.303 11.388c1.404 6.933-.036 13.076-3.217 13.72z" fill="#fff"/><path d="m326.153 112.221c-1.34 1.846-3.923 2.257-5.769.917s-2.257-3.923-.917-5.769 3.923-2.257 5.769-.917 2.257 3.923.917 5.769z" fill="#fff"/></g></svg>