<svg id="Capa_3" enable-background="new 0 0 453.543 453.543" height="512" viewBox="0 0 453.543 453.543" width="512" xmlns="http://www.w3.org/2000/svg"><g><path d="m216.677 151.496c-16.473-12.761-125.023-86.651-216.677 102.37 0 0 95.999 144.019 243.262 80.333 159.307 19.076 210.281-146.329 210.281-146.329-141.721-155.061-224.712-53.301-236.866-36.374z" fill="#f8627f"/><path d="m418.214 227.649c-18.945 15.557-39.87 28.833-61.613 40.117-23.887 12.397-49.93 21.471-77.035 22.44-16.459.588-37.056-.159-53.934-5.903-9.174 5.951-18.927 11.089-29.088 15.071-23.38 9.162-47.992 11.859-72.917 9.761-43.328-3.648-85.954-20.131-118.811-48.681 21.116 27.467 110.392 129.124 238.447 73.746 133.781 16.019 191.156-98.044 206.111-135.014-9.294 10.863-21.3 20.366-31.16 28.463z" fill="#f44770"/><path d="m432.811 190.185c-19.153 1.625-38.396 2.559-57.61 3.001-15.201.349-30.446.371-45.625-.632-17.392-1.149-34.31 2.675-48.816 12.603-13.925 9.531-28.775 17.328-45.382 20.98-17.291 3.802-35.158 3.018-52.29-1.233-8.354-2.073-16.33-5.337-24.895-6.539-9.061-1.272-18.316-.868-27.226 1.233-7.654 1.805-14.963 5.019-22.419 7.494-7.299 2.424-14.66 4.658-22.052 6.778-21.379 6.131-43.025 11.453-64.785 16.056-.384.081-.767.162-1.151.242-1.791.371-1.033 3.114.756 2.743 18.331-3.799 36.555-8.258 54.623-13.148 14.546-3.936 29.039-8.191 43.207-13.342 8.682-3.156 17.197-5.63 26.51-5.916 9.688-.298 18.678 1.745 27.842 4.647 16.901 5.353 34.939 7.769 52.589 5.443 15.755-2.076 30.688-7.458 44.416-15.426 6.841-3.971 13.048-8.975 20.119-12.542 8.302-4.188 17.46-6.722 26.736-7.374 7.81-.549 15.665.433 23.474.699 7.767.265 15.541.322 23.313.255 22.504-.192 45.034-1.269 67.466-3.079.4-.032.8-.065 1.2-.098 1.81-.154 1.827-3 0-2.845z" fill="#4f021b"/><g fill="#fff"><path d="m380.103 161.1c-3.583 7.302-19.388 6.891-35.303-.918s-25.911-20.058-22.329-27.36c3.583-7.302 19.388-6.891 35.303.918s25.912 20.058 22.329 27.36z"/><path d="m406.232 166.12c1.618 5.482-1.514 11.238-6.997 12.856s-11.238-1.514-12.857-6.997c-1.618-5.483 1.515-11.238 6.997-12.857 5.483-1.617 11.239 1.515 12.857 6.998z"/></g></g></svg>