<svg id="Capa_3" enable-background="new 0 0 453.543 453.543" height="512" viewBox="0 0 453.543 453.543" width="512" xmlns="http://www.w3.org/2000/svg"><g><path d="m18.268 41.885c50.825 50.824 101.649 101.649 152.474 152.474 50.824 50.824 101.649 101.649 152.473 152.474l85.514 85.514c1.301 1.301 3.321-.718 2.019-2.019-50.824-50.826-101.648-101.65-152.473-152.475-50.824-50.825-101.649-101.649-152.474-152.474-28.504-28.504-57.008-57.009-85.513-85.514-1.301-1.301-3.321.718-2.02 2.02z" fill="#4f021b"/><path d="m56.498 402.399c-2.129 51.038 32.625 5.344 47.996-11.085s6.84-42.224 6.84-42.224-31.593-11.747-46.964 4.682-58.656 54.142-7.872 48.627z" fill="#ffdcbd"/><path d="m77.977 419.726c-.11-12.009.811-24.053-.498-36.025-.088-.806-.585-1.376-1.428-1.428-11.604-.718-23.258-1.274-34.763-3.031-1.798-.275-2.573 2.476-.759 2.754 11.761 1.797 23.66 2.4 35.523 3.133-.476-.476-.952-.952-1.428-1.428 1.308 11.972.387 24.017.498 36.025.016 1.837 2.872 1.842 2.855 0z" fill="#4f021b"/><path d="m97.652 398.857c-.115-11.447.235-22.904-1.024-34.305-.089-.808-.584-1.373-1.428-1.428-11.513-.748-22.856-2.976-34.237-4.752-1.798-.28-2.572 2.471-.759 2.754 11.632 1.814 23.23 4.089 34.996 4.854-.476-.476-.952-.952-1.428-1.428 1.259 11.402.908 22.858 1.024 34.305.019 1.836 2.875 1.841 2.856 0z" fill="#4f021b"/><path d="m444.075 6.069s-92.286-23.555-98.902 22.142 46.964 33.307 46.964 33.307-3.601 56.882 37.239 46.137c40.84-10.746 14.699-101.586 14.699-101.586z" fill="#f8627f"/><path d="m392.585 59.478c-44.059 44.058-88.183 88.05-132.32 132.03-44.641 44.482-89.296 88.951-133.915 133.455-24.58 24.516-49.149 49.043-73.697 73.591-1.301 1.301.718 3.321 2.019 2.019 44.059-44.058 88.183-88.05 132.32-132.03 44.641-44.482 89.296-88.951 133.915-133.455 24.58-24.516 49.149-49.043 73.697-73.591 1.302-1.3-.717-3.32-2.019-2.019z" fill="#4f021b"/><path d="m435.56 72.123c-5.982.532-11.771-9.606-12.931-22.643s2.749-24.038 8.731-24.57 11.771 9.606 12.931 22.643c1.16 13.038-2.75 24.038-8.731 24.57z" fill="#fff"/><path d="m435.172 89.377c-2.843 3.12-7.676 3.344-10.796.502-3.12-2.843-3.345-7.676-.502-10.796s7.676-3.345 10.796-.502c3.119 2.842 3.344 7.676.502 10.796z" fill="#fff"/><path d="m12.373 55.718c29.43-29.257 70.548-41.752 112.143-41.124 48.988.74 96.859 17.998 138.632 42.83 48.552 28.863 90.865 69.163 122.322 116.062 27.776 41.411 48.391 89.446 52.759 139.502 1.901 21.78.813 43.384-4.593 64.393-2.559 9.947-5.76 18.896-10.074 27.742-2.235 4.584-4.71 9.05-7.42 13.37-2.539 4.046-5.465 8.21-7.914 11.279-3.213 4.027-6.658 7.857-10.29 11.511-6.505 6.544 3.624 16.697 10.141 10.141 31.684-31.871 45.648-76.205 45.345-120.511-.355-51.818-18.235-102.792-44.442-147.025-30.233-51.028-72.504-95.161-121.728-128.178-43.81-29.386-94.612-50.296-147.491-54.703-44.589-3.716-90.561 5.988-126.021 34.28-4.027 3.213-7.857 6.658-11.51 10.29-6.546 6.506 3.586 16.657 10.141 10.141z" fill="#ffdcbd"/></g></svg>