<svg id="Capa_3" enable-background="new 0 0 453.543 453.543" viewBox="0 0 453.543 453.543" xmlns="http://www.w3.org/2000/svg"><g><path d="m236.535 453.672s-239.617-115.518-171.627-225.095c67.991-109.577 171.627 5.281 171.627 5.281s83.173-120.139 151.163-23.764c67.991 96.375-151.163 243.578-151.163 243.578z" fill="#ffacb3"/><path d="m235.228 435.109c-31.597-16.521-144.075-79.428-163.741-147.097-5.298-18.229-3.015-34.92 6.977-51.024 16.628-26.8 35.855-39.827 58.782-39.827 36.664 0 75.555 34.204 87.446 47.384l13.493 14.955 11.466-16.56c10.515-15.099 45.09-54.327 78.231-54.327 16.916 0 32.218 10.035 46.781 30.679 9.161 12.984 12.091 27.559 8.958 44.559-12.879 69.892-118.881 150.113-148.393 171.258z" fill="#f78996"/><path d="m364.21 297.9c-5.646-4.991-11.917-9.833-19.773-10.222-21.861-1.083-33.509 23.94-54.089 24.905-12.666.594-17.953-9.761-24.93-18.272-4.923-6.006-11.807-11.768-20.039-10.756-8.13 1-15.44 7.62-21.319 12.818-9.98 8.826-19.944 18.657-34.322 17.8-11.384-.679-20.58-8.44-27.717-16.698-12.047-13.94-33.914-54.531-54.829-28.11-9.262 11.701-13.16 26.444-24.147 37.144-.855.832-1.733 1.611-2.623 2.364 33.211 59.361 126.485 111.43 154.804 126.237 24.216-17.35 99.924-74.479 133.433-133.038-1.448-1.43-2.928-2.827-4.449-4.172z" fill="#f8627f"/><path d="m260.555 99.936c-.722-7.185-16.433-11.489-35.09-9.613-18.658 1.876-33.197 9.221-32.475 16.407.051.504.183.993.378 1.468l28.044 129.486h30.637l8.382-136.02c.132-.574.182-1.152.124-1.728z" fill="#ffacb3"/><path d="m359.205 240.667c-4.866 4.613-16.96-.245-27.013-10.85s-14.259-22.941-9.393-27.554c4.866-4.612 16.96.245 27.013 10.85 10.054 10.605 14.259 22.941 9.393 27.554z" fill="#fff"/><path d="m377.952 252.051c-.325 4.701-4.398 8.248-9.099 7.924-4.701-.325-8.249-4.398-7.924-9.099s4.399-8.248 9.1-7.924c4.7.324 8.247 4.398 7.923 9.099z" fill="#fff"/><path d="m250.459 106.287c.376 4.215-9.785 8.565-22.695 9.716-12.91 1.15-23.68-1.334-24.056-5.55s9.785-8.565 22.695-9.716c12.91-1.15 23.68 1.335 24.056 5.55z" fill="#f78996"/><g fill="#f44770"><path d="m232.924 414.019s-30.693-14.797-21.984-28.833 21.984.676 21.984.676 10.654-15.389 19.363-3.044-19.363 31.201-19.363 31.201z"/><path d="m193.802 354.652s-21.885-2.906-19.36-13.306c2.524-10.401 13.67-4.027 13.67-4.027s3.448-11.626 11.304-5.787-5.614 23.12-5.614 23.12z"/><path d="m283.273 367.177s14.53-1.929 12.854-8.834-9.076-2.673-9.076-2.673-2.289-7.719-7.505-3.842c-5.216 3.876 3.727 15.349 3.727 15.349z"/><path d="m249.591 306.451s-8.854-1.176-7.832-5.383c1.021-4.207 5.53-1.629 5.53-1.629s1.395-4.703 4.574-2.341c3.177 2.362-2.272 9.353-2.272 9.353z"/><path d="m238.575 348.186s14.155-3.805 11.594-10.433-9.346-1.469-9.346-1.469-3.275-7.355-7.942-2.832 5.694 14.734 5.694 14.734z"/><path d="m126.252 309.544s-14.155-3.805-11.594-10.433 9.347-1.469 9.347-1.469 3.275-7.355 7.941-2.832c4.667 4.523-5.694 14.734-5.694 14.734z"/><path d="m134.822 353.468s19.56-5.258 16.021-14.417-12.916-2.03-12.916-2.03-4.526-10.164-10.974-3.914c-6.448 6.251 7.869 20.361 7.869 20.361z"/><path d="m321.821 338.358s19.56-5.257 16.021-14.417c-3.539-9.159-12.916-2.03-12.916-2.03s-4.525-10.164-10.974-3.914c-6.448 6.251 7.869 20.361 7.869 20.361z"/></g><path d="m238.453 76.061s47.207-12.689 38.667-34.794c-8.541-22.105-31.172-4.899-31.172-4.899s-10.923-24.53-26.486-9.445c-15.563 15.084 18.991 49.138 18.991 49.138z" fill="#f8627f"/><path d="m204.222 30.663s-26.672-7.169-21.846-19.659c4.825-12.49 17.612-2.768 17.612-2.768s6.171-13.859 14.964-5.336c8.794 8.522-10.73 27.763-10.73 27.763z" fill="#f8627f"/><path d="m203.939 128.127c16.674 3.931 34.487 1.717 49.696-6.165 1.429-.741.166-2.899-1.262-2.159-14.598 7.565-31.768 9.686-47.769 5.913-1.565-.368-2.233 2.042-.665 2.411z" fill="#4f021b"/><path d="m365.501 279.255c-12.973 21.375-28.478 41.084-45.361 59.494-16.959 18.493-35.258 35.706-53.973 52.401-10.504 9.371-21.147 18.585-31.797 27.791-1.219 1.054.555 2.816 1.768 1.768 19.11-16.52 38.212-33.07 56.501-50.503 18.09-17.242 35.404-35.369 50.869-55.023 8.716-11.076 16.837-22.616 24.151-34.667.838-1.379-1.323-2.636-2.158-1.261z" fill="#4f021b"/></g></svg>