<svg id="Capa_3" enable-background="new 0 0 453.543 453.543" viewBox="0 0 453.543 453.543" xmlns="http://www.w3.org/2000/svg"><g><path d="m309.807 453.509c5.952.445 11.343-3.536 12.666-9.356 50.004-219.968 59.253-360.761 60.877-396.603.245-5.417-3.152-10.299-8.293-12.023-102.898-34.502-202.692-35.925-232.538-35.469-5.322.081-9.972 3.634-11.433 8.753-62.35 218.406-61.86 359.129-60.583 393.251.184 4.925 3.331 9.232 7.971 10.895 76.083 27.26 195.682 37.889 231.333 40.552z" fill="#f8627f"/><path d="m301.828 369.109c4.876.392 9.253-2.585 10.283-6.998 38.926-166.782 45.214-273.74 46.216-300.975.151-4.116-2.674-7.859-6.898-9.217-84.542-27.169-166.24-29.16-190.667-29.086-4.356.013-8.13 2.672-9.279 6.55-49.046 165.482-47.362 272.476-46.006 298.43.196 3.746 2.811 7.049 6.624 8.356 62.527 21.419 160.521 30.59 189.727 32.94z" fill="#fff"/><path d="m192.531 420.254s38.562-11.828 30.88-29.81-25.847-3.139-25.847-3.139-9.716-19.913-22.114-7.023c-12.398 12.889 17.081 39.972 17.081 39.972z" fill="#b8e3c5"/><path d="m315.312 392.968c5.598 1.413 7.64 12.449 4.561 24.651-3.079 12.201-10.114 20.947-15.711 19.535-5.598-1.413-7.64-12.449-4.561-24.651s10.113-20.948 15.711-19.535z" fill="#fff"/><path d="m315.289 370.478c3.569-1.931 8.027-.603 9.958 2.965 1.931 3.569.603 8.028-2.966 9.958-3.569 1.931-8.027.603-9.958-2.966-1.931-3.568-.603-8.026 2.966-9.957z" fill="#fff"/><path d="m250.527 246.706s-47.45-33.166-54.375-78.944c-6.924-45.778 37.844-43.268 53.153-16.617 0 0 20.67-31.528 43.055-19.243s12.11 78.207-41.833 114.804z" fill="#f8627f"/><path d="m265.375 232.807c-26.212-4.121-42.461-26.055-49.868-49.946-3.77-12.161-6.63-25.339-4.481-38.087.715-4.24 2.128-8.688 4.308-12.594-12.691 1.337-22.732 12.11-19.182 35.583 6.924 45.777 54.375 78.944 54.375 78.944 6.192-4.201 11.801-8.791 16.859-13.64-.667-.072-1.337-.154-2.011-.26z" fill="#f44770"/><path d="m291.35 161.842c-2.996.116-5.776-4.664-6.209-10.677s1.645-10.982 4.642-11.098c2.996-.116 5.776 4.664 6.209 10.678.432 6.012-1.646 10.98-4.642 11.097z" fill="#fff"/><path d="m294.557 170.449c-1.456 1.372-3.875 1.372-5.402-.001s-1.585-3.598-.129-4.97 3.875-1.372 5.402.001 1.585 3.597.129 4.97z" fill="#fff"/><path d="m166.606 252.942s-17.873-41.329-3.767-74.462c14.105-33.133 42.718-13.194 41.973 10.7 0 0 26.556-12.433 36.36 4.839 9.802 17.271-23.914 56.718-74.566 58.923z" fill="#ffacb3"/><path d="m182.11 249.802c-15.671-13.43-17.473-34.585-12.623-53.425 2.469-9.59 5.956-19.482 12.583-27.044 2.204-2.515 4.956-4.883 7.994-6.579-8.947-4.296-19.993-1.263-27.226 15.725-14.105 33.133 3.767 74.462 3.767 74.462 5.814-.253 11.402-1.002 16.73-2.147-.412-.319-.822-.647-1.225-.992z" fill="#f78996"/><path d="m228.279 213.426c-2.031-1.146-1.92-5.446.249-9.603 2.169-4.158 5.573-6.599 7.604-5.452 2.031 1.146 1.92 5.446-.249 9.603s-5.573 6.598-7.604 5.452z" fill="#fff"/><path d="m226.888 220.433c-1.524.314-3.125-.674-3.576-2.206s.419-3.029 1.943-3.343 3.126.674 3.576 2.206c.451 1.533-.419 3.029-1.943 3.343z" fill="#fff"/><g fill="#4f021b"><path d="m369.983 56.212c-.804 17.551-1.888 35.089-3.26 52.605s-3.028 35.009-4.968 52.471c-1.947 17.525-4.179 35.018-6.699 52.469-2.511 17.389-5.304 34.737-8.379 52.036-3.074 17.298-6.43 34.547-10.065 51.736-.452 2.138-.909 4.275-1.369 6.411-.338 1.569 2.071 2.239 2.411.665 3.721-17.26 7.164-34.58 10.321-51.953 3.157-17.372 6.031-34.796 8.619-52.262 2.566-17.317 4.855-34.676 6.864-52.066 2.026-17.54 3.766-35.113 5.218-52.71 1.453-17.597 2.618-35.218 3.494-52.853.109-2.183.212-4.365.312-6.548.074-1.609-2.426-1.606-2.499-.001z"/><path d="m331.327 341.817c-2.042 7.854-4.084 15.708-6.127 23.561-.402 1.546 1.943 2.419 2.347.862 2.042-7.854 4.084-15.708 6.126-23.562.403-1.545-1.941-2.418-2.346-.861z"/></g></g></svg>