<svg id="Capa_3" enable-background="new 0 0 453.543 453.543" height="512" viewBox="0 0 453.543 453.543" width="512" xmlns="http://www.w3.org/2000/svg"><g><path d="m287.539 229.039s99.463-114.192 149.403-60.382c49.939 53.811-28.711 93.44-28.711 93.44s53.455 63.735-9.686 86.572c-63.141 22.838-111.006-119.63-111.006-119.63z" fill="#f44770"/><path d="m294.513 223.092c5.908-2.753 12.035-5.095 18.101-7.484 14.181-5.583 28.718-10.685 43.66-13.83 23.152-4.873 48.389-4.382 69.365 7.626 9.248 5.294 15.746 12.459 19.646 20.71 10.593-16.123 14.015-37.367-8.343-61.457-44.184-47.608-127.117 36.274-145.653 56.248 1.179-.721 2.283-1.375 3.224-1.813z" fill="#f8627f"/><path d="m439.508 196.066c-2.711 2.142-8.694-.912-13.363-6.821s-6.256-12.436-3.545-14.578 8.694.912 13.363 6.821c4.668 5.909 6.256 12.436 3.545 14.578z" fill="#fff"/><path d="m444.761 204.492c-.384 2.398-2.64 4.03-5.038 3.646-2.397-.384-4.03-2.64-3.646-5.038s2.64-4.03 5.038-3.646 4.03 2.64 3.646 5.038z" fill="#fff"/><g fill="#ffdcbd"><path d="m309.389 235.753c-6.383 16.14-3.489 13.745-158.496-47.564-155.007-61.308-155.328-57.895-148.945-74.034 6.383-16.14 4.879-14.935 159.886 46.373s153.939 59.086 147.555 75.225z"/><path d="m21.768 125.392c-24.535 61.865-22.728 61.536-10.813 66.249s13.829 6.513 38.679-55.227z"/><path d="m90.482 152.57c-24.535 61.864-22.728 61.536-10.813 66.249s13.829 6.513 38.679-55.227z"/></g><path d="m84.876 220.634c.2-1.398 1.784-4.17 2.53-5.887 2.076-4.781 4.161-9.559 6.247-14.336 4.672-10.702 9.353-21.4 14.035-32.098 1.083-2.473 2.165-4.946 3.249-7.419-.538.219-1.076.438-1.613.657 6.577 2.604 13.154 5.209 19.731 7.814 15.796 6.255 31.592 12.51 47.387 18.765 19.111 7.568 38.223 15.136 57.334 22.704 16.524 6.543 33.047 13.086 49.571 19.629 5.427 2.149 10.855 4.299 16.283 6.448 2.487.985 5.193 2.518 7.815 3.095l.34.134c1.71.677 2.451-2.085.759-2.755-6.577-2.604-13.155-5.209-19.732-7.813-15.796-6.255-31.592-12.51-47.387-18.765-19.111-7.568-38.223-15.136-57.334-22.704-16.523-6.543-33.047-13.086-49.571-19.629-5.427-2.149-10.855-4.299-16.283-6.448-2.501-.991-5.185-2.488-7.815-3.095l-.339-.134c-.526-.208-1.382.128-1.613.657-7.71 17.601-15.424 35.2-23.084 52.823-.772 1.777-1.546 3.554-2.311 5.335-.293.682-.849 1.53-.954 2.265-.257 1.795 2.495 2.573 2.755.757z" fill="#4f021b"/><path d="m14.615 192.067c.2-1.398 1.783-4.17 2.53-5.887 2.076-4.781 4.161-9.559 6.247-14.336 4.672-10.702 9.353-21.4 14.036-32.098 1.083-2.473 2.165-4.946 3.248-7.419.731-1.668-1.73-3.124-2.467-1.442-7.709 17.601-15.424 35.2-23.083 52.823-.772 1.778-1.546 3.555-2.311 5.335-.293.682-.849 1.53-.954 2.265-.259 1.798 2.494 2.575 2.754.759z" fill="#4f021b"/><path d="m110.084 158.795c-12.059-4.879-24.117-9.757-36.175-14.635-19.24-7.784-38.479-15.568-57.719-23.351-4.443-1.798-8.886-3.595-13.329-5.393-1.704-.689-2.445 2.073-.759 2.755 12.058 4.878 24.117 9.757 36.175 14.635 19.239 7.784 38.479 15.568 57.719 23.351 4.443 1.798 8.886 3.595 13.329 5.393 1.703.689 2.444-2.073.759-2.755z" fill="#4f021b"/></g></svg>