<?xml version="1.0" encoding="UTF-8"?>
<!-- Generator: Adobe Illustrator 27.1.1, SVG Export Plug-In . SVG Version: 6.00 Build 0)  -->
<svg xmlns="http://www.w3.org/2000/svg" xmlns:xlink="http://www.w3.org/1999/xlink" version="1.1" id="Capa_1" x="0px" y="0px" viewBox="0 0 512 512" style="enable-background:new 0 0 512 512;" xml:space="preserve" width="512" height="512">
<g>
	<path style="fill:#FFFFFF;" d="M511.091,111.869c-10.311-23.551-40.428-31.897-61.89-18.317c-0.213-3.374-1.308-6.637-3.213-9.468   c13.024-2.04,24.28-12.692,28.849-24.925c2.054-4.627,2.07-10.88,5.448-14.239c4.784-0.179,8.779-3.79,9.399-8.573   c1.222-11.544-12.638-12.454-21.108-12.563c-31.378-0.111-51.134,23.205-51.286,48.616c-1.153,2.492-2.179,5.04-3.069,7.62   c-13.833,8.629-28.105,16.639-42.689,23.964c1.379-4.502,2.09-9.474,1.708-14.871c0.934-13.041-19.4-53.565-34.949-39.688   c-3.372,3.453-3.733,8.824-0.904,12.689c-0.01,2.534-2.327,5.232-4.055,7.655c-3.032,3.902-6.054,8.829-7.566,13.694   c-4.595-2.491-10.544-0.989-13.244,3.657c-11.36,19.334-25.178,36.909-41.14,52.341c-17.111-20.79-45.664-11.671-50.149,13.95   c-15.66,2.27-31.031,4.609-46.927,5.84c-3.657-4.137-9.152-4.936-13.945-2.888c-3.287-2.038-7.705-2.113-11.179-0.572   c-6.533-4.127-14.759,0.198-18.884,5.41c-37.62,0.558-73.594-4.269-109.507-10.548C3.837,150.31-5.503,169.038,3.482,182.521   c2.852,4.41,7.168,7.392,12.152,8.396c28.799,5.8,58.204,9.408,87.428,10.722c-22.803,38.453-37.14,78.576-29.908,119.699   c14.917,67.439,75.623,92.22,140.567,80.934c33.631,51.338,85.96,83.002,149.526,85.943c11.774-0.119,14.379-7.059,15.105-9.63   c5.532-2.361,6.948-6.34,7.497-8.293c9.256-4.151,11.346-14.947,1.188-22.568c-31.978-15.998-62.787-40.445-77.777-59.066   c69.167,6.563,113.809-83.513,99.714-143.762c5.28-10.741,15.49-38.211,2.413-46.98c1.348-17.298-9.38-39.017-24.984-38.132   c-8.912-0.12-17.051,6.116-20.33,14.329c-3.757-0.53-7.682-0.194-11.239,1.101c-7.249-3.824-15.016-6.982-23.107-9.422   c10.546-3.919,20.11-7.785,30.507-12.346c17.16,2.941,34.828,3.214,52.039,0.756c4.801,12.03,20.453,20.467,33.853,20.066   c6.797,0.629,14.327-3.736,20.503-2.327c2.425,4.171,7.595,5.925,12.001,4.217c16.232-7.249-3.622-34.062-12.371-41.045   c9.665-2.067,16.993-10.448,26.385-11.333c2.834,0.127,4.651,2.301,7.478,1.994C509,125.997,514.167,118.112,511.091,111.869z"/>
	<g>
		<g>
			<path style="fill:#9C3621;" d="M276.769,327.626l-62.7,56.261c0,0,45.55,89.333,139.12,92.511l20.264-24.245     C309.041,413.599,276.055,376.399,276.769,327.626z"/>
			<path style="opacity:0.19;fill:#FFFFFF;" d="M303.004,423.689c2.757-1.192,4.894-3.888,4.871-7.344     c-0.02-3.122-1.709-6.165-3.557-8.774c-4.717-6.658-10.815-11.903-15.943-18.175c-4.461-5.456-8.171-11.671-12.914-16.812     c-1.888-2.046-3.974-3.94-6.333-5.038c-2.359-1.098-5.035-1.315-7.052-0.065c-1.917,1.188-3.031,3.564-3.405,6.093     c-1.029,6.965,1.605,13.201,4.811,19.509c2.016,3.966,4.39,7.735,7.061,11.223c5.335,6.969,11.865,12.829,19.052,16.852     c3.605,2.018,7.54,3.623,11.251,3.131C301.588,424.191,302.316,423.987,303.004,423.689z"/>
			<g>
				<path style="fill:#F7D7B6;" d="M350.775,471.198c0.594-2.119,2.69-3.509,4.855-3.113c0.917,0.168,1.865,0.386,2.828,0.656      c6.368,1.784,10.994,5.144,10.333,7.505c-0.661,2.36-6.36,2.828-12.728,1.044c-0.963-0.27-1.886-0.576-2.757-0.909      C351.25,475.594,350.181,473.317,350.775,471.198L350.775,471.198z"/>
				<path style="fill:#F7D7B6;" d="M358.272,462.904c0.594-2.12,2.69-3.509,4.855-3.113c0.917,0.168,1.865,0.386,2.828,0.656      c6.368,1.784,10.994,5.144,10.333,7.505c-0.661,2.36-6.36,2.828-12.728,1.044c-0.963-0.27-1.886-0.576-2.757-0.909      C358.747,467.301,357.678,465.024,358.272,462.904L358.272,462.904z"/>
				<path style="fill:#F7D7B6;" d="M365.769,454.611c0.594-2.12,2.69-3.509,4.855-3.113c0.917,0.168,1.865,0.386,2.828,0.656      c6.368,1.784,10.994,5.144,10.333,7.505c-0.661,2.36-6.36,2.828-12.728,1.044c-0.963-0.27-1.886-0.576-2.757-0.909      C366.244,459.007,365.175,456.731,365.769,454.611L365.769,454.611z"/>
			</g>
		</g>
		<path style="fill:#9C3621;" d="M233.489,166.693h37.428c0,0-39.194,90.786-37.428,149.047l-72.179-18.008    C161.31,297.732,174.875,213.615,233.489,166.693z"/>
		<path style="opacity:0.29;fill:#192037;" d="M240.12,260.799c-6.979-1.812-14.069-3.169-21.235-3.959    c-16.084-1.773-32.456-0.53-47.766,4.509c-7.347,21.132-9.81,36.383-9.81,36.383l72.18,18.008    C232.985,299.119,235.818,279.851,240.12,260.799z"/>
		<g>
			<path style="fill:#9C3621;" d="M437.922,89.726c-3.028-4.697-9.536-7.014-14.562-3.818     c-34.336,21.832-71.108,39.777-109.481,53.308c-3.682,1.298-7.381,2.548-11.09,3.77c9.408-15.499,17.174-31.802,23.184-48.565     l-4.959-2.315c-13.282,22.604-29.83,42.858-48.701,59.971c-9.304,8.437-42.12,9.71-55.046,11.805     c-20.934,3.393-42.063,5.59-63.247,6.573c-40.3,1.87-80.91-0.541-120.616-7.765c-3.393-0.617-6.78-1.27-10.161-1.951     c-5.442-1.096-11.755,1.561-13.093,7.434c-1.206,5.297,1.597,11.917,7.434,13.092c27.956,5.631,56.381,9.154,84.868,10.49     c27.781,1.303,55.657,0.511,83.323-2.317c28.392-2.902,56.593-7.761,84.266-14.753c26.965-6.813,53.43-15.608,79.093-26.331     c3.985-1.665,7.945-3.384,11.892-5.131c23.035,4.382,46.401,3.561,68.015-1.949l-0.614-4.657     c-14.23,0.128-28.229-1.838-41.444-5.63c13.052-6.556,25.852-13.61,38.342-21.226c2.944-1.796,5.871-3.622,8.781-5.472     C438.797,101.304,441.117,94.683,437.922,89.726z"/>
			<path style="opacity:0.29;fill:#192037;" d="M437.922,89.726c-3.028-4.697-9.536-7.014-14.562-3.818     c-34.336,21.832-71.108,39.777-109.481,53.308c-3.682,1.298-7.381,2.548-11.09,3.77c9.408-15.499,17.174-31.802,23.184-48.565     l-4.959-2.315c-13.282,22.604-29.83,42.858-48.701,59.971c-9.304,8.437-42.12,9.71-55.046,11.805     c-20.934,3.393-42.063,5.59-63.247,6.573c-40.3,1.87-80.91-0.541-120.616-7.765c-3.393-0.617-6.78-1.27-10.161-1.951     c-5.442-1.096-11.755,1.561-13.093,7.434c-1.206,5.297,1.597,11.917,7.434,13.092c27.956,5.631,56.381,9.154,84.868,10.49     c27.781,1.303,55.657,0.511,83.323-2.317c28.392-2.902,56.593-7.761,84.266-14.753c26.965-6.813,53.43-15.608,79.093-26.331     c3.985-1.665,7.945-3.384,11.892-5.131c23.035,4.382,46.401,3.561,68.015-1.949l-0.614-4.657     c-14.23,0.128-28.229-1.838-41.444-5.63c13.052-6.556,25.852-13.61,38.342-21.226c2.944-1.796,5.871-3.622,8.781-5.472     C438.797,101.304,441.117,94.683,437.922,89.726z"/>
			<g>
				<path style="fill:#00B2A7;" d="M479.934,35.08c-12.658-3.337-26.68-0.829-37.51,6.526      c-17.438,11.842-15.274,36.385-15.274,36.385c10.854-6.13,14.232-1.597,21.824-4.847c7.593-3.25,13.752-9.702,16.646-17.437      c1.579-4.22,2.224-8.776,4.148-12.851C471.692,38.781,475.428,35.07,479.934,35.08z"/>
				<path style="fill:#9C3621;" d="M455.77,44.156c-14.371,13.501-25.141,29.603-31.848,48.049c0,0-2.692-0.766-2.692-0.766      C425.345,71.901,438.348,53.876,455.77,44.156L455.77,44.156z"/>
				<path style="opacity:0.29;fill:#192037;" d="M455.77,44.156c-14.371,13.501-25.141,29.603-31.848,48.049      c0,0-2.692-0.766-2.692-0.766C425.345,71.901,438.348,53.876,455.77,44.156L455.77,44.156z"/>
			</g>
			<g>
				<path style="fill:#00B2A7;" d="M345.339,56.302c10.454,7.879,17.161,20.446,18.085,33.504      c1.488,21.026-19.13,34.514-19.13,34.514c-1.901-12.32-7.553-12.168-9.698-20.143c-2.146-7.975-0.889-16.806,3.397-23.866      c2.338-3.852,5.518-7.178,7.528-11.211C347.531,65.067,348.135,59.836,345.339,56.302z"/>
				<path style="fill:#9C3621;" d="M353.161,80.901c-1.712,19.643-7.697,38.067-18.037,54.75c0,0,2.267,1.64,2.267,1.64      C350.194,121.969,356.307,100.601,353.161,80.901L353.161,80.901z"/>
				<path style="opacity:0.29;fill:#192037;" d="M353.161,80.901c-1.712,19.643-7.697,38.067-18.037,54.75      c0,0,2.267,1.64,2.267,1.64C350.194,121.969,356.307,100.601,353.161,80.901L353.161,80.901z"/>
			</g>
			<g>
				<path style="fill:#00B2A7;" d="M477.124,166.959c-3.07-12.726-11.931-23.878-23.544-29.921      c-18.699-9.73-39.275,3.821-39.275,3.821c10.547,6.645,8.159,11.77,14.623,16.911c6.464,5.141,15.066,7.501,23.248,6.378      c4.464-0.613,8.78-2.207,13.28-2.447C469.955,161.462,474.994,162.988,477.124,166.959z"/>
				<path style="fill:#9C3621;" d="M457.668,149.997c-18.703-6.243-37.987-8.082-57.407-5.233c0,0-0.603-2.733-0.603-2.733      C418.808,136.382,440.845,139.273,457.668,149.997L457.668,149.997z"/>
				<path style="opacity:0.29;fill:#192037;" d="M457.668,149.997c-18.703-6.243-37.987-8.082-57.407-5.233      c0,0-0.603-2.733-0.603-2.733C418.808,136.382,440.845,139.273,457.668,149.997L457.668,149.997z"/>
			</g>
			<g>
				<path style="fill:#00B2A7;" d="M461.349,98.705c7.628-2.75,16.288-2.518,23.758,0.637c7.47,3.155,13.674,9.202,17.02,16.588      c-5.246-3.272-12.163-2.091-17.781,0.488c-5.618,2.58-10.64,6.418-16.461,8.502c-9.062,3.245-19.392,1.843-27.968-2.527      c-8.577-4.37-15.521-11.485-20.939-19.441c0,0,16.391,7.363,23.135,5.049C448.858,105.686,454.641,101.123,461.349,98.705z"/>
				<path style="fill:#9C3621;" d="M479.995,104.385c-30.399-3.849-26.629,28.928-68.485-10.308c0,0-1.619,1.704-1.619,1.704      C451.628,136.154,451.932,102.18,479.995,104.385L479.995,104.385z"/>
				<path style="opacity:0.29;fill:#192037;" d="M479.995,104.385c-30.399-3.849-26.629,28.928-68.485-10.308      c0,0-1.619,1.704-1.619,1.704C451.628,136.154,451.932,102.18,479.995,104.385L479.995,104.385z"/>
			</g>
			<path style="fill:#9C3621;" d="M286.061,151.258c-0.553,0.111,0.374-0.278,0.546-0.14c-0.007,0.002-0.01,0.003-0.017,0.005     C286.528,151.112,286.278,151.187,286.061,151.258z"/>
		</g>
		<ellipse style="fill:#9C3621;" cx="185.244" cy="333.063" rx="91.878" ry="62.195"/>
		<g>
			<path style="fill:#9C3621;" d="M162.829,180.807c-6.078-6.766-16.343-8.307-29.972-5.654     c-95.225,126.812-29.972,185.499-29.972,185.499l48.232-42.533C130.924,259.56,162.829,180.807,162.829,180.807z"/>
			<g>
				<path style="fill:#F7D7B6;" d="M134.929,180.528c1.919,1.079,4.384,0.579,5.635-1.232c0.53-0.767,1.046-1.592,1.536-2.464      c3.241-5.764,4.137-11.412,2-12.613c-2.137-1.201-6.497,2.497-9.738,8.262c-0.49,0.872-0.927,1.741-1.307,2.592      C132.157,177.084,133.01,179.449,134.929,180.528L134.929,180.528z"/>
				<path style="fill:#F7D7B6;" d="M146.095,181.092c1.919,1.079,4.384,0.579,5.634-1.232c0.53-0.767,1.046-1.592,1.536-2.464      c3.241-5.764,4.137-11.412,2-12.613c-2.136-1.201-6.497,2.497-9.738,8.262c-0.49,0.872-0.927,1.741-1.307,2.592      C143.322,177.647,144.176,180.013,146.095,181.092L146.095,181.092z"/>
				<path style="fill:#F7D7B6;" d="M157.26,181.655c1.919,1.079,4.384,0.579,5.635-1.232c0.53-0.767,1.046-1.592,1.536-2.464      c3.241-5.764,4.137-11.412,2-12.613c-2.137-1.201-6.497,2.497-9.738,8.262c-0.49,0.872-0.927,1.741-1.307,2.592      C154.488,178.21,155.341,180.576,157.26,181.655L157.26,181.655z"/>
			</g>
		</g>
		<g>
			<path style="fill:#9C3621;" d="M267.747,155.288c0,8.009-9.69,11.405-19.367,11.405c-9.677,0-17.522-2.119-17.522-10.128     s7.845-18.875,17.522-18.875C258.057,137.69,267.747,147.279,267.747,155.288z"/>
			<g>
				<path style="fill:#F7D7B6;" d="M264.199,154.929c-1.959-1.004-4.403-0.41-5.583,1.448c-0.5,0.787-0.984,1.631-1.44,2.521      c-3.017,5.885-3.694,11.562-1.513,12.681c2.181,1.118,6.396-2.746,9.413-8.631c0.456-0.89,0.859-1.775,1.206-2.641      C267.102,158.264,266.157,155.933,264.199,154.929L264.199,154.929z"/>
				<path style="fill:#F7D7B6;" d="M253.02,154.796c-1.959-1.004-4.403-0.41-5.583,1.448c-0.5,0.787-0.984,1.631-1.44,2.521      c-3.017,5.885-3.694,11.562-1.513,12.681c2.181,1.118,6.396-2.746,9.413-8.631c0.456-0.89,0.859-1.775,1.206-2.641      C255.923,158.131,254.979,155.8,253.02,154.796L253.02,154.796z"/>
				<path style="fill:#F7D7B6;" d="M241.841,154.663c-1.959-1.004-4.403-0.41-5.583,1.448c-0.5,0.787-0.984,1.631-1.44,2.521      c-3.017,5.885-3.694,11.562-1.513,12.681c2.181,1.118,6.396-2.746,9.413-8.631c0.456-0.89,0.859-1.775,1.206-2.641      C244.744,157.998,243.8,155.667,241.841,154.663L241.841,154.663z"/>
			</g>
		</g>
		<g>
			<path style="fill:#9C3621;" d="M236.891,189.05c-25.379,15.247-28.939,61.908-28.939,61.908     c2.997,19.527,11.818,40.814,24.542,61.994c12.259,20.404,26.294,37.649,41.461,49.446c0,0,43.245,14.892,69.279-0.749     c1.19-0.715,9.23,6.209,9.23,6.209c41.013-27.66,66.119-98.428,35.979-148.597c-29.787-49.581-102.716-60.959-146.568-38.781     C241.875,180.481,238.562,188.046,236.891,189.05z"/>
			<g>
				<path style="fill:#9C3621;" d="M292.695,334.161c-10.59,6.362-17.12,16.909-18.739,28.236      c23.158,18.041,48.948,23.348,74.981,7.707c1.19-0.715,2.364-1.457,3.527-2.247c-0.009-6.891-1.838-13.872-5.637-20.197      C335.604,328.982,311.374,322.939,292.695,334.161z"/>
				<path style="fill:#9C3621;" d="M236.722,183.322c-25.379,15.247-33.069,39.611-28.77,67.636      c10.48,3.421,22.342,2.446,32.544-3.684c18.68-11.222,24.714-35.465,13.492-54.145c-3.149-5.242-7.327-9.501-12.112-12.649      C240.105,181.38,238.393,182.318,236.722,183.322z"/>
			</g>
			<path style="fill:#9C3621;" d="M406.478,206.568c-1.659-1.687-4.474-1.352-6.435,0.054c2.667-9.205,1.941-19.417-2.292-28.034     c-2.41-4.905-6.365-9.672-12.731-8.872c-2.092,0.263-4.074,1.169-5.706,2.505c-4.678,3.83-6.013,10.03-5.444,15.782     c0.025,0.253,0.066,0.504,0.097,0.756c-3.566-4.005-9.36-5.933-14.61-4.648c-2.258,0.553-4.342,1.847-5.454,3.889     c-2.395,4.395,0.888,8.979,4.595,11.641c3.286,2.36,7.19,4.065,9.597,7.317c-9.259-1.603-19.447-3.058-27.349,2.385     c-1.018,0.701-1.943,1.566-2.569,2.632c-3.215,5.469,2.023,10.07,7.037,11.033c4.136,0.794,8.459,0.059,12.58,0.926     c-4.972,0.352-10.206,1.338-13.598,5.274c-1.918,2.226-2.814,5.263-1.906,8.058c1.439,4.432,6.173,5.624,10.389,6.053     c7.293,0.741,14.622,0.25,21.92-0.615c6.746-0.799,13.564-0.77,20.304,0.072l3.762,0.47c5.433-9.412,8.61-20.116,9.19-30.968     C407.962,210.263,407.893,208.007,406.478,206.568z"/>
			<path style="opacity:0.29;fill:#192037;" d="M406.478,206.568c-1.659-1.687-4.474-1.352-6.435,0.054     c2.667-9.205,1.941-19.417-2.292-28.034c-2.41-4.905-6.365-9.672-12.731-8.872c-2.092,0.263-4.074,1.169-5.706,2.505     c-4.678,3.83-6.013,10.03-5.444,15.782c0.025,0.253,0.066,0.504,0.097,0.756c-3.566-4.005-9.36-5.933-14.61-4.648     c-2.258,0.553-4.342,1.847-5.454,3.889c-2.395,4.395,0.888,8.979,4.595,11.641c3.286,2.36,7.19,4.065,9.597,7.317     c-9.259-1.603-19.447-3.058-27.349,2.385c-1.018,0.701-1.943,1.566-2.569,2.632c-3.215,5.469,2.023,10.07,7.037,11.033     c4.136,0.794,8.459,0.059,12.58,0.926c-4.972,0.352-10.206,1.338-13.598,5.274c-1.918,2.226-2.814,5.263-1.906,8.058     c1.439,4.432,6.173,5.624,10.389,6.053c7.293,0.741,14.622,0.25,21.92-0.615c6.746-0.799,13.564-0.77,20.304,0.072l3.762,0.47     c5.433-9.412,8.61-20.116,9.19-30.968C407.962,210.263,407.893,208.007,406.478,206.568z"/>
			<path style="fill:#F7D7B6;" d="M338.129,247.195c-0.534-0.142-0.868-0.65-0.785-1.196c0.922-6.102,4.997-39.763-14.694-53.789     c-20.762-14.789-65.505-6.479-84.227,2.99c-1.546,0.785-3.04,1.604-4.499,2.481c-22.158,13.312-28.873,34.584-25.119,59.053     c2.617,17.049,10.319,35.634,21.428,54.126c10.703,17.815,22.728,33.174,36.2,43.171c48.47,35.969,121.817-10.783,116.372-68.386     C380.335,259.531,344.429,248.87,338.129,247.195z"/>
			<path style="opacity:0.19;fill:#FFFFFF;" d="M390.06,247.117c-2.224-0.759-4.88-0.321-6.685,1.693     c-1.63,1.819-2.252,4.471-2.553,6.954c-0.769,6.338,0.006,12.584-0.322,18.914c-0.285,5.507-1.404,11.059-1.36,16.531     c0.017,2.178,0.23,4.373,1.02,6.25c0.789,1.877,2.226,3.409,4.051,3.746c1.736,0.32,3.63-0.47,5.177-1.739     c4.259-3.494,6.013-8.492,7.473-13.832c0.918-3.358,1.525-6.79,1.812-10.215c0.575-6.843-0.127-13.672-2.175-19.783     c-1.027-3.065-2.462-6.064-4.872-7.731C391.145,247.571,390.616,247.307,390.06,247.117z"/>
			<path style="opacity:0.19;fill:#FFFFFF;" d="M144.054,291.035c-0.611,2.663,0.215,5.681,2.761,7.526     c2.3,1.666,5.44,2.067,8.347,2.117c7.421,0.127,14.55-1.519,21.909-1.9c6.402-0.332,12.956,0.295,19.279-0.413     c2.517-0.282,5.029-0.792,7.104-1.93c2.075-1.138,3.675-2.983,3.845-5.135c0.161-2.046-0.98-4.141-2.633-5.777     c-4.551-4.505-10.542-5.933-16.892-6.979c-3.993-0.658-8.035-0.947-12.03-0.868c-7.982,0.158-15.794,1.789-22.614,4.892     c-3.42,1.556-6.716,3.576-8.354,6.562C144.449,289.727,144.207,290.37,144.054,291.035z"/>
			<path style="fill:#F77800;" d="M308.114,198.524c-3.245-5.692-7.837-10.569-13.542-13.792     c-16.876-9.534-35.091-2.081-42.531,1.255c-13.414,6.015-18.383,22.614-10.275,34.876c0.042,0.064,0.084,0.127,0.126,0.191     c5.048,7.633,10.339,15.19,16.938,21.53c6.599,6.325,14.658,11.419,23.628,13.243c8.971,1.809,18.885,0.031,25.848-5.914     c7.298-6.249,10.537-16.33,10.218-25.924C318.316,217.397,312.037,205.406,308.114,198.524z"/>
			<path style="fill:#F77800;" d="M368.456,304.62c2.474,6.067,3.475,12.691,2.488,19.168c-2.921,19.162-20.029,28.888-27.247,32.68     c-13.014,6.837-29.139,0.498-33.778-13.452c-0.024-0.072-0.048-0.144-0.072-0.217c-2.887-8.684-5.565-17.512-6.478-26.617     c-0.901-9.096,0.068-18.58,4.172-26.763c4.116-8.174,11.636-14.874,20.612-16.681c9.422-1.883,19.351,1.794,26.701,7.969     C359.909,284.942,365.465,297.285,368.456,304.62z"/>
			<g>
				<g>
					<g>
						<g>
							<path style="fill:#FFFFFF;" d="M273.156,202.538c12.145-7.714,28.099-4.223,35.606,7.76         c4.223,6.744,4.863,14.791,2.429,21.885c-1.853,5.516-5.569,10.443-10.859,13.8c-0.521,0.322-1.042,0.643-1.617,0.908         c-11.646,6.353-26.179,2.954-33.519-7.951c-0.193-0.239-0.332-0.46-0.488-0.699c-3.632-5.789-4.606-12.527-3.277-18.78         C262.812,212.737,266.859,206.538,273.156,202.538z"/>
						</g>
					</g>
					<path style="fill:#192037;" d="M268.074,211.105c9.553-7.576,23.653-6.745,31.95,1.884c6.441,6.699,8.062,16.267,4.996,24.536       c-2.648,7.143-9.495,12.116-17.07,12.664c-8.868,0.643-17.723-3.317-22.942-11.07c-0.193-0.239-0.332-0.46-0.489-0.699       c-1.592-2.537-2.673-5.256-3.273-8.036c-1.516-7.017,0.964-14.527,6.618-19.112       C267.934,211.217,268.004,211.161,268.074,211.105z"/>
				</g>
				<g>
					<g>
						<g>
							<path style="fill:#FFFFFF;" d="M332.371,278.441c13.93-0.68,25.746,10.019,26.402,23.896         c0.38,7.849-2.886,15.013-8.285,19.883c-4.168,3.809-9.653,6.218-15.687,6.526c-3.11,0.152-6.101-0.255-8.905-1.16         c-9.494-3.014-16.613-11.532-17.471-21.924c-0.022-0.285-0.043-0.57-0.064-0.855c-0.408-8.871,3.806-16.864,10.547-21.661         C322.714,280.382,327.324,278.676,332.371,278.441z"/>
						</g>
					</g>
					<path style="fill:#192037;" d="M323.24,281.485c12.638-3.3,25.542,4.263,28.831,16.872       c3.283,12.583-4.281,25.491-16.919,28.792c-1.336,0.349-2.676,0.579-4.009,0.693c-3.583,0.306-7.214-0.532-10.333-2.313       c-6.999-3.996-11.927-11.267-12.632-19.802c-0.022-0.285-0.043-0.57-0.064-0.855c-0.341-7.404,2.538-14.196,7.418-19.029       c2.112-2.091,4.785-3.587,7.66-4.345C323.208,281.494,323.224,281.489,323.24,281.485z"/>
				</g>
				<g>
					<path style="fill:#192037;" d="M322.643,214.437c0.656-10.184-8.274-18.791-17.628-21.143c-3.108-0.83-6.313-1.17-9.514-0.745       c-0.387,0.052-0.659,0.406-0.608,0.792c0.029,0.222,0.166,0.41,0.344,0.517c5.141,2.999,10.219,5.334,14.886,8.702       c4.678,3.316,8.052,7.218,11.223,12.2C321.674,215.333,322.621,215.092,322.643,214.437L322.643,214.437z"/>
				</g>
				<g>
					<path style="fill:#192037;" d="M362.953,279.364c2.332,6.102,3.643,11.847,3.559,18.223c0.113,6.464-1.476,12.411-2.214,19.002       c-0.065,0.401,0.217,0.791,0.631,0.815c10.269-9.689,11.006-30-0.921-38.861C363.471,278.133,362.684,278.749,362.953,279.364       L362.953,279.364z"/>
				</g>
				<path style="fill:#192037;" d="M287.282,255.834c4.787-2.876,12.939,1.902,18.208,10.672c5.269,8.771,5.66,18.212,0.873,21.088      c-4.008,2.408-10.37-0.563-15.429-6.738c-3.643,1.327-6.927,1.118-8.058-0.764c-1.131-1.882,0.228-4.88,3.109-7.473      C282.909,265.254,283.273,258.242,287.282,255.834z"/>
				<g>
					<g>
						<path style="fill:#192037;" d="M296.658,294.367c0,0-6.275,0.025-14.796-5.239c-8.908-5.503-11.73-13.548-11.73-13.548        c-0.243-0.258-0.663-0.268-0.899,0.007c1.284,12.278,14.978,23.552,27.436,19.95        C297.237,295.379,297.227,294.505,296.658,294.367L296.658,294.367z"/>
					</g>
				</g>
			</g>
		</g>
	</g>
</g>















</svg>
