<?xml version="1.0" encoding="UTF-8"?>
<!-- Generator: Adobe Illustrator 27.1.1, SVG Export Plug-In . SVG Version: 6.00 Build 0)  -->
<svg xmlns="http://www.w3.org/2000/svg" xmlns:xlink="http://www.w3.org/1999/xlink" version="1.1" id="Capa_1" x="0px" y="0px" viewBox="0 0 512 512" style="enable-background:new 0 0 512 512;" xml:space="preserve" width="512" height="512">
<g>
	<path style="fill:#FFFFFF;" d="M500.575,362.763c-3.944-17.548-6.793-30.227-10.17-53.39c-1.551-10.161-15.47-11.35-19.167-1.852   c-2.729-8.4-15.757-8.533-18.517,0.073c-1.291,3.611-2.717,7.192-4.273,10.729c-1.332-5.763-2.314-11.657-3.281-17.462   c-1.472-9.867-15.843-11.137-19.003-1.638c-1.233,3.517-2.319,7.071-3.258,10.653c-5.163-4.933-14.595-2.166-16.141,4.954   c-0.486,1.962-1.126,3.902-1.91,5.801c-2.222-7.923-13.958-9.301-17.917-1.932c-4.424-15.403-10.923-28.996-19.497-40.697   c35.136-21.875,50.383-55.162,44.015-93.178c-1.294-25.026-7.582-47.018-18.715-65.505c19.037-23.569,13.721-61.694-11.3-79.152   c-26.342-20.329-68.1-10.508-82.657,19.278c-43.24-7.987-95.13-2.276-134.19,15.636c-24.561-29.337-73.992-24.092-91.526,10.129   c-13.319,23.656-5.954,55.96,16.124,71.543c-6.106,19.644-5.216,42.123-2.352,64.543c3.066,34.924,22.929,60.837,57.658,75.506   c-4.586,9.574-8.005,19.601-10.518,30.592c-0.502,0.183-0.999,0.367-1.493,0.553c-2.405-2.408-4.492-5.023-6.232-7.814   c-4.114-7.107-15.563-5.544-17.736,2.219c-0.784-1.899-1.424-3.84-1.91-5.802c-1.545-7.121-10.98-9.887-16.141-4.953   c-0.938-3.583-2.024-7.137-3.256-10.654c-3.162-9.499-17.532-8.228-19.003,1.638c-0.968,5.805-1.95,11.699-3.282,17.462   c-1.556-3.537-2.982-7.118-4.273-10.73c-2.76-8.606-15.79-8.471-18.517-0.073c-4.067-10.319-19.368-7.689-19.268,3.491   c0.535,42.866-13.421,71.545-22.451,102.287c-2.147,7.685,4.279,15.917,12.26,15.697c0,0,35.347,0,35.347,0   c8.017,32.902,40.924,46.928,72.394,37.22c10.635-2.088,50.609-9.93,60.537-11.879c15.912,27.311,58.032,36.156,81.31,13.835   c23.194,22.237,65.168,13.552,81.148-13.595l59.311,11.639c5.756,1.918,12.054,2.851,19.223,2.851   c27.637,0.088,45.945-14.462,53.171-40.072h24.252c3.785,0,7.336-1.678,9.743-4.603c2.413-2.932,3.378-6.751,2.647-10.477   C506.991,391.314,503.434,375.483,500.575,362.763z"/>
	<g>
		<g>
			<path style="fill:#00B2A7;" d="M32.694,312.547L45.622,336.4c3.942-7.365,5.927-15.569,5.743-23.739     c3.955,11.065,9.076,21.794,15.274,31.996c6.593-12.622,8.965-26.635,11.263-40.424c4.355,12.426,6.748,25.405,7.084,38.429     c7.398-5.976,11.87-14.776,12.048-23.711c1.891,7.637,5.607,14.906,10.823,21.172c5.903-2.879,9.87-8.716,10.025-14.748     c4.136,6.635,9.86,12.466,16.67,16.984l244.234-1.721c6.81-4.517,12.534-10.349,16.67-16.984     c0.154,6.032,4.122,11.868,10.025,14.748c5.216-6.266,8.932-13.535,10.823-21.172c0.178,8.935,4.65,17.736,12.048,23.711     c0.336-13.023,2.729-26.003,7.084-38.429c2.298,13.789,4.67,27.802,11.263,40.424c6.197-10.202,11.319-20.931,15.274-31.996     c-0.184,8.17,1.8,16.374,5.743,23.739l12.928-23.853c5.901,40.472,10.102,48.936,21.438,106.738     c0.338,1.723-0.973,3.34-2.729,3.34H12.659c-1.816,0-3.151-1.696-2.709-3.457C14.348,399.903,33.724,359.125,32.694,312.547z"/>
		</g>
		<g>
			<g>
				<g>
					<path style="fill:#9C3621;" d="M421.93,341.113c-7.086,0.037-13.788,0.877-19.761,2.996c-3.142-1.826-6.521-3.434-9.753-4.803       c-4.547-1.954-8.82-3.433-11.761-4.383c-9.46-49.53-37.056-67.428-37.056-67.428h-164.09c0,0-27.596,17.898-37.056,67.428       c-2.941,0.95-7.214,2.429-11.761,4.383c-3.233,1.37-6.612,2.977-9.753,4.803c-5.972-2.119-12.675-2.959-19.761-2.996       c-39.157-0.292-47.667,19.25-47.667,52.434c0,33.203,7.141,67.428,47.667,67.428c5.881,0,11.506-0.731,16.675-2.539       l97.161-19.067c11.981-1.425,23.395-2.849,31.869-3.981c8.373-1.119,20.97-1.119,29.344,0       c8.474,1.132,19.888,2.557,31.869,3.981l97.161,19.067c5.169,1.808,10.794,2.539,16.674,2.539       c40.526,0,47.667-34.225,47.667-67.428C469.598,360.362,461.087,340.821,421.93,341.113z"/>
				</g>
				<g style="opacity:0.3;">
					<path style="fill:#192037;" d="M210.114,308.859c15.09,0.132,30.209-0.032,45.285-0.72c15.917-0.727,31.836-2.114,47.54-4.866       c15.362-2.693,30.649-6.66,44.923-13.034c4.055-1.811,8.007-3.85,11.843-6.08c-8.555-11.756-16.105-16.666-16.105-16.666       h-164.09c0,0-15.468,10.036-27.213,35.866C171.367,306.903,190.711,308.69,210.114,308.859z"/>
				</g>
				<g>
					<g>
						<g>
							
								<ellipse transform="matrix(0.1034 -0.9946 0.9946 0.1034 227.5028 422.9786)" style="fill:#9C3621;" cx="348.356" cy="85.305" rx="46.08" ry="46.081"/>
							
								<ellipse transform="matrix(0.1034 -0.9946 0.9946 0.1034 227.5028 422.9786)" style="opacity:0.18;fill:#192037;" cx="348.356" cy="85.305" rx="46.08" ry="46.081"/>
							
								<ellipse transform="matrix(0.3092 -0.951 0.951 0.3092 159.5034 390.2043)" style="fill:#F57486;" cx="348.356" cy="85.305" rx="26.415" ry="26.415"/>
						</g>
					</g>
					<g>
						<g>
							
								<ellipse transform="matrix(0.7071 -0.7071 0.7071 0.7071 -43.1796 119.2088)" style="fill:#9C3621;" cx="122.308" cy="111.727" rx="46.08" ry="46.08"/>
							
								<ellipse transform="matrix(0.7071 -0.7071 0.7071 0.7071 -43.1796 119.2088)" style="opacity:0.18;fill:#192037;" cx="122.308" cy="111.727" rx="46.08" ry="46.08"/>
							
								<ellipse transform="matrix(0.9741 -0.2263 0.2263 0.9741 -22.1096 30.5746)" style="fill:#F57486;" cx="122.308" cy="111.727" rx="26.415" ry="26.415"/>
						</g>
					</g>
					<g>
						<path style="fill:#9C3621;" d="M395.924,197.899c3.416,38.896-47.052,79.183-47.052,79.183        c-24.808,12.091-56.419,19.37-91.116,22.417c-33.427,2.936-64.698,1.51-90.666-5.379c0,0-52.592-34.305-56.096-74.205        c-0.16-1.824-14.693-4.951-14.693-4.951c-15.144-92.017,58.585-140.972,140.772-148.19        c81.224-7.133,159.949,24.333,164.561,119.124C401.633,185.898,395.699,195.337,395.924,197.899z"/>
						<path style="opacity:0.1;fill:#FFFFFF;" d="M349.139,98.06c-2.954,0.732-5.54,3.286-6.091,7.165        c-0.499,3.504,0.684,7.284,2.099,10.612c3.61,8.494,8.836,15.709,12.921,23.86c3.553,7.092,6.231,14.87,10.118,21.669        c1.548,2.707,3.319,5.286,5.496,7.033c2.176,1.747,4.816,2.576,7.04,1.616c2.115-0.912,3.623-3.33,4.417-6.084        c2.187-7.58,0.589-15.147-1.568-22.918c-1.357-4.886-3.104-9.63-5.195-14.124c-4.176-8.979-9.732-16.975-16.25-23.058        c-3.269-3.051-6.937-5.711-10.73-5.972C350.638,97.808,349.877,97.877,349.139,98.06z"/>
						<g>
							<path style="fill:#F57486;" d="M183.995,252.117c1.425,16.231-5.275,31.42-16.906,42.003         c-39.683-10.496-66.956-33.75-70.46-73.65c-0.16-1.824-0.276-3.652-0.329-5.506c7.894-5.381,17.385-8.899,27.746-9.809         C154.647,202.467,181.481,223.488,183.995,252.117z"/>
							<path style="fill:#F57486;" d="M402.618,193.597c3.416,38.896-18.142,66.129-53.746,83.485         c-12.53-8.461-21.165-21.828-22.538-37.465c-2.514-28.629,20.267-54.007,50.868-56.695         c8.586-0.754,16.895,0.354,24.432,2.976C402.059,188.483,402.393,191.035,402.618,193.597z"/>
						</g>
					</g>
					<g>
						<g>
							<g>
								<path style="fill:#FFFFFF;" d="M330.499,139.46c-17.026-10.429-39.296-5.072-49.705,11.912          c-5.854,9.559-6.693,20.834-3.244,30.684c2.628,7.661,7.855,14.442,15.271,18.98c0.73,0.435,1.461,0.868,2.266,1.223          c16.319,8.541,36.604,3.354,46.787-12.117c0.268-0.34,0.461-0.653,0.678-0.992c5.036-8.206,6.35-17.66,4.449-26.366          C345.025,153.418,339.326,144.868,330.499,139.46z"/>
							</g>
						</g>
						<path style="fill:#192037;" d="M337.66,151.292c-13.402-10.314-33.101-8.732-44.636,3.585        c-8.955,9.561-11.155,22.993-6.813,34.47c3.749,9.912,13.353,16.665,23.942,17.208c12.397,0.635,24.744-5.166,31.984-16.166        c0.268-0.34,0.461-0.653,0.678-0.992c2.207-3.596,3.698-7.431,4.519-11.338c2.07-9.86-1.447-20.291-9.38-26.537        C337.857,151.445,337.759,151.368,337.66,151.292z"/>
					</g>
					<g>
						<g>
							<g>
								<path style="fill:#FFFFFF;" d="M195.554,149.091c-18.373-6.997-38.884,2.18-45.826,20.492          c-3.939,10.354-2.692,21.382,2.418,30.268c3.922,6.925,10.221,12.551,18.173,15.6c4.102,1.562,8.288,2.324,12.441,2.336          c14.041,0.109,27.304-8.198,32.994-21.751c0.154-0.373,0.306-0.745,0.46-1.118c4.423-11.712,2.268-24.265-4.672-33.64          C207.649,155.912,202.215,151.611,195.554,149.091z"/>
							</g>
						</g>
						<path style="fill:#192037;" d="M206.462,157.161c-15.496-9.944-36.095-5.446-46.013,10.016        c-9.897,15.431-5.399,36.036,10.096,45.98c1.639,1.052,3.334,1.945,5.071,2.68c4.669,1.976,9.901,2.438,14.86,1.414        c11.126-2.298,20.908-9.89,25.581-21.021c0.154-0.373,0.306-0.745,0.46-1.117c3.692-9.774,2.801-20.135-1.629-28.744        c-1.916-3.725-4.846-6.899-8.368-9.17C206.502,157.187,206.482,157.174,206.462,157.161z"/>
					</g>
					<g>
						<path style="fill:#192037;" d="M293.751,120.768c11.069-9.189,28.284-6.141,38.72,2.574c3.523,2.855,6.567,6.229,8.736,10.232        c0.261,0.483,0.083,1.088-0.4,1.35c-0.277,0.151-0.605,0.15-0.874,0.036c-7.681-3.377-14.553-7.231-22.261-9.76        c-7.658-2.586-14.904-3.198-23.213-2.685C293.531,122.615,293.022,121.336,293.751,120.768L293.751,120.768z"/>
					</g>
					<g>
						<path style="fill:#192037;" d="M184.223,130.137c-8.89,2.399-16.528,5.666-23.729,11.047        c-7.464,5.229-12.928,11.97-19.831,18.275c-0.403,0.407-1.082,0.408-1.452-0.045c2.536-19.74,25.084-37.415,45.074-31.161        C185.198,128.526,185.147,129.934,184.223,130.137L184.223,130.137z"/>
					</g>
					<path style="fill:#192037;" d="M276.182,197.941c-0.717-8.166-13.426-13.72-28.386-12.406       c-14.96,1.314-26.507,8.998-25.789,17.164c0.6,6.837,9.618,11.826,21.315,12.503c1.569,5.469,4.65,9.189,7.862,8.907       c3.211-0.282,5.597-4.482,6.188-10.141C268.772,211.263,276.783,204.778,276.182,197.941z"/>
					<g>
						<g>
							<path style="fill:#192037;" d="M218.605,212.735c0,0,5.48,8.376,19.975,15.097c15.153,7.026,28.344,3.714,28.344,3.714         c0.557,0.097,0.94,0.648,0.781,1.204c-17.475,9.078-44.516,0.751-50.666-19.001         C216.747,212.853,217.921,212.099,218.605,212.735L218.605,212.735z"/>
						</g>
					</g>
				</g>
				<g style="opacity:0.44;">
					<path style="fill:#192037;" d="M358.732,438.984c5.375-13.326,8.957-27.469,8.439-41.927       c-0.135-3.772-0.536-7.532-1.208-11.246c-0.621-3.432-1.39-6.817-3.007-9.933c-1.14-2.197-18.433-12.92-38.301-24.729       c-37.596-22.346-84.453-22.14-121.914,0.433c-18.365,11.066-34.211,20.841-35.967,22.652       c-7.462,7.703-9.712,18.904-10.081,29.266c-0.46,12.915,1.554,25.858,5.11,38.245c0.732,2.551,1.481,5.106,2.404,7.593       l50.806-9.97c11.981-1.425,23.396-2.849,31.87-3.981c8.373-1.119,20.97-1.119,29.344,0c8.474,1.132,19.888,2.557,31.869,3.981       l46.485,9.122C356.04,445.357,357.437,442.194,358.732,438.984z"/>
				</g>
				<g>
					<path style="opacity:0.44;fill:#192037;" d="M147.566,406.203c-0.201-46.353-26.628-62.095-26.628-62.095       c3.141-1.826,6.52-3.434,9.753-4.803C157.757,358.646,147.566,406.203,147.566,406.203z"/>
					<g>
						<path style="fill:#F57486;" d="M106.744,370.203c0,6.472-3.895,13.29-8.699,13.29c-4.804,0-8.699-6.818-8.699-13.29        c0-6.473,3.895-10.149,8.699-10.149C102.849,360.055,106.744,363.731,106.744,370.203z"/>
						<path style="fill:#F57486;" d="M130.829,382.714c-2.02,6.149-7.848,11.411-12.412,9.911        c-4.564-1.499-6.137-9.192-4.117-15.341c2.02-6.149,6.868-8.426,11.432-6.927        C130.296,371.856,132.849,376.565,130.829,382.714z"/>
						<path style="fill:#F57486;" d="M65.115,382.714c2.02,6.149,7.848,11.411,12.412,9.911c4.564-1.499,6.137-9.192,4.116-15.341        c-2.02-6.149-6.868-8.426-11.432-6.927C65.647,371.856,63.095,376.565,65.115,382.714z"/>
						<ellipse style="fill:#F57486;" cx="99.978" cy="416.176" rx="23.439" ry="27.002"/>
					</g>
				</g>
				<g>
					<path style="opacity:0.44;fill:#192037;" d="M375.541,406.203c0.201-46.353,26.628-62.095,26.628-62.095       c-3.141-1.826-6.52-3.434-9.753-4.803C365.351,358.646,375.541,406.203,375.541,406.203z"/>
					<g>
						<path style="fill:#F57486;" d="M416.364,370.203c0,6.472,3.895,13.29,8.699,13.29c4.804,0,8.699-6.818,8.699-13.29        c0-6.473-3.895-10.149-8.699-10.149C420.259,360.055,416.364,363.731,416.364,370.203z"/>
						<path style="fill:#F57486;" d="M392.279,382.714c2.02,6.149,7.848,11.411,12.412,9.911c4.564-1.499,6.137-9.192,4.117-15.341        c-2.02-6.149-6.868-8.426-11.432-6.927C392.812,371.856,390.259,376.565,392.279,382.714z"/>
						<path style="fill:#F57486;" d="M457.993,382.714c-2.02,6.149-7.848,11.411-12.413,9.911        c-4.564-1.499-6.137-9.192-4.116-15.341c2.02-6.149,6.868-8.426,11.432-6.927        C457.461,371.856,460.013,376.565,457.993,382.714z"/>
						<ellipse style="fill:#F57486;" cx="423.13" cy="416.176" rx="23.439" ry="27.002"/>
					</g>
				</g>
			</g>
			<g>
				<path style="fill:#9C3621;" d="M247.559,323.089c5.977,25.062,4.402,101.885,4.402,101.885l0.736,0.894      c3.858,4.684,6.682,10.189,7.854,16.142c3.231,16.411-6.615,24.31-17.049,28.111c-18.357,6.687-39.159,0.47-51.127-14.972      c-31.243-40.309-34.382-132.06-34.382-132.06H247.559z"/>
				<path style="opacity:0.1;fill:#FFFFFF;" d="M235.387,350.085c-2.665-0.467-5.727,0.881-7.655,4.23      c-1.741,3.025-2.231,6.954-2.361,10.555c-0.332,9.194,1.13,17.836,1.312,26.898c0.158,7.884-0.653,16.06-0.113,23.805      c0.215,3.083,0.659,6.135,1.749,8.579c1.089,2.444,2.904,4.223,5.066,4.2c2.056-0.022,4.197-1.661,5.891-3.883      c4.662-6.118,6.264-13.683,7.492-21.652c0.772-5.011,1.174-10.042,1.204-14.976c0.06-9.857-1.369-19.344-4.305-27.445      c-1.473-4.063-3.417-7.921-6.38-9.624C236.694,350.432,236.053,350.202,235.387,350.085z"/>
				<path style="fill:#9C3621;" d="M366.504,323.089c0,0-3.139,91.751-34.382,132.06c-11.969,15.442-32.77,21.659-51.127,14.972      c-10.434-3.801-20.279-11.7-17.049-28.111c1.172-5.954,3.997-11.458,7.854-16.142l0.736-0.894c0,0,3.383-72.915,9.36-97.977      L366.504,323.089z"/>
				<path style="opacity:0.1;fill:#FFFFFF;" d="M348.805,358.239c-2.72-1.365-6.345-1.107-9.287,1.48      c-2.658,2.337-4.218,5.978-5.309,9.425c-2.783,8.8-3.506,17.679-5.706,26.527c-1.914,7.698-4.94,15.347-6.41,23.04      c-0.585,3.062-0.917,6.174-0.401,8.917c0.517,2.742,1.983,5.089,4.296,5.807c2.199,0.683,4.918-0.173,7.312-1.747      c6.591-4.335,10.3-11.121,13.716-18.427c2.148-4.594,3.906-9.334,5.242-14.107c2.668-9.536,3.65-19.224,2.656-28.083      c-0.499-4.444-1.554-8.85-4.266-11.515C350.108,359.023,349.484,358.58,348.805,358.239z"/>
				<path style="opacity:0.1;fill:#FFFFFF;" d="M462.68,408.632c-1.537-1.056-3.754-1.207-5.747,0.107      c-1.8,1.186-3.042,3.253-3.983,5.244c-2.402,5.08-3.562,10.382-5.615,15.541c-1.786,4.488-4.241,8.852-5.758,13.375      c-0.604,1.8-1.058,3.652-0.968,5.353c0.09,1.701,0.787,3.242,2.13,3.872c1.277,0.599,2.994,0.313,4.572-0.435      c4.346-2.06,7.145-5.845,9.809-9.969c1.675-2.593,3.126-5.307,4.323-8.078c2.392-5.534,3.775-11.303,3.894-16.74      c0.06-2.727-0.221-5.478-1.647-7.318C463.406,409.216,463.064,408.896,462.68,408.632z"/>
				<path style="opacity:0.1;fill:#FFFFFF;" d="M139.804,408.632c-1.537-1.056-3.754-1.207-5.747,0.107      c-1.8,1.186-3.042,3.253-3.983,5.244c-2.402,5.08-3.562,10.382-5.615,15.541c-1.786,4.488-4.241,8.852-5.758,13.375      c-0.604,1.8-1.058,3.652-0.968,5.353c0.09,1.701,0.787,3.242,2.131,3.872c1.277,0.599,2.994,0.313,4.572-0.435      c4.346-2.06,7.145-5.845,9.809-9.969c1.675-2.593,3.126-5.307,4.323-8.078c2.392-5.534,3.775-11.303,3.894-16.74      c0.059-2.727-0.222-5.478-1.648-7.318C140.529,409.216,140.188,408.896,139.804,408.632z"/>
			</g>
		</g>
	</g>
</g>















</svg>
