<?xml version="1.0" encoding="UTF-8"?>
<!-- Generator: Adobe Illustrator 27.1.1, SVG Export Plug-In . SVG Version: 6.00 Build 0)  -->
<svg xmlns="http://www.w3.org/2000/svg" xmlns:xlink="http://www.w3.org/1999/xlink" version="1.1" id="Capa_1" x="0px" y="0px" viewBox="0 0 512 512" style="enable-background:new 0 0 512 512;" xml:space="preserve" width="512" height="512">
<g>
	<path style="fill:#FFFFFF;" d="M446.293,213.454c-2.823,0-5.605,0.227-8.329,0.677c2.901-7.353,4.758-15.261,5.546-23.692   c33.143-2.207,60.783-32.255,60.165-65.519c1.599-54.552-67.721-86.475-108.213-50.243c-16.491-16.38-35.51-28.631-55.686-35.845   c-0.871-5.029,0.811-10.583,4.494-13.805c10.107-10.571-4.09-26.327-20.466-10.112c-14.559-17.704-47.843-22.827-56.79,2.4   c-15.113-1.005-31.16,12.777-27.52,28.353c-9.472,4.794-18.575,10.726-27.211,17.733c-40.32-38.866-111.506-7.876-110.358,48.349   c-0.426,29.384,20.948,56.812,49.454,63.712c-1.494,25.934,7.077,49.853,24.753,66.778c-12.543-1.608-26.952-4.476-40.665-8.024   c-6.783-24.801-18.138-36.509-24.987-41.57c-4.096-28.355-6.355-68.07-28.119-88.416c-8.123-7.366-20.234-10.261-29.935-5.223   c-26.342,14.256-9.83,63.763-11.82,89.403c-6.458,1.852-12.215,5.576-16.963,11.029c-8.276,9.505-13.423,24.343-15.295,44.104   c-0.309,3.26,0.763,6.503,2.941,8.897c3.75,4.303,10.856,5.061,15.387,1.652c0.632,4.862,1.961,9.709,4.327,14.152   c-4.395,20.825-9.186,41.656-11.606,63.291c-0.427,4.107-0.472,7.115,0.241,10.805c1.301,6.774,5.963,12.308,12.483,14.103   c23.522,5.753,52.504-38.313,61.933-58.197c28.508,16.828,60.574,24.382,93.401,22.301c-30.573,15.103-28.276,53.921-9.831,82.454   c3.622,4.813,9.031,17.751,4.426,33.076c-13.318,17.258-15.048,33.526-13.49,42.629c5.539,17.296,13.232,18.322,21.626,17.075   c6.513,5.591,10.913,5.184,16.814,3.484c11.313,6.183,23.507,5.898,31.92-12.316c3.339-8.97,3.929-17.087,10.158-21.392   c-7.948,20.308,1.583,43.432,19.225,39.332c6.513,5.591,10.912,5.184,16.814,3.484c11.297,6.185,23.518,5.893,31.92-12.316   c1.926-4.583,2.878-9.044,3.252-11.126c4.14-10.796,9.925-12.434,13.051-12.434c10.904,0.588,20.814-4.606,23.835-13.368   c9.437,1.367,14.958-11.243,7.589-17.257c0.47-0.201,0.936-0.404,1.4-0.61c58.92,11.082,125.447-32.491,114.479-95.994   c-4.703-27.162-25.989-40.224-39.52-60.726c18.15,14.812,48.151,1.961,53.813-19.878   C503.955,235.904,472.577,213.015,446.293,213.454z"/>
	<g>
		<path style="fill:#9C3621;" d="M259.915,289.713c0,0-107.989,65.614-201.854-32.807l5.924-36.452    c0,0,114.824,50.926,180.894,27.513C244.879,247.967,270.395,252.349,259.915,289.713z"/>
		<path style="opacity:0.2;fill:#192037;" d="M226.609,293.356c0.095-5.505-0.727-10.975-0.75-16.478    c-0.002-0.443-0.304-0.809-0.717-0.942c-3.628-1.171-7.125-2.719-10.525-4.435c-7.151-3.611-14.036-7.998-20.043-13.317    c-1.576-1.396-3.171-2.925-4.667-4.562c19.646,1.35,38.774,0.085,54.971-5.654c0,0,25.516,4.382,15.036,41.745    c0,0-13.574,8.238-35.265,14.499C225.919,300.736,226.544,297.09,226.609,293.356z"/>
		<path style="opacity:0.2;fill:#192037;" d="M63.985,220.454c0,0,32.768,14.529,73.367,24.496c0.776,2.038,1.582,4.064,2.269,6.099    c2.563,7.584,7.215,22.889-4.105,25.889c-5.206,1.38-10.441-1.996-14.231-5.212c-3.873-3.285-7.204-7.187-10.248-11.238    c-0.547-0.729-1.823-0.557-1.821,0.493c0.013,6.568,0.528,13.147,0.056,19.709c-0.327,4.554-1.063,8.977-2.622,13.284    c-0.005,0.013-0.011,0.026-0.016,0.039c-16.199-8.38-32.589-20.348-48.573-37.108L63.985,220.454z"/>
		<g>
			<path style="fill:#9C3621;" d="M467.547,252.27c-6.021,2.557-13.404-0.21-19.27,2.69c-6.962,3.442-7.991,14.057-3,20.001     c4.981,5.955,13.902,7.405,21.362,5.291c18.02-5.103,26.454-26.631,14.19-40.998c-11.234-13.172-30.749-19.381-47.329-13.78     c-33.925,11.478-34.733,50.661-15.496,74.968c7.925,10.028,17.389,18.938,23.776,30.018     c14.788,25.668,10.416,56.428-14.157,73.894c-5.811,4.118-12.231,7.173-18.994,9.242c-14.776,4.505-31.169,4.284-46.189,0.188     c-0.055-0.011-0.1-0.033-0.155-0.044c-2.147-0.59-4.26-1.271-6.355-1.999v17.365c11.717,3.178,23.923,4.503,36.052,3.672     c5.424-0.365,10.858-1.173,16.182-2.424c19.248-4.472,37.213-14.577,49.289-30.096c11.478-14.766,16.857-34.645,13.515-53.129     c-3.509-19.436-17.544-31.822-29.896-46.09c-11.677-13.504-24.794-36.371-9.608-52.354c9.22-9.696,26.509-10.67,36.371-1.317     c0.985,0.941,1.981,2.336,1.384,3.564C468.908,251.595,468.222,251.982,467.547,252.27z"/>
		</g>
		<g style="opacity:0.23;">
			<path style="fill:#192037;" d="M408.629,413.595c-14.776,4.505-31.169,4.284-46.189,0.188c-2.172-0.008-4.342-0.052-6.51-0.113     v15.434c11.717,3.178,23.923,4.503,36.052,3.672c5.424-0.365,10.858-1.173,16.182-2.424     C409.149,424.829,409.359,419.129,408.629,413.595z"/>
		</g>
		<g>
			<g>
				<path style="fill:#F7D7B6;" d="M202.983,429.663l63.405,3.978c0,0,13.05,17.721-8.972,20.168c0,0-16.545-3.263-24.789,19.575      c0,0-4.574,32.218-24.965,14.274c0,0-9.825,9.38-13.884-5.302c0,0-10.614,12.642-15.697-6.117      C178.081,476.239,174.651,450.785,202.983,429.663z"/>
				<path style="opacity:0.44;fill:#9C3621;" d="M202.983,429.663l63.405,3.978c0,0,13.05,17.721-8.972,20.168      c0,0-16.545-3.263-24.789,19.575c0,0-4.574,32.218-24.965,14.274c0,0-9.825,9.38-13.884-5.302c0,0-10.614,12.642-15.697-6.117      C178.081,476.239,174.651,450.785,202.983,429.663z"/>
				<path style="fill:#192037;" d="M207.662,487.658c0,0-3.85-23.45,16.427-34.257C224.089,453.402,206.438,472.161,207.662,487.658      z"/>
				<path style="fill:#192037;" d="M194.069,483.988c0,0-3.85-23.45,16.427-34.257C210.496,449.731,192.846,468.491,194.069,483.988      z"/>
			</g>
			<path style="fill:#9C3621;" d="M239.069,326.672l10.598,38.232c-19.167,48.123,30.587,75.447,30.587,75.447l-33.034-4.894     l-5.709,14.274l-8.885-11.827l-15.084,11.827l-10.696-16.09l-15.905,7.118c6.365-18.818,0.504-35.681-5.431-43.57     c-7.56-10.049-10.716-25.555-11.27-33.427C170.54,311.21,239.069,326.672,239.069,326.672z"/>
			<path style="opacity:0.2;fill:#192037;" d="M239.069,326.672l10.598,38.232c-19.167,48.123,30.587,75.447,30.587,75.447     l-33.034-4.894l-5.709,14.274l-8.885-11.827l-15.084,11.827l-10.696-16.09l-15.905,7.118c6.365-18.818,0.504-35.681-5.431-43.57     c-7.56-10.049-10.716-25.555-11.27-33.427C170.54,311.21,239.069,326.672,239.069,326.672z"/>
		</g>
		<path style="fill:#9C3621;" d="M251.654,417.662c13.29,9.987,25.343,21.179,41.916,23.681c6.234,0.958,12.488,1.407,18.645,1.407    c33.166,0,85.349-15.616,86.384-56.462c0.488-19.642-5.883-41.003-12.489-59.316c-9.068-25.192-22.026-48.918-37.798-70.514    l-103.427-8.482c0.43,8.912,0.215,18-0.645,27.01c-0.508,5.472,3.054,5.654,2.077,10.99c-1.778,9.694-5.687,18.625-9.205,27.733    c-1.114,2.892-2.189,5.805-3.127,8.775c-3.557,11.042-5.98,22.534-6.645,34.124C226.013,379.668,232.482,403.277,251.654,417.662z    "/>
		<path style="opacity:0.23;fill:#192037;" d="M227.342,356.606c0.665-11.589,3.088-23.082,6.645-34.124    c0.277-0.879,0.587-1.745,0.886-2.615c3.603-0.515,7.21-1.002,10.827-1.405c8.644-0.963,17.341-1.511,26.04-1.294    c8.741,0.218,17.797,0.923,26.285,3.116c7.921,2.046,15.282,5.712,22.579,9.326c3.171,1.57,6.342,3.142,9.568,4.596    c2.682,1.209,5.418,2.27,8.185,3.27c4.783,1.729,11.313,4.807,17.169,3.603c5.209-1.071,6.632-6.757,5.341-11.376    c-0.83-2.969-2.926-5.326-4.936-7.572c-2.283-2.552-4.392-5.134-5.38-8.481c-1.968-6.669,1.483-13.221,6.879-17.129    c3.778-2.735,8.357-4.143,13.011-4.768c6.035,11.355,11.312,23.112,15.669,35.218c6.606,18.312,12.977,39.674,12.489,59.316    c-0.003,0.116-0.006,0.231-0.01,0.346c-0.528,16.223-17.122,26.983-32.371,21.422c-1.136-0.414-2.075-0.758-2.724-0.996    c-8.229-3.007-16.381-6.275-23.88-10.856c-0.471-0.288-1.104-0.149-1.375,0.332c-2.045,3.623-2.695,7.801-2.301,11.915    c0.787,8.214,4.893,15.968,9.848,22.423c1.52,1.98,3.197,3.943,5.009,5.789c-13.192,4.189-27.037,6.087-38.58,6.087    c-6.157,0-12.41-0.449-18.645-1.407c-16.573-2.502-28.626-13.695-41.916-23.681C232.482,403.277,226.013,379.668,227.342,356.606z    "/>
		<path style="fill:#F7D7B6;" d="M247.349,422.913c13.29,9.987,29.649,15.928,46.222,18.43c3.987-3.088,7.251-7.095,8.971-11.824    c3.792-10.456-0.391-21.987-5.16-32.032c-4.749-10.026-10.28-20.521-9.146-31.564c1.251-12.254,10.339-22.065,15.146-33.4    c5.296-12.489,5.12-27.303-0.938-39.459c-6.078-12.137-18.078-21.264-31.485-23.355c-9.146-1.427-18.782,0.547-26.716,5.277    c-0.508,5.472-1.251,10.905-2.228,16.241c-1.778,9.694-5.687,18.625-9.205,27.733c-1.114,2.892-2.189,5.805-3.127,8.775    c-3.557,11.042-5.98,22.534-6.645,34.124C221.708,384.919,228.177,408.528,247.349,422.913z"/>
		<path style="opacity:0.44;fill:#9C3621;" d="M264.399,423.38c-5.402-11.451-12.808-20.978-14.915-33.807    c-2.805-17.078,1.152-40.647,19.376-47.594c0.437-0.167,0.673-0.471,0.717-0.942c0.428-4.589,1.652-9.182,4.317-13.001    c7.402-10.608,21.369-9.318,32.28-4.556c-0.635,3.098-1.558,6.135-2.792,9.043c-4.808,11.335-13.896,21.146-15.147,33.4    c-1.134,11.043,4.397,21.537,9.146,31.564c4.769,10.045,8.951,21.576,5.16,32.032c-1.72,4.729-4.984,8.736-8.971,11.824    c-9.181-1.386-18.276-3.871-26.84-7.471C267.006,430.231,265.948,426.662,264.399,423.38z"/>
		<g>
			<g>
				<path style="fill:#F7D7B6;" d="M281.101,438.77l63.405,3.978c0,0,13.05,17.721-8.972,20.168c0,0-16.545-3.263-24.789,19.575      c0,0-4.574,32.218-24.965,14.274c0,0-9.825,9.38-13.884-5.302c0,0-10.614,12.642-15.697-6.117      C256.198,485.347,252.769,459.892,281.101,438.77z"/>
				<path style="fill:#192037;" d="M285.779,496.766c0,0-3.85-23.45,16.427-34.257C302.206,462.509,284.556,481.268,285.779,496.766      z"/>
				<path style="fill:#192037;" d="M272.187,493.096c0,0-3.85-23.45,16.427-34.257C288.613,458.839,270.963,477.598,272.187,493.096      z"/>
			</g>
			<path style="fill:#9C3621;" d="M323.299,343.426l4.486,30.587c-19.168,48.123,30.587,75.447,30.587,75.447l-33.034-4.894     l-5.709,14.274l-8.884-11.827l-15.084,11.827l-10.696-16.09l-15.905,7.118c6.365-18.818-0.415-35.068-5.431-43.57     c-4.01-6.797-6.735-14.33-7.289-22.202C252.639,331.541,323.299,343.426,323.299,343.426z"/>
		</g>
		<g>
			<path style="fill:#F7D7B6;" d="M322.685,377.339c0,0-9.173,9.724-22.631-6.589c0,0-8.291-3.071-20.343-3.616     c-6.42-0.291-10.184-7.77-6.143-12.766c0.785-0.97,1.842-1.911,3.24-2.785c0,0-3.263-7.749,2.855-11.011     c0,0-2.063-14.023,16.604-13.898c6.235,0.042,12.352,1.627,17.989,4.291c9.452,4.467,26.693,13.367,26.988,18.986l8.564,12.235     L322.685,377.339z"/>
			<path style="fill:#9C3621;" d="M327.785,374.012l-7.341-12.642l21.207-3.67l-9.38-14.274     c11.817,1.921,22.802,5.899,33.168,11.406c2.174,0.859,4.696,0.313,6.211-1.467c5.427-6.373,11.504-24.484-42.234-59.285     c-1.094-20.403,4.714-33.469,18.895-37.629c0,0,110.383,64.545,72.049,127.349c0,0-21.615,38.743-101.955-3.67L327.785,374.012z"/>
			<path style="fill:#192037;" d="M279.662,340.571c0,0,11.242-11.058,35.881,3.162C301.938,340.53,289.497,338.848,279.662,340.571     z"/>
			<path style="fill:#192037;" d="M276.011,352.285c0,0,11.242-11.058,35.88,3.162C298.286,352.244,285.846,350.563,276.011,352.285     z"/>
		</g>
		<g>
			<path style="fill:#F7D7B6;" d="M74.507,110.591c0.438,0.336,0.86,0.688,1.266,1.055c15.572,14.075,18.855,42.129,22.195,61.629     c3.908,22.821,5.138,46.204,2.175,69.215c-4.916,38.179-22.229,75.686-52.143,99.912c-4.415,3.576-10.758,6.911-15.398,3.631     c-3.931-2.779-3.929-8.517-3.396-13.301c3.788-34.033,13.899-67.08,18.477-101.016c3.085-22.864,3.638-46.069,1.646-69.055     c-1.032-11.912-2.747-23.856-1.809-35.776c0.581-7.379,2.863-15.622,9.44-19.018C62.523,104.996,69.494,106.741,74.507,110.591z"/>
			<path style="opacity:0.34;fill:#FFFFFF;" d="M54.059,117.124c-1.67,1.377-2.537,4.313-3.098,7.383     c-1.12,6.121-1.203,13.212-0.344,20.519c0.43,3.658,1.095,7.374,1.985,11.06c1.416,5.863,3.027,11.411,6.388,15.77     c1.221,1.583,2.667,2.716,3.926,2.653c1.324-0.066,2.285-1.455,2.747-3.31c0.462-1.855,0.479-4.135,0.354-6.43     c-0.316-5.764-1.494-11.797-2.055-17.65c-0.645-6.727-0.471-13.193-1.441-19.998c-0.38-2.666-1.007-5.561-2.324-7.737     c-1.458-2.41-3.444-3.292-5.034-2.843C54.766,116.654,54.393,116.849,54.059,117.124z"/>
			<path style="opacity:0.17;fill:#F77800;" d="M47.682,231.716c2.234-16.56,3.121-33.299,2.694-50.004     c2.499,1.124,5.077,2.08,7.736,2.83c7.359,2.075,14.965,2.308,22.477,0.975c5.695-1.01,11.101-3.594,14.396-8.504     c1.19-1.774,2.035-3.723,2.643-5.757c0.113,0.674,0.226,1.363,0.338,2.019c3.908,22.821,5.138,46.204,2.175,69.215     c-4.916,38.179-22.229,75.686-52.144,99.912c-4.415,3.576-10.758,6.91-15.398,3.631c-3.931-2.779-3.929-8.517-3.396-13.301     C32.993,298.699,43.103,265.652,47.682,231.716z"/>
			<path style="fill:#F77800;" d="M31.037,344.5c0.391,0.547,0.879,1.016,1.446,1.446c0.039,0.02,0.078,0.059,0.117,0.078     c0.274,0.195,0.547,0.352,0.821,0.508c0.606,0.313,1.231,0.547,1.896,0.684c4.182,0.86,9.088-1.896,12.684-4.808     c29.921-24.235,47.218-61.739,52.143-99.909c1.348-10.417,1.778-20.912,1.544-31.388c-0.352,0.039-0.704,0.117-1.036,0.156     c-2.619,0.391-5.277,0.625-7.915,0.684c-0.645,0.039-1.29,0.039-1.935,0.039c-5.296,0-10.593-0.645-15.772-1.935     c-3.303-0.84-6.527-1.915-9.655-3.205c-0.664-0.293-1.329-0.586-1.993-0.879c-4.534-2.033-8.893-4.515-13.036-7.329     c-0.313,11.062-1.192,22.104-2.658,33.068C43.096,265.66,32.991,298.708,29.2,332.734C28.75,336.76,28.692,341.471,31.037,344.5z     "/>
			<g style="opacity:0.36;">
				<g>
					<path style="fill:#9C3621;" d="M33.421,346.532c0.606,0.313,1.231,0.547,1.896,0.684c4.3-5.883,8.443-11.902,12.391-18.059       c12.762-19.915,23.55-41.12,31.622-63.361c6.313-17.433,10.905-35.492,13.407-53.844c-0.645,0.039-1.29,0.039-1.935,0.039       c-1.114,8.032-2.638,15.987-4.515,23.863c-5.433,22.71-13.915,44.638-24.664,65.355       C53.435,317.021,43.936,332.168,33.421,346.532z"/>
				</g>
				<g>
					<path style="fill:#9C3621;" d="M31.037,344.5c0.391,0.547,0.879,1.016,1.446,1.446c3.303-6.684,6.391-13.446,9.264-20.326       c8.99-21.479,15.869-43.896,19.856-66.86c2.971-17.14,4.3-34.534,3.772-51.909c-0.664-0.293-1.329-0.586-1.993-0.879       c0.274,7.387,0.196,14.795-0.215,22.182c-1.29,23.042-5.746,45.831-12.645,67.818C45.304,312.624,38.698,328.825,31.037,344.5z       "/>
				</g>
			</g>
			<path style="fill:#F7D7B6;" d="M41.473,266.539c0,0-0.508-6.117,18.762-2.541c1.993,0.371,4.006,0.528,6,0.332     c5.238-0.527,12.762-3.205,5.003-15.185c-0.626-0.958-1.348-1.993-2.189-3.088c-0.019-0.02-0.039-0.059-0.058-0.078l7.583,0.782     c2.99,0.313,6.059-0.919,7.642-3.479c1.837-2.932,1.857-7.29-7.036-12.196c0.196-0.019,1.681-0.156,3.498-0.684     c4.339-1.271,10.554-4.828,5.101-14.463c0,0-3.772-10.397-23.003-8.189c-11.824,1.368-21.556,9.948-24.43,21.518     C35.493,240.78,34.203,256.611,41.473,266.539z"/>
			<g>
				<path style="fill:#192037;" d="M49.33,229.64c7.857-1.368,17.374-0.567,27.85,1.446c0.196-0.019,1.681-0.156,3.498-0.684      C59.18,219.946,49.33,229.64,49.33,229.64z"/>
				<path style="fill:#192037;" d="M43.252,247.679c7.896-1.388,17.473-0.567,27.987,1.466c-0.626-0.958-1.348-1.993-2.189-3.088      C51.402,239.647,43.252,247.679,43.252,247.679z"/>
			</g>
			<g>
				<path style="fill:#F7D7B6;" d="M50.414,197.009c2.727,2.704,5.971,5.001,9.74,7.023c7.07,3.791,15.337,4.785,23.17,3.05      c8.652-1.915,16.102-4.556,17.78-8.587c0,0,22.435,9.515,28.584,57.333c0.249,1.938-2.392,2.774-3.298,1.043      c-7.617-14.57-30.556-42.57-54.033-46.719c-31.564,1.651-45.067,20.576-50.803,35.241c-0.742,1.896-3.579,1.214-3.386-0.813      C21.911,205.088,38.165,197.043,50.414,197.009z"/>
				<path style="opacity:0.46;fill:#FFFFFF;" d="M50.414,197.009c2.727,2.704,5.971,5.001,9.74,7.023      c7.07,3.791,15.337,4.785,23.17,3.05c8.652-1.915,16.102-4.556,17.78-8.587c0,0,22.435,9.515,28.584,57.333      c0.249,1.938-2.392,2.774-3.298,1.043c-7.617-14.57-30.556-42.57-54.033-46.719c-31.564,1.651-45.067,20.576-50.803,35.241      c-0.742,1.896-3.579,1.214-3.386-0.813C21.911,205.088,38.165,197.043,50.414,197.009z"/>
			</g>
		</g>
		<g>
			<g>
				<g>
					
						<ellipse transform="matrix(0.8507 -0.5257 0.5257 0.8507 -0.3294 248.8998)" style="fill:#9C3621;" cx="437.918" cy="125.03" rx="55.924" ry="55.924"/>
					
						<ellipse transform="matrix(0.3827 -0.9239 0.9239 0.3827 146.6892 477.1219)" style="fill:#F57486;" cx="430.376" cy="128.793" rx="32.057" ry="32.057"/>
					<path style="opacity:0.44;fill:#192037;" d="M400.213,83.732c4.105,4.606,8.122,9.289,11.902,14.169       c12.905,16.663,21.855,35.848,27.69,56.044c2.512,8.694,4.436,17.536,5.923,26.454c-2.554,0.357-5.159,0.555-7.81,0.555       c-30.886,0-55.924-25.038-55.924-55.924C381.994,108.673,389.019,93.958,400.213,83.732z"/>
				</g>
				<g>
					<circle style="fill:#9C3621;" cx="167.711" cy="111.858" r="55.924"/>
					<circle style="fill:#F57486;" cx="175.252" cy="115.621" r="32.057"/>
					<path style="opacity:0.44;fill:#192037;" d="M204.053,70.784c0.251-0.253,0.495-0.513,0.742-0.77       c11.551,10.245,18.839,25.19,18.839,41.843c0,30.886-25.038,55.924-55.924,55.924c-7.12,0-13.921-1.345-20.184-3.77       C161.374,102.765,199.757,75.107,204.053,70.784z"/>
				</g>
			</g>
			<path style="fill:#9C3621;" d="M161.376,173.705c0,0,5.98,8.443,5.98,10.886c0,16.046,8.951,31.505,19.114,43.876     c13.329,16.221,28.71,27.146,28.71,27.146c22.905,9.381,51.465,3.701,82.423,3.701c29.824,0,57.395,5.993,79.851-2.685     c0,0,26.971-22.651,38.638-50.775c3.205-7.739,5.257-15.909,5.257-24.117c0-1.739,12.626-5.902,12.626-5.902     c-2.717-51.87-45.166-111.244-101.98-129.127c-4.476-9.518-2.169-22.007,5.805-28.984c-7.485,2.521-13.055,9.87-13.505,17.726     c-3.088-10.26-10.906-19.016-20.755-23.238c-5.531-2.365-11.902-3.342-17.57-1.329c-5.668,2.013-10.299,7.485-10.143,13.485     c0.059,1.876,0.684,3.713,1.681,5.296c-3.909-1.505-7.935-2.501-12.117-2.404c-7.955,0.215-16.378,6.019-16.476,13.993     c-0.039,3.459,1.466,6.665,3.772,9.283C201.969,71.686,164.874,125.627,161.376,173.705z"/>
			<path style="fill:#F7D7B6;" d="M177.949,190.982c0,14.502,3.029,26.951,8.521,37.485c13.329,16.221,28.71,27.146,28.71,27.146     c22.905,9.381,51.459,13.642,82.417,13.642c29.824,0,57.4-3.948,79.856-12.625c0,0,26.971-22.651,38.638-50.775     c0.782-4.691,1.173-9.655,1.173-14.873c0-1.7-0.039-3.381-0.117-5.081c-1.407-29.805-15.049-62.208-36.293-87.244     c-12.938-15.088-51.029-26.521-83.257,13.192c0,0-0.196-0.313-0.606-0.899c-22.007-32.13-69.616-32.286-91.857-0.293     c-15.498,22.3-25.329,48.528-26.951,73.173C178.027,186.233,177.949,188.598,177.949,190.982z"/>
			<g>
				<path style="fill:#F57486;" d="M359.217,218.282c0,15.479,7.114,29.296,18.235,38.345      c34.319-13.231,56.658-37.505,56.658-75.557c0-1.739-0.039-3.479-0.137-5.238c-7.407-4.437-16.085-6.977-25.329-6.977      C381.341,168.856,359.217,190.979,359.217,218.282z"/>
				<path style="fill:#F57486;" d="M161.1,181.071c0,37.094,21.205,61.075,54.078,74.541c10.436-9.049,17.042-22.417,17.042-37.329      c0-27.303-22.143-49.427-49.446-49.427c-7.661,0-14.932,1.739-21.401,4.847C161.198,176.185,161.1,178.628,161.1,181.071z"/>
			</g>
			<g>
				<g>
					<g>
						<path style="fill:#FFFFFF;" d="M263.636,134.239c11.463,10.379,12.337,28.098,1.984,39.536        c-5.828,6.435-14.024,9.516-22.096,9.101c-6.267-0.283-12.445-2.689-17.435-7.211c-0.482-0.448-0.964-0.896-1.403-1.417        c-9.905-10.266-10.473-26.472-1.195-37.413c0.194-0.273,0.385-0.485,0.589-0.72c5-5.532,11.74-8.57,18.624-9.055        C250.097,126.487,257.693,128.858,263.636,134.239z"/>
					</g>
				</g>
				<path style="fill:#192037;" d="M253.282,131.497c10.587,7.712,13.706,22.696,7.068,33.954      c-5.153,8.739-14.656,13.303-24.132,12.578c-8.184-0.625-15.296-6.29-18.008-14.041c-3.175-9.075-1.556-19.515,5.041-27.294      c0.195-0.273,0.385-0.485,0.589-0.72c2.191-2.424,4.716-4.369,7.441-5.83c6.877-3.688,15.395-3.348,21.766,1.185      C253.126,131.384,253.204,131.44,253.282,131.497z"/>
				<path style="fill:#192037;" d="M309.762,183.664c1.537,1.106,2.482,2.955,2.204,4.829c-0.323,2.182-1.692,3.683-3.369,4.316      c-3.087,1.165-6.438-1.518-6.201-4.81c0.083-1.159,0.523-2.3,1.325-3.247c0.039-0.055,0.078-0.098,0.119-0.146      c0.444-0.491,0.956-0.886,1.508-1.182C306.744,182.676,308.471,182.745,309.762,183.664L309.762,183.664z"/>
				<path style="fill:#192037;" d="M282.834,183.664c1.537,1.106,2.482,2.955,2.205,4.829c-0.323,2.182-1.692,3.683-3.369,4.316      c-3.087,1.165-6.438-1.518-6.201-4.81c0.083-1.159,0.523-2.3,1.325-3.247c0.04-0.055,0.078-0.098,0.12-0.146      c0.444-0.491,0.956-0.886,1.508-1.182C279.815,182.676,281.542,182.745,282.834,183.664L282.834,183.664z"/>
			</g>
			<g>
				<g>
					<g>
						<path style="fill:#FFFFFF;" d="M352.045,128.859c14.718,3.902,23.472,18.944,19.562,33.599        c-2.202,8.292-7.97,14.665-15.199,17.945c-5.596,2.583-12.101,3.275-18.48,1.599c-3.286-0.871-6.263-2.284-8.88-4.153        c-8.88-6.277-13.468-17.496-10.922-28.591c0.072-0.304,0.144-0.607,0.216-0.911c2.511-9.365,9.54-16.287,18.142-19.047        C341.356,127.683,346.717,127.434,352.045,128.859z"/>
					</g>
				</g>
				<path style="fill:#192037;" d="M341.537,129.005c14.241,0.748,25.164,12.887,24.414,27.094      c-0.749,14.178-12.889,25.105-27.13,24.357c-1.506-0.079-2.976-0.283-4.4-0.606c-3.83-0.868-7.329-2.941-9.986-5.826      c-5.959-6.473-8.681-15.669-6.59-24.782c0.072-0.304,0.144-0.607,0.216-0.911c2.095-7.816,7.338-13.93,14.015-17.343      c2.889-1.477,6.165-2.149,9.407-1.986C341.501,129.003,341.519,129.004,341.537,129.005z"/>
			</g>
			<g>
				<path style="fill:#192037;" d="M255.3,115.389c-9.163-6.34-22.238-2.821-29.699,4.61c-2.524,2.442-4.645,5.251-6.046,8.486      c-0.169,0.391,0.01,0.845,0.4,1.015c0.224,0.098,0.477,0.075,0.677-0.031c5.697-3.126,10.738-6.565,16.513-9.038      c5.733-2.514,11.282-3.477,17.728-3.644C255.595,116.799,255.901,115.777,255.3,115.389L255.3,115.389z"/>
			</g>
			<g>
				<path style="fill:#192037;" d="M338.51,115.414c8.058,1.432,15.074,3.732,21.868,7.936c7.015,4.049,12.377,9.593,18.98,14.638      c0.388,0.329,0.989,0.277,1.282-0.152c-3.781-17.28-25.118-31.177-42.331-24.085      C337.521,114.063,337.676,115.306,338.51,115.414L338.51,115.414z"/>
			</g>
			<g>
				<g>
					<path style="fill:#192037;" d="M322.99,193.027c0,0-4.022,6.755-15.173,12.511c-11.658,6.017-22.12,3.856-22.12,3.856       c-0.434,0.095-0.716,0.539-0.573,0.97c14.015,6.544,34.959-0.89,39.129-16.594C324.452,193.058,323.506,192.506,322.99,193.027       L322.99,193.027z"/>
				</g>
			</g>
			<g>
				<path style="fill:#192037;" d="M286.353,182.217c1.036-6.346-6.917-10.921-12.501-8.147c-5.859,2.136-8.017,11.076-2.683,14.678      C269.395,178.938,280.463,174.169,286.353,182.217L286.353,182.217z"/>
				<path style="fill:#192037;" d="M300.667,182.217c-1.036-6.346,6.917-10.921,12.502-8.147c5.859,2.136,8.017,11.076,2.683,14.678      C317.625,178.938,306.557,174.169,300.667,182.217L300.667,182.217z"/>
			</g>
		</g>
	</g>
</g>















</svg>
