<?xml version="1.0" encoding="UTF-8"?>
<!-- Generator: Adobe Illustrator 27.1.1, SVG Export Plug-In . SVG Version: 6.00 Build 0)  -->
<svg xmlns="http://www.w3.org/2000/svg" xmlns:xlink="http://www.w3.org/1999/xlink" version="1.1" id="Capa_1" x="0px" y="0px" viewBox="0 0 512 512" style="enable-background:new 0 0 512 512;" xml:space="preserve" width="512" height="512">
<g>
	<path style="fill:#FFFFFF;" d="M474.121,279.507c-0.652-0.082-1.308-0.149-1.965-0.202c6.644-11.284,3.507-27.116-6.309-35.077   c21.833-8.926,17.701-41.638-5.957-44.648c-17.101-2.667-31.411,16.078-24.507,31.822c-29.257-64.931-96.85-107.797-167.776-89.48   c-4.999-28.736-18.048-48.722-30.745-67.868c-6.061-7.686-13.937-11.919-22.185-11.919c-11.959,0.133-22.396,8.153-24.783,20.653   c-0.635,3.05-1.337,6.056-2.074,9.032c-9.95-28.832-52.365-15.212-43.373,14.183c-14.767-2.787-33.366,1.075-42.175,13.17   c-19.001-21.105-60.266-17.686-83.405-9.459c-5.388,1.768-8.17,8.43-5.625,13.504c4.075,8.607,8.442,15.59,12.941,21.262   c-26.986,7.354-33.134,44.557-9.854,60.135c-36.921,31.309-6.094,92.075,41.344,80.321c2.595,11.684,6.388,23.138,11.341,34.233   c-11.729,9.015-22.524,16.812-28.315,20.727c-5.942,4.005-12.372,9.226-14.928,17.534c-6.885,30.796,34.849,53.629,62.803,52.795   c14.948,0.093,28.815-4.867,41.529-12.805c79.004,65.403,193.568,70.181,270.444,11.249c24.381,9.595,59.525,20.986,84.133,9.741   c23.775-11.747,27.701-42.549,3.185-56.708C526.163,342.876,516.887,284.969,474.121,279.507z"/>
	<g>
		<g>
			<g style="opacity:0.8;">
				<g>
					<path style="fill:#00B2A7;" d="M501.999,327.011c-2.316,18.434-19.141,31.504-37.574,29.189       c-18.434-2.316-31.503-19.141-29.187-37.575c2.316-18.434,19.14-31.5,37.574-29.185       C491.244,291.755,504.314,308.577,501.999,327.011z"/>
					<path style="fill:#00B2A7;" d="M501.999,327.011c-2.316,18.434-19.141,31.504-37.574,29.189       c-18.434-2.316-31.503-19.141-29.187-37.575c2.316-18.434,19.14-31.5,37.574-29.185       C491.244,291.755,504.314,308.577,501.999,327.011z"/>
					<path style="opacity:0.41;fill:#00B2A7;" d="M499.521,332.567c-5.687,16.171-24.074,24.432-41.065,18.462       c-16.993-5.982-26.155-23.932-20.466-40.1c5.688-16.169,24.068-24.431,41.061-18.455       C496.041,298.452,505.207,316.4,499.521,332.567z"/>
					<path style="opacity:0.32;fill:#FFFFFF;" d="M497.572,324.033c-0.444,1.912-1.355,3.706-2.912,5.346       c-3.37,3.57-8.051,3.614-11.631,0.279c-4.508-4.201-4.726-11.054-10.515-14.565c-5.366-3.251-13.384-4.106-15.585-10.918       c-1.709-5.277,2.274-8.718,6.649-10.051c6.123-1.863,11.955-0.402,17.703,2.065c8.441,3.617,14.637,11.772,16.255,20.76       C497.98,319.434,498.092,321.812,497.572,324.033z"/>
					<path style="opacity:0.32;fill:#FFFFFF;" d="M445.368,334.262c0.138-1.019,0.526-1.998,1.258-2.929       c1.583-2.025,4.022-2.276,6.051-0.711c2.555,1.971,3.001,5.533,6.191,7.082c2.956,1.434,7.178,1.49,8.657,4.934       c1.148,2.668-0.762,4.656-2.978,5.564c-3.102,1.269-6.213,0.791-9.33-0.215c-4.577-1.475-8.204-5.426-9.485-10.033       C445.379,336.68,445.205,335.445,445.368,334.262z"/>
					<path style="fill:#00B2A7;" d="M484.596,302.992c-0.735,1.962-4.51,2.358-8.427,0.892c-3.919-1.463-6.501-4.241-5.765-6.198       c0.732-1.961,4.502-2.363,8.422-0.892C482.747,298.257,485.325,301.034,484.596,302.992z M491.212,308.698       c-1.464-2.15-3.531-3.304-4.609-2.566c-1.078,0.733-0.756,3.073,0.71,5.227c1.469,2.154,3.533,3.301,4.613,2.57       C492.999,313.193,492.683,310.854,491.212,308.698z"/>
				</g>
			</g>
			<g style="opacity:0.8;">
				<g>
					<path style="fill:#00B2A7;" d="M465.634,268.059c-1.261,10.036-10.421,17.152-20.457,15.891       c-10.036-1.261-17.151-10.421-15.89-20.457c1.261-10.036,10.421-17.15,20.456-15.889       C459.779,248.864,466.895,258.023,465.634,268.059z"/>
					<path style="fill:#00B2A7;" d="M465.634,268.059c-1.261,10.036-10.421,17.152-20.457,15.891       c-10.036-1.261-17.151-10.421-15.89-20.457c1.261-10.036,10.421-17.15,20.456-15.889       C459.779,248.864,466.895,258.023,465.634,268.059z"/>
					<path style="opacity:0.41;fill:#00B2A7;" d="M464.285,271.083c-3.096,8.804-13.107,13.302-22.357,10.051       c-9.251-3.257-14.24-13.029-11.143-21.832c3.097-8.803,13.104-13.301,22.355-10.047       C462.391,252.51,467.381,262.282,464.285,271.083z"/>
					<path style="opacity:0.32;fill:#FFFFFF;" d="M463.224,266.437c-0.242,1.041-0.738,2.017-1.586,2.911       c-1.835,1.944-4.383,1.968-6.332,0.152c-2.454-2.287-2.573-6.018-5.725-7.929c-2.921-1.77-7.287-2.236-8.485-5.944       c-0.93-2.873,1.238-4.747,3.62-5.472c3.334-1.014,6.508-0.219,9.638,1.124c4.596,1.969,7.969,6.409,8.85,11.302       C463.446,263.933,463.507,265.228,463.224,266.437z"/>
					<path style="opacity:0.32;fill:#FFFFFF;" d="M434.802,272.006c0.075-0.555,0.286-1.088,0.685-1.595       c0.862-1.103,2.19-1.239,3.294-0.387c1.391,1.073,1.634,3.012,3.37,3.856c1.609,0.781,3.908,0.811,4.713,2.686       c0.625,1.453-0.415,2.535-1.621,3.029c-1.689,0.691-3.383,0.431-5.08-0.117c-2.492-0.803-4.466-2.954-5.164-5.462       C434.809,273.322,434.714,272.65,434.802,272.006z"/>
					<path style="fill:#00B2A7;" d="M456.159,254.982c-0.4,1.068-2.456,1.284-4.588,0.485c-2.134-0.797-3.54-2.309-3.139-3.374       c0.398-1.067,2.451-1.287,4.585-0.486C455.153,252.404,456.556,253.916,456.159,254.982z M459.761,258.088       c-0.797-1.171-1.922-1.799-2.509-1.397c-0.587,0.399-0.411,1.673,0.387,2.846c0.8,1.173,1.924,1.797,2.512,1.399       C460.734,260.536,460.562,259.262,459.761,258.088z"/>
				</g>
			</g>
			<g style="opacity:0.8;">
				<g>
					<path style="fill:#00B2A7;" d="M470.249,224.532c-0.926,7.369-7.652,12.594-15.021,11.669       c-7.369-0.926-12.594-7.652-11.668-15.022c0.926-7.369,7.652-12.593,15.021-11.667       C465.95,210.438,471.175,217.163,470.249,224.532z"/>
					<path style="fill:#00B2A7;" d="M470.249,224.532c-0.926,7.369-7.652,12.594-15.021,11.669       c-7.369-0.926-12.594-7.652-11.668-15.022c0.926-7.369,7.652-12.593,15.021-11.667       C465.95,210.438,471.175,217.163,470.249,224.532z"/>
					<path style="opacity:0.41;fill:#00B2A7;" d="M469.259,226.754c-2.274,6.465-9.624,9.767-16.417,7.381       c-6.793-2.391-10.456-9.567-8.182-16.031c2.274-6.464,9.622-9.767,16.415-7.378       C467.868,213.115,471.532,220.29,469.259,226.754z"/>
					<path style="opacity:0.32;fill:#FFFFFF;" d="M468.48,223.342c-0.177,0.764-0.542,1.481-1.164,2.137       c-1.347,1.427-3.218,1.445-4.65,0.111c-1.802-1.68-1.889-4.419-4.203-5.823c-2.145-1.3-5.351-1.642-6.23-4.365       c-0.683-2.11,0.909-3.485,2.658-4.018c2.448-0.745,4.779-0.161,7.077,0.826c3.375,1.446,5.851,4.706,6.498,8.299       C468.643,221.503,468.687,222.454,468.48,223.342z"/>
					<path style="opacity:0.32;fill:#FFFFFF;" d="M447.61,227.431c0.055-0.407,0.21-0.799,0.503-1.171       c0.633-0.81,1.608-0.91,2.419-0.284c1.021,0.788,1.2,2.212,2.475,2.831c1.182,0.573,2.869,0.596,3.461,1.973       c0.459,1.067-0.305,1.861-1.19,2.224c-1.24,0.507-2.484,0.316-3.73-0.086c-1.83-0.59-3.28-2.169-3.792-4.011       C447.615,228.398,447.545,227.904,447.61,227.431z"/>
					<path style="fill:#00B2A7;" d="M463.292,214.93c-0.294,0.784-1.803,0.943-3.369,0.356c-1.567-0.585-2.599-1.695-2.305-2.478       c0.293-0.784,1.8-0.945,3.367-0.357C462.553,213.037,463.584,214.147,463.292,214.93z M465.937,217.211       c-0.585-0.859-1.411-1.321-1.843-1.026c-0.431,0.293-0.302,1.229,0.284,2.09c0.587,0.861,1.413,1.319,1.844,1.027       C466.652,219.008,466.525,218.073,465.937,217.211z"/>
				</g>
			</g>
		</g>
		<g>
			<g>
				<g>
					<path style="fill:#192037;" d="M433.665,347.89c13.521,4.216,29.764,12.029,42.332,18.56       c7.428,3.86,15.221,8.777,17.862,16.721c3.423,10.295-3.785,21.805-13.552,26.53c-9.767,4.725-21.216,4.177-31.945,2.561       c-21.59-3.253-42.58-10.448-61.625-21.125L433.665,347.89z"/>
				</g>
				<g>
					<path style="fill:#FFFFFF;" d="M478.94,395.522c-1.248-1.433-3.782-1.27-5.66,0.365c-1.878,1.635-2.389,4.122-1.141,5.555       c1.248,1.433,3.782,1.27,5.66-0.365C479.677,399.442,480.188,396.955,478.94,395.522z"/>
					<path style="fill:#FFFFFF;" d="M485.697,388.018c-0.804-0.924-2.438-0.819-3.649,0.235c-1.211,1.054-1.54,2.658-0.736,3.582       c0.805,0.924,2.438,0.819,3.649-0.235C486.173,390.546,486.502,388.942,485.697,388.018z"/>
				</g>
				<g>
					<path style="fill:#192037;" d="M85.719,153.575c-0.513,1.066-0.986,2.131-1.46,3.197       c-13.576,30.112-19.851,57.54-20.877,82.284c-0.316,7.459-0.158,14.681,0.434,21.666c0.355,4.244,16.218,40.304,26.685,51.365       c8.668,9.16,19.144,16.458,30.336,22.198c22.728,11.656,48.604,17.439,74.043,18.398c16.263,0.613,32.69-0.484,48.894-1.819       c16.402-1.35,32.796-3.134,49.154-4.937c15.829-1.745,31.681-4.052,46.992-8.55c7.233-2.125,14.202-4.908,21.187-7.723       c6.402-2.58,12.777-5.236,19.007-8.211c12.272-5.86,24.209-13.037,33.454-23.159c2.338-2.56,4.394-5.323,6.937-7.698       c2.324-2.171,4.85-4.118,7.438-5.964c4.534-3.233,9.265-6.197,13.629-9.653c-6.442-21.159-14.235-38.916-22.925-53.752       c-8.525-14.523-17.957-26.244-27.862-35.676c-63.184-60.224-131.813-30.378-131.813-30.378       c-1.341-30.309-16.511-53.15-27.902-71.994c-8.67-14.344-28.218-14.602-31.612,1.776       c-7.183,34.532-21.193,64.644-31.059,82.956c-8.603,15.904-30.743,18.549-42.188,4.539c-6.038-7.419-8.288-14.957-8.288-14.957       l4.144,0.355c53.514-2.644,45.188-34.887,45.188-34.887c-61.013-24.666-63.302,17.483-63.302,17.483       c-13.063-35.242-57.382-27.823-74.786-23.363c-4.42,1.145-7.104,2.091-7.104,2.091       C48.464,174.926,85.719,153.575,85.719,153.575z"/>
					<path style="opacity:0.2;fill:#FFFFFF;" d="M442.246,277.14c-0.158-0.552-0.316-1.105-0.513-1.658       c-6.473-21.39-14.326-39.307-23.087-54.264c-8.524-14.523-17.957-26.244-27.862-35.676       c-63.184-60.223-131.813-30.378-131.813-30.378c-1.342-30.309-16.066-53.15-27.902-71.994       c-5.865-9.338-14.521-13.451-22.711-9.617c3.729,4.946,6.92,10.277,8.898,16.184c2.459,7.341,2.622,15.002,1.49,22.607       c-1.386,9.314-5.512,17.794-8.571,26.611c-3.07,8.848-1.055,30.237-3.061,30.251c-18.777,0.133-35.975,9.04-54.396,11.275       c-9.238,2.663-19.738,0.246-26.507-8.041c-6.038-7.419-8.288-14.957-8.288-14.957l4.144,0.355       c53.514-2.644,45.187-34.887,45.187-34.887c-61.013-24.666-63.302,17.483-63.302,17.483       c-13.063-35.242-57.382-27.823-74.786-23.363c25.36,41.338,56.214,36.559,56.538,36.507c1.459-0.375,2.909-0.808,4.345-1.342       c0.928-0.346,2.256,0.389,2.427,1.378c3.562,20.606-0.545,41.618-3.737,61.997c-5.694,36.358-6.445,76.089,10.09,109.905       c7.713,15.772,18.129,29.838,29.96,42.716c23.553,21.23,44.424,31.764,44.424,31.764c2.96,1.46,5.841,2.841,8.84,4.223       c0.987,0.434,2.012,0.868,2.999,1.342c94.322,41.044,207.113,15.155,250.919-70.327c5.88-11.484,9.274-23.916,10.261-36.505       C445.68,291.466,444.338,284.244,442.246,277.14z"/>
					<g>
						<path style="fill:#FFFFFF;" d="M244.228,129.852c-1.869,0.345-3.017,2.61-2.565,5.059c0.452,2.448,2.334,4.153,4.203,3.808        c1.869-0.346,3.017-2.61,2.565-5.059C247.979,131.212,246.097,129.507,244.228,129.852z"/>
						<path style="fill:#FFFFFF;" d="M241.205,120.218c-1.205,0.223-1.945,1.683-1.653,3.261c0.292,1.579,1.505,2.678,2.71,2.455        c1.205-0.223,1.945-1.682,1.653-3.261C243.623,121.094,242.41,119.995,241.205,120.218z"/>
					</g>
					<g>
						<path style="fill:#FFFFFF;" d="M86.442,129.523c-1.27,1.414-0.799,3.908,1.053,5.573c1.852,1.664,4.383,1.867,5.653,0.454        c1.27-1.414,0.799-3.909-1.053-5.573C90.243,128.313,87.712,128.109,86.442,129.523z"/>
						<path style="fill:#FFFFFF;" d="M78.169,123.732c-0.819,0.911-0.515,2.52,0.679,3.593c1.194,1.073,2.826,1.204,3.645,0.293        c0.819-0.911,0.515-2.52-0.679-3.593C80.62,122.952,78.988,122.821,78.169,123.732z"/>
					</g>
					<path style="fill:#F7D7B6;" d="M435.972,350.465c-3.375,6.586-7.17,12.825-11.312,18.7       c-49.768,70.384-152.572,89.504-239.613,51.593c-1.058-0.401-2.007-0.876-3.029-1.314c-2.974-1.332-5.838-2.718-8.775-4.214       c0,0-100.741-50.626-109.426-154.506c0.402,0.748,0.821,1.532,1.296,2.335c8.21,14.869,20.597,31.835,39.041,48.145       c18.152,16.091,46.12,15.306,62.54-2.536c0.164-0.146,0.328-0.346,0.474-0.547c11.329-12.041,29.92-13.738,43.42-4.178       c10.928,7.772,27.037,16.529,48.382,21.509c32.237,7.443,76.441,6.148,132.723-20.926       c15.744-7.535,32.437-17.094,50.042-29.044c1.861,5.874,3.174,11.858,3.922,17.879c0.384,2.882,0.621,5.783,0.73,8.684       C447.137,318.739,443.707,335.432,435.972,350.465z"/>
					<path style="opacity:0.32;fill:#FFFFFF;" d="M435.972,350.465c-3.375,6.586-7.17,12.825-11.312,18.7       c-49.768,70.384-152.572,89.504-239.613,51.593c-1.058-0.401-2.007-0.876-3.029-1.314c-2.974-1.332-5.838-2.718-8.775-4.214       c0,0-100.741-50.626-109.426-154.506c0.402,0.748,0.821,1.532,1.296,2.335c8.21,14.869,20.597,31.835,39.041,48.145       c18.152,16.091,46.12,15.306,62.54-2.536c0.164-0.146,0.328-0.346,0.474-0.547c11.329-12.041,29.92-13.738,43.42-4.178       c10.928,7.772,27.037,16.529,48.382,21.509c32.237,7.443,76.441,6.148,132.723-20.926       c15.744-7.535,32.437-17.094,50.042-29.044c1.861,5.874,3.174,11.858,3.922,17.879c0.384,2.882,0.621,5.783,0.73,8.684       C447.137,318.739,443.707,335.432,435.972,350.465z"/>
					<g>
						<path style="fill:#FFFFFF;" d="M389.202,396.661c-1.248-1.433-3.782-1.27-5.66,0.365c-1.878,1.635-2.389,4.122-1.141,5.555        c1.248,1.433,3.782,1.27,5.66-0.365C389.939,400.582,390.45,398.094,389.202,396.661z"/>
						<path style="fill:#FFFFFF;" d="M395.96,389.157c-0.804-0.924-2.438-0.819-3.649,0.235c-1.211,1.054-1.54,2.658-0.736,3.582        c0.805,0.924,2.438,0.819,3.649-0.235C396.435,391.685,396.764,390.081,395.96,389.157z"/>
					</g>
					<path style="fill:#192037;" d="M395.343,298.274c-3.355,17.483-13.644,37.602-22.753,47.378       c-10.617,11.395-70.682,27.744-98.031,1.46c-6.196-5.999-18.256-20.956-22.321-29.402       C284.481,325.169,339.066,325.347,395.343,298.274z"/>
					<path style="fill:#F57486;" d="M372.59,345.652c-26.323,29.52-70.682,27.744-98.031,1.46       c12.787-5.604,30.783-9.077,50.792-9.077C343.544,338.035,360.12,340.916,372.59,345.652z"/>
					<path style="fill:#FFFFFF;" d="M224.283,213.511c-10.973-6.842-25.82-10.732-38.305-5.78       c-9.335,3.703-14.344,12.482-9.954,22.021c7.971,17.317,45.473,36.249,59.187,15.048c0.617-0.954,1.056-1.911,1.417-2.87       c0.288-0.517,0.57-1.043,0.807-1.616C242.054,229.16,233.102,219.01,224.283,213.511z"/>
					<path style="opacity:0.32;fill:#F7D7B6;" d="M224.283,213.511c-10.973-6.842-25.82-10.732-38.305-5.78       c-9.335,3.703-14.344,12.482-9.954,22.021c7.971,17.317,45.473,36.249,59.187,15.048c0.617-0.954,1.056-1.911,1.417-2.87       c0.288-0.517,0.57-1.043,0.807-1.616C242.054,229.16,233.102,219.01,224.283,213.511z"/>
					<path style="fill:#FFFFFF;" d="M390.8,185.559c-2.827,1.806-5.473,3.849-7.844,6.039c-7.863,7.243-14.978,19.211-8.191,29.591       c0.365,0.547,0.766,1.04,1.131,1.496c0.547,0.894,1.186,1.788,1.989,2.645c10.964,11.494,28.04,6.112,40.757-4.123       C410.102,206.686,401.656,194.152,390.8,185.559z"/>
					<path style="opacity:0.32;fill:#F7D7B6;" d="M390.8,185.559c-2.827,1.806-5.473,3.849-7.844,6.039       c-7.863,7.243-14.978,19.211-8.191,29.591c0.365,0.547,0.766,1.04,1.131,1.496c0.547,0.894,1.186,1.788,1.989,2.645       c10.964,11.494,28.04,6.112,40.757-4.123C410.102,206.686,401.656,194.152,390.8,185.559z"/>
				</g>
				<g>
					<path style="fill:#192037;" d="M198.82,288.312l-35.018,60.075c-8.513,14.614-19.818,27.573-33.674,37.293       c-3.619,2.55-7.376,4.929-11.305,6.962c-4.722,2.482-9.685,4.515-14.924,5.928c-21.369,5.618-45.565-1.068-60.937-16.923       c-5.515-5.652-10.168-13.614-7.858-21.162c1.654-5.377,6.376-9.134,11.029-12.27c13.579-9.178,45.532-33.176,60.437-47.212       c2.617-2.464,5.954-3.984,9.53-4.35l0,0L198.82,288.312z"/>
				</g>
				<g style="opacity:0.2;">
					<path style="fill:#FFFFFF;" d="M198.82,288.312l-35.018,60.075c-8.513,14.614-19.818,27.573-33.674,37.293       c-3.619,2.55-7.376,4.929-11.305,6.962c-4.722,2.482-9.685,4.515-14.924,5.928c-21.369,5.618-45.565-1.068-60.937-16.923       c-5.515-5.652-10.168-13.614-7.858-21.162c1.654-5.377,6.376-9.134,11.029-12.27c13.579-9.178,45.532-33.176,60.437-47.212       c2.617-2.464,5.954-3.984,9.53-4.35l0,0L198.82,288.312z"/>
				</g>
				<g>
					<path style="fill:#FFFFFF;" d="M116.801,382.346c-1.248-1.434-3.782-1.27-5.66,0.365c-1.878,1.635-2.388,4.122-1.141,5.555       c1.248,1.433,3.782,1.27,5.66-0.365C117.538,386.266,118.049,383.779,116.801,382.346z"/>
					<path style="fill:#FFFFFF;" d="M123.559,374.842c-0.805-0.924-2.438-0.819-3.649,0.235c-1.211,1.054-1.54,2.658-0.735,3.582       c0.804,0.924,2.438,0.819,3.649-0.235C124.034,377.369,124.363,375.766,123.559,374.842z"/>
				</g>
				<g>
					<circle style="fill:#F57486;" cx="210.045" cy="357.046" r="39.336"/>
					<path style="fill:#F57486;" d="M437.892,349.291c-3.375,6.586-9.09,13.999-13.231,19.874       c-16.875-4.415-29.317-19.776-29.317-38.038c0-21.728,17.605-39.334,39.333-39.334c3.813,0,7.498,0.547,10.983,1.569       c0,0,1.564,6.546,1.673,9.447C448.08,319.502,445.626,334.258,437.892,349.291z"/>
				</g>
				<g>
					<g>
						<path style="fill:#192037;" d="M263.842,252.753c-7.982,0.951-14.992,2.81-21.892,6.549        c-7.107,3.575-12.677,8.71-19.437,13.284c-0.399,0.301-0.986,0.216-1.249-0.222c4.681-16.732,26.389-29.157,42.868-21.232        C264.888,251.483,264.667,252.694,263.842,252.753L263.842,252.753z"/>
					</g>
					<g>
						<path style="fill:#192037;" d="M415.308,257.797c-5.58-5.786-11.297-10.248-18.446-13.487        c-7.143-3.503-14.6-4.839-22.329-7.461c-0.481-0.136-0.768-0.655-0.578-1.129c16.161-6.38,39.177,3.41,42.82,21.329        C416.951,257.863,415.853,258.418,415.308,257.797L415.308,257.797z"/>
					</g>
					<g>
						<g>
							<path style="fill:#192037;" d="M261.517,288.664c-0.406,10.643-4.889,19.113-10.013,18.919         c-5.124-0.194-8.949-8.979-8.543-19.621c0.406-10.642,4.889-19.113,10.014-18.919         C258.098,269.237,261.923,278.021,261.517,288.664z"/>
						</g>
					</g>
					<g>
						<g>
							<path style="fill:#192037;" d="M400.663,266.645c2.743,10.291,0.951,19.705-4.004,21.028         c-4.955,1.322-11.196-5.948-13.939-16.24c-2.744-10.29-0.951-19.705,4.004-21.027         C391.679,249.084,397.919,256.354,400.663,266.645z"/>
						</g>
					</g>
				</g>
			</g>
			<path style="opacity:0.1;fill:#FFFFFF;" d="M299.193,163.217c-1.581,2.597-1.62,6.227,0.716,9.367     c2.11,2.836,5.608,4.687,8.951,6.053c8.534,3.488,17.315,4.932,25.945,7.843c7.508,2.533,14.877,6.169,22.417,8.259     c3.001,0.832,6.072,1.416,8.845,1.126c2.773-0.291,5.228-1.559,6.132-3.804c0.859-2.134,0.229-4.911-1.144-7.423     c-3.779-6.916-10.233-11.161-17.228-15.158c-4.398-2.513-8.975-4.65-13.618-6.368c-9.276-3.434-18.841-5.201-27.743-4.933     c-4.465,0.134-8.938,0.826-11.812,3.308C300.079,161.984,299.588,162.569,299.193,163.217z"/>
		</g>
		<g>
			<g style="opacity:0.8;">
				<g>
					<path style="fill:#00B2A7;" d="M82.83,240.092c0,20.183-16.365,36.548-36.547,36.548S9.736,260.275,9.736,240.092       c0-20.182,16.365-36.544,36.547-36.544S82.83,219.91,82.83,240.092z"/>
					<path style="fill:#00B2A7;" d="M82.83,240.092c0,20.183-16.365,36.548-36.547,36.548S9.736,260.275,9.736,240.092       c0-20.182,16.365-36.544,36.547-36.544S82.83,219.91,82.83,240.092z"/>
					<path style="opacity:0.41;fill:#00B2A7;" d="M80.911,246.416c-3.94,18.2-22.64,29.594-41.762,25.459       c-19.125-4.147-31.432-22.253-27.489-40.451c3.942-18.197,22.634-29.592,41.759-25.451       C72.542,210.116,84.851,228.22,80.911,246.416z"/>
					<path style="opacity:0.32;fill:#FFFFFF;" d="M77.655,237.482c-0.219,2.121-0.959,4.178-2.415,6.157       c-3.149,4.304-8.188,4.986-12.498,1.875c-5.428-3.918-6.59-11.274-13.305-14.275c-6.224-2.777-14.982-2.614-18.276-9.657       c-2.557-5.457,1.271-9.705,5.805-11.734c6.348-2.837,12.831-2.051,19.36-0.171c9.588,2.755,17.37,10.706,20.332,20.174       C77.472,232.469,77.915,235.018,77.655,237.482z"/>
					<path style="opacity:0.32;fill:#FFFFFF;" d="M22.773,255.575c0.011-1.117,0.297-2.225,0.96-3.327       c1.432-2.397,4.026-2.998,6.425-1.586c3.021,1.779,3.984,5.558,7.631,6.795c3.38,1.145,7.938,0.634,9.999,4.146       c1.598,2.721-0.19,5.122-2.456,6.4c-3.172,1.788-6.59,1.694-10.086,1.031c-5.133-0.97-9.577-4.737-11.582-9.53       C23.112,258.179,22.757,256.872,22.773,255.575z"/>
					<path style="fill:#00B2A7;" d="M60.82,216.559c-0.527,2.214-4.542,3.152-8.962,2.102c-4.422-1.046-7.582-3.69-7.053-5.9       c0.524-2.212,4.532-3.157,8.957-2.102C58.186,211.706,61.341,214.35,60.82,216.559z M68.724,221.814       c-1.869-2.119-4.253-3.083-5.316-2.142c-1.062,0.936-0.399,3.415,1.473,5.538c1.875,2.122,4.255,3.079,5.32,2.145       C71.259,226.417,70.601,223.938,68.724,221.814z"/>
				</g>
			</g>
			<g style="opacity:0.8;">
				<g>
					<path style="fill:#00B2A7;" d="M59.304,177.046c0,13.188-10.693,23.881-23.88,23.881c-13.187,0-23.88-10.693-23.88-23.881       c0-13.187,10.693-23.878,23.88-23.878C48.611,153.168,59.304,163.859,59.304,177.046z"/>
					<path style="fill:#00B2A7;" d="M59.304,177.046c0,13.188-10.693,23.881-23.88,23.881c-13.187,0-23.88-10.693-23.88-23.881       c0-13.187,10.693-23.878,23.88-23.878C48.611,153.168,59.304,163.859,59.304,177.046z"/>
					<path style="opacity:0.41;fill:#00B2A7;" d="M58.05,181.178c-2.574,11.892-14.793,19.337-27.288,16.635       c-12.497-2.71-20.538-14.54-17.962-26.431c2.576-11.89,14.789-19.335,27.285-16.63C52.582,157.46,60.625,169.289,58.05,181.178       z"/>
					<path style="opacity:0.32;fill:#FFFFFF;" d="M55.923,175.341c-0.143,1.386-0.626,2.73-1.578,4.023       c-2.057,2.812-5.35,3.258-8.167,1.225c-3.546-2.56-4.306-7.367-8.694-9.327c-4.067-1.815-9.789-1.708-11.942-6.31       c-1.67-3.566,0.83-6.341,3.793-7.667c4.148-1.854,8.384-1.34,12.65-0.112c6.265,1.8,11.35,6.996,13.285,13.182       C55.803,172.066,56.092,173.731,55.923,175.341z"/>
					<path style="opacity:0.32;fill:#FFFFFF;" d="M20.062,187.163c0.007-0.73,0.194-1.454,0.627-2.174       c0.936-1.566,2.631-1.959,4.198-1.036c1.974,1.162,2.603,3.631,4.986,4.44c2.209,0.748,5.187,0.414,6.533,2.709       c1.044,1.778-0.124,3.347-1.605,4.182c-2.072,1.168-4.306,1.107-6.59,0.674c-3.354-0.634-6.258-3.095-7.568-6.227       C20.284,188.865,20.052,188.011,20.062,187.163z"/>
					<path style="fill:#00B2A7;" d="M44.922,161.67c-0.344,1.447-2.968,2.059-5.856,1.373c-2.89-0.684-4.954-2.411-4.609-3.855       c0.342-1.446,2.961-2.063,5.852-1.374C43.202,158.499,45.263,160.226,44.922,161.67z M50.087,165.103       c-1.221-1.385-2.779-2.015-3.473-1.4c-0.694,0.611-0.26,2.231,0.963,3.619c1.225,1.387,2.78,2.012,3.476,1.402       C51.743,168.111,51.313,166.491,50.087,165.103z"/>
				</g>
			</g>
			<g style="opacity:0.8;">
				<g>
					<path style="fill:#00B2A7;" d="M178.908,98.733c0,7.163-5.808,12.971-12.97,12.971c-7.163,0-12.97-5.808-12.97-12.971       c0-7.163,5.808-12.969,12.97-12.969C173.1,85.764,178.908,91.571,178.908,98.733z"/>
					<path style="fill:#00B2A7;" d="M178.908,98.733c0,7.163-5.808,12.971-12.97,12.971c-7.163,0-12.97-5.808-12.97-12.971       c0-7.163,5.808-12.969,12.97-12.969C173.1,85.764,178.908,91.571,178.908,98.733z"/>
					<path style="opacity:0.41;fill:#00B2A7;" d="M178.227,100.978c-1.398,6.459-8.035,10.503-14.821,9.036       c-6.787-1.472-11.155-7.898-9.756-14.356c1.399-6.458,8.033-10.502,14.82-9.033C175.257,88.095,179.625,94.52,178.227,100.978z       "/>
					<path style="opacity:0.32;fill:#FFFFFF;" d="M177.071,97.807c-0.078,0.753-0.34,1.483-0.857,2.185       c-1.118,1.528-2.906,1.77-4.436,0.665c-1.926-1.39-2.339-4.001-4.722-5.066c-2.209-0.986-5.317-0.928-6.486-3.427       c-0.907-1.937,0.451-3.444,2.06-4.164c2.253-1.007,4.553-0.728,6.871-0.061c3.403,0.978,6.165,3.8,7.216,7.16       C177.006,96.028,177.163,96.933,177.071,97.807z"/>
					<path style="opacity:0.32;fill:#FFFFFF;" d="M157.594,104.228c0.004-0.396,0.105-0.79,0.341-1.181       c0.508-0.851,1.429-1.064,2.28-0.563c1.072,0.631,1.414,1.972,2.708,2.412c1.2,0.406,2.817,0.225,3.548,1.471       c0.567,0.966-0.068,1.818-0.872,2.271c-1.126,0.634-2.339,0.601-3.579,0.366c-1.822-0.344-3.399-1.681-4.11-3.382       C157.714,105.153,157.588,104.689,157.594,104.228z"/>
					<path style="fill:#00B2A7;" d="M171.097,90.382c-0.187,0.786-1.612,1.119-3.18,0.746c-1.57-0.371-2.691-1.31-2.503-2.094       c0.186-0.785,1.609-1.12,3.179-0.746C170.162,88.659,171.282,89.598,171.097,90.382z M173.902,92.247       c-0.663-0.752-1.509-1.094-1.887-0.76c-0.377,0.332-0.141,1.212,0.523,1.965c0.665,0.753,1.51,1.093,1.888,0.761       C174.801,93.88,174.568,93,173.902,92.247z"/>
				</g>
			</g>
		</g>
	</g>
</g>















</svg>
