<?xml version="1.0" encoding="UTF-8"?>
<!-- Generator: Adobe Illustrator 27.1.1, SVG Export Plug-In . SVG Version: 6.00 Build 0)  -->
<svg xmlns="http://www.w3.org/2000/svg" xmlns:xlink="http://www.w3.org/1999/xlink" version="1.1" id="Capa_1" x="0px" y="0px" viewBox="0 0 512 512" style="enable-background:new 0 0 512 512;" xml:space="preserve" width="512" height="512">
<g>
	<path style="fill:#FFFFFF;" d="M510.06,445.948c-8.675-13.255-15.199-27.193-19.388-41.425c-1.016-3.449-3.825-6.055-7.305-6.83   c4.312-2.317,8.016-5.855,10.475-10.127c6.17,0.15,11.206-6.276,9.51-12.262c-0.904-3.572-0.704-7.9-0.491-12.482   c1.339-12.098-1.876-28.43-11.445-34.945c-3.769-32.612-6.858-79.439-27.726-105.578c19.186-50.694,3.702-115.734-59.6-122.01   c-28.189-3.902-57.735,2.248-79.737,19.923c-5.402-9.734-12.035-18.115-19.852-25.086c4.247-4.424,3.007-12.352-2.461-15.23   c-3.682-2.062-7.612-3.668-11.689-4.791c8.149-5.043,4.266-18.299-5.353-18.108c-8.829,0.153-17.513,2.077-25.538,5.603   c-5.364-6.364-13.066-13.835-21.645-14.959c-5.242-0.137-9.986,4.603-9.847,9.842c-9.508-2.856-35.447-5.53-34.998,9.478   c0.16,3.213,1.861,6.045,4.413,7.73c-13.654,4.265-26.036,11.324-37.054,21.134c-19.309-25.266-51.8-39.294-84.208-39.712   c-49.874-0.539-74.922,46.129-76.025,89.292c-1.911,50.131,24.802,95.837,52.415,136.994c7.269,10.997,15.49,22.072,28.912,26.107   c19.793,5.294,37.977-5.381,54.672-13.394c1.017,0.892,2.063,1.767,3.136,2.625c-10.004,0.655-18.949,6.853-23.5,16.163   c-9.674,18.376,0.212,37.619,16.785,45.896c-4.703-1.182-10.377,1.308-12.044,6.716l-1.755-2.544   c-5.289-8.006-18.425-3.727-17.945,5.868c0.941,33.454-15.124,67.562-20.069,77.219c-1.858,3.624-1.698,7.868,0.429,11.35   c2.24,3.666,6.416,5.943,10.899,5.943h407.355C508.75,464.693,515.49,453.812,510.06,445.948z"/>
	<g>
		<path style="fill:#00B2A7;" d="M501.821,451.344c-9.205-14.064-16.132-28.87-20.597-44.038l-13.289,19.263    c-4.052-5.948-6.092-12.573-5.903-19.171c-4.065,8.936-9.33,17.601-15.7,25.84c-6.777-10.194-9.216-21.51-11.578-32.646    c-4.476,10.035-6.936,20.517-7.281,31.034c-7.605-4.826-12.201-11.933-12.385-19.149c-1.944,6.168-5.763,12.038-11.125,17.098    c-6.068-2.325-10.146-7.039-10.305-11.91c-0.661,0.833-1.375,1.645-2.114,2.445c-4.754-9.216-4.411-35.446-7.238-45.049    l-15.246,21.385c-4.052-5.948-4.135-14.695-3.946-21.294c-4.065,8.936-9.33,17.601-15.7,25.84    c-6.777-10.193-9.215-21.51-11.578-32.645c-3.412,7.649-11.748,36.707-14.027,34.227c-0.018-0.019-9.417-2.802-11.765-8.532    c-2.137-5.215-5.229-12.827-6.582-17.422l-13.29,19.263c-4.052-5.948-6.092-12.573-5.903-19.171    c-4.065,8.936-9.33,17.601-15.7,25.84c-6.777-10.193-9.215-21.51-11.578-32.646c-4.476,10.035-6.936,20.517-7.281,31.034    c-7.605-4.826-12.201-11.933-12.385-19.149c-1.717,5.447-4.9,10.659-9.312,15.289l-7.834-1.834    c-2.602-2.355-4.186-5.278-4.283-8.266c-1.476,1.86-3.16,3.635-5.008,5.322c-5.936-3.434-10.958-7.652-14.708-12.378    c-0.159,4.871-4.238,9.585-10.305,11.91c-5.362-5.06-9.181-10.93-11.125-17.098c-0.183,7.216-4.78,14.323-12.385,19.149    c-0.346-10.518-2.805-20.999-7.282-31.034c-2.362,11.135-4.8,22.452-11.578,32.645c-6.37-8.239-11.634-16.903-15.7-25.84    c0.189,6.598-1.85,13.223-5.903,19.171l-13.289-19.263c1.007,35.779-15.85,71.64-21.148,81.985    c-0.729,1.422,0.611,2.959,2.565,2.959h407.355C501.457,454.508,502.768,452.79,501.821,451.344z"/>
		<g>
			<g>
				<g>
					<path style="fill:#C2B2BC;" d="M270.09,348.659l-51.523,86.41c-2.535,4.252-8.13,5.814-13.311,3.801       c-4.237-1.648-8.37-3.47-12.411-5.446c-0.469-0.23-0.947-0.466-1.41-0.705c-4.506-2.254-6.66-7.969-10.91-10.652       c-0.774-0.486-26.175-19.562-23.656-23.786l3.221-5.402l48.302-81.008L270.09,348.659z"/>
					<path style="opacity:0.18;fill:#192037;" d="M270.09,348.659l-51.523,86.41c-2.535,4.252-8.13,5.814-13.311,3.801       c-4.237-1.648-8.37-3.47-12.411-5.446c-0.469-0.23-0.947-0.466-1.41-0.705c-4.506-2.254-6.66-7.969-10.91-10.652       c-0.774-0.486-26.175-19.562-23.656-23.786l3.221-5.402l48.302-81.008L270.09,348.659z"/>
					<path style="fill:#F7D7B6;" d="M189.559,415.534c-2.71-1.616-5.884-1.851-8.716-0.918c0.033-3.728-1.782-7.321-5.112-9.307       c-1.697-1.012-3.549-1.473-5.398-1.463c0.11-3.793-1.713-7.478-5.107-9.502c-1.606-0.958-3.377-1.432-5.136-1.467l-3.221,5.402       c-2.519,4.225-1.263,9.834,2.905,13.445c0.031,0.031,0.058,0.047,0.089,0.078c0.848,0.716,1.704,1.436,2.562,2.134       c0.135,0.105,0.279,0.216,0.409,0.331c0.113,0.08,0.221,0.169,0.329,0.258c3.358,2.707,6.817,5.265,10.36,7.662       c0.761,0.528,1.524,1.033,2.296,1.542c0.055,0.033,0.113,0.08,0.168,0.112c0.778,0.501,1.546,0.996,2.32,1.482       c4.251,2.683,8.623,5.141,13.129,7.395c0.609-0.627,1.157-1.339,1.63-2.132C196.214,425.303,194.641,418.564,189.559,415.534z"/>
				</g>
				<g>
					<path style="fill:#C2B2BC;" d="M482.997,358.095c-0.431-29.439-3.739-58.834-9.86-87.632       c-2.367-11.137-5.206-22.322-10.623-32.337c-5.177-9.572-12.976-18.072-22.935-22.37       c-22.348-31.78-57.81-52.115-101.216-51.528c-74.906,1.012-134.809,62.557-133.796,137.463       c0.161,11.88,1.554,21.435,4.079,29.106c1.265,3.843,2.454,7.711,3.402,11.644l6.208,25.736       c4.668,19.35,7.026,39.185,7.026,59.089l0,0l0.085,6.288c0.067,4.918,31.696,7.866,32.61,7.875       c5.026,0.06,9.854,3.801,14.873,3.361c0.52-0.039,1.051-0.089,1.57-0.138c4.478-0.432,8.953-1.045,13.425-1.86       c5.469-0.998,9.417-5.259,9.35-10.209l-0.412-30.491c10.035,3.173,21.246,4.828,33.082,4.828       c14.646,0,28.341-2.524,40.024-7.339l0.282,20.882l0.085,6.288c0.066,4.918,31.696,7.866,32.61,7.875       c5.026,0.06,9.854,3.801,14.873,3.361c0.52-0.039,1.051-0.089,1.57-0.138c4.478-0.432,8.953-1.045,13.425-1.86       c5.469-0.998,9.417-5.259,9.35-10.209l-0.371-27.493c-0.184-13.62,1.57-27.203,5.289-40.306       c0.396-1.396,0.637-2.169,0.637-2.169l0,0c1.857-5.851,4.583-11.397,8.19-16.364c6.482-8.924,9.955-21.734,9.707-40.038       c-0.187-13.857-2.099-27.246-5.556-39.862c9.65,18.687,14.858,45.198,17.526,98.933       C479.336,358.351,481.166,358.223,482.997,358.095z"/>
					<path style="opacity:0.05;fill:#192037;" d="M477.51,358.48c-2.67-53.73-7.88-80.25-17.53-98.93c3.46,12.61,5.37,26,5.56,39.86       c0.24,18.3-3.23,31.11-9.71,40.04c-1.81,2.48-3.39,5.11-4.75,7.85c-1.36,2.74-2.51,5.58-3.44,8.51c0,0-0.24,0.77-0.64,2.17       c-3.72,13.1-5.47,26.69-5.29,40.31l0.37,27.49c0.07,4.95-3.88,9.21-9.35,10.21c-4.47,0.81-8.94,1.43-13.42,1.86       c-0.52,0.05-1.05,0.1-1.57,0.14c-5.02,0.44-9.85-3.31-14.87-3.36c-0.92-0.01-32.55-2.96-32.61-7.88l-0.09-6.29l-0.28-20.88       c-0.04,0.02-0.08,0.03-0.12,0.05c-9.33,3.82-19.94,6.2-31.3,6.99c-2.83,0.2-5.7,0.3-8.61,0.3c-0.46,0-0.92,0-1.38-0.01       c-11.32-0.12-22.05-1.77-31.7-4.82l0.42,30.49c0.06,4.95-3.89,9.21-9.35,10.21c-4.48,0.82-8.95,1.43-13.43,1.86       c-0.52,0.05-1.05,0.1-1.57,0.14c-5.02,0.44-9.85-3.3-14.87-3.36c-0.92-0.01-32.55-2.96-32.61-7.88l-0.09-6.29       c0-19.9-2.36-39.73-7.02-59.08l-6.21-25.74c-0.95-3.93-2.14-7.8-3.4-11.64c-2.53-7.68-3.92-17.23-4.08-29.11       c-1.02-74.91,58.89-136.45,133.79-137.46c43.41-0.59,78.87,19.74,101.22,51.52c9.96,4.3,17.76,12.8,22.93,22.38       c5.42,10.01,8.26,21.2,10.63,32.33c6.12,28.8,9.43,58.2,9.86,87.63C481.17,358.22,479.34,358.35,477.51,358.48z"/>
					<g style="opacity:0.63;">
						<path style="opacity:0.19;fill:#192037;" d="M370.17,378.03l-0.4,21.6c-9.33,3.82-19.94,6.2-31.3,6.99        C363.625,402.686,370.17,378.03,370.17,378.03z"/>
						<path style="opacity:0.19;fill:#192037;" d="M328.48,406.91c-11.32-0.12-22.05-1.77-31.7-4.82l-1.081-24.064        C295.699,378.026,301.993,398.199,328.48,406.91z"/>
					</g>
					<path style="opacity:0.05;fill:#192037;" d="M212.443,344.078l0.162,0.672c8.279-4.079,15.08-11.021,21.643-17.413       c0.125-0.122,0.34-0.21,0.515-0.144c2.523,0.959,5.1,1.761,7.72,2.41c10.9,2.7,22.294,2.971,33.457,2.359       c2.16-0.118,4.398-0.12,6.52-0.576c1.854-0.399,3.663-0.996,5.464-1.585c3.279-1.071,6.955-2.737,10.47-2.667       c2.912,0.058,5.632,2.767,7.664,4.573c3.105,2.76,5.944,5.801,9.005,8.607c3.519,3.225,8.179,5.398,12.515,7.312       c4.967,2.193,10.226,3.809,15.624,4.482c10.533,1.314,20.563-1.562,29.845-6.391c9.186-4.78,17.595-11.029,25.403-17.798       c7.304-6.331,14.048-13.231,20.369-20.537c7.356-8.504,13.429-18.025,18.653-27.963c5.66-10.768,10.69-21.931,15.411-33.138       c1.249-2.965,2.432-5.92,3.223-9.045c0.583-2.303,0.999-4.645,1.315-6.999c-4.738-6.206-10.736-11.416-17.84-14.482       c-22.348-31.78-57.81-52.115-101.216-51.528c-74.906,1.012-134.809,62.557-133.796,137.463       c0.157,11.584,1.485,20.957,3.893,28.529C209.916,334.802,211.316,339.403,212.443,344.078z"/>
					<path style="opacity:0.2;fill:#FFFFFF;" d="M452.147,298.184c-2.292-2.451-5.431-4.149-8.078-3.734       c-2.391,0.375-3.889,2.306-4.973,4.337c-2.768,5.184-3.761,11.504-6.027,17.029c-1.972,4.807-4.901,8.997-6.49,14.032       c-0.632,2.004-1.048,4.178-0.716,6.517c0.332,2.338,1.5,4.874,3.467,6.624c1.87,1.664,4.253,2.438,6.384,2.501       c5.87,0.172,9.352-3.01,12.604-6.736c2.045-2.343,3.759-5.001,5.11-7.904c2.699-5.799,3.949-12.594,3.459-19.796       c-0.246-3.612-0.974-7.487-3.204-10.914C453.239,299.455,452.719,298.796,452.147,298.184z"/>
					<path style="fill:#F7D7B6;" d="M262.254,431.132c-3.155,0.043-5.982,1.504-7.907,3.783c-1.924-3.193-5.352-5.304-9.229-5.251       c-1.976,0.027-3.795,0.604-5.365,1.581c-1.893-3.289-5.375-5.473-9.327-5.42c-1.87,0.025-3.626,0.548-5.144,1.44l0.085,6.289       c0.067,4.918,4.075,9.039,9.516,9.932c0.043,0.01,0.074,0.01,0.117,0.02c1.097,0.166,2.204,0.331,3.3,0.476       c0.17,0.019,0.351,0.038,0.521,0.067c0.138,0.009,0.277,0.028,0.415,0.048c4.278,0.548,8.565,0.915,12.838,1.101       c0.925,0.051,1.839,0.081,2.764,0.111c0.064-0.001,0.138,0.009,0.202,0.008c0.925,0.019,1.839,0.039,2.752,0.048       c5.026,0.06,10.038-0.136,15.057-0.575c0.19-0.853,0.284-1.746,0.272-2.67C273.039,435.969,268.17,431.052,262.254,431.132z"/>
					<path style="fill:#F7D7B6;" d="M407.143,424.329c-3.155,0.043-5.982,1.505-7.906,3.783c-1.924-3.193-5.352-5.303-9.229-5.251       c-1.976,0.027-3.795,0.604-5.365,1.581c-1.893-3.289-5.375-5.473-9.327-5.42c-1.87,0.025-3.626,0.548-5.144,1.44l0.085,6.288       c0.066,4.918,4.075,9.039,9.516,9.933c0.043,0.01,0.075,0.01,0.117,0.02c1.097,0.166,2.204,0.331,3.3,0.476       c0.17,0.019,0.351,0.038,0.521,0.067c0.138,0.009,0.277,0.028,0.415,0.047c4.278,0.548,8.565,0.915,12.838,1.102       c0.925,0.051,1.839,0.081,2.764,0.111c0.064-0.001,0.138,0.009,0.202,0.008c0.925,0.019,1.839,0.039,2.752,0.048       c5.026,0.06,10.038-0.136,15.057-0.575c0.19-0.853,0.285-1.746,0.272-2.67C417.928,429.166,413.06,424.249,407.143,424.329z"/>
					<path style="fill:#9C3621;" d="M493.806,377.723c-1.31-5.174-1-10.599-0.755-15.93c0.245-5.331,0.401-10.786-1.193-15.88       c-1.593-5.093-4.381-10.24-9.516-11.691c-1.732,2.485-3.785,3.229-6.27,1.631c-7.507,7.506-8.953,22.671-5.401,32.675       c1.337,3.767,3.469,7.237,4.537,11.089s0.84,8.441-2,11.253c4.426-0.669,8.547-3.174,11.177-6.796       c2.631-3.622,3.739-8.315,3.005-12.732C488.528,374.23,490.912,376.601,493.806,377.723z"/>
				</g>
			</g>
			<g>
				<g>
					<path style="fill:#C2B2BC;" d="M459.771,161.84c-2.681-13.573-8.721-26.842-19.018-36.082       c-10.353-9.29-24.202-13.841-37.986-15.709c-17.461-2.366-35.612-0.723-51.919,5.95c-16.308,6.672-30.663,18.529-39.222,33.931       l-35.038,129.645c11.102,16.056,24.557,30.482,39.804,42.671c7.494,5.992,16.093,11.673,25.688,11.691       c10.997,0.021,20.468-7.318,28.93-14.341c24.433-20.279,48.84-41.316,66.583-67.648S465.924,192.991,459.771,161.84z"/>
					<path style="opacity:0.2;fill:#FFFFFF;" d="M427.936,127.329c-4.322-0.685-8.914,0.084-11.305,2.633       c-2.16,2.302-2.153,5.491-1.641,8.45c1.308,7.553,5.353,14.852,7.45,22.354c1.825,6.527,2.169,13.186,4.571,19.641       c0.956,2.569,2.271,5.139,4.487,7.28c2.216,2.14,5.451,3.813,8.878,4.036c3.258,0.213,6.33-0.9,8.574-2.545       c6.177-4.528,7.211-10.594,7.569-17.036c0.226-4.05-0.141-8.159-1.077-12.229c-1.872-8.131-6.033-16.124-12.31-23.142       c-3.148-3.52-7.004-6.923-12.045-8.662C430.079,127.762,429.016,127.5,427.936,127.329z"/>
					<path style="fill:#F57486;" d="M421.621,191.769c-1.912-9.678-6.219-19.139-13.561-25.728       c-7.382-6.624-17.257-9.87-27.085-11.201c-12.45-1.687-25.392-0.515-37.021,4.242c-11.628,4.758-21.863,13.212-27.966,24.194       l-24.983,92.442c7.916,11.449,17.51,21.734,28.382,30.426c5.343,4.272,11.475,8.323,18.317,8.336       c7.841,0.015,14.595-5.218,20.629-10.226c17.422-14.46,34.824-29.46,47.476-48.235S426.008,213.981,421.621,191.769z"/>
					<path style="opacity:0.3;fill:#192037;" d="M421.621,191.769c-1.912-9.678-6.219-19.139-13.561-25.728       c-7.382-6.624-17.257-9.87-27.085-11.201c-12.45-1.687-25.392-0.515-37.021,4.242c-11.628,4.758-21.863,13.212-27.966,24.194       l-24.983,92.442c7.916,11.449,17.51,21.734,28.382,30.426c5.343,4.272,11.475,8.323,18.317,8.336       c7.841,0.015,14.595-5.218,20.629-10.226c17.422-14.46,34.824-29.46,47.476-48.235S426.008,213.981,421.621,191.769z"/>
				</g>
				<g>
					<path style="fill:#C2B2BC;" d="M21.475,100.269c6.498-12.214,16.124-23.163,28.656-29.024c12.6-5.892,27.174-6.236,40.908-4.03       c17.397,2.794,34.294,9.626,47.969,20.737c13.675,11.111,23.979,26.618,27.708,43.839l-4.027,134.236       c-15.277,12.151-32.335,22.059-50.459,29.309c-8.909,3.564-18.785,6.509-27.974,3.746       c-10.531-3.166-17.47-12.934-23.535-22.108c-17.51-26.488-34.774-53.694-44.128-84.038       C7.241,162.594,6.561,128.301,21.475,100.269z"/>
					<path style="opacity:0.2;fill:#FFFFFF;" d="M54.76,89.623c-2.148,3.813-3.028,8.384-1.472,11.514       c1.405,2.827,4.396,3.932,7.348,4.483c7.536,1.407,15.786,0.16,23.549,0.809c6.753,0.565,13.115,2.563,20.002,2.561       c2.742-0.001,5.609-0.337,8.387-1.668c2.778-1.331,5.474-3.78,6.877-6.914c1.335-2.979,1.363-6.247,0.603-8.923       c-2.091-7.368-7.417-10.451-13.329-13.032c-3.718-1.623-7.696-2.712-11.838-3.252c-8.274-1.08-17.216,0.034-25.982,3.472       c-4.396,1.724-8.93,4.152-12.317,8.271C55.912,87.766,55.296,88.671,54.76,89.623z"/>
					<path style="fill:#F57486;" d="M49.318,139.968c4.634-8.709,11.497-16.517,20.433-20.695       c8.984-4.201,19.376-4.446,29.169-2.874c12.405,1.992,24.453,6.864,34.204,14.786c9.751,7.923,17.098,18.98,19.757,31.259       l-2.871,95.715c-10.893,8.664-23.056,15.729-35.98,20.898c-6.352,2.541-13.394,4.641-19.946,2.671       c-7.509-2.258-12.457-9.222-16.781-15.764c-12.485-18.887-24.796-38.286-31.465-59.922       C39.168,184.407,38.683,159.955,49.318,139.968z"/>
					<path style="opacity:0.3;fill:#192037;" d="M49.318,139.968c4.634-8.709,11.497-16.517,20.433-20.695       c8.984-4.201,19.376-4.446,29.169-2.874c12.405,1.992,24.453,6.864,34.204,14.786c9.751,7.923,17.098,18.98,19.757,31.259       l-2.871,95.715c-10.893,8.664-23.056,15.729-35.98,20.898c-6.352,2.541-13.394,4.641-19.946,2.671       c-7.509-2.258-12.457-9.222-16.781-15.764c-12.485-18.887-24.796-38.286-31.465-59.922       C39.168,184.407,38.683,159.955,49.318,139.968z"/>
				</g>
				<g>
					<path style="fill:#C2B2BC;" d="M330.733,238.151c-0.228,2.557-0.525,5.046-0.868,7.465c0,0-22.772,54.851-48.085,64.211       c-17.38,6.455-38.368,7.922-61.348,5.853c-31.702-2.845-60.721-11.836-79.785-29.721c0,0-17.885-38.524-15.198-68.466       c0.359-3.976-6.048-10.565-6.048-10.565c8.038-58.477,37.593-124.671,107.047-127.175c-6.09-6.93-14.54-11.799-23.648-13.277       c13.189-3.518,28.058,0.082,38.177,9.247c-1.06-6.076-2.107-12.154-3.167-18.23c7.861,3.763,14.38,10.235,18.203,18.061       c8.638-5.449,18.765-8.491,28.979-8.706c-7.483,3.863-13.842,9.894-18.09,17.178c10.206-2.259,21.211-0.636,30.325,4.466       c-4.578,0.618-9.039,2.015-13.199,4.033C332.454,119.93,335.457,185.545,330.733,238.151z"/>
					<path style="opacity:0.2;fill:#FFFFFF;" d="M271.665,100.289c-3.253,0.831-6.253,2.769-7.163,5.291       c-0.822,2.278,0.152,4.522,1.413,6.45c3.217,4.923,8.284,8.834,12.042,13.481c3.269,4.043,5.535,8.629,9.189,12.445       c1.454,1.519,3.161,2.93,5.373,3.764c2.211,0.834,4.998,1.029,7.48,0.145c2.359-0.84,4.185-2.558,5.266-4.398       c2.975-5.067,1.859-9.654,0.154-14.3c-1.072-2.921-2.579-5.704-4.476-8.286c-3.79-5.158-9.15-9.524-15.705-12.559       c-3.287-1.522-7.038-2.748-11.117-2.44C273.306,99.942,272.478,100.081,271.665,100.289z"/>
					<path style="opacity:0.18;fill:#192037;" d="M184.092,270.532c1.212-3.845,2.435-7.697,3.521-11.58       c1.166-4.169,2.017-8.423,2.808-12.676c1.201-6.458,2.246-12.971,3.939-19.32c-0.871,1.587-1.855,3.117-2.863,4.617       c-1.013,1.508-2.058,2.993-3.057,4.509c-1.157,1.755-2.153,3.63-3.224,5.439c-3.928,6.634-7.965,13.204-11.969,19.793       c-3.845,6.328-7.551,12.74-11.427,19.048c-3.044,4.953-6.125,9.934-9.436,14.743c5.89,3.826,12.373,7.073,19.306,9.804       C176.399,293.672,180.429,282.148,184.092,270.532z"/>
					<path style="opacity:0.18;fill:#192037;" d="M249.946,227.832c-6.849,4.115-8.473,33.39-14.753,38.334       c-10.582,8.331-19.68,18.609-27.712,29.375c-4.008,5.372-7.764,10.919-11.397,16.549c7.845,1.652,15.999,2.842,24.349,3.591       C220.433,315.68,264.599,262.273,249.946,227.832z"/>
					<g>
						<g>
							<path style="fill:#192037;" d="M246.027,276.93c0,0,8.24-1.34,18.272-10.113c10.487-9.171,12.43-20.348,12.43-20.348         c0.263-0.392,0.812-0.497,1.182-0.188c1.002,16.395-14.503,34.187-31.642,32.186         C245.487,278.386,245.31,277.236,246.027,276.93L246.027,276.93z"/>
						</g>
					</g>
					<g>
						<path style="fill:#C2B2BC;" d="M189.923,225.17c-8.636,28.433-25.786,82.625-34.76,95.361        c-1.889-6.122-6.361-14.334-16.667-12.816c-6.095,0.898-11.213,4.985-13.922,10.519c-3.163,6.462-5.316,16.358,3.233,25.943        c4.034,4.524,9.476,7.536,15.356,9.009c39.118,9.794,80.859-42.412,102.653-96.253c4.081-10.081,5.616-21.088,3.712-31.796        c-2.988-16.801-12.342-24.018-24.526-24.818C209.026,199.269,194.576,209.851,189.923,225.17z"/>
						<path style="opacity:0.18;fill:#192037;" d="M155.162,320.531c0,0-0.461,9.125-10.636,10.523        c-4.225,0.581-12.434-4.471-5.828-15.105c0,0-1.441,6.287,3.499,8.734c2.357,1.168,5.219,0.865,7.347-0.681        c1.843-1.339,3.732-3.735,3.825-7.947L155.162,320.531z"/>
					</g>
				</g>
				<g>
					<g>
						<path style="fill:#192037;" d="M262.907,150.47c8.089,2.112,15.047,5.023,21.625,9.855        c6.815,4.692,11.825,10.773,18.139,16.445c0.368,0.366,0.985,0.362,1.318-0.051c-2.448-17.903-23.049-33.784-41.152-27.959        C262.01,149.014,262.066,150.292,262.907,150.47L262.907,150.47z"/>
					</g>
					<g>
						<path style="fill:#192037;" d="M156.096,167.593c6.57-5.169,13.094-8.955,20.918-11.277        c7.857-2.595,15.729-2.913,24.064-4.517c0.515-0.072,0.884-0.566,0.755-1.081c-15.745-8.867-40.847-2.048-47.144,15.897        C154.393,167.429,155.446,168.156,156.096,167.593L156.096,167.593z"/>
					</g>
					<path style="fill:#F57486;" d="M329.865,245.616c-5.1,34.931-22.772,54.851-48.085,64.211       c-7.731-8.631-11.765-20.488-10.057-32.868c3.095-22.382,23.738-38.027,46.12-34.944       C322.118,242.606,326.158,243.837,329.865,245.616z"/>
					<path style="fill:#F57486;" d="M170.148,252.136c-2.301,16.643-14.292,29.56-29.499,33.823       c-16.286-15.259-25.318-36.992-22.632-66.934c0.359-3.976,0.812-8.011,1.386-12.097c5.01-1.302,10.356-1.66,15.801-0.912       C157.584,209.099,173.23,229.755,170.148,252.136z"/>
					<g>
						<g>
							<path style="fill:#192037;" d="M269.631,213.954c-1.092,11.022,2.324,20.385,7.631,20.912         c5.307,0.527,10.495-7.98,11.587-19.002c1.092-11.022-2.325-20.385-7.632-20.913         C275.911,194.425,270.723,202.932,269.631,213.954z"/>
						</g>
					</g>
					<g>
						<g>
							<path style="fill:#192037;" d="M168.393,201.209c-1.092,11.023,2.324,20.385,7.631,20.913         c5.307,0.527,10.495-7.981,11.587-19.003c1.093-11.022-2.324-20.385-7.631-20.912         C174.673,181.68,169.486,190.188,168.393,201.209z"/>
						</g>
					</g>
				</g>
			</g>
		</g>
	</g>
</g>















</svg>
