<?xml version="1.0" encoding="UTF-8"?>
<!-- Generator: Adobe Illustrator 27.1.1, SVG Export Plug-In . SVG Version: 6.00 Build 0)  -->
<svg xmlns="http://www.w3.org/2000/svg" xmlns:xlink="http://www.w3.org/1999/xlink" version="1.1" id="Capa_1" x="0px" y="0px" viewBox="0 0 512 512" style="enable-background:new 0 0 512 512;" xml:space="preserve" width="512" height="512">
<g>
	<path style="fill:#FFFFFF;" d="M405.075,45.862c-4.264-3.391-10.296-2.444-13.838,1.544c0.818-5.338,1.136-10.847-4.106-14.05   c-9.333-5.816-19.289-10.968-29.591-15.315c-3.566-1.51-7.744-0.779-10.59,1.916c-3.705,3.501-8.744,8.18-13.764,12.816   l1.49-14.516c0.495-4.821-2.593-9.286-7.278-10.524C307.986,2.602,287.758,0,267.277,0c-24.094,0-47.674,3.568-70.086,10.604   c-10.203,3.53-6.014,14.283-5.634,22.165c-6.791-5.162-12.181-15.65-21.534-11.627c-18.185,8.448-34.806,19.237-49.4,32.068   c-2.676,2.32-3.9,6.083-3.11,9.532c-3.554-0.437-7.374,0.153-9.869,2.96C78.12,96.859,60.677,137.329,60.777,179.874   c-0.836,6.027,3.366,12.521,9.885,12.34c3.433-0.223,6.89-0.744,10.476-1.081l-14.009,15.316   c-9.015,8.023,12.214,49.112,18.257,58.636c-13.46-3.263-28.302-2.376-41.065,2.733c-10.656,4.271-6.441,20.352,4.882,18.926   c3.609,0.556,6.372,7.285,7.877,11.181c5.726,16.534,20.318,30.388,37.966,32.912c-1.952,1.863-3.111,4.501-3.049,7.343   c0.25,11.34-0.787,23.704-3.084,36.798c-40.437,35.96-27.576,95.839,25.991,107.976c4.901,20.237,27.926,27.511,46.629,28.448   c1.911,0.203,3.891-0.192,5.536-1.058c8.053,1.873,16.514,2.177,24.646,0.809c12.021-0.605,51.263-21.044,38.658-35.794   c-1.926-2.125-4.599-3.235-7.301-3.235c-2.466-0.229-4.113,1.311-6.39,1.768c-3.625-0.094-6.806-2.85-9.783-5.269   c-0.21-2.108-1.096-4.141-2.604-5.75c-2.569-6.621-7.461-12.113-12.948-16.614h1.566c3.409,6.579,11.368,10.4,19.841,9.716   c0,0,38.39,0.299,38.39,0.299c7.15,0.059,13.834-2.999,18.47-8.086c4.634,5.084,11.314,8.142,18.46,8.086l38.4-0.299   c8.471,0.684,16.431-3.136,19.841-9.716c1.999-0.21,30.056,0.569,31.013-0.599h79.969c3.464,0,6.672-1.82,8.45-4.792   c1.778-2.972,1.863-6.66,0.225-9.712c-8.868-16.516-15.466-33.989-19.609-51.933c-1.819-8.713-14.264-10.388-18.294-2.395   c-3.639-7.285-15.372-6.539-17.917,1.407c-0.953,2.669-1.985,5.32-3.094,7.947c-1.003-4.669-1.792-9.412-2.571-14.094   c-0.823-5.412-6.333-9.201-11.677-8.026c1.617-3.814,2.766-5.184,3.024-5.461c6.204-3.906,13.79-5.915,20.306-10.228   c19.442-12.087,26.461-39.295,15.284-59.275c17.613-20.008,30.187-43.032,36.89-67.827c1.245-4.606-0.991-9.441-5.307-11.476   c-4.476-2.11-10.21-4.868-15.904-7.626l19.294-5.365c4.067-1.131,6.961-4.729,7.194-8.945   C476.685,132.511,449.277,79.948,405.075,45.862z"/>
	<g>
		<g>
			<g>
				<path style="fill:#00B2A7;" d="M101.894,337.962c4.003,7.397,8.006,14.794,12.01,22.19c3.662-6.852,5.506-14.484,5.335-22.085      c3.674,10.294,8.432,20.275,14.188,29.766c6.125-11.742,8.328-24.779,10.463-37.606c4.046,11.56,6.268,23.635,6.581,35.75      c6.873-5.559,11.027-13.746,11.192-22.059c1.757,7.105,5.208,13.867,10.054,19.696c5.483-2.679,9.169-8.109,9.312-13.72      c3.842,6.172,9.159,11.597,15.486,15.8l145.686,43.477c6.326-4.202,11.644-9.628,15.486-15.8      c0.143,5.611,3.829,11.041,9.313,13.72c4.846-5.829,8.297-12.591,10.054-19.696c0.166,8.312,4.32,16.499,11.193,22.059      c0.312-12.116,2.535-24.19,6.581-35.75c2.135,12.827,4.338,25.864,10.463,37.606c5.757-9.491,10.514-19.472,14.188-29.766      c-0.171,7.601,1.673,15.233,5.335,22.085c4.003-7.397,8.007-14.794,12.01-22.19c4.339,18.788,11.25,37.095,20.528,54.375H81.366      C81.366,435.814,102.973,386.822,101.894,337.962z"/>
			</g>
			<g>
				<g>
					<g>
						<path style="fill:#F77800;" d="M177.167,379.313c-26.587-0.555-56.203,0.71-75.987,20.157        c-11.805,11.381-16.904,31.019-8.37,45.55c4.201,7.134,11.484,12.839,19.707,16.678c17.087,8.058,36.931,8.622,55.749,7.502        l0.526,5.418c-19.913,2.638-40.759,3.456-60.08-3.978c-21.979-8.001-36.563-27.413-33.186-51.723        c4.148-34.531,39.327-54.564,70.711-59.073c10.321-1.761,20.535-2.505,30.479-3.067L177.167,379.313L177.167,379.313z"/>
						<path style="fill:#9C3621;" d="M207.368,481.061c-4.807-2.747-8.677-6.855-13.175-10.083        c-5.827-4.184-12.729-6.858-19.854-7.693c8.032-0.739,16.306,1.55,22.816,6.313c-1.489-1.089-2.779-5.441-3.942-7.107        c-1.725-2.471-3.728-4.747-5.942-6.792c-4.436-4.095-9.732-7.267-15.443-9.228c-12.19-4.187-25.749-2.301-35.813,5.982        c-9.211,7.581-15.712,20.558-10.012,32.133c3.11,6.315,9.279,10.696,15.881,13.137c6.602,2.441,13.693,3.172,20.696,3.883        c-4.204-1.101-7.903-4.006-9.969-7.829c11.004,7.034,24.65,9.82,37.531,7.663c12.881-2.157,24.874-9.236,32.987-19.471        C218.474,484.967,212.175,483.809,207.368,481.061z"/>
					</g>
					<g>
						<path style="fill:#F77800;" d="M373.992,436.413H155.429c0-30.919,22.566-30.301,35.715-27.323        c-16.301-7.116-26.839-24.113-24.345-42.27c1.063-7.696,4.118-13.922,7.966-18.969c4.602-6.014,10.383-10.268,15.276-13.13        c10.848-46.137,35.985-51.938,35.985-51.938h77.366c0,0,24.499,5.646,35.56,50.198c0.155,0.561,0.29,1.141,0.426,1.74        c4.795,2.804,10.422,6.961,14.986,12.762c4.002,5.105,7.193,11.467,8.257,19.337c2.494,18.157-8.044,35.154-24.345,42.27        C351.426,406.112,373.992,405.494,373.992,436.413z"/>
						<path style="opacity:0.38;fill:#9C3621;" d="M330.65,411.492c-1.841-1.504-3.923-2.705-5.604-4.403        c-2.278-2.303-3.102-4.98-3.174-8.154c-0.036-1.585-0.016-3.173-0.237-4.747c-0.285-2.021-0.95-3.962-1.725-5.843        c-1.377-3.339-4.025-6.063-6.895-8.177c-6.512-4.796-14.66-7.531-22.597-8.747c-3.597-0.551-7.195-0.511-10.824-0.495        c-4.29,0.018-8.582,0.087-12.868,0.286c-9.177,0.425-18.437,1.378-27.283,3.96c-4.148,1.21-8.201,2.802-11.92,5.018        c-3.463,2.064-6.854,4.659-8.734,8.312c-3.089,6.006-1.027,13.167-3.876,19.257c-1.782,3.809-5.267,6.46-8.943,8.307        c-3.788,1.904-7.572,3.715-10.704,6.644c-4.008,3.748-5.804,8.573-6.551,13.704H343.72        c-0.481-7.246-3.267-14.266-7.968-19.884C334.216,414.693,332.504,413.007,330.65,411.492z"/>
						<path style="fill:#9C3621;" d="M463.811,187.318l-44.3,12.317c0,0,25.486,12.53,39.35,19.066        c-8.933,33.047-29.005,62.38-56.618,84.85l-24.461-14.116c0,0,4.293,12.975,8.585,25.757        c-33.046,21.773-74.292,34.69-119.037,34.69c-51.222,0-97.863-16.92-132.843-44.668l9.204-26.627        c0,0-12.182,6.826-24.035,13.555c-22.43-22.044-38.364-49.135-45.209-79.049l31.519-34.458c0,0-19.858,2.03-35.251,3.732        c-0.039-0.831-0.039-1.663-0.039-2.494c0-40.742,16.572-78.14,44.185-107.415l25.718,1.373c0,0-6.091-6.033-13.401-13.226        c13.768-12.105,29.605-22.431,47.046-30.533c11.505,10.751,29.837,27.497,29.837,27.497l-3.867-37.571        c20.941-6.575,43.546-10.152,67.137-10.152c20.052,0,39.389,2.591,57.604,7.406l-4.138,40.317        c0,0,22.063-20.149,32.969-30.455c9.9,4.177,19.337,9.069,28.212,14.599l-3.132,30.475c0,0,10.249-9.359,20.226-18.563        c39.872,31.113,64.933,76.148,64.933,126.249C464.005,182.367,463.947,184.862,463.811,187.318z"/>
						<g>
							<g>
								<g>
									<g>
										<circle style="fill:#F77800;" cx="148.953" cy="122.307" r="30.555"/>
										
											<ellipse transform="matrix(0.9255 -0.3786 0.3786 0.9255 -35.691 67.2171)" style="fill:#F7D7B6;" cx="153.074" cy="124.363" rx="17.515" ry="17.515"/>
									</g>
									<g>
										
											<ellipse transform="matrix(0.3757 -0.9268 0.9268 0.3757 114.7637 426.2592)" style="fill:#F77800;" cx="373.744" cy="127.954" rx="30.555" ry="30.554"/>
										
											<ellipse transform="matrix(0.4681 -0.8837 0.8837 0.4681 81.7015 395.7639)" style="fill:#F7D7B6;" cx="369.623" cy="130.01" rx="17.515" ry="17.515"/>
									</g>
								</g>
								<path style="fill:#F77800;" d="M390.208,218.021c0,36.701-47.31,70.273-47.31,70.273          c-22.663,9.282-50.914,13.497-81.543,13.497c-29.508,0-56.792-3.906-79.01-12.492c0,0-43.431-36.445-43.431-74.094          c0-1.721-12.49-5.844-12.49-5.844c3.21-61.239,62.38-133.095,134.932-133.095c71.701,0,130.348,70.231,134.777,130.987          C396.133,207.254,390.208,215.604,390.208,218.021z"/>
								<g>
									<path style="fill:#F57486;" d="M200.387,251.361c0,15.315-7.038,28.986-18.041,37.939           c-33.955-13.091-56.057-37.107-56.057-74.756c0-1.721,0.039-3.442,0.135-5.182c7.329-4.39,15.914-6.903,25.06-6.903           C178.498,202.458,200.387,224.347,200.387,251.361z"/>
									<path style="fill:#F57486;" d="M396.403,214.544c0,36.701-20.98,60.427-53.504,73.75           c-10.326-8.953-16.862-22.179-16.862-36.933c0-27.013,21.909-48.902,48.922-48.902c7.58,0,14.773,1.721,21.174,4.795           C396.307,209.709,396.403,212.126,396.403,214.544z"/>
								</g>
								<g>
									<g>
										<g>
											<path style="fill:#FFFFFF;" d="M299.474,158.173c-13.015,11.785-14.008,31.903-2.253,44.89             c6.617,7.306,15.923,10.805,25.089,10.333c7.115-0.321,14.131-3.053,19.796-8.187c0.548-0.509,1.094-1.018,1.593-1.609             c11.247-11.656,11.892-30.057,1.357-42.479c-0.221-0.31-0.437-0.551-0.669-0.818c-5.678-6.281-13.33-9.73-21.147-10.281             C314.848,149.372,306.222,152.064,299.474,158.173z"/>
										</g>
									</g>
									<path style="fill:#192037;" d="M311.231,155.059c-12.02,8.756-15.562,25.769-8.025,38.552           c5.851,9.923,16.641,15.104,27.4,14.282c9.292-0.71,17.368-7.142,20.447-15.943c3.605-10.304,1.766-22.158-5.724-30.99           c-0.221-0.31-0.437-0.551-0.669-0.818c-2.488-2.752-5.355-4.96-8.449-6.62c-7.808-4.187-17.48-3.802-24.714,1.346           C311.408,154.931,311.32,154.995,311.231,155.059z"/>
								</g>
								<g>
									<g>
										<g>
											<path style="fill:#FFFFFF;" d="M199.093,152.065c-16.711,4.431-26.65,21.509-22.211,38.149             c2.5,9.415,9.05,16.651,17.258,20.375c6.354,2.933,13.74,3.718,20.983,1.815c3.731-0.989,7.112-2.594,10.083-4.716             c10.083-7.127,15.292-19.865,12.401-32.463c-0.082-0.345-0.163-0.689-0.245-1.034             c-2.851-10.633-10.832-18.492-20.598-21.626C211.23,150.73,205.143,150.446,199.093,152.065z"/>
										</g>
									</g>
									<path style="fill:#192037;" d="M211.024,152.23c-16.169,0.85-28.572,14.633-27.72,30.764           c0.85,16.098,14.635,28.505,30.804,27.655c1.71-0.09,3.379-0.322,4.996-0.688c4.348-0.985,8.322-3.339,11.338-6.615           c6.767-7.35,9.857-17.792,7.482-28.139c-0.082-0.345-0.163-0.689-0.245-1.034c-2.379-8.875-8.332-15.816-15.913-19.692           c-3.28-1.677-7-2.44-10.681-2.255C211.065,152.228,211.044,152.229,211.024,152.23z"/>
								</g>
								<g>
									<path style="fill:#192037;" d="M308.939,136.77c10.403-7.198,25.249-3.203,33.72,5.234           c2.866,2.772,5.274,5.962,6.865,9.635c0.192,0.444-0.011,0.96-0.454,1.152c-0.254,0.111-0.542,0.085-0.769-0.035           c-6.468-3.549-12.192-7.454-18.749-10.263c-6.51-2.854-12.81-3.948-20.129-4.138           C308.605,138.372,308.257,137.211,308.939,136.77L308.939,136.77z"/>
								</g>
								<g>
									<path style="fill:#192037;" d="M212.272,136.552c-7.972,1.417-14.914,3.692-21.637,7.851           c-6.941,4.006-12.245,9.492-18.778,14.483c-0.384,0.325-0.979,0.274-1.269-0.151c3.741-17.097,24.852-30.846,41.883-23.83           C213.25,135.215,213.097,136.445,212.272,136.552L212.272,136.552z"/>
								</g>
								<ellipse style="fill:#F7D7B6;" cx="264.816" cy="236.523" rx="48.799" ry="34.073"/>
								<path style="fill:#192037;" d="M287.524,200.773c0-6.923-10.282-12.535-22.965-12.535c-12.683,0-22.965,5.612-22.965,12.535          c0,5.797,7.218,10.66,17.009,12.094c0.916,4.717,3.233,8.075,5.956,8.075c2.722,0,5.04-3.357,5.955-8.075          C280.306,211.433,287.524,206.57,287.524,200.773z"/>
								<g>
									<g>
										<path style="fill:#192037;" d="M240.593,215.409c0,0,3.979,6.684,15.013,12.378c11.534,5.953,21.885,3.815,21.885,3.815            c0.43,0.094,0.709,0.534,0.567,0.96c-13.867,6.474-34.588-0.88-38.714-16.418            C239.147,215.439,240.083,214.893,240.593,215.409L240.593,215.409z"/>
									</g>
								</g>
							</g>
						</g>
						<g>
							<path style="opacity:0.38;fill:#9C3621;" d="M188.012,367.129c0,0-8.702-7.232-13.246-19.279         c4.602-6.014,10.383-10.268,15.276-13.13C190.042,334.721,186.388,353.478,188.012,367.129z"/>
							<path style="opacity:0.38;fill:#9C3621;" d="M354.366,347.483c-4.506,12.259-13.381,19.646-13.381,19.646         c1.625-13.652-2.03-32.408-2.03-32.408v-1.74c0.155,0.561,0.29,1.141,0.426,1.74         C344.175,337.525,349.802,341.682,354.366,347.483z"/>
						</g>
					</g>
					<path style="fill:#F77800;" d="M264.71,363.225c0,0,5.575,46.708,1.382,70.789c-1.255,7.21-7.499,12.471-14.817,12.414       l-38.874-0.303c0,0-10.907,1.402-11.956-8.55c-0.192-1.823,0.075-3.667,0.623-5.417c1.679-5.361,7.238-16.115,24.662-14.642       c0,0-1.219-26.008-9.712-46.489"/>
					<path style="fill:#F77800;" d="M274.627,363.225c0,0-5.575,46.708-1.382,70.789c1.255,7.21,7.499,12.471,14.817,12.414       l38.874-0.303c0,0,10.907,1.402,11.956-8.55c0.192-1.823-0.075-3.667-0.623-5.417c-1.679-5.361-7.238-16.115-24.662-14.642       c0,0,1.219-26.008,9.712-46.489"/>
				</g>
			</g>
			<g>
				<path style="fill:#00B2A7;" d="M47.995,276.972c15.481-6.124,33.566-5.073,48.351,2.58      c23.807,12.322,24.778,43.641,24.778,43.641c-14.631-6.103-18.213,0.131-28.291-2.827c-10.078-2.958-18.83-10.176-23.652-19.507      c-2.631-5.091-4.132-10.747-7.178-15.602C58.961,280.403,53.684,276.28,47.995,276.972z"/>
				<path style="fill:#9C3621;" d="M79.878,284.787c19.72,14.536,35.473,32.726,46.682,54.332c0.449,0.865,1.475,1.247,2.374,0.871      l0.041-0.017c0.93-0.389,1.405-1.435,1.064-2.375C121.587,314.264,102.796,294.206,79.878,284.787L79.878,284.787z"/>
			</g>
			<g>
				<path style="fill:#00B2A7;" d="M410.858,340.097c7.366-4.748,12.847-12.339,15.037-20.824c2.19-8.486,1.066-17.781-3.083-25.5      c-0.631,6.652-6.182,11.819-12.083,14.952c-5.901,3.133-12.492,4.929-18.1,8.562c-8.731,5.656-14.303,15.447-16.175,25.68      c-1.872,10.233-0.317,20.865,2.963,30.737c0,0,4.427-18.909,10.839-23.183C396.668,346.246,404.381,344.272,410.858,340.097z"/>
				<path style="fill:#9C3621;" d="M419.148,312.36c-16.312,28.081-42.26,12.83-37.334,70.091c0.155,1.802-1.377,3.305-3.174,3.112      l-0.071-0.008c-1.36-0.147-2.432-1.216-2.573-2.561C369.774,323.543,402.841,337.589,419.148,312.36L419.148,312.36z"/>
			</g>
		</g>
		<path style="opacity:0.19;fill:#FFFFFF;" d="M269.653,88.605c-2.172,2.367-3.082,5.932-1.552,9.297    c1.382,3.04,4.359,5.274,7.301,7.015c7.511,4.443,15.755,6.904,23.497,10.791c6.736,3.381,13.071,7.831,19.945,10.782    c2.736,1.174,5.6,2.113,8.383,2.156c2.783,0.043,5.49-0.913,6.914-3.014c1.354-1.997,1.405-4.802,0.666-7.435    c-2.034-7.25-7.327-12.19-13.21-16.95c-3.699-2.993-7.662-5.637-11.791-7.878c-8.25-4.477-17.183-7.349-25.956-8.142    c-4.4-0.398-8.943-0.248-12.352,1.853C270.817,87.498,270.196,88.014,269.653,88.605z"/>
		<path style="opacity:0.19;fill:#FFFFFF;" d="M413.181,87.781c-3.168,0.527-6.082,2.774-6.949,6.368    c-0.784,3.246,0.185,6.84,1.43,10.024c3.18,8.126,8.158,15.143,11.863,22.975c3.224,6.813,5.473,14.221,9.07,20.779    c1.432,2.611,3.11,5.114,5.275,6.862c2.165,1.748,4.888,2.662,7.303,1.885c2.297-0.739,4.065-2.918,5.105-5.447    c2.863-6.964,1.737-14.116,0.035-21.49c-1.07-4.636-2.563-9.161-4.435-13.47c-3.741-8.609-9.009-16.374-15.431-22.403    c-3.221-3.024-6.892-5.704-10.872-6.15C414.78,87.626,413.973,87.65,413.181,87.781z"/>
		<path style="opacity:0.19;fill:#FFFFFF;" d="M299.215,424.988c-0.422,1.366-0.108,2.973,1.15,4.034    c1.136,0.958,2.759,1.289,4.274,1.427c3.867,0.353,7.651-0.23,11.506-0.144c3.353,0.074,6.749,0.655,10.076,0.53    c1.324-0.05,2.655-0.219,3.782-0.732c1.127-0.514,2.033-1.415,2.205-2.531c0.163-1.061-0.351-2.199-1.151-3.117    c-2.201-2.527-5.272-3.503-8.545-4.295c-2.058-0.498-4.156-0.805-6.244-0.918c-4.171-0.226-8.31,0.323-11.989,1.678    c-1.845,0.68-3.643,1.606-4.613,3.101C299.472,424.32,299.321,424.647,299.215,424.988z"/>
		<path style="opacity:0.19;fill:#FFFFFF;" d="M208.507,424.988c-0.422,1.366-0.108,2.973,1.15,4.034    c1.136,0.958,2.759,1.289,4.274,1.427c3.867,0.353,7.651-0.23,11.506-0.144c3.353,0.074,6.749,0.655,10.076,0.53    c1.324-0.05,2.655-0.219,3.782-0.732c1.127-0.514,2.033-1.415,2.205-2.531c0.163-1.061-0.351-2.199-1.151-3.117    c-2.201-2.527-5.271-3.503-8.545-4.295c-2.058-0.498-4.156-0.805-6.244-0.918c-4.171-0.226-8.31,0.323-11.989,1.678    c-1.845,0.68-3.643,1.606-4.613,3.101C208.764,424.32,208.613,424.647,208.507,424.988z"/>
	</g>
</g>















</svg>
