<?xml version="1.0" encoding="UTF-8"?>
<!-- Generator: Adobe Illustrator 27.1.1, SVG Export Plug-In . SVG Version: 6.00 Build 0)  -->
<svg xmlns="http://www.w3.org/2000/svg" xmlns:xlink="http://www.w3.org/1999/xlink" version="1.1" id="Capa_1" x="0px" y="0px" viewBox="0 0 512 512" style="enable-background:new 0 0 512 512;" xml:space="preserve" width="512" height="512">
<g>
	<path style="fill:#FFFFFF;" d="M499.312,39.879c-18.29-12.085-32.789,11.834-49.187,33.808c1.634-19.216,5.652-58.926-16.724-69.18   c-12.148-4.753-21.583,8.414-23.836,13.841c-9.472,19.142-17.983,53.573-25.921,75.829c-7.975,24.342-20.866,53.693-29.329,77.211   l-13.486,3.067c16.757-50.343-9.992-92.465-23.37-121.375c-3.721-12.516-2.373-22.998,8.076-23.584   c11.544-0.152,13.256-16.798,1.885-19.447C229.231-14.844,111.762,4.616,60.424,89.746c-26.64,47.165-13.38,107.912,26.826,143.179   c-14.785,18.936-14.414,43.301,5.16,50.601c-0.002,42.426,38.473,85.238,98.455,97.216c-1.311,0.349-2.595,0.773-3.85,1.274   c-27.15-3.147-58.669-6.968-84.598-6.447c-1.53-1.559-3.126-3.077-4.779-4.543c-14.902-33.787-56.126-44.705-89.413-19.799   c-3.896,3.057-4.915,8.534-2.379,12.788c2.541,4.286,7.915,5.946,12.369,3.995c3.529,0.224,6.576,4.536,9.051,7.556   c3.389,4.427,7.642,8.963,12.429,12.058c-7.523,7.906-5.916,21.463,2.788,27.549c-4.056,2.293-7.784,5.165-11.007,8.532   c-8.081,7.334-21.795,36.632-6.513,41.934c4.061,1.325,8.644-0.177,11.116-3.768c3.045-4.42,13.344-3.659,19.205-2.776   c6.693,0.87,14.226,1.424,21.028-0.177c-0.05,10.164,8.871,18.446,18.699,18.319c9.077,0.335,14.708-7.167,21.509-12.276   c5.834-4.431,11.979-8.473,18.379-12.095c-5.761,18.354-2.494,39.217,8.31,54.88c2.826,4.109,8.283,5.413,12.618,3.16   c4.402-2.27,6.433-7.457,4.742-12.113c1.165-5.567,9.954-9.016,14.167-13.114c4.774-4.055,8.627-9.044,11.37-14.584   c5.384,9.18,26.084,29.647,35.17,15.53c2.311-4.02,1.49-9.061-1.86-12.146c0.236-3.725,2.692-7.265,3.709-11.213   c3.203-10.59,1.332-22.92-5.58-31.625c8.206-0.78,16.554-1.812,24.845-3.682c-2.645,3.233-5.301,6.654-8.035,10.347   c-8.73,12.792,1.572,29.38,15.755,29.133c3.326,0.052,6.474-1.081,9.361-2.61c3.518-1.911,5.673-5.172,7.978-8.301   c12.831-16.347,27.904-30.757,45.123-42.308c22.063-6.618,42.055-19.207,60.41-32.203c14.206-9.763,30.858-21.549,47.997-26.783   c4.976-1.496,9.578-2.636,14.698-2.971c8.593-0.355,15.57,1.54,22.388-5.737c11.307-11.381,2.958-31.096-12.856-31.717   c-1.879-0.125-3.794-0.188-5.693-0.188c-45.886,1.045-73.863,28.965-108.109,49.974c-18.423,11.558-37.598,17.31-58.877,19.937   c-2.533-1.533-5.251-2.723-8.104-3.556c89.218-19.502,117.764-77.075,137.904-169.499c30.359-15.474,62.499-49.101,80.876-80.639   C494.994,110.189,520.706,59.918,499.312,39.879z"/>
	<g>
		<g>
			<g>
				<path style="fill:#9C3621;" d="M444.606,324.653c-27.436-1.815-52.996,11.543-75.117,26.343      c-10.975,7.343-21.63,15.175-32.923,22.035c-5.662,3.439-11.482,6.623-17.519,9.356c-0.622,0.282-1.249,0.555-1.873,0.831      c-0.083,0.037-0.126,0.056-0.192,0.086c-0.172,0.067-0.341,0.142-0.505,0.209c-1.573,0.644-3.156,1.261-4.751,1.849      c-2.967,1.095-5.969,2.094-8.999,3.002c-6.056,1.814-12.219,3.261-18.439,4.39c-1.559,0.283-3.122,0.546-4.687,0.79      c-0.784,0.122-1.569,0.239-2.354,0.352c-0.036,0.005-0.185,0.018-0.35,0.033c-0.132,0.028-0.319,0.06-0.632,0.1      c-0.005,0.003-0.027,0.006-0.028,0.009c0.001-0.002,0.006-0.004,0.007-0.006c-0.001,0-0.001,0-0.002,0      c-3.161,0.4-6.331,0.727-9.507,0.989c-12.944,1.069-25.959,1.061-38.926,0.443c-27.154-1.293-54.055-5.395-81.098-7.948      c-28.408-2.682-57.123-3.532-85.287,1.842c-3.404,0.65-6.787,1.401-10.149,2.241c-4.523,1.13-7.679,6.457-6.222,10.959      c1.516,4.684,6.112,7.433,10.959,6.222c3.362-0.84,6.745-1.591,10.149-2.241c1.696-0.323,3.396-0.623,5.101-0.899      c0.73-0.118,1.46-0.233,2.191-0.343c0.487-0.073,0.975-0.142,1.462-0.215c0.171-0.025,0.288-0.043,0.382-0.058      c6.723-1.05,13.641-1.404,20.428-1.663c13.892-0.531,27.805,0.056,41.656,1.158c13.076,1.04,26.105,2.556,39.134,4.057      c-3.447,0.639-6.883,1.341-10.288,2.198c-18.105,4.558-35.654,12.032-51.496,21.911c-9.196,5.734-17.904,12.334-25.946,19.596      c-3.469,3.132-3.422,9.458,0,12.599c3.706,3.402,8.899,3.341,12.599,0c2.961-2.674,6.024-5.23,9.163-7.693      c11.279-8.574,23.587-15.734,36.601-21.334c13.335-5.498,27.311-9.331,41.593-11.358c17.097-2.168,34.472-2.304,51.347-6.081      c4.657-1.042,9.239-2.396,13.683-4.139c0.607-0.238,1.178-0.498,1.723-0.784c5.022-0.184,10.037-0.505,15.035-0.985      c-5.889,5.447-11.495,11.198-16.739,17.269c-4.014,4.647-7.819,9.475-11.472,14.409c-1.29,1.742-1.447,4.872-0.898,6.865      c0.569,2.067,2.167,4.306,4.094,5.324c2.068,1.092,4.572,1.64,6.865,0.898c0.709-0.299,1.419-0.599,2.128-0.898      c1.339-0.792,2.404-1.857,3.196-3.196c0.66-0.891,1.333-1.772,2.006-2.654c8.52-10.894,18.072-20.969,28.526-30.025      c2.724-2.36,5.518-4.637,8.356-6.858c3.611-2.755,7.297-5.408,11.073-7.933c0.184-0.123,0.343-0.27,0.519-0.4      c9.213-2.813,18.181-6.441,26.729-10.873c11.721-6.078,22.582-13.637,33.428-21.125c10.703-7.39,21.464-14.77,33.099-20.639      c1.444-0.728,2.899-1.434,4.366-2.113c0.733-0.339,1.468-0.672,2.206-0.998c0.304-0.134,0.609-0.263,0.912-0.397      c0.048-0.019,0.084-0.034,0.139-0.056c2.978-1.196,5.985-2.309,9.052-3.259c3.039-0.941,6.125-1.74,9.246-2.36      c1.351-0.268,2.709-0.484,4.069-0.697c0.314-0.03,0.628-0.072,0.941-0.104c0.9-0.093,1.801-0.169,2.704-0.229      c3.177-0.211,6.358-0.197,9.535,0.014c4.66,0.308,9.115-4.318,8.909-8.909C453.287,328.472,449.598,324.983,444.606,324.653z"/>
				<g>
					<path style="fill:#00B2A7;" d="M14.349,358.992c12.069-9.47,28.32-13.285,43.387-10.403       c24.261,4.641,33.334,32.05,33.334,32.05c-14.525-1.553-16.054,4.893-25.732,4.923c-9.678,0.031-19.302-4.05-26.009-11.027       c-3.659-3.807-6.469-8.409-10.432-11.899C24.935,359.146,19.192,356.889,14.349,358.992z"/>
					<path style="fill:#9C3621;" d="M44.562,357.533c21.733,7.849,40.799,20.17,56.583,36.9c0,0,2.54-2.074,2.54-2.074       C90.184,373.25,67.821,359.897,44.562,357.533L44.562,357.533z"/>
				</g>
				<g>
					<path style="fill:#00B2A7;" d="M151.359,502.173c-8.711-12.627-11.521-29.082-7.72-43.944       c6.121-23.931,34.036-31.303,34.036-31.303c-2.442,14.402,3.898,16.324,3.334,25.985c-0.564,9.662-5.227,19.017-12.603,25.283       c-4.025,3.419-8.791,5.941-12.517,9.682C152.163,491.617,149.557,497.21,151.359,502.173z"/>
					<path style="fill:#9C3621;" d="M151.757,471.927c9.169-21.21,22.637-39.483,40.304-54.211c0,0-1.915-2.662-1.915-2.662       C170.245,427.357,155.545,448.858,151.757,471.927L151.757,471.927z"/>
				</g>
				<g>
					<path style="fill:#00B2A7;" d="M212.784,481.736c-10.266-4.268-18.442-13.185-21.966-23.73       c-5.674-16.979,8.431-32.437,8.431-32.437c4.171,9.731,8.788,8.41,12.24,14.516c3.453,6.106,4.288,13.636,2.257,20.349       c-1.108,3.663-3.02,7.072-3.819,10.814C209.126,474.991,209.737,479.421,212.784,481.736z"/>
					<path style="fill:#9C3621;" d="M201.144,463.159c-2.749-16.52-1.726-32.94,3.248-48.851c0,0-2.212-0.869-2.212-0.869       C194.893,428.751,194.387,447.621,201.144,463.159L201.144,463.159z"/>
				</g>
				<g>
					<path style="fill:#00B2A7;" d="M63.898,418.811c-9.485,0.584-18.694,4.857-25.265,11.721       c-6.571,6.864-10.437,16.252-10.606,25.753c4.124-5.957,12.114-7.9,19.357-7.734c7.243,0.166,14.428,1.962,21.659,1.501       c11.257-0.719,21.719-7.025,28.916-15.71c7.197-8.685,11.364-19.566,13.497-30.642c0,0-14.215,15.536-22.545,16.178       C80.58,420.521,72.238,418.298,63.898,418.811z"/>
					<path style="fill:#9C3621;" d="M46.476,433.584c30.917-18.262,42.087,18.753,68.893-42.902c0,0,2.534,1.081,2.534,1.081       C91.752,454.586,75.644,418.177,46.476,433.584L46.476,433.584z"/>
				</g>
				<path style="fill:#9C3621;" d="M276.896,393.928c0.647-0.137-0.532-0.125-0.653,0.103c0.009-0.001,0.012-0.002,0.021-0.003      C276.325,393.988,276.629,393.953,276.896,393.928z"/>
			</g>
			<g>
				<g>
					<path style="fill:#F7D7B6;" d="M221.211,392.087c0,0,0-30.404,0.174-30.925l-14.594,3.821l3.127,26.061       c0,0-13.094-5.238-24.504,3.06c-1.869,1.359-2.465,3.891-1.37,5.925h0c1.026,1.906,3.23,2.841,5.308,2.233       c2.773-0.811,7.457-1.804,14.833-2.357c0,0-3.995,1.548-7.782,3.761c-3.775,2.206-3.234,7.817,0.908,9.22l0,0       c1.951,0.661,4.109,0.078,5.462-1.475l7.146-8.204v3.478c0,3.934,3.349,7.036,7.272,6.734l0,0c2.6-0.2,4.86-1.867,5.787-4.305       C224.908,404.036,227.012,395.52,221.211,392.087z"/>
					<path style="fill:#F7D7B6;" d="M233.381,392.087c0,0,0-30.404-0.174-30.925l14.594,3.821l-3.127,26.061       c0,0,13.094-5.238,24.504,3.06c1.869,1.359,2.465,3.891,1.37,5.925l0,0c-1.026,1.906-3.23,2.841-5.308,2.233       c-2.773-0.811-7.457-1.804-14.833-2.357c0,0,3.995,1.548,7.782,3.761c3.775,2.206,3.234,7.817-0.907,9.22l0,0       c-1.952,0.661-4.109,0.078-5.462-1.475l-7.146-8.204v3.478c0,3.934-3.349,7.036-7.272,6.734l0,0       c-2.6-0.2-4.86-1.867-5.787-4.305C229.685,404.036,227.58,395.52,233.381,392.087z"/>
				</g>
				<g>
					<g>
						<path style="fill:#F77800;" d="M421.409,121.03c-2.774,7.826,1.762,14.504-1.588,21.502        c-19.036,39.945-45.343,65.253-56.964,61.133c-11.655-4.131,2.766-33.935,18.802-75.228        c2.742-7.043,10.856-10.947,13.565-18.589c1.077-3.04-3.205-9.517-2.208-12.491c2.047-6.042,3.96-11.942,5.766-17.654        c8.327-7.611,10.769-18.681,9.943-31.675c7.385-22.808,13.453-37.047,21.431-34.219c8.044,2.851,12.676,21.091,11.32,46.301        l-4.768,33.717c-1.267,5.6-2.784,11.32-4.579,17.13C431.185,114.045,422.516,117.906,421.409,121.03z"/>
						<path style="opacity:0.15;fill:#192037;" d="M421.409,121.03c-2.774,7.826,1.762,14.504-1.588,21.502        c-19.036,39.945-45.343,65.253-56.964,61.133c-11.655-4.131,2.766-33.935,18.802-75.228        c2.742-7.043,10.856-10.947,13.565-18.589c1.077-3.04-3.205-9.517-2.208-12.491c2.047-6.042,3.96-11.942,5.766-17.654        c8.327-7.611,10.769-18.681,9.943-31.675c7.385-22.808,13.453-37.047,21.431-34.219c8.044,2.851,12.676,21.091,11.32,46.301        l-4.768,33.717c-1.267,5.6-2.784,11.32-4.579,17.13C431.185,114.045,422.516,117.906,421.409,121.03z"/>
						<g>
							<path style="fill:#F7D7B6;" d="M436.707,93.828c-13.704-2.457-26.398-7.07-37.925-14.124         c3.68-11.607,6.92-22.349,9.943-31.675c10.246,4.747,21.216,8.73,32.75,12.082C440.937,70.374,439.403,81.796,436.707,93.828         z"/>
							<path style="fill:#F7D7B6;" d="M429.055,120.266c-2.774,7.826-5.885,15.268-9.235,22.266         c-13.795-2.414-26.562-7.034-38.162-14.094c2.742-7.043,5.525-14.413,8.233-22.054c1.077-3.04,2.126-6.052,3.124-9.025         c12.136,5.493,25.245,9.951,39.112,13.6C431.185,114.045,430.162,117.142,429.055,120.266z"/>
						</g>
					</g>
					<g>
						<path style="fill:#F77800;" d="M451.823,146.941c-5.062,6.582-2.818,14.336-8.171,19.952        c-30.474,32.083-63.327,47.996-73.1,40.479c-9.802-7.539,13.143-31.409,41.182-65.702c4.789-5.847,13.713-7.046,18.656-13.472        c1.966-2.556-0.099-10.042,1.77-12.56c3.818-5.11,7.465-10.128,10.952-14.999c10.275-4.657,16.027-14.426,19.266-27.037        c14.087-19.398,24.268-31.057,30.977-25.897c6.765,5.203,5.519,23.98-3.581,47.53l-14.979,30.582        c-2.939,4.932-6.153,9.901-9.66,14.869C463.282,143.328,453.844,144.314,451.823,146.941z"/>
						<g>
							<path style="fill:#F7D7B6;" d="M474.795,125.816c-12.269-6.581-22.91-14.9-31.684-25.178         c7.094-9.896,13.503-19.106,19.266-27.037c8.271,7.688,17.468,14.873,27.396,21.633         C486.083,104.827,481.086,115.212,474.795,125.816z"/>
							<path style="fill:#F7D7B6;" d="M459.33,148.583c-5.062,6.582-10.325,12.694-15.678,18.31         c-12.369-6.568-23.077-14.916-31.918-25.223c4.789-5.847,9.718-11.992,14.66-18.418c1.966-2.556,3.897-5.095,5.766-7.614         c9.838,8.983,20.92,17.282,32.975,25.047C463.282,143.328,461.35,145.956,459.33,148.583z"/>
						</g>
					</g>
					<path style="fill:#F77800;" d="M114.535,225.296c0,0-49.481,93.898,49.29,136.508c35.755,15.425,75.907,16.903,113.268,5.925       c78.159-22.967,102.913-81.859,123.072-196.64l-132.912,30.231L114.535,225.296z"/>
					<path style="fill:#F7D7B6;" d="M342.385,203.418c-12.818,11.392-31.784,25.565-55.121,35.115       c-12.355,5.056-21.903,15.229-25.888,27.97v0c-11.91,38.079,28.735,71.728,63.59,52.313       c12.258-6.828,23.542-18.249,31.762-36.605l-16.107,1.171c0,0,32.906-18.104,28.661-54.191l-15.734,5.55L342.385,203.418z"/>
					<path style="fill:#00B2A7;" d="M360.771,184.807c0,0-6.599,8.128-18.386,18.605c0.158,6.042-0.214,12.1-1.206,18.046       c-1.455,8.725-4.285,17.388-9.312,24.729c4.938,0.805,16.131,0.587,16.131,0.587s-2.102,6.844-3.706,10.054       c-5.434,10.87-14.614,19.188-24.153,26.455c1.785,1.829,13.029,12.904,13.029,12.904s-4.099,13.627-14.025,25.344       c1.952-0.757,3.893-1.651,5.825-2.715c16.225-8.938,28.876-20.954,37.095-39.309l-17.976,2.691       c0,0,32.808-20.285,28.563-56.371l-15.94,5.928C356.71,231.755,372.382,208.86,360.771,184.807z"/>
					<path style="fill:#00B2A7;" d="M245.12,252.591c-4.978-15.305-16.97-25.125-26.785-21.932c-4.152,1.351-7.235,4.829-9.05,9.534       c-3.928-4.472-8.767-6.932-13.693-6.319c-4.508,0.561-8.325,3.586-11.021,8.156c-2.8-4.675-6.738-7.746-11.351-8.224       c-6.641-0.688-13.017,4.159-17.15,11.988c-1.252-7.681-5.094-13.575-10.907-15.326c-3.976-1.197-8.253-0.253-12.253,2.273       c-0.788-2.027-1.964-3.801-3.593-5.188c-7.856-6.693-22.686-2.188-33.124,10.064c-10.438,12.251-12.53,27.608-4.674,34.301       c6.114,5.208,16.445,3.611,25.647-3.116c0.838,8.723,4.843,15.563,11.188,17.474c8.23,2.479,17.757-4.115,23.399-15.285       c1.468,11.343,7.453,19.96,15.461,20.789c6.872,0.712,13.462-4.499,17.574-12.814c4.274,8.406,11.054,13.609,17.993,12.746       c6.345-0.789,11.321-6.46,13.722-14.453c5.763,7.255,13.292,10.961,19.856,8.826       C246.177,282.891,250.098,267.896,245.12,252.591z"/>
				</g>
				<g>
					<path style="fill:#F77800;" d="M331.161,172.362c0.01-0.033,0.019-0.067,0.032-0.099c18.98-49.932-20-105.319-23.161-116.472       c-10.14-35.78,17.24-36.122,17.24-36.122C131.975-24.51,69.176,94.363,69.176,94.363l0.03,0.009       c-8.163,14.837-12.749,31.336-12.749,48.74c0,3.61,0.219,8.286,0.219,8.286c2.942,27.064,35.555,70.409,35.555,70.409       c25.504,22.858,64.144,38.053,103.788,38.053c64.444,0,118.656-36.549,134.706-86.212l0.02,0.006       C330.896,173.222,331.015,172.793,331.161,172.362z"/>
					<path style="opacity:0.34;fill:#FFFFFF;" d="M301.356,79.395c-3.757,0.009-7.546,2.243-9.228,6.599       c-1.519,3.935-1.082,8.673-0.246,12.949c2.132,10.916,6.55,20.805,9.344,31.458c2.431,9.268,3.625,19.085,6.536,28.108       c1.159,3.592,2.621,7.1,4.79,9.755c2.169,2.655,5.138,4.373,8.073,3.891c2.791-0.458,5.245-2.841,6.924-5.819       c4.624-8.198,4.678-17.46,4.109-27.12c-0.357-6.074-1.224-12.094-2.57-17.921c-2.688-11.642-7.299-22.535-13.571-31.475       c-3.146-4.484-6.876-8.627-11.385-10.014C303.231,79.53,302.294,79.393,301.356,79.395z"/>
					<path style="fill:#F7D7B6;" d="M299.979,202.214c-0.036,0.143-0.071,0.285-0.107,0.41       c-6.592,23.003-23.751,41.605-46.041,50.264c-17.622,6.86-37.203,10.673-57.819,10.673c-2.887,0-5.755-0.071-8.588-0.232       c-19.51-0.998-37.952-5.434-54.487-12.597c-16.197-7.02-30.594-16.642-42.389-28.277c0,0-32.054-43.939-33.872-71.058       c-0.143-2.263-0.214-4.544-0.214-6.842c0-4.187,0.25-8.339,0.749-12.401c8.446-36.972,32.803-63.681,61.56-63.681       c24.714,0,46.184,19.742,57.089,48.75c20.152-22.433,48.661-33.07,75.637-25.177       C292.068,103.931,313.77,153.251,299.979,202.214z"/>
					<g>
						<circle style="fill:#F57486;" cx="244.094" cy="209.212" r="40.238"/>
						<path style="fill:#F57486;" d="M106.334,190.508c0,13.025-6.183,24.607-15.786,31.947        c-19.6-19.243-32.054-43.939-33.872-71.058c3.011-0.73,6.165-1.122,9.408-1.122        C88.321,150.275,106.334,168.289,106.334,190.508z"/>
					</g>
					<g>
						<g>
							<path style="fill:#9C3621;" d="M205.262,123.706c5.252,2.306,9.652,5.033,13.586,9.023c4.11,3.921,6.847,8.591,10.511,13.124         c0.21,0.289,0.628,0.352,0.898,0.107c0.278-12.424-11.961-25.431-24.858-23.424         C204.812,122.621,204.712,123.495,205.262,123.706L205.262,123.706z"/>
						</g>
					</g>
					<g>
						<g>
							<path style="fill:#9C3621;" d="M141.006,104.93c-5.697-0.67-10.87-0.544-16.282,0.907         c-5.527,1.302-10.249,3.946-15.702,6.001c-0.327,0.143-0.72-0.014-0.83-0.362c6.041-10.86,23.175-15.884,33.285-7.625         C141.943,104.222,141.587,105.026,141.006,104.93L141.006,104.93z"/>
						</g>
					</g>
					<g>
						<g>
							<path style="fill:#192037;" d="M198.944,156.058c-2.264,8.746-0.686,16.721,3.525,17.813         c4.211,1.091,9.46-5.114,11.725-13.861c2.264-8.747,0.686-16.722-3.525-17.813         C206.457,141.106,201.208,147.312,198.944,156.058z"/>
						</g>
					</g>
					<g>
						<g>
							<path style="fill:#9C3621;" d="M116.365,130.198c-2.264,8.747-0.686,16.722,3.525,17.813         c4.211,1.091,9.461-5.115,11.725-13.862c2.264-8.746,0.686-16.721-3.525-17.812         C123.878,115.246,118.629,121.452,116.365,130.198z"/>
						</g>
					</g>
					<g>
						<path style="fill:#F77800;" d="M118.108,174.644c0,0,13.555-0.63,29.59,2.32c16.035,2.95,28.478,8.364,28.478,8.364        c-2.156,11.719-16.903,18.828-32.938,15.878C127.202,198.256,115.952,186.363,118.108,174.644z"/>
						<path style="opacity:0.25;fill:#9C3621;" d="M118.108,174.644c0,0,13.555-0.63,29.59,2.32        c16.035,2.95,28.478,8.364,28.478,8.364c-2.156,11.719-16.903,18.828-32.938,15.878        C127.202,198.256,115.952,186.363,118.108,174.644z"/>
						<path style="fill:#F77800;" d="M177.62,183.946c-0.033,2.102-1.68,3.82-3.782,3.863c-5.757,0.116-18.147-0.026-32.067-2.587        c-14.899-2.742-27.172-7.449-31.919-9.419c-1.272-0.528-1.942-1.931-1.55-3.251c4.113-13.863,21.082-22.22,39.273-18.873        C165.198,156.92,177.84,170.02,177.62,183.946z"/>
					</g>
				</g>
			</g>
		</g>
		<g>
			<g>
				<path style="fill:#192037;" d="M205.262,123.706c5.252,2.306,9.652,5.033,13.586,9.023c4.11,3.921,6.847,8.591,10.511,13.124      c0.21,0.289,0.628,0.352,0.898,0.107c0.278-12.424-11.961-25.431-24.858-23.424      C204.812,122.621,204.712,123.495,205.262,123.706L205.262,123.706z"/>
			</g>
		</g>
		<g>
			<g>
				<path style="fill:#192037;" d="M141.006,104.93c-5.697-0.67-10.87-0.544-16.282,0.907c-5.527,1.302-10.249,3.946-15.702,6.001      c-0.327,0.143-0.72-0.014-0.83-0.362c6.041-10.86,23.175-15.884,33.285-7.625C141.943,104.222,141.587,105.026,141.006,104.93      L141.006,104.93z"/>
			</g>
		</g>
		<g>
			<g>
				<path style="fill:#192037;" d="M116.365,130.198c-2.264,8.747-0.686,16.722,3.525,17.813c4.211,1.091,9.461-5.115,11.725-13.862      c2.264-8.746,0.686-16.721-3.525-17.812C123.878,115.246,118.629,121.452,116.365,130.198z"/>
			</g>
		</g>
	</g>
</g>















</svg>
