<?xml version="1.0" encoding="UTF-8"?>
<!-- Generator: Adobe Illustrator 27.1.1, SVG Export Plug-In . SVG Version: 6.00 Build 0)  -->
<svg xmlns="http://www.w3.org/2000/svg" xmlns:xlink="http://www.w3.org/1999/xlink" version="1.1" id="Capa_1" x="0px" y="0px" viewBox="0 0 512 512" style="enable-background:new 0 0 512 512;" xml:space="preserve" width="512" height="512">
<g>
	<path style="fill:#FFFFFF;" d="M452.588,427.296c-0.789-3.416-3.319-6.109-6.577-7.157c0.511-16.851-8.812-32.483-22.399-43.011   c2.261-17.192-12.696-30.292-26.803-37.273c-1.523-0.851-3.179-1.255-4.817-1.251c-10.661-7.744-24.143-11.28-37.241-9.713   c77.292-49.295,39.611-175.522-6.234-237.362c24.26-13.184,39.098-47.386,21.692-70.382c-22.885-30.16-72.701-13.536-86.617,18.121   c-16.9-6.043-34.104-7.005-51.319-2.661c-12.596-33.269-64.07-51.762-87.745-20.716c-16.756,22.121-3.616,55.049,19.304,68.918   c-55.769,69.07-96.529,219.185,13.265,255.848c-5.122,8.831-9.397,20.028-12.128,30.64c-7.478,4.963-13.462,10.651-18.247,17.661   c-0.417-1.209-0.779-2.43-1.083-3.659c-1.585-7.375-11.56-9.973-16.571-4.549c-1.004-3.906-2.177-7.779-3.518-11.612   c-3.273-9.53-17.429-8.279-19.007,1.636c-1.061,6.377-2.14,12.857-3.646,19.173c-1.782-3.992-3.406-8.037-4.864-12.121   c-3.143-9.048-16.408-8.39-18.77,0.703l-1.19-2.198c-4.835-9.01-18.788-5.281-18.504,4.904   c0.974,44.122-15.528,88.809-20.609,101.453c-1.564,3.892-1.096,8.289,1.251,11.763c2.352,3.48,6.266,5.558,10.47,5.558h80.325   c1.923,1.6,25.833,0.53,28.546,0.82c0,0,6.903,0,6.903,0c3.498,7.327,12.15,11.605,21.393,10.836c0,0,42.866,0.334,42.866,0.334   c8.09,0.067,15.617-3.597,20.592-9.614c4.975,6.018,12.505,9.682,20.596,9.614l42.863-0.334c9.24,0.768,17.895-3.509,21.393-10.836   c2.641-0.3,31.044,0.796,32.673-0.82H461.3c9.169,0.292,15.667-10.393,11.216-18.41   C463.608,464.251,456.904,445.981,452.588,427.296z"/>
	<g>
		<g>
			<path style="fill:#00B2A7;" d="M69.431,381.029l13.396,24.751c4.085-7.643,6.141-16.155,5.95-24.633     c4.098,11.482,9.405,22.615,15.826,33.201c6.832-13.097,9.289-27.638,11.67-41.946c4.513,12.894,6.992,26.362,7.34,39.876     c7.666-6.201,12.299-15.333,12.484-24.604c1.959,7.925,5.809,15.467,11.214,21.969c6.116-2.988,10.227-9.044,10.387-15.303     c4.285,6.884,10.216,12.936,17.273,17.623l162.499,48.494c7.056-4.688,12.987-10.739,17.273-17.623     c0.16,6.259,4.271,12.315,10.387,15.303c5.405-6.502,9.255-14.044,11.214-21.969c0.185,9.272,4.818,18.403,12.484,24.604     c0.348-13.514,2.828-26.982,7.34-39.876c2.381,14.308,4.839,28.849,11.67,41.946c6.421-10.586,11.728-21.719,15.826-33.201     c-0.191,8.478,1.865,16.991,5.95,24.633l13.396-24.751c4.501,19.489,11.483,38.513,20.762,56.584     c0.954,1.858-0.367,4.066-2.457,4.066H50.699c-1.969,0-3.319-1.975-2.585-3.802C53.454,473.08,70.446,427.002,69.431,381.029z"/>
		</g>
		<g>
			<g>
				<g>
					<path style="fill:#F77800;" d="M341.401,435.49c19.768,9.043,42.401,17.703,63.555,9.531       c12.55-4.709,22.748-17.789,21.059-31.462c-0.837-6.716-4.451-13.359-9.376-18.908c-10.207-11.59-24.913-18.452-39.396-23.718       l1.363-4.236c15.797,4.482,31.704,10.632,43.789,22.479c13.896,13.135,18.539,32.432,8.118,49.577       c-14.316,24.563-47.212,28.18-72.224,21.381c-8.316-2.027-16.221-4.783-23.864-7.588L341.401,435.49L341.401,435.49z"/>
					<path style="fill:#9C3621;" d="M351.754,349.346c2.715,3.621,4.287,7.959,6.614,11.841c3.015,5.03,7.326,9.276,12.401,12.214       c-6.266-2.052-11.732-6.454-15.071-12.14c0.764,1.3,0.32,4.984,0.652,6.611c0.492,2.414,1.257,4.772,2.255,7.024       c1.999,4.512,4.944,8.61,8.593,11.935c7.788,7.097,18.574,10.081,28.812,7.132c9.371-2.699,18.46-10.327,17.939-20.861       c-0.285-5.747-3.492-11.036-7.654-15.01c-4.162-3.974-9.245-6.823-14.269-9.629c2.797,2.19,4.63,5.57,4.94,9.109       c-5.975-8.848-15.309-15.366-25.674-17.927c-10.365-2.561-21.661-1.141-31.069,3.906       C344.689,342.812,349.039,345.725,351.754,349.346z"/>
				</g>
				<g>
					<path style="fill:#F77800;" d="M325.072,460.518c14.515-6.341,24.933-19.692,27.133-35.135v-0.022       c0,0.022-2.91-2.257-3.47-6.355c-0.41-2.933,1.572-13.855,1.572-13.855c-1.726-5.133-4.314-9.555-7.29-13.351       c-5.091-6.47-11.366-11.108-16.715-14.235c-0.152-0.669-0.302-1.316-0.475-1.941c-0.928-3.731-1.941-7.225-3.019-10.482       l-11.323-24.005c-12.165-18.462-25.322-21.504-25.322-21.504h-35.368h-1.718H213.71c0,0-13.157,3.041-25.321,21.504       l-11.323,24.005c-1.079,3.257-2.092,6.751-3.019,10.482c-0.173,0.625-0.324,1.272-0.475,1.941       c-5.349,3.127-11.625,7.765-16.715,14.235c-2.976,3.796-5.564,8.218-7.29,13.351c0,0,1.982,10.921,1.572,13.855       c-0.56,4.098-3.47,6.376-3.47,6.355v0.022c2.199,15.443,12.617,28.793,27.132,35.135c-14.667-3.321-39.837-4.012-39.837,30.476       h114.114h1.718h114.114C364.909,456.506,339.739,457.196,325.072,460.518z"/>
				</g>
				<g style="opacity:0.38;">
					<path style="fill:#9C3621;" d="M202.13,351.598c5.054,4.13,10.924,7.167,17.111,9.204c13.951,4.592,29.438,5.194,43.938,3.449       c12.421-1.495,24.467-5.479,34.938-12.394c4.798-3.169,9.168-6.892,13.195-10.966c-12.117-18.232-25.149-21.257-25.149-21.257       H213.71c0,0-11.779,2.744-23.351,18.677C193.658,343.258,197.512,347.825,202.13,351.598z"/>
				</g>
				<g style="opacity:0.38;">
					<path style="fill:#9C3621;" d="M333.189,484.246c-2.426-4.108-5.847-7.495-9.168-10.873c-3.392-3.45-6.801-6.976-9.282-11.163       c-2.83-4.776-3.905-10.061-4.133-15.561c-0.19-4.606,0.561-10.144-2.539-13.997c-1.946-2.418-4.893-3.834-7.7-4.993       c-3.321-1.372-6.916-2.072-10.463-2.555c-7.465-1.015-15.099-0.766-22.518-2.091c-9.095-1.624-18.336-2.733-27.589-2.468       c-4.611,0.132-9.211,0.614-13.722,1.587c-4.181,0.902-8.397,1.897-12.431,3.332c-6.176,2.196-12.032,5.174-18.086,7.665       c-2.631,1.083-4.322,3.685-4.206,6.527c0.164,4.027,0.001,8.079-0.966,11.981c-2.225,8.98-9.413,14.969-16.298,20.552       c-4.813,3.902-9.906,7.684-12.83,13.31c-0.938,1.805-1.455,3.647-1.688,5.494h176.265       C335.319,488.65,334.451,486.383,333.189,484.246z"/>
				</g>
				<path style="fill:#F77800;" d="M256.855,409.359c0,0-6.219,52.098-1.541,78.959c1.4,8.042,8.364,13.91,16.526,13.846      l43.36-0.338c0,0,12.166,1.563,13.336-9.536c0.215-2.034-0.084-4.09-0.695-6.042c-1.872-5.979-8.073-17.974-27.508-16.332      c0,0,1.36-29.009,10.833-51.854"/>
				<path style="opacity:0.19;fill:#FFFFFF;" d="M285.841,478.86c-0.47,1.523-0.12,3.316,1.282,4.5      c1.267,1.069,3.077,1.438,4.767,1.592c4.314,0.394,8.534-0.257,12.834-0.161c3.74,0.083,7.528,0.73,11.239,0.591      c1.477-0.056,2.961-0.244,4.218-0.817c1.257-0.573,2.268-1.578,2.459-2.823c0.182-1.184-0.392-2.453-1.283-3.476      c-2.455-2.818-5.88-3.908-9.531-4.79c-2.296-0.555-4.636-0.898-6.964-1.024c-4.652-0.252-9.27,0.361-13.373,1.872      c-2.058,0.758-4.063,1.792-5.145,3.459C286.128,478.116,285.959,478.479,285.841,478.86z"/>
				<path style="fill:#F77800;" d="M245.794,409.359c0,0,6.218,52.098,1.541,78.959c-1.4,8.042-8.364,13.91-16.526,13.846      l-43.36-0.338c0,0-12.166,1.563-13.336-9.536c-0.214-2.034,0.084-4.09,0.695-6.042c1.872-5.979,8.074-17.974,27.508-16.332      c0,0-1.36-29.009-10.833-51.854"/>
				<path style="opacity:0.19;fill:#FFFFFF;" d="M184.666,478.86c-0.47,1.523-0.12,3.316,1.282,4.5      c1.267,1.069,3.077,1.438,4.767,1.592c4.314,0.394,8.534-0.257,12.834-0.161c3.74,0.083,7.528,0.73,11.239,0.591      c1.477-0.056,2.961-0.244,4.218-0.817c1.257-0.573,2.268-1.578,2.459-2.823c0.182-1.184-0.392-2.453-1.283-3.476      c-2.455-2.818-5.88-3.908-9.531-4.79c-2.296-0.555-4.636-0.898-6.964-1.024c-4.652-0.252-9.27,0.361-13.373,1.872      c-2.058,0.758-4.063,1.792-5.145,3.459C184.952,478.116,184.783,478.479,184.666,478.86z"/>
				<g>
					<g>
						<path style="fill:#192037;" d="M156.853,391.801c5.026,13.674,14.926,21.913,14.926,21.913        c-1.812-15.227,2.265-36.148,2.265-36.148v-1.941c-0.173,0.625-0.324,1.273-0.475,1.941        C168.219,380.693,161.943,385.33,156.853,391.801z"/>
					</g>
					<g>
						<path style="fill:#192037;" d="M194.687,387.488c-9.77-5.823-14.925-14.645-17.621-22.345        c3.322-10.029,7.247-17.858,11.323-24.005C185.327,365.704,194.687,387.488,194.687,387.488z"/>
						<path style="fill:#192037;" d="M182.263,438.41c-16.09,1.682-28.297-7.074-34.595-13.027v-0.022        c-0.561-3.882-0.582-7.894-0.022-11.992c0.41-2.933,1.057-5.651,1.92-8.218C161.795,426.613,182.263,438.41,182.263,438.41z"/>
					</g>
					<g>
						<path style="fill:#192037;" d="M343.021,391.801c-5.026,13.674-14.926,21.913-14.926,21.913        c1.812-15.227-2.265-36.148-2.265-36.148v-1.941c0.173,0.625,0.324,1.273,0.475,1.941        C331.654,380.693,337.93,385.33,343.021,391.801z"/>
					</g>
					<g>
						<path style="fill:#192037;" d="M305.187,387.488c9.771-5.823,14.925-14.645,17.621-22.345        c-3.322-10.029-7.247-17.858-11.323-24.005C314.547,365.704,305.187,387.488,305.187,387.488z"/>
						<path style="fill:#192037;" d="M317.61,438.41c16.09,1.682,28.297-7.074,34.595-13.027v-0.022        c0.561-3.882,0.582-7.894,0.022-11.992c-0.41-2.933-1.057-5.651-1.92-8.218C338.078,426.613,317.61,438.41,317.61,438.41z"/>
					</g>
				</g>
			</g>
			<g>
				<g>
					<g>
						<g>
							
								<ellipse transform="matrix(0.5968 -0.8024 0.8024 0.5968 37.3981 168.6533)" style="fill:#F77800;" cx="186.512" cy="47.115" rx="34.081" ry="42.454"/>
							
								<ellipse transform="matrix(0.5968 -0.8024 0.8024 0.5968 34.4799 173.3602)" style="fill:#F7D7B6;" cx="189.737" cy="52.372" rx="19.536" ry="24.336"/>
						</g>
					</g>
					<g>
						<g>
							
								<ellipse transform="matrix(0.8024 -0.5968 0.5968 0.8024 33.6122 206.2555)" style="fill:#F77800;" cx="328.261" cy="52.372" rx="42.454" ry="34.081"/>
							
								<ellipse transform="matrix(0.8024 -0.5968 0.5968 0.8024 29.8368 205.3682)" style="fill:#F7D7B6;" cx="325.036" cy="57.629" rx="24.336" ry="19.536"/>
						</g>
					</g>
				</g>
				<path style="fill:#F77800;" d="M386.966,238.893c0,1.833,2.086,4.804,2.086,4.782v0.022      c-2.631,77.689-62.246,97.726-135.47,97.726c-72.944,0-132.429-19.886-135.47-96.863c0,0,2.673-3.997,2.673-6.132      c0-4.486-2.264-13.84-2.264-13.84c1.078-14.278,3.818-29.182,7.959-44.021c5.011-3.626,7.245-14.272,8.886-26.421      c3.839-9.727,8.261-19.239,13.157-28.362c5.449-6.422,11.231-15.927,17.211-27.284c23.66-32.223,54.33-54.719,87.847-54.719      c32.87,0,63.022,21.654,86.489,52.885c6.055,13.571,12.035,24.375,17.815,27.78c4.853,8.886,9.232,18.139,13.049,27.608      c0.761,12.777,3.309,22.769,9.382,27.262v0.022c4.184,14.688,6.967,29.441,8.174,43.611c0,0,0,0,0,0.021      C388.492,222.969,386.966,233.889,386.966,238.893z"/>
				<path style="opacity:0.19;fill:#FFFFFF;" d="M250.748,58.074c-2.215,2.414-3.144,6.05-1.583,9.483      c1.41,3.1,4.446,5.38,7.447,7.155c7.661,4.531,16.069,7.042,23.967,11.006c6.871,3.449,13.332,7.988,20.343,10.997      c2.791,1.198,5.712,2.155,8.55,2.199c2.838,0.044,5.6-0.932,7.052-3.074c1.381-2.037,1.433-4.898,0.68-7.584      c-2.075-7.394-7.473-12.434-13.473-17.289c-3.772-3.053-7.815-5.75-12.027-8.036c-8.414-4.567-17.526-7.496-26.474-8.305      c-4.488-0.406-9.121-0.253-12.599,1.89C251.935,56.945,251.301,57.471,250.748,58.074z"/>
				<g>
					<g>
						<path style="fill:#192037;" d="M268.422,109.61c11.604-8.029,28.163-3.573,37.612,5.838c3.197,3.092,5.882,6.65,7.658,10.747        c0.214,0.495-0.012,1.071-0.506,1.285c-0.283,0.124-0.604,0.095-0.858-0.039c-7.215-3.959-13.599-8.314-20.913-11.447        c-7.261-3.184-14.289-4.404-22.451-4.615C268.049,111.396,267.661,110.102,268.422,109.61L268.422,109.61z"/>
					</g>
					<g>
						<path style="fill:#192037;" d="M239.878,109.366c-8.892,1.581-16.635,4.118-24.133,8.758        c-7.742,4.469-13.659,10.587-20.945,16.154c-0.428,0.363-1.092,0.305-1.415-0.168c4.172-19.07,27.72-34.406,46.716-26.58        C240.969,107.875,240.799,109.247,239.878,109.366L239.878,109.366z"/>
					</g>
				</g>
				<ellipse style="fill:#F7D7B6;" cx="253.578" cy="256.183" rx="74.836" ry="52.254"/>
				<path style="fill:#192037;" d="M288.796,201.358c0-10.617-15.767-19.223-35.218-19.223c-19.451,0-35.218,8.606-35.218,19.223      c0,8.889,11.07,16.348,26.085,18.547c1.404,7.234,4.959,12.383,9.134,12.383c4.174,0,7.729-5.148,9.133-12.383      C277.726,217.707,288.796,210.247,288.796,201.358z"/>
				<path style="opacity:0.19;fill:#FFFFFF;" d="M237.09,192.237c-0.508,1.568-0.171,3.426,1.262,4.669      c1.294,1.123,3.161,1.53,4.906,1.713c4.454,0.468,8.826-0.145,13.269,0.015c3.866,0.139,7.772,0.861,11.61,0.77      c1.528-0.037,3.064-0.21,4.372-0.785c1.308-0.574,2.366-1.599,2.582-2.883c0.205-1.221-0.37-2.541-1.278-3.612      c-2.498-2.948-6.023-4.122-9.785-5.087c-2.365-0.606-4.779-0.993-7.185-1.157c-4.806-0.326-9.588,0.242-13.851,1.746      c-2.138,0.755-4.226,1.795-5.368,3.503C237.397,191.471,237.217,191.845,237.09,192.237z"/>
				<g>
					<g>
						<path style="fill:#192037;" d="M218.984,223.803c0,0,6.102,10.25,23.023,18.983c17.688,9.13,33.563,5.851,33.563,5.851        c0.659,0.144,1.087,0.819,0.869,1.473c-21.265,9.928-53.043-1.35-59.37-25.178        C216.766,223.85,218.201,223.012,218.984,223.803L218.984,223.803z"/>
					</g>
				</g>
				<g>
					<g>
						<path style="fill:#192037;" d="M238.805,151.104c-0.447,11.731-5.389,21.068-11.038,20.854        c-5.648-0.214-9.865-9.897-9.418-21.628c0.448-11.731,5.39-21.068,11.038-20.854        C235.037,129.69,239.253,139.373,238.805,151.104z"/>
					</g>
				</g>
				<g>
					<g>
						<path style="fill:#192037;" d="M293.179,154.93c-0.448,11.732-5.389,21.068-11.038,20.854        c-5.649-0.214-9.865-9.898-9.417-21.63c0.447-11.731,5.389-21.068,11.038-20.854        C289.41,133.515,293.626,143.199,293.179,154.93z"/>
					</g>
				</g>
				<g>
					<path style="fill:#192037;" d="M171.149,170.278c0,0-19.088-14.257-22.625-44.495c5.219-9.619,10.957-18.786,17.211-27.284       C161.573,114.481,158.466,141.139,171.149,170.278z"/>
					<path style="fill:#192037;" d="M152.794,211.711c-0.712-0.367-16.91-9.145-26.313-31.145       c2.459-8.886,5.457-17.729,8.886-26.421C135.647,170.106,139.379,190.94,152.794,211.711z"/>
					<path style="fill:#192037;" d="M144.469,259.98c0,0-13.156-2.89-26.356-15.421c-0.086-2.049-0.13-4.141-0.13-6.276       c0-4.486,0.173-9.059,0.539-13.696C123.85,236.234,132.002,248.7,144.469,259.98z"/>
				</g>
				<g>
					<path style="fill:#192037;" d="M357.886,124.446c-3.106,31.166-22.754,45.832-22.754,45.832       c13.178-30.26,9.317-57.867,4.939-73.612C346.542,105.272,352.516,114.632,357.886,124.446z"/>
					<path style="fill:#192037;" d="M380.317,179.315v0.022c-9.318,22.884-26.119,32.007-26.831,32.374       c13.998-21.698,17.448-43.438,17.448-59.658C374.58,161.004,377.708,170.149,380.317,179.315z"/>
					<path style="fill:#192037;" d="M389.16,238.283c0,1.833-0.021,3.624-0.107,5.392v0.022       c-13.48,13.243-27.241,16.284-27.241,16.284c13.049-11.798,21.374-24.911,26.68-37.011       C388.945,228.167,389.16,233.279,389.16,238.283z"/>
				</g>
			</g>
		</g>
	</g>
</g>















</svg>
