<?xml version="1.0" encoding="UTF-8"?>
<!-- Generator: Adobe Illustrator 27.1.1, SVG Export Plug-In . SVG Version: 6.00 Build 0)  -->
<svg xmlns="http://www.w3.org/2000/svg" xmlns:xlink="http://www.w3.org/1999/xlink" version="1.1" id="Capa_1" x="0px" y="0px" viewBox="0 0 512 512" style="enable-background:new 0 0 512 512;" xml:space="preserve" width="512" height="512">
<g>
	<path style="fill:#FFFFFF;" d="M436.064,34.534c-37.961-10.94-81.132,9.859-96.414,46.106   C306.571,68.107,270.473,67.405,237,78.686c-7.699-17.462-21.125-31.569-38.25-40.112c0.191-2.442,1.732-25.029,1.917-28.025   c0.501-5.518-4.318-10.633-9.824-10.505c-1.887-0.88-28.434,11.686-30.764,12.393c0,0-1.202,0.516-1.202,0.516l-19.733,8.528   l-23.582-11.019c-1.887-0.935-4.072-1.964-6.205-1.877c-2.023,0-4.029,0.623-5.725,1.835L79.384,27.748L52.571,7.71   c-6.29-4.95-16.302,0.208-15.731,8.27c6.616,169.983-2.247,340.177-24.958,479.23c-0.49,3.001,0.434,6.06,2.504,8.288   c6.994,8.964,36.37-4.53,44.351-9.2c9.321,6.201,21.666,10.783,33.421,12.131c12.522-2.057,23.788-8.609,31.232-15.982   c8.761,7.745,19.55,14.55,32.681,20.639c1.323,0.613,2.736,0.914,4.14,0.914c2.249,0,4.475-0.77,6.275-2.257   c1.261-1.043,10.902-9.132,17.545-18.133c8.503,7.266,39.285,18.075,43.962,3.642c1.228-3.737,0.114-7.846-2.833-10.451   c-4.321-3.819-7.946-9.416-10.961-16.959c73.255-0.817,116.968,8.485,161.016-33.35c18.974,8.942,44.335-4.165,39.452-26.435   c-2.199-10.918-12.673-16.666-22.479-16.447c0.125-12.371-24.46-71.474-28.159-84.207c58.648-18.576,88.062-61.185,76.87-114.539   c2.768,1.467,6.095,1.539,8.938,0.147c8.537-4.173,16.42-9.667,23.314-16.204c4.771,1.485,10.147-1.036,11.992-5.786   c2.449-6.153,4.566-12.454,6.336-18.849c2.967-1.122,5.288-3.643,6.08-6.855C509.521,101.02,480.237,45.124,436.064,34.534z"/>
	<g>
		<g>
			<path style="fill:#9C3621;" d="M218.714,492.155c-13.53,1.203-27.35-4.892-37.444-16.441c-0.058-0.058-0.136-0.136-0.194-0.214     c-0.155,1.883-0.971,3.979-2.213,6.153c-5.357,9.55-18.577,20.479-18.577,20.479c-14.985-6.949-28.01-15.451-37.774-26.554     c0,0,0,0.019-0.019,0.019c-0.971,1.689-2.038,3.261-3.222,4.736c-6.386,8.075-15.704,13.18-27.04,16.228     c-1.281-0.214-2.523-0.447-3.746-0.718c-1.262-0.252-2.504-0.544-3.727-0.854c-9.239-2.388-17.14-6.134-23.74-11.239     c-0.562-0.446-1.106-0.893-1.65-1.339c0,0-0.719,0.505-2.038,1.301c-2.66,1.65-7.706,4.581-14.034,7.26     c-1.32,0.543-2.698,1.106-4.115,1.63c-5.357,1.98-11.375,3.63-17.509,4.173C46.498,344.767,52.788,170.669,46.751,15.574     l32.572,24.342l1.3-0.932l2.077-1.475l26.729-19.101l0.097,0.039l1.941,0.912l27.583,12.889l0.174-0.078l1.417-0.602     l22.187-9.589l1.223-0.524l26.865-11.588l-1.592,23.72c-10.191,133.665-13.432,269.232,6.852,400.839     C199.516,456.09,204.505,479.596,218.714,492.155z"/>
			<g style="opacity:0.41;">
				<path style="fill:#192037;" d="M82.7,37.509c-4.465,94.28-9.104,195.392-13.277,288.196      c-3.009-95.658,0.757-191.568,11.2-286.721L82.7,37.509z"/>
				<path style="fill:#192037;" d="M140.642,31.569c-6.386,93.465-16.363,187.667-29.776,280.277      c5.882-93.154,15.432-187.123,28.359-279.675L140.642,31.569z"/>
				<path style="fill:#192037;" d="M102.072,244.276c1.689-72.733,4.348-151.969,7.454-225.829l1.941,0.912      C114.263,94.422,111.137,169.737,102.072,244.276z"/>
				<path style="fill:#192037;" d="M122.493,475.598c-0.971,1.689-2.038,3.261-3.222,4.736      c-2.97-59.514-1.398-119.262,4.756-178.504C124.667,359.539,124.124,417.753,122.493,475.598z"/>
				<path style="fill:#192037;" d="M153.997,404.941c-13.801-126.949-10.793-256.692,8.832-382.961l1.223-0.524      C151.144,148.657,147.805,277.294,153.997,404.941z"/>
				<path style="fill:#192037;" d="M181.27,475.714c-0.058-0.058-0.136-0.136-0.194-0.214c-0.155,1.883-0.971,3.979-2.213,6.153      c-10.851-51.653-16.985-104.315-18.208-157.075C168.128,373.068,175.271,425.556,181.27,475.714z"/>
				<path style="fill:#192037;" d="M80.138,344.165c-0.039,47.033-6.542,94.202-19.12,139.585c-0.562-0.446-1.106-0.893-1.65-1.339      c0,0-0.719,0.505-2.038,1.301c3.397-18.285,6.833-36.765,9.764-54.681C71.83,401.311,75.848,371.943,80.138,344.165z"/>
				<path style="fill:#192037;" d="M101.024,345.369c-0.583,30.475-3.183,62.115-5.959,92.513      c-1.922,19.081-3.999,38.609-6.58,57.962c-1.262-0.252-2.504-0.544-3.727-0.854c1.126-19.314,2.796-38.745,4.523-57.67      C92.328,406.941,95.783,375.417,101.024,345.369z"/>
				<path style="fill:#192037;" d="M54.069,422.198c-2.524,22.944-5.979,46.024-10.773,68.773c-1.32,0.543-2.698,1.106-4.115,1.63      c3.494-23.643,6.658-47.363,9.104-71.006c3.941-36.435,6.212-73.432,8.153-110.022      C59.174,348.203,57.757,385.666,54.069,422.198z"/>
			</g>
		</g>
		<g>
			<path style="fill:#192037;" d="M400.488,403.453c-3.865-2.364-8.73-1.914-13.251-2.202c-8.501-0.542-16.782-4.069-23.062-9.823     l5.897,28.677c5.021,3.775,10.835,6.818,17.099,7.298c6.264,0.48,13.005-2.015,16.386-7.31     C406.938,414.797,405.848,406.73,400.488,403.453z"/>
			<path style="fill:#C2B2BC;" d="M379.01,377.593l-31.161-86.215l-121.624-17.523l2.251,68.254l0,0.005     c-19.194,8.709-33.368,21.769-39.153,36.983c-10.63-15.751-25.433-24.233-37.848-19.997c-16.772,5.722-8.975,27.745,0.329,55.02     c9.305,27.275,16.592,49.472,33.365,43.751c0,0,96.552,0.348,99.302,0.348c54.137,0,98.025-28.552,98.025-63.773     C382.496,388.61,381.267,382.963,379.01,377.593z"/>
			<path style="opacity:0.11;fill:#192037;" d="M379.01,377.593l-31.161-86.215l-121.624-17.523l2.251,68.254l0,0.005     c-19.194,8.709-33.368,21.769-39.153,36.983c-10.63-15.751-25.433-24.233-37.848-19.997c-16.772,5.722-8.975,27.745,0.329,55.02     c9.305,27.275,16.592,49.472,33.365,43.751c0,0,96.552,0.348,99.302,0.348c54.137,0,98.025-28.552,98.025-63.773     C382.496,388.61,381.267,382.963,379.01,377.593z"/>
			<path style="opacity:0.18;fill:#192037;" d="M189.828,377.889c0.118,0.612,0.22,1.226,0.368,1.833     c1.781,7.297,5.851,13.788,11.912,18.277c6.419,4.754,14.134,7.02,21.921,8.299c15.68,2.575,32.605,2.293,47.454-3.888     c7.258-3.021,13.848-7.569,19.018-13.513c5.896-6.778,9.58-15.209,12.28-23.698c3.088-9.712,4.825-19.855,5.445-30.019     c0.595-9.744,0.25-19.685-1.677-29.274c-1.473-7.33-3.766-14.519-6.645-21.436l-73.678-10.615l2.251,68.254l0,0.005     C209.795,350.591,195.893,363.195,189.828,377.889z"/>
			<g>
				<path style="fill:#C2B2BC;" d="M321.679,383.407c-120.405,18.681-164.242-44.238-164.242-44.238l22.605-42.548      c35.386-0.011,90.438,11.22,138.037,10.287"/>
				<path style="opacity:0.11;fill:#192037;" d="M321.679,383.407c-120.405,18.681-164.242-44.238-164.242-44.238l22.605-42.548      c35.386-0.011,90.438,11.22,138.037,10.287"/>
				<path style="opacity:0.19;fill:#FFFFFF;" d="M374.655,399.53c-0.82-3.745-3.676-7.082-8.013-7.898      c-3.917-0.737-8.143,0.636-11.863,2.314c-9.495,4.284-17.557,10.645-26.669,15.538c-7.926,4.257-16.621,7.388-24.221,12.075      c-3.025,1.866-5.908,4.018-7.86,6.706c-1.952,2.688-2.877,5.988-1.803,8.821c1.021,2.693,3.725,4.669,6.803,5.755      c8.476,2.991,16.934,1.214,25.621-1.263c5.462-1.557,10.765-3.612,15.788-6.106c10.036-4.982,18.973-11.734,25.77-19.757      c3.409-4.024,6.382-8.562,6.671-13.334C374.938,401.426,374.86,400.465,374.655,399.53z"/>
				<path style="opacity:0.19;fill:#FFFFFF;" d="M167.333,366.34c-2.677,0.219-5.26,1.89-6.233,4.824      c-0.878,2.65-0.32,5.712,0.497,8.452c2.086,6.992,5.747,13.185,8.291,19.967c2.213,5.901,3.574,12.23,6.117,17.944      c1.012,2.275,2.236,4.477,3.92,6.084c1.683,1.607,3.888,2.558,5.955,2.077c1.965-0.457,3.59-2.149,4.632-4.185      c2.869-5.604,2.427-11.642,1.52-17.905c-0.57-3.937-1.5-7.811-2.762-11.532c-2.52-7.433-6.371-14.269-11.305-19.739      c-2.474-2.743-5.347-5.231-8.633-5.879C168.676,366.321,168.001,366.286,167.333,366.34z"/>
				<path style="fill:#192037;" d="M157.437,339.168l-14.425-19.989c-0.575-0.797-0.006-1.911,0.977-1.911h12.182l-4.845-15.044      c-0.268-0.831,0.41-1.663,1.278-1.568l14.395,1.572l-5.329-10.658c-0.515-1.03,0.57-2.127,1.606-1.623l19.22,6.9      C182.497,296.847,178.856,337.606,157.437,339.168z"/>
			</g>
			<g>
				<g>
					<g>
						<path style="fill:#C2B2BC;" d="M485.415,95.275c-8.348-24.057-26.859-44.5-51.849-51.259        c-14.054-3.801-29.095-3.21-42.821,1.633c-37.612,13.27-57.346,54.518-44.075,92.13c13.27,37.612,54.518,57.345,92.13,44.076        c3.831-1.352,7.466-3.008,10.911-4.906c-1.317,2.431-2.679,4.838-4.123,7.196c11.889-5.812,22.365-14.49,30.288-25.09        c0.065,2.768,0.13,5.537,0.195,8.305c4.242-10.66,7.42-21.742,9.473-33.029c0.843,2.87,1.687,5.74,2.531,8.609        C491.922,127.316,490.722,110.566,485.415,95.275z"/>
						<circle style="fill:#F57486;" cx="407.205" cy="121.575" r="41.397"/>
					</g>
					<g>
						<path style="fill:#C2B2BC;" d="M91.404,93.426c8.348-24.057,26.859-44.5,51.849-51.259c14.054-3.801,29.095-3.21,42.822,1.633        c37.612,13.27,57.346,54.518,44.075,92.13c-13.27,37.612-54.518,57.345-92.13,44.076c-3.831-1.352-7.466-3.008-10.911-4.906        c1.317,2.431,2.679,4.838,4.123,7.196c-11.889-5.812-22.364-14.49-30.288-25.09c-0.065,2.769-0.13,5.537-0.195,8.305        c-4.242-10.66-7.42-21.742-9.473-33.029c-0.843,2.87-1.687,5.739-2.531,8.609C84.897,125.467,86.098,108.717,91.404,93.426z"/>
						
							<ellipse transform="matrix(0.509 -0.8607 0.8607 0.509 -19.7782 204.777)" style="fill:#F57486;" cx="169.614" cy="119.726" rx="41.397" ry="41.397"/>
					</g>
				</g>
				<g>
					<path style="fill:#C2B2BC;" d="M433.424,214.671c0,4.911-0.408,9.647-1.184,14.17c-6.309,36.512-80.245,71.84-80.245,71.84       c-19.955,5.319-42.491,7.958-66.347,7.958c-23.856,0-46.412-2.64-66.347-7.978c0,0-73.917-35.309-80.226-71.821v-0.019       c-0.777-4.523-1.184-9.24-1.184-14.151c0-62.989,66.153-134.15,147.757-134.15C367.272,80.521,433.424,151.682,433.424,214.671       z"/>
					<path style="opacity:0.19;fill:#FFFFFF;" d="M275.957,92.104c-2.087,3.216-2.452,7.593,0.016,11.251       c2.229,3.304,6.177,5.345,9.985,6.81c9.722,3.741,19.913,5.004,29.798,8.044c8.599,2.645,16.939,6.627,25.615,8.738       c3.453,0.84,7.011,1.377,10.295,0.877c3.284-0.501,6.281-2.163,7.541-4.918c1.198-2.619,0.702-5.932-0.689-8.884       c-3.831-8.131-11.041-12.897-18.909-17.334c-4.947-2.79-10.136-5.117-15.441-6.937c-10.598-3.635-21.683-5.245-32.167-4.44       c-5.258,0.404-10.576,1.481-14.173,4.629C277.108,90.57,276.479,91.301,275.957,92.104z"/>
					<path style="opacity:0.19;fill:#FFFFFF;" d="M391.129,56.809c-2.089,3.215-3.035,7.213-1.698,10.134       c1.207,2.638,3.924,3.876,6.621,4.617c6.886,1.892,14.509,1.481,21.626,2.717c6.192,1.076,11.981,3.395,18.313,3.978       c2.521,0.232,5.167,0.175,7.761-0.775c2.594-0.951,5.146-2.904,6.53-5.577c1.317-2.542,1.44-5.45,0.822-7.899       c-1.702-6.742-6.506-9.94-11.864-12.741c-3.369-1.761-6.995-3.069-10.786-3.902c-7.574-1.664-15.829-1.429-23.991,0.891       c-4.094,1.163-8.335,2.942-11.572,6.325C392.244,55.252,391.651,56.006,391.129,56.809z"/>
					<path style="opacity:0.19;fill:#FFFFFF;" d="M124.629,67.932c-0.748,3.76-0.143,7.825,2.181,10.041       c2.099,2.002,5.081,2.144,7.862,1.832c7.097-0.797,14.023-4.006,21.092-5.498c6.149-1.298,12.386-1.29,18.482-3.098       c2.427-0.72,4.863-1.754,6.92-3.599c2.057-1.845,3.701-4.605,3.996-7.601c0.28-2.849-0.684-5.596-2.166-7.64       c-4.081-5.63-9.728-6.818-15.744-7.432c-3.782-0.386-7.634-0.256-11.464,0.377c-7.651,1.264-15.23,4.544-21.95,9.726       c-3.37,2.599-6.649,5.823-8.401,10.166C125.088,66.072,124.816,66.993,124.629,67.932z"/>
					<g>
						<g>
							<g>
								<g>
									<path style="fill:#FFFFFF;" d="M240.019,167.608c13.335,12.075,14.352,32.689,2.308,45.995           c-6.78,7.486-16.315,11.071-25.706,10.588c-7.29-0.329-14.479-3.128-20.283-8.389c-0.561-0.521-1.121-1.043-1.632-1.649           c-11.524-11.943-12.184-30.796-1.39-43.525c0.226-0.318,0.448-0.564,0.686-0.838c5.817-6.435,13.658-9.97,21.667-10.535           C224.267,158.59,233.105,161.348,240.019,167.608z"/>
								</g>
							</g>
							<path style="fill:#192037;" d="M227.973,164.418c12.316,8.971,15.945,26.404,8.222,39.501         c-5.995,10.167-17.05,15.476-28.074,14.633c-9.521-0.727-17.795-7.318-20.95-16.335c-3.694-10.557-1.81-22.704,5.864-31.753         c0.227-0.318,0.448-0.564,0.686-0.838c2.549-2.82,5.487-5.083,8.657-6.783c8-4.29,17.91-3.895,25.322,1.379         C227.791,164.286,227.882,164.352,227.973,164.418z"/>
						</g>
						<g>
							<g>
								<g>
									<path style="fill:#FFFFFF;" d="M358.679,161.593c17.122,4.54,27.306,22.038,22.758,39.088           c-2.561,9.647-9.272,17.061-17.683,20.876c-6.511,3.005-14.078,3.81-21.499,1.86c-3.823-1.013-7.286-2.658-10.331-4.832           c-10.331-7.303-15.669-20.354-12.707-33.262c0.084-0.354,0.168-0.706,0.251-1.06c2.921-10.895,11.098-18.947,21.105-22.159           C346.243,160.225,352.479,159.935,358.679,161.593z"/>
								</g>
							</g>
							<path style="fill:#192037;" d="M346.454,161.763c16.567,0.871,29.275,14.993,28.402,31.521         c-0.871,16.495-14.995,29.207-31.562,28.336c-1.752-0.092-3.462-0.33-5.119-0.705c-4.455-1.009-8.527-3.421-11.617-6.778         c-6.933-7.531-10.099-18.229-7.666-28.831c0.084-0.354,0.168-0.706,0.251-1.059c2.438-9.093,8.537-16.205,16.304-20.176         c3.361-1.718,7.172-2.5,10.944-2.31C346.412,161.761,346.433,161.762,346.454,161.763z"/>
						</g>
						<g>
							<path style="fill:#192037;" d="M228.13,140.203c-10.66-7.375-25.871-3.282-34.55,5.363c-2.937,2.841-5.404,6.108-7.034,9.872         c-0.197,0.455,0.011,0.983,0.465,1.181c0.26,0.113,0.555,0.087,0.788-0.036c6.628-3.636,12.492-7.637,19.211-10.515         c6.67-2.924,13.126-4.046,20.624-4.24C228.472,141.844,228.829,140.656,228.13,140.203L228.13,140.203z"/>
						</g>
						<g>
							<path style="fill:#192037;" d="M343.261,139.979c8.168,1.452,15.281,3.783,22.169,8.045         c7.112,4.105,12.547,9.725,19.24,14.839c0.393,0.333,1.003,0.281,1.3-0.154c-3.833-17.518-25.464-31.605-42.913-24.416         C342.259,138.61,342.415,139.87,343.261,139.979L343.261,139.979z"/>
						</g>
						<g>
							<g>
								<path style="fill:#192037;" d="M320.371,240.971c0,0-4.077,6.848-15.382,12.683c-11.818,6.1-22.424,3.909-22.424,3.909          c-0.44,0.096-0.726,0.547-0.58,0.984c14.208,6.633,35.439-0.902,39.667-16.822          C321.853,241.002,320.894,240.442,320.371,240.971L320.371,240.971z"/>
							</g>
						</g>
						<path style="fill:#192037;" d="M313.252,226.904c0,17.547-13.235,17.357-29.56,17.357s-29.56,0.19-29.56-17.357        c0-17.546,13.235-48.728,29.56-48.728S313.252,209.358,313.252,226.904z"/>
					</g>
					<g>
						<path style="fill:#F57486;" d="M226.25,273.855c0,9.725-2.504,18.868-6.949,26.807        c-42.957-11.453-73.917-35.309-80.226-71.821v-0.019c9.026-6.425,20.051-10.191,31.951-10.191        C201.54,218.631,226.25,243.36,226.25,273.855z"/>
						<path style="fill:#F57486;" d="M432.24,228.841c-6.309,36.512-37.269,60.368-80.245,71.84        c-4.445-7.939-6.969-17.082-6.969-26.826c0-30.495,24.73-55.225,55.224-55.225        C412.169,218.631,423.214,222.396,432.24,228.841z"/>
					</g>
				</g>
			</g>
		</g>
	</g>
</g>















</svg>
