<?xml version="1.0" encoding="UTF-8"?>
<!-- Generator: Adobe Illustrator 27.1.1, SVG Export Plug-In . SVG Version: 6.00 Build 0)  -->
<svg xmlns="http://www.w3.org/2000/svg" xmlns:xlink="http://www.w3.org/1999/xlink" version="1.1" id="Capa_1" x="0px" y="0px" viewBox="0 0 512 512" style="enable-background:new 0 0 512 512;" xml:space="preserve" width="512" height="512">
<g>
	<path style="fill:#FFFFFF;" d="M493.68,426.578c-1.013-0.033-2.025-0.073-3.041-0.12c-1.288-6.857-3.066-12.232-5.312-16.038   c-5.047-8.058-14.265-7.561-21.237-1.87c-1.732-4.718-3.8-8.175-5.414-10.432c-3.705-5.347-11.345-7.178-17.092-4.126   c-1.172-6.426-3.055-11.222-4.522-14.25c-4.837-9.353-15.133-10.217-23.561-4.941c-0.498-4.988-1.531-9.081-2.61-12.224   c-2.276-6.827-9.588-11.04-16.669-9.64c2.465-14.622,3.975-28.609-9.966-33.22c4.773-9.281,6.911-17.41,7.831-23.462   c1.475-9.351-5.464-18.072-14.816-19.293c5.614-7.36,8.922-14.118,10.861-19.328c3.025-8.124-0.8-17.387-8.707-21.088   c-2.467-1.155-5.264-2.207-8.382-3.156c9.231-8.125,14.476-15.971,17.192-20.943c4.156-7.609,1.696-17.324-5.6-22.117   c-2.621-1.722-5.691-3.372-9.199-4.945c9.652-6.112,15.74-12.485,19.106-16.681c5.425-6.762,4.706-16.758-1.637-22.756   c-11.085-10.482-30.899-19.295-47.145-25.282c-5.33-16.406-17.16-29.45-35.272-38.891c4.789-43.904-33.411-53.491-61.539-25.317   c-0.804-18.105-11.256-31.397-28.278-31.524c-22.372-1.036-50.124,28.455-58.463,55.196   c-47.462-17.524-132.62-29.325-157.67,28.957c-3.333,7.756-3.489,16.635,0.176,24.239c2.967,6.154,8.254,11.771,16.552,14.475   c0.558,17.616,12.875,28.391,31.853,37.564c-5.088,0.782-8.99,5.25-9.07,10.507c-8.207-1.066-14.208,7.141-11.369,14.763   c0,0,19.133,34.131,28.972,48.828c11.183,16.706,27.283,36.156,46.853,47.451c2.411,21.799,9.242,42.685,20.207,61.672   c-4.276,9.572-16.299,36.44-20.748,46.396c-0.022,0.075-0.095,0.196-0.116,0.27c0,0-3.078,7.484-3.078,7.484   c-4.143,10.072-0.01,21.943,9.826,28.303c7.783,4.894,16.061,9.312,24.403,13.162c12.05,5.544,24.836,9.987,37.79,13.201   c5.617,1.605,11.644,2.38,17.253,0.515c3.499,2.902,7.832,4.919,12.547,5.796c2.077,0.355,4.133,0.656,6.198,0.982   c11.262,1.554,22.614,2.406,33.945,2.398c13.053-0.001,26.59-1.162,39.4-3.317c12.579-2.121,21.707-12.228,21.707-24.033v-24.789   c69.282,63.495,151.191,40.503,203.924,1.912c4.185-3.063,2.117-9.696-3.067-9.864L493.68,426.578z"/>
	<g>
		<g>
			<g>
				<path style="fill:#00B2A7;" d="M80.371,200.78l-30.015,23.762c0,0,36.768,84.294,95.093,84.112l22.745-50.836      C143.052,236.872,108.891,217.788,80.371,200.78z"/>
				<path style="opacity:0.28;fill:#192037;" d="M115.737,221.797c-3.199,4.96-5.809,10.299-7.918,15.808      c-2.872,7.504-4.87,15.326-6.283,23.229c-1.461,8.175-2.292,16.456-2.701,24.747c-0.075,1.518-0.122,3.036-0.169,4.555      c13.319,10.816,29.052,18.573,46.782,18.518l22.745-50.836C152.937,245.107,134.36,233.088,115.737,221.797z"/>
				<path style="fill:#F7D7B6;" d="M50.356,224.541l-11.39-17.8c-0.204-0.821,0.607-1.527,1.392-1.213l9.725,3.898l0.946-13.56      c0.052-0.749,0.859-1.196,1.522-0.843l10.989,5.86l-0.844-10.213c-0.082-0.987,1.136-1.516,1.801-0.782l15.875,10.891      C80.371,200.78,67.955,230.147,50.356,224.541z"/>
			</g>
		</g>
		<g>
			<path style="fill:#00B2A7;" d="M230.909,385.656l-34.422,75.906c-2.423,5.891-9.248,8.938-16.224,7.354     c-5.704-1.296-11.309-2.833-16.827-4.585c-0.64-0.204-1.293-0.414-1.928-0.63c-6.162-2.017-9.984-8.884-15.901-11.496     c-1.077-0.472-37.015-19.949-34.608-25.802l3.078-7.484l33.064-73.938L230.909,385.656z"/>
			<path style="opacity:0.28;fill:#192037;" d="M147.142,344.981l-19.116,42.746c0.301,1.131,0.611,2.254,0.967,3.35     c0.719,2.216,1.594,4.416,2.953,6.324c1.463,2.054,3.249,3.873,5.113,5.563c4.205,3.812,8.921,7.018,13.575,10.246     c2.209,1.532,4.381,3.113,6.57,4.674c2.488,1.774,5.105,3.355,7.694,4.975c2.61,1.632,5.204,3.305,7.631,5.204     c1.285,1.006,2.382,2.235,3.242,3.622c1.816,2.929,2.505,6.416,2.619,9.821c0.134,4.007-0.49,8.029-1.398,11.921     c-0.987,4.231-2.352,8.37-3.903,12.426c-0.149,0.39-0.317,0.772-0.47,1.16c2.53,0.679,5.076,1.319,7.644,1.902     c6.976,1.583,13.801-1.463,16.224-7.354l34.422-75.906L147.142,344.981z"/>
			<path style="fill:#F7D7B6;" d="M163.179,460.679c-0.452,1.1-1.015,2.11-1.672,3.023c-6.162-2.017-12.191-4.319-18.109-6.931     c-1.077-0.472-2.148-0.957-3.233-1.448c-0.076-0.031-0.159-0.08-0.235-0.112c-1.079-0.503-2.146-1.001-3.214-1.529     c-2.001-0.956-3.987-1.95-5.957-2.982c-2.92-1.526-5.821-3.133-8.678-4.811c-0.154-0.093-0.308-0.186-0.467-0.266     c-0.187-0.121-0.391-0.235-0.583-0.343c-1.224-0.725-2.451-1.481-3.665-2.231c-0.045-0.033-0.083-0.049-0.128-0.082     c-5.987-3.807-8.647-10.71-6.239-16.564l3.078-7.484c2.247-0.288,4.59-0.019,6.815,0.896c4.703,1.934,7.72,6.279,8.297,11.128     c2.352-0.363,4.797-0.126,7.148,0.841c1.365,0.562,2.587,1.33,3.641,2.251c2.54,2.198,4.158,5.272,4.625,8.628     c3.428-1.723,7.513-2.024,11.268-0.48C162.914,445.08,166.19,453.359,163.179,460.679z"/>
		</g>
		<g>
			<path style="fill:#00B2A7;" d="M456.469,438.245l25.469,1.783c0,0-1.131-17.009-5.671-24.703     c-0.742-1.258-2.32-1.764-3.634-1.127c-3.524,1.71-10.588,6.436-15.593,18.208c0.814-15.388-4.068-24.626-6.961-28.673     c-1.147-1.604-3.345-2.023-5.038-1.01c-4.468,2.674-9.301,7.815-13.354,12.797c2.042-15.78-1.554-26.403-4.058-31.569     c-1.144-2.359-3.931-3.4-6.376-2.452c-6.089,2.362-13.098,7.53-19.267,12.826c2.862-13.738,0.759-23.573-0.973-28.618     c-0.852-2.48-3.493-3.849-6.034-3.202c-5.7,1.451-12.413,5.074-18.631,9.077c9.163-17.127,9.464-30.73,8.746-37.571     c-0.32-3.047-2.97-5.298-6.033-5.227c-4.423,0.103-9.561,1.124-14.828,2.616c12.61-15.39,16.424-29.131,17.56-36.612     c0.558-3.679-1.865-7.137-5.486-7.993c-6.038-1.427-13.57-1.71-21.33-1.375c14.545-12.137,20.796-24.29,23.36-31.177     c1.298-3.487-0.368-7.367-3.739-8.944c-7.579-3.547-18.239-5.617-28.691-6.821c19.899-10.639,29.205-23.538,33.109-30.685     c1.784-3.265,0.69-7.344-2.42-9.387c-7.563-4.97-18.939-8.746-29.902-11.497c21.196-6.995,32.51-17.964,37.574-24.276     c2.328-2.903,1.966-7.109-0.737-9.666c-16.539-15.641-58.147-28.095-58.147-28.095l-8.777,56.339     c-1.386-0.184-2.181-0.277-2.181-0.277l1.207,55.919c-3.165-0.001-5.067,0.053-5.067,0.053l8.861,53.138     c-4.633,0.921-7.517,1.608-7.517,1.608l20.438,52.561c-2.253,1.12-3.585,1.829-3.585,1.829l28.642,39.604     c-0.682,0.574-1.057,0.9-1.057,0.9l4.648,4.064l1.02,1.411c0.087-0.099,0.167-0.198,0.254-0.297l30.629,26.785     c0.489-0.911,0.952-1.812,1.399-2.704l31.635,21.541c0.846-2.175,1.582-4.283,2.237-6.337l27.416,12.526     C455.961,441.7,456.237,439.952,456.469,438.245z"/>
			<path style="opacity:0.36;fill:#192037;" d="M456.469,438.245l25.469,1.783c0,0-1.131-17.009-5.671-24.703     c-0.742-1.258-2.32-1.764-3.634-1.127c-3.524,1.71-10.588,6.436-15.593,18.208c0.814-15.388-4.068-24.626-6.961-28.673     c-1.147-1.604-3.345-2.023-5.038-1.01c-4.468,2.674-9.301,7.815-13.354,12.797c2.042-15.78-1.554-26.403-4.058-31.569     c-1.144-2.359-3.931-3.4-6.376-2.452c-6.089,2.362-13.098,7.53-19.267,12.826c2.862-13.738,0.759-23.573-0.973-28.618     c-0.852-2.48-3.493-3.849-6.034-3.202c-5.7,1.451-12.413,5.074-18.631,9.077c9.163-17.127,9.464-30.73,8.746-37.571     c-0.32-3.047-2.97-5.298-6.033-5.227c-4.423,0.103-9.561,1.124-14.828,2.616c12.61-15.39,16.424-29.131,17.56-36.612     c0.558-3.679-1.865-7.137-5.486-7.993c-6.038-1.427-13.57-1.71-21.33-1.375c14.545-12.137,20.796-24.29,23.36-31.177     c1.298-3.487-0.368-7.367-3.739-8.944c-7.579-3.547-18.239-5.617-28.691-6.821c19.899-10.639,29.205-23.538,33.109-30.685     c1.784-3.265,0.69-7.344-2.42-9.387c-7.563-4.97-18.939-8.746-29.902-11.497c21.196-6.995,32.51-17.964,37.574-24.276     c2.328-2.903,1.966-7.109-0.737-9.666c-16.539-15.641-58.147-28.095-58.147-28.095l-8.777,56.339     c-1.386-0.184-2.181-0.277-2.181-0.277l1.207,55.919c-3.165-0.001-5.067,0.053-5.067,0.053l8.861,53.138     c-4.633,0.921-7.517,1.608-7.517,1.608l20.438,52.561c-2.253,1.12-3.585,1.829-3.585,1.829l28.642,39.604     c-0.682,0.574-1.057,0.9-1.057,0.9l4.648,4.064l1.02,1.411c0.087-0.099,0.167-0.198,0.254-0.297l30.629,26.785     c0.489-0.911,0.952-1.812,1.399-2.704l31.635,21.541c0.846-2.175,1.582-4.283,2.237-6.337l27.416,12.526     C455.961,441.7,456.237,439.952,456.469,438.245z"/>
			<g>
				<path style="fill:#00B2A7;" d="M319.449,194.062c0,0,50.651-74.84-22.437-106.71c3.539-16.01,0.768-29.766-8.447-35.091      c-11.269-6.511-28.664,1.653-42.487,18.614c-3.423-0.634-6.912-1.169-10.417-1.553c2.688-14.891-0.267-27.462-8.965-32.487      c-13.723-7.913-36.477,5.86-50.868,30.751c-4.874,8.464-8.163,17.128-9.833,25.175c-24.173-9.265-131.167-45.659-157.21,25.258      c0,0-3.038,20.283,21.285,22.303c0,0-22.671,39.549,110.833,53.739c0,0-69.882,117.01,27.946,211.667      c6.915,6.706,14.686,13.285,23.355,19.7v25.263v9.038c0,7.068,45.393,11.919,46.706,11.95      c7.221,0.183,14.086,5.653,21.307,5.118c0.748-0.046,1.511-0.107,2.259-0.168c6.443-0.534,12.885-1.328,19.327-2.412      c7.878-1.328,13.633-7.374,13.633-14.488V419.79l0.826-7.768c89.478,102.687,196.38,24.217,196.38,24.217      C296.045,429.863,319.449,194.062,319.449,194.062z"/>
				<path style="opacity:0.19;fill:#FFFFFF;" d="M299.376,102.672c-2.704,0.656-5.183,2.484-5.91,5.062      c-0.657,2.328,0.184,4.738,1.26,6.837c2.747,5.358,7.025,9.78,10.219,14.885c2.779,4.441,4.728,9.385,7.826,13.615      c1.233,1.684,2.675,3.271,4.531,4.288c1.856,1.017,4.184,1.404,6.244,0.643c1.958-0.724,3.46-2.4,4.339-4.253      c2.418-5.102,1.429-9.971-0.053-14.941c-0.931-3.125-2.224-6.133-3.84-8.957c-3.228-5.642-7.756-10.558-13.264-14.162      c-2.762-1.807-5.907-3.335-9.308-3.281C300.74,102.418,300.051,102.508,299.376,102.672z"/>
				<path style="opacity:0.28;fill:#192037;" d="M264.528,266.241c-5.457-3.139-11.694-4.78-17.965-5.104      c-4.737-0.246-10.012,0.382-13.649,3.339c0.01,0.2-0.056,0.409-0.24,0.594c-0.787,0.788-1.57,1.596-2.34,2.42      c-0.159,0.269-0.319,0.539-0.46,0.829c-0.152,0.313-0.407,0.422-0.665,0.412c-2.109,2.382-4.017,4.947-5.393,7.795      c-0.479,2.5-0.868,5.018-1.19,7.54c-0.875,6.851-1.317,13.743-1.852,20.626c-0.73,9.395-0.098,18.678,0.837,28.035      c0.473,4.733,0.968,9.466,1.263,14.215c0.282,4.535,0.28,9.074,0.332,13.616c0.088,7.755-0.116,15.949-4.147,22.8      c1.462,0.889,3.012,1.551,4.696,1.94c1.254,0.289,2.576,0.392,3.79,0.831c3.053,1.103,3.37,4.548,3.412,7.429      c6.318,0.179,12.177-2.133,17.999-4.375c0.639-0.246,1.144,0.465,1.027,1.027c-0.352,1.68,0.135,3.379,0.119,5.078      c1.444-0.301,2.881-0.636,4.299-1.042c6.395-1.829,12.466-4.847,17.475-9.262c4.627-4.079,8.2-9.171,10.811-14.741      c5.491-11.715,7.014-25.198,7.353-38.004c0.332-12.556-0.875-25.371-4.711-37.376      C281.674,283.43,275.187,272.373,264.528,266.241z"/>
				<path style="fill:#F7D7B6;" d="M245.256,456.965c-4.534,0-8.626,2.046-11.435,5.282c-2.702-4.626-7.587-7.725-13.16-7.725      c-2.839,0-5.465,0.794-7.74,2.168c-2.657-4.763-7.618-7.969-13.297-7.969c-2.687,0-5.221,0.717-7.42,1.969v9.038      c0,7.068,5.68,13.068,13.48,14.457c0.061,0.015,0.107,0.015,0.168,0.031c1.573,0.259,3.16,0.519,4.733,0.748      c0.244,0.031,0.504,0.061,0.748,0.107c0.199,0.016,0.397,0.046,0.595,0.077c6.137,0.87,12.29,1.481,18.427,1.832      c1.328,0.091,2.641,0.153,3.969,0.214c0.092,0,0.199,0.015,0.29,0.015c1.328,0.046,2.641,0.092,3.954,0.122      c7.221,0.183,14.427,0,21.648-0.535c0.29-1.221,0.443-2.504,0.443-3.832C260.66,464.125,253.76,456.965,245.256,456.965z"/>
			</g>
			<path style="fill:#F7D7B6;" d="M207.48,325.045c-0.016,1.169-0.033,2.354-0.083,3.522c-0.301,9.616-1.419,19.098-3.656,28.097     c-0.317,1.285-0.668,2.554-1.035,3.806c-5.359,18.564-15.776,34.741-33.856,45.258c-11.386-10.284-20.584-20.901-27.963-31.652     c-0.701-1.035-1.386-2.053-2.053-3.072c-5.509-8.447-9.916-16.978-13.372-25.459c-0.434-1.052-0.852-2.12-1.252-3.172     c-2.905-7.629-5.075-15.225-6.628-22.704c-0.217-1.085-0.434-2.187-0.618-3.272c-1.703-9.182-2.471-18.213-2.538-26.911     c-0.017-1.135-0.017-2.254,0-3.356c0.1-9.599,1.035-18.781,2.471-27.379c0.183-1.135,0.384-2.27,0.584-3.389     c1.92-10.367,4.541-19.783,7.279-27.946c0.417-1.169,0.801-2.32,1.202-3.439c6.26-17.562,12.738-28.347,12.738-28.347     C5.195,181.441,30.07,140.323,30.07,140.323s79.482,26.911,144.239,20.4c0,0-9.766,22.955,4.925,47.395     c1.085,1.82,2.154,3.656,3.156,5.509c0.567,1.002,1.102,2.02,1.619,3.038c2.821,5.426,5.259,11.035,7.179,16.844     c0.784,2.354,1.586,4.908,2.437,7.629c0.317,1.035,0.634,2.103,0.968,3.205c2.187,7.395,4.474,15.926,6.511,25.142     c0.234,1.085,0.467,2.187,0.701,3.289c1.703,8.197,3.189,16.861,4.207,25.742c0.134,1.119,0.25,2.237,0.367,3.372     C207.163,309.553,207.564,317.332,207.48,325.045z"/>
			<g style="opacity:0.36;">
				<g>
					<path style="fill:#9C3621;" d="M184.008,216.666c-15.242,3.856-30.684,6.895-46.26,9.115       c-4.324,0.618-8.647,1.169-12.988,1.636c0.417-1.169,0.801-2.32,1.202-3.439c14.791-1.736,29.499-4.207,44.039-7.412       c4.14-0.918,8.28-1.887,12.387-2.938C182.956,214.629,183.49,215.647,184.008,216.666z"/>
				</g>
				<g>
					<path style="fill:#9C3621;" d="M194.592,244.345c-18.647,5.225-37.662,9.199-56.844,11.936       c-6.928,0.985-13.889,1.82-20.851,2.471c0.183-1.135,0.384-2.27,0.584-3.389c17.663-1.703,35.192-4.491,52.52-8.314       c7.93-1.753,15.809-3.706,23.623-5.91C193.941,242.175,194.258,243.243,194.592,244.345z"/>
				</g>
				<g>
					<path style="fill:#9C3621;" d="M201.804,272.775c-1.886,0.568-3.773,1.118-5.676,1.653       c-19.149,5.409-38.664,9.549-58.38,12.354c-7.746,1.102-15.525,2.004-23.322,2.705c-0.017-1.135-0.017-2.254,0-3.356       c18.698-1.669,37.262-4.541,55.575-8.581c10.467-2.304,20.834-4.992,31.102-8.063       C201.337,270.572,201.57,271.673,201.804,272.775z"/>
				</g>
				<g>
					<path style="fill:#9C3621;" d="M206.378,301.89c-3.406,1.052-6.828,2.07-10.25,3.039c-19.149,5.409-38.664,9.532-58.38,12.337       c-6.711,0.952-13.422,1.753-20.166,2.404c-0.217-1.085-0.434-2.187-0.618-3.272c17.829-1.686,35.542-4.491,53.038-8.347       c12.137-2.671,24.156-5.86,36.01-9.532C206.145,299.636,206.261,300.755,206.378,301.89z"/>
				</g>
				<g>
					<path style="fill:#9C3621;" d="M207.48,325.045c-0.016,1.169-0.033,2.354-0.083,3.522c-3.272,1.002-6.561,1.97-9.85,2.905       c-19.148,5.426-38.664,9.549-58.363,12.354c-4.558,0.651-9.132,1.235-13.723,1.72c-0.434-1.052-0.852-2.12-1.252-3.172       c15.86-1.736,31.619-4.34,47.211-7.78C183.574,331.923,195.594,328.734,207.48,325.045z"/>
				</g>
				<g>
					<path style="fill:#9C3621;" d="M203.74,356.664c-0.317,1.285-0.668,2.554-1.035,3.806c-1.72,0.518-3.439,1.018-5.159,1.503       c-18.597,5.259-37.545,9.315-56.66,12.103c-0.701-1.035-1.386-2.053-2.053-3.072c10.935-1.553,21.803-3.522,32.587-5.91       C182.305,362.707,193.09,359.886,203.74,356.664z"/>
				</g>
			</g>
			<path style="fill:#192037;" d="M173.928,149.926c-0.35-0.154-0.685,0.271-0.45,0.567c3.416,2.542,5.621,5.27,6.749,8.164     c-3.258,0.675-6.69,1.244-9.509,1.573c-20.18,2.346-40.565,0.192-60.566-2.866c-27.025-4.137-53.452-10.618-80.077-17.034     c36.722,16.898,115.503,29.717,150.536,19.446c0.954,3.289,0.569,6.785-0.988,10.46c0.023,0.223,0.325,0.546,0.459,0.36     C188.44,158.981,181.649,153.223,173.928,149.926z"/>
			<g>
				
					<ellipse transform="matrix(0.8883 -0.4592 0.4592 0.8883 -47.9685 144.0635)" style="fill:#F57486;" cx="272.2" cy="170.652" rx="39.427" ry="39.427"/>
			</g>
			<g>
				<g>
					<path style="fill:#192037;" d="M267.084,62.068c4.58,5.217,8.01,10.456,10.285,16.84c2.503,6.398,3.119,12.911,4.821,19.75       c0.083,0.424,0.509,0.707,0.93,0.578c6.648-13.45-0.129-33.958-15.288-38.377C267.145,60.649,266.589,61.554,267.084,62.068       L267.084,62.068z"/>
				</g>
				<g>
					<path style="fill:#192037;" d="M186.271,69.805c4.239-5.497,8.721-9.871,14.549-13.33c5.798-3.686,12.07-5.542,18.455-8.528       c0.4-0.163,0.597-0.635,0.389-1.024c-14.477-3.938-33.3,6.654-34.722,22.381C184.867,70.018,185.863,70.39,186.271,69.805       L186.271,69.805z"/>
				</g>
				<g>
					<g>
						<path style="fill:#192037;" d="M244.479,101.441c-2.454,8.863-0.985,17.007,3.283,18.19        c4.267,1.183,9.716-5.043,12.171-13.906c2.454-8.863,0.984-17.007-3.283-18.19C252.382,86.352,246.933,92.578,244.479,101.441        z"/>
					</g>
				</g>
				<g>
					<g>
						<path style="fill:#192037;" d="M191.517,85.249c-2.454,8.864-0.985,17.008,3.282,18.191        c4.268,1.183,9.717-5.044,12.171-13.907c2.455-8.863,0.984-17.007-3.283-18.19C199.42,70.159,193.971,76.386,191.517,85.249z"/>
					</g>
				</g>
			</g>
			<path style="fill:#192037;" d="M57.865,101.398c-2.924-2.45-7.11-3.331-10.766-2.224c-4.592,1.39-7.339,5.338-8.165,9.886     c1.082-0.905,2.202-1.764,3.356-2.575c2.368-1.665,5.14-3.322,8.148-2.667c2.027,0.441,3.615,1.755,4.649,3.514     c0.866,1.474,1.341,3.143,1.704,4.813c0.158,0.728,0.302,1.475,0.671,2.122c0.369,0.647,1.015,1.19,1.76,1.215     c0.652,0.022,1.27-0.359,1.669-0.875c0.399-0.516,0.609-1.152,0.758-1.787c0.916-3.914-0.402-8.274-3.334-11.024     C58.168,101.659,58.018,101.526,57.865,101.398z"/>
			<g>
				<path style="fill:#00B2A7;" d="M274.672,254.083c31.911,77.513-1.937,117.202-1.937,117.202l-38.025-11.871      c-8.377-29.258-15.078-72.187-13.937-104.89"/>
				<path style="fill:#F7D7B6;" d="M272.735,371.285l-13.118,16.654c-0.523,0.664-1.579,0.457-1.811-0.356l-2.881-10.073      l-11.294,7.563c-0.624,0.418-1.472,0.054-1.599-0.686l-2.104-12.275l-7.553,6.927c-0.73,0.67-1.894,0.032-1.722-0.944      l3.663-20.765C234.317,357.33,266.378,353.943,272.735,371.285z"/>
			</g>
		</g>
		<path style="opacity:0.19;fill:#FFFFFF;" d="M257.428,258.999c-4.52-1.103-9.608-0.292-12.668,2.978    c-2.764,2.954-3.366,7.179-3.38,11.124c-0.036,10.069,2.921,19.925,3.744,29.962c0.716,8.732-0.186,17.573,1.165,26.236    c0.538,3.448,1.461,6.914,3.437,9.85c1.976,2.937,5.137,5.3,8.781,5.751c3.465,0.429,6.983-0.906,9.712-2.984    c7.513-5.721,9.783-13.714,11.4-22.234c1.017-5.357,1.408-10.819,1.178-16.256c-0.46-10.861-3.41-21.642-8.823-31.227    c-2.715-4.807-6.213-9.492-11.306-12.024C259.65,259.67,258.557,259.275,257.428,258.999z"/>
	</g>
</g>















</svg>
