<?xml version="1.0" encoding="UTF-8"?>
<!-- Generator: Adobe Illustrator 27.1.1, SVG Export Plug-In . SVG Version: 6.00 Build 0)  -->
<svg xmlns="http://www.w3.org/2000/svg" xmlns:xlink="http://www.w3.org/1999/xlink" version="1.1" id="Capa_1" x="0px" y="0px" viewBox="0 0 512 512" style="enable-background:new 0 0 512 512;" xml:space="preserve" width="512" height="512">
<g>
	<path style="fill:#FFFFFF;" d="M447.747,413.999c-1.397-11.111-2.717-21.606-4.173-31.592c-0.906-8.128-12.031-11.367-17.174-5.04   c-5.672-6.422-15.825-2.783-17.417,5.398c-0.943-6.615-1.823-14.65-10.098-15.328c-7.502-0.772-10.652,6.245-12.021,12.449   c-2.501-1.132-5.635-1.103-8.1,0.073c1.32-3.148,2.391-6.571,3.233-10.32c16.275-2.746,29.026-18.105,29.576-34.481   c0.524-14.506-8.369-28.768-21.624-34.683c-3.954-1.775-8.697-0.731-11.535,2.64c-2.819,3.339-3.099,8.135-0.692,11.779   c0.147,0.512-0.134,2.541-1.701,4.587c-3.128,3.938-8.045,7.246-11.705,11.261c-7.896,8.516-10.592,18.445-6.688,27.505   c-2.416,11.012-7.508,16.339-17.841,20.689c-8.058-17.092-16.338-31.621-20.398-48.192c-5.867-16-12.994-78.841-10.536-113.005   c5.889-9.727,14.256-19.394,21.455-28.524c1.189,24.317,20.144,42.825,41.372,30.952c9.577-5.003,16.761-13.675,20.228-24.416   c10.446-35.702,3-61.03-27.71-82.385c14.076,1.699,26.792-9.636,26.698-23.822c0.412-20.168-24.85-31.614-39.714-18.091   c-7.352,1.206-14.629,2.955-21.734,5.223c-8.146-8.433-18.052-15.299-28.809-19.978c0.84-8.145,0.474-16.283-1.098-24.311   c6.019-15.223-6.047-32.687-22.449-32.381c-23.741-0.169-32.86,31.692-12.883,44.182c0.137,1.824,0.182,3.655,0.136,5.483   c-0.018,0.001-0.037,0.001-0.056,0.002c-13.968-18.614-35.348-32.961-58.397-32.708c-22.091,0-55.089,14.456-59.845,40.112   c-4.47,19.073,9.603,32.732,30.602,32.552c9.572,0.216,16.868-3.389,26.466-6.047c-10.007,12.796-17.533,24.397-29.637,35.923   c-20.393,19.585-44.162,35.753-60.709,59.24c-44.338,60.629,4.973,148.175,77.095,152.578   c-6.605,25.849-17.774,36.157-27.011,66.21c-0.487,0.025-0.973,0.05-1.457,0.075c-2.532-2.221-4.714-4.762-6.401-7.469   c-3.144-5.299-10.957-6.171-15.206-1.864c-1.169-6.071-8.086-9.583-13.625-7.025c-1.371-6.204-4.519-13.222-12.022-12.449   c-8.273,0.679-9.155,8.712-10.097,15.328c-1.592-8.183-11.749-11.818-17.417-5.398c-5.602-6.909-17.803-2.285-17.274,6.679   c0.792,35.819-14.616,99.258-17.713,111.611c-0.909,3.624-0.112,7.392,2.186,10.337c2.301,2.949,5.767,4.64,9.509,4.64h385.308   c7.345,0.18,13.44-7.192,11.822-14.387C454.326,466.308,450.831,438.518,447.747,413.999z"/>
	<g>
		<g>
			<path style="fill:#00B2A7;" d="M79.212,385.19l10.235,18.884c3.121-5.831,4.692-12.326,4.546-18.794     c3.131,8.76,7.186,17.254,12.092,25.331c5.22-9.993,7.098-21.087,8.917-32.003c3.448,9.837,5.342,20.113,5.608,30.424     c5.857-4.731,9.397-11.698,9.539-18.772c1.497,6.046,4.439,11.801,8.568,16.762c4.673-2.28,7.814-6.901,7.936-11.676     c3.274,5.253,7.806,9.869,13.197,13.446l192.468-0.749c5.392-3.576,10.812-8.807,14.086-14.059     c0.122,4.775,3.263,9.396,7.936,11.676c4.13-4.961,7.071-10.715,8.568-16.762c0.141,7.074,3.682,14.041,9.539,18.772     c0.266-10.311,2.16-20.586,5.608-30.424c1.819,10.916,3.697,22.01,8.917,32.003c4.906-8.077,8.961-16.571,12.092-25.331     c-0.146,6.469,1.425,12.963,4.546,18.794l10.235-18.884c4.671,32.041,7.998,69.918,16.972,115.679     c0.268,1.364-0.77,2.644-2.16,2.644H63.351c-1.437,0-2.494-1.343-2.145-2.737C64.688,485.525,80.027,422.065,79.212,385.19z"/>
		</g>
		<g>
			<g>
				<path style="fill:#F7D7B6;" d="M322.434,427.303c-1.291-15.859,1.546-28.364,16.35-36.632      c6.802-4.067,13.982-6.308,19.252-11.695c2.365-2.439,4.318-5.459,5.862-8.766c3.11-6.632,4.469-14.359,5.767-22.189      l4.937,0.556c-0.605,12.017-1.838,25.877-9.875,36.118c-5.194,6.855-13.323,10.768-19.687,15.456      c-9.874,6.739-9.426,14.668-7.493,25.588C337.547,425.74,322.434,427.303,322.434,427.303L322.434,427.303z"/>
				<path style="opacity:0.41;fill:#F77800;" d="M322.434,427.303c-1.291-15.859,1.546-28.364,16.35-36.632      c6.802-4.067,13.982-6.308,19.252-11.695c2.365-2.439,4.318-5.459,5.862-8.766c3.11-6.632,4.469-14.359,5.767-22.189      l4.937,0.556c-0.605,12.017-1.838,25.877-9.875,36.118c-5.194,6.855-13.323,10.768-19.687,15.456      c-9.874,6.739-9.426,14.668-7.493,25.588C337.547,425.74,322.434,427.303,322.434,427.303L322.434,427.303z"/>
				<path style="fill:#9C3621;" d="M385.953,309.466c3.189,4.781,1.394,11.441-2.102,16.003c-3.496,4.562-8.407,7.818-12.34,12.009      c-3.932,4.191-6.959,10.064-5.322,15.573c0.663,2.23,2.218,4.314,4.413,5.053c0.164,0.119,0.326,0.24,0.498,0.346      c3.835,2.377,8.825,2.018,13.067,0.482c9.931-3.597,17.202-13.576,17.583-24.131      C402.132,324.247,395.598,313.77,385.953,309.466z"/>
			</g>
			<g>
				<path style="fill:#F7D7B6;" d="M393.893,479.643c-3.016,0.547-6.103,0.476-9.137,0.035l0,0      c-6.879-0.97-13.47,0.379-23.189-2.055c-23.194-5.785-48.664-13.617-48.664-13.617l12.435-57.289      c24.27,0.335,42.614,1.94,56.355,4.004c13.264,1.993,18.625,7.288,24.499,9.369c0.953,0.335,1.835,0.653,2.628,0.97      c5.168,2.028,9.26,6.244,10.812,11.588C425.277,452.104,416.77,475.515,393.893,479.643z"/>
				<g>
					<path style="fill:#9C3621;" d="M383.633,462.701c0,7.249,1.394,14.164,3.916,20.39h-0.053       c-6.879-0.97-16.21-3.034-25.929-5.468c-2.981-6.685-4.656-14.216-4.656-22.171c0-19.543,10.072-36.459,24.782-44.731       c13.264,1.993,22.242,4.392,28.116,6.473C394.357,425.167,383.633,442.54,383.633,462.701z"/>
					<path style="fill:#192037;" d="M396.686,483.056c-3.016,0.547-6.103,0.476-9.137,0.035c-2.522-6.226-3.916-13.141-3.916-20.39       c0-20.161,10.724-37.534,26.176-45.507c0.953,0.335,1.834,0.653,2.628,0.97c5.168,2.028,9.26,6.244,10.812,11.588       C428.893,449.208,419.563,478.928,396.686,483.056z"/>
				</g>
			</g>
			<g>
				<path style="fill:#F7D7B6;" d="M115.548,479.643c3.016,0.547,6.103,0.476,9.137,0.035l0,0c6.879-0.97,13.47,0.379,23.189-2.055      c23.194-5.785,48.664-13.617,48.664-13.617l-12.435-57.289c-24.27,0.335-42.614,1.94-56.355,4.004      c-13.264,1.993-18.625,7.288-24.499,9.369c-0.953,0.335-1.834,0.653-2.628,0.97c-5.168,2.028-9.26,6.244-10.813,11.588      C84.164,452.104,92.671,475.515,115.548,479.643z"/>
				<g>
					<path style="fill:#9C3621;" d="M125.808,462.701c0,7.249-1.394,14.164-3.916,20.39h0.053c6.879-0.97,16.21-3.034,25.929-5.468       c2.981-6.685,4.656-14.216,4.656-22.171c0-19.543-10.071-36.459-24.782-44.731c-13.264,1.993-22.242,4.392-28.115,6.473       C115.084,425.167,125.808,442.54,125.808,462.701z"/>
					<path style="fill:#192037;" d="M112.755,483.056c3.016,0.547,6.103,0.476,9.137,0.035c2.522-6.226,3.916-13.141,3.916-20.39       c0-20.161-10.724-37.534-26.176-45.507c-0.952,0.335-1.834,0.653-2.628,0.97c-5.168,2.028-9.26,6.244-10.812,11.588       C80.548,449.208,89.878,478.928,112.755,483.056z"/>
				</g>
			</g>
			<path style="fill:#F7D7B6;" d="M325.555,371.993c-6.597-12.303-12.043-25.215-15.66-38.699     c-15.893-59.252-10.162-129.349-10.162-129.349l-45.012,0.959l-45.013-0.959c0,0,5.731,70.097-10.162,129.349     c-3.617,13.484-9.062,26.395-15.66,38.699c-11.767,21.945-36.441,85.277,16.114,101.827c13.033,4.104,86.734,4.457,98.272,2.596     C365.236,465.619,338.081,395.355,325.555,371.993z"/>
			<path style="opacity:0.41;fill:#9C3621;" d="M198.223,337.913c4.347,0.423,8.736,0.439,13.022,0.152     c12.832-0.859,25.663-4.434,37.035-10.456c5.209-2.759,10.163-6.07,14.48-10.099c4.441-4.146,7.795-9.052,10.688-14.371     c6.803-12.507,10.921-26.237,16.298-39.367c2.579-6.299,5.479-12.603,9.088-18.417c-0.492-24.371,0.9-41.41,0.9-41.41     l-45.012,0.959l-45.013-0.959c0,0,5.731,70.097-10.162,129.349C199.131,334.842,198.685,336.38,198.223,337.913z"/>
			<path style="opacity:0.41;fill:#9C3621;" d="M329.29,433.876c-1.306-12.27-3.908-24.795-9.92-35.693     c-2.116-3.836-4.578-7.489-7.703-10.576c-2.854-2.819-6.113-5.191-9.57-7.216c-7.888-4.623-16.734-7.497-25.654-9.346     c-9.747-2.02-19.754-2.794-29.699-2.512c-9.709,0.275-19.44,1.561-28.786,4.247c-7.969,2.291-15.931,5.632-22.404,10.917     c-7.693,6.28-12.818,15.681-16.734,24.634c-4.623,10.572-7.753,21.829-9.8,33.17c-0.005,0.029-0.009,0.058-0.015,0.086     c3.05,14.09,11.948,26.234,30.995,32.232c13.033,4.104,86.734,4.457,98.272,2.596c15.167-2.446,25.492-7.948,32.266-15.259     C330.503,452.048,330.254,442.938,329.29,433.876z"/>
			<g>
				<g>
					<g>
						<path style="fill:#F7D7B6;" d="M155.7,59.088c-1.667,7.983-0.089,16.922,13.472,19.893c6.857,1.502,14.005,0.836,20.615-1.526        c12.628-4.512,41.238-12.687,59.487-2.046l11.798-13.04c0,0-34.856-60.999-91.559-23.21        C162.544,43.803,157.412,50.89,155.7,59.088z"/>
						<path style="opacity:0.41;fill:#9C3621;" d="M252.391,50.645c-1.573,0.24-3.13,0.56-4.681,0.918        c-7.643,1.768-15.107,4.605-21.84,8.651c-4.905,2.948-9.465,6.632-12.951,11.166c12.239-1.987,25.973-2.026,36.356,4.028        l11.798-13.04C261.072,62.369,258.067,57.113,252.391,50.645z"/>
						<path style="fill:#9C3621;" d="M174.301,59.45c0,0,30.827-24.102,75.354,8.708C249.655,68.158,219.209,19.49,174.301,59.45z"/>
					</g>
					<g>
						<path style="fill:#F7D7B6;" d="M367.137,211.439c-7.228,3.776-16.259,4.691-22.808-7.551        c-3.311-6.189-4.615-13.249-4.141-20.252c0.906-13.379,0.986-43.135-14.219-57.799l9.337-14.901        c0,0,68.182,16.941,47.25,81.788C379.983,200.694,374.56,207.561,367.137,211.439z"/>
						<path style="opacity:0.41;fill:#9C3621;" d="M341.169,168.938c4.783-8.143,6.989-17.465,8.551-26.689        c1.366-8.064,2.732-16.901,1.279-25.141c-8.762-4.446-15.693-6.173-15.693-6.173l-9.337,14.901        c11.169,10.772,14.08,29.67,14.485,44.255C340.695,169.71,340.939,169.329,341.169,168.938z"/>
						<path style="fill:#9C3621;" d="M361.727,193.638c0,0,14.804-36.222-28.885-70.14        C332.841,123.498,387.958,139.551,361.727,193.638z"/>
					</g>
				</g>
				<g>
					<g>
						<g>
							<g>
								<path style="fill:#F7D7B6;" d="M289.483,64.239c2.417-10.93,2.355-22.19-0.268-33.079c-0.492-2.043-2.127-4.048-3.919-5.096          c-6.411-3.882-14.482,2.45-12.526,9.63c0.512,2.128,0.917,4.276,1.215,6.445c-0.102-0.756-0.203-1.511-0.305-2.267          c0.731,5.553,0.736,11.165,0.012,16.719c0.102-0.756,0.203-1.511,0.305-2.267c-0.391,3.971-2.405,8.208-0.1,11.952          C277.586,72.724,287.596,71.443,289.483,64.239L289.483,64.239z"/>
							</g>
							<g style="opacity:0.41;">
								<path style="fill:#9C3621;" d="M289.483,64.239c2.417-10.93,2.355-22.19-0.268-33.079c-0.492-2.043-2.127-4.048-3.919-5.096          c-6.411-3.882-14.482,2.45-12.526,9.63c0.512,2.128,0.917,4.276,1.215,6.445c-0.102-0.756-0.203-1.511-0.305-2.267          c0.731,5.553,0.736,11.165,0.012,16.719c0.102-0.756,0.203-1.511,0.305-2.267c-0.391,3.971-2.405,8.208-0.1,11.952          C277.586,72.724,287.596,71.443,289.483,64.239L289.483,64.239z"/>
							</g>
							
								<ellipse transform="matrix(0.2284 -0.9736 0.9736 0.2284 190.4763 288.2909)" style="fill:#9C3621;" cx="277.108" cy="23.982" rx="14.133" ry="14.133"/>
						</g>
						<g>
							<g>
								<path style="fill:#F7D7B6;" d="M325.267,106.872c0.873-0.389,1.749-0.77,2.629-1.142c-0.679,0.286-1.358,0.573-2.037,0.86          c11.021-4.63,22.619-7.795,34.464-9.406c-0.756,0.102-1.511,0.203-2.267,0.305c3.57-0.599,7.566-0.187,10.299-3.003          c5.336-5.218,1.455-14.727-6.03-14.557c-15.783,1.503-31.244,5.635-45.667,12.218c-1.828,0.814-3.411,3.253-3.919,5.096          c-1.275,4.333,1.517,9.413,5.956,10.489c0.756,0.102,1.511,0.203,2.267,0.305          C322.502,108.031,323.937,107.643,325.267,106.872L325.267,106.872z"/>
							</g>
							<g style="opacity:0.41;">
								<path style="fill:#9C3621;" d="M325.267,106.872c0.873-0.389,1.749-0.77,2.629-1.142c-0.679,0.286-1.358,0.573-2.037,0.86          c11.021-4.63,22.619-7.795,34.464-9.406c-0.756,0.102-1.511,0.203-2.267,0.305c3.57-0.599,7.566-0.187,10.299-3.003          c5.336-5.218,1.455-14.727-6.03-14.557c-15.783,1.503-31.244,5.635-45.667,12.218c-1.828,0.814-3.411,3.253-3.919,5.096          c-1.275,4.333,1.517,9.413,5.956,10.489c0.756,0.102,1.511,0.203,2.267,0.305          C322.502,108.031,323.937,107.643,325.267,106.872L325.267,106.872z"/>
							</g>
							
								<ellipse transform="matrix(0.2284 -0.9736 0.9736 0.2284 195.9617 426.3303)" style="fill:#9C3621;" cx="366.934" cy="89.542" rx="14.133" ry="14.133"/>
						</g>
					</g>
					<path style="fill:#F7D7B6;" d="M314.059,193.732c-7.752,9.488-14.744,19.721-20.279,30.667       c-2.682,5.302-8.918,8.496-10.84,14.124c-5.101,14.992-7.55,29.008-17.318,42.093c-3.891,5.209-4.478,12.217-9.424,16.403       c-0.837,0.713-1.674,1.411-2.542,2.077c-16.822,13.271-38.31,20.543-59.582,19.628c-46.574-2.016-84.047-40.372-85.039-86.962       c-0.403-18.481,4.806-33.365,13.147-46.341c4.341-6.791,12.358-7.803,18.079-13.787c13.132-13.783,26.107-31.345,40.138-45.112       c4.79-4.713,9.38-9.597,13.581-14.76c12.822-15.752,23.38-34.667,41.845-44.605c14.295-7.69,31.039-9.473,46.822-6.016       c32.186,7.07,58.636,35.008,60.202,68.497C344.136,156.972,330.229,173.949,314.059,193.732z"/>
					<path style="opacity:0.34;fill:#FFFFFF;" d="M315.902,93.003c-2.313,0.005-4.646,1.263-5.681,3.715       c-0.935,2.215-0.666,4.883-0.152,7.29c1.313,6.146,4.033,11.713,5.753,17.711c1.497,5.218,2.232,10.745,4.024,15.825       c0.713,2.022,1.614,3.997,2.949,5.492c1.335,1.495,3.163,2.462,4.97,2.191c1.718-0.258,3.229-1.6,4.263-3.276       c2.847-4.615,2.88-9.83,2.53-15.268c-0.22-3.42-0.754-6.809-1.582-10.09c-1.655-6.554-4.494-12.687-8.355-17.72       c-1.937-2.524-4.233-4.857-7.01-5.638C317.057,93.079,316.48,93.002,315.902,93.003z"/>
				</g>
				<g>
					<g>
						<g>
							<path style="fill:#FFFFFF;" d="M272.781,146.534c-13.886,2.317-23.267,15.463-20.958,29.317         c1.301,7.796,6.066,14.186,12.456,17.837c4.94,2.864,10.857,4.059,16.904,3.047c0.59-0.106,1.179-0.213,1.772-0.396         c12.637-2.995,21.039-15.133,19.31-28.078c-0.015-0.305-0.056-0.561-0.098-0.842c-1.111-6.697-4.782-12.338-9.818-16.095         C286.966,147.251,279.98,145.333,272.781,146.534z"/>
						</g>
					</g>
					<path style="fill:#192037;" d="M282.063,149.523c-11.903,0.704-21.66,10.651-22.109,22.54       c-0.348,9.23,4.689,17.398,12.305,21.502c6.578,3.545,14.812,2.701,20.701-1.905c6.894-5.392,10.787-14.188,9.557-23.391       c-0.015-0.305-0.056-0.561-0.097-0.841c-0.487-2.935-1.466-5.666-2.835-8.125c-3.456-6.207-10.149-10.135-17.26-9.793       C282.238,149.513,282.15,149.518,282.063,149.523z"/>
				</g>
				<g>
					<g>
						<g>
							<path style="fill:#FFFFFF;" d="M226.442,106.192c-13.195-4.246-27.297,2.975-31.507,16.125         c-2.39,7.436-1.103,15.155,2.823,21.222c3.018,4.731,7.662,8.459,13.373,10.311c2.946,0.948,5.922,1.329,8.846,1.184         c9.89-0.443,18.921-6.783,22.426-16.536c0.094-0.268,0.188-0.536,0.282-0.804c2.681-8.41,0.698-17.169-4.535-23.513         C235.21,110.547,231.225,107.72,226.442,106.192z"/>
						</g>
					</g>
					<path style="fill:#192037;" d="M234.421,111.471c-11.279-6.428-25.616-2.498-32.027,8.756       c-6.397,11.231-2.467,25.573,8.812,32.001c1.193,0.68,2.42,1.246,3.67,1.699c3.361,1.218,7.061,1.35,10.515,0.446       c7.749-2.03,14.355-7.738,17.233-15.748c0.094-0.268,0.188-0.536,0.282-0.804c2.238-7.019,1.226-14.281-2.211-20.179       c-1.487-2.552-3.667-4.678-6.231-6.146C234.449,111.487,234.435,111.479,234.421,111.471z"/>
				</g>
				<g>
					<path style="fill:#192037;" d="M307.189,143.437c10.137-0.353,18.426,8.772,20.488,18.133c0.734,3.112,0.977,6.307,0.461,9.474       c-0.063,0.382-0.423,0.643-0.805,0.581c-0.219-0.035-0.403-0.177-0.503-0.357c-2.828-5.196-5-10.309-8.209-15.044       c-3.157-4.745-6.935-8.211-11.791-11.508C306.271,144.372,306.538,143.439,307.189,143.437L307.189,143.437z"/>
				</g>
				<g>
					<path style="fill:#192037;" d="M246.54,102.735c-5.993-2.496-11.663-3.967-18-4.071c-6.419-0.302-12.373,1.103-18.943,1.642       c-0.4,0.053-0.779-0.239-0.791-0.651c9.927-9.917,30.127-10.054,38.581,2.055C247.779,102.256,247.143,103.02,246.54,102.735       L246.54,102.735z"/>
				</g>
				<path style="fill:#F77800;" d="M256.198,297.019c-15.685,18.125-40.11,25.635-62.467,24.674      c-46.574-2.016-87.844-41.474-87.827-91.254c0.01-28.177,14.552-49.54,31.549-64.072c28.062-2.248,61.737,12.605,87.365,41.396      C249.717,235.748,260.678,269.779,256.198,297.019z"/>
				<path style="opacity:0.56;fill:#F7D7B6;" d="M256.198,297.019c-15.685,18.125-40.11,25.635-62.467,24.674      c-46.574-2.016-87.844-41.474-87.827-91.254c0.01-28.177,14.552-49.54,31.549-64.072c28.062-2.248,61.737,12.605,87.365,41.396      C249.717,235.748,260.678,269.779,256.198,297.019z"/>
				<path style="fill:#F57486;" d="M187.159,149.483c0,23.442-18.992,42.434-42.419,42.434c-8.295,0-17.219-3.611-23.746-7.736      c4.341-6.791,10.57-12.734,16.291-18.718c13.132-13.783,29.083-25.174,43.114-38.942      C184.678,133.142,187.159,141.018,187.159,149.483z"/>
				<path style="fill:#F57486;" d="M293.779,224.399c-2.682,5.302-5.023,10.775-6.946,16.403      c-5.101,14.992-7.55,29.008-17.318,42.093c-3.892,5.209-8.372,9.938-13.318,14.124c-0.837,0.713-1.674,1.411-2.542,2.077      c-12.589-7.333-21.039-20.992-21.039-36.62c0-23.442,18.992-42.434,42.434-42.434      C281.779,220.042,288.136,221.608,293.779,224.399z"/>
				<g>
					<g>
						<path style="fill:#192037;" d="M170.123,275.329c0,0,8.752,4.057,24.032,2.164c15.975-1.979,25.075-11.412,25.075-11.412        c0.505-0.205,1.099,0.05,1.252,0.586c-9.664,16.333-36.024,23.308-51.124,10.289        C168.664,276.372,169.239,275.158,170.123,275.329L170.123,275.329z"/>
					</g>
				</g>
				<g>
					<path style="fill:#192037;" d="M186.579,230.968c2.1-0.83,4.473-0.564,6.664-0.018c7.289,1.815,13.762,6.698,17.509,13.208       l-4.709-1.472c-4.421-1.382-9.022-2.18-13.654-2.126c-0.552,0.006-1.103,0.005-1.655-0.01c-1.57-0.042-3.173-0.204-4.595-0.868       c-1.423-0.664-2.65-1.911-2.936-3.455C182.791,234.007,184.478,231.799,186.579,230.968z"/>
					<path style="fill:#192037;" d="M164.02,216.058c0.573-2.184,0.024-4.508-0.78-6.618c-2.674-7.02-8.297-12.861-15.209-15.802       l2.025,4.499c1.902,4.223,3.244,8.697,3.746,13.301c0.06,0.548,0.127,1.096,0.208,1.641c0.23,1.553,0.582,3.126,1.412,4.459       c0.83,1.333,2.215,2.402,3.782,2.502C161.457,220.183,163.447,218.243,164.02,216.058z"/>
				</g>
			</g>
			<g>
				<g>
					<path style="fill:#F7D7B6;" d="M304.51,342.937c0,0,22.083,62.546,15.998,135.904c-18.033,7.121-35.941,7.332-53.726,0.776       c-0.864-15.539-1.587-40.709,1.041-62.299c1.746-14.375,2.134-28.874,1.499-43.355l-1.041-24.094L304.51,342.937z"/>
				</g>
				<path style="fill:#9C3621;" d="M266.782,479.616c0.141,2.663,0.3,5.044,0.441,7.073c0.371,5.115,3.475,9.701,8.167,11.782      c11.288,4.974,23.194,4.939,35.771-0.318c4.727-1.993,8.043-6.367,8.607-11.465c0.283-2.628,0.547-5.239,0.741-7.849      c-1.129,0.617-2.346,1.129-3.651,1.534c-16.686,5.274-32.507,5.292-47.482,0.318      C268.458,480.392,267.593,480.04,266.782,479.616z"/>
			</g>
			<g>
				<g>
					<path style="fill:#F7D7B6;" d="M241.16,349.869l-1.041,24.094c-0.635,14.481-0.247,28.98,1.499,43.355       c2.628,21.589,1.905,46.759,1.041,62.299c-17.785,6.556-35.693,6.345-53.726-0.776       c-6.085-73.358,15.998-135.904,15.998-135.904L241.16,349.869z"/>
				</g>
				<path style="opacity:0.34;fill:#FFFFFF;" d="M228.077,420.116c-2.202-0.708-4.809-0.231-6.55,1.784      c-1.572,1.819-2.138,4.44-2.391,6.889c-0.645,6.251,0.227,12.386,0.015,18.622c-0.184,5.425-1.188,10.91-1.049,16.295      c0.055,2.144,0.303,4.3,1.113,6.133c0.81,1.833,2.25,3.317,4.053,3.616c1.714,0.284,3.565-0.527,5.065-1.803      c4.131-3.513,5.769-8.464,7.112-13.745c0.844-3.321,1.381-6.71,1.604-10.086c0.445-6.745-0.365-13.454-2.488-19.433      c-1.065-2.999-2.53-5.925-4.931-7.524C229.152,420.544,228.627,420.293,228.077,420.116z"/>
				<path style="opacity:0.34;fill:#FFFFFF;" d="M307.718,420.116c-2.202-0.708-4.809-0.231-6.55,1.784      c-1.573,1.819-2.138,4.44-2.391,6.889c-0.645,6.251,0.226,12.386,0.015,18.622c-0.184,5.425-1.188,10.91-1.049,16.295      c0.055,2.144,0.303,4.3,1.113,6.133c0.81,1.833,2.251,3.317,4.053,3.616c1.714,0.284,3.565-0.527,5.065-1.803      c4.131-3.513,5.769-8.464,7.112-13.745c0.844-3.321,1.381-6.71,1.604-10.086c0.445-6.745-0.365-13.454-2.488-19.433      c-1.065-2.999-2.53-5.925-4.931-7.524C308.793,420.544,308.268,420.293,307.718,420.116z"/>
				<path style="fill:#9C3621;" d="M242.659,479.616c-0.141,2.663-0.3,5.044-0.441,7.073c-0.37,5.115-3.475,9.701-8.167,11.782      c-11.288,4.974-23.194,4.939-35.771-0.318c-4.727-1.993-8.043-6.367-8.607-11.465c-0.283-2.628-0.547-5.239-0.741-7.849      c1.129,0.617,2.346,1.129,3.651,1.534c16.686,5.274,32.507,5.292,47.482,0.318C240.983,480.392,241.848,480.04,242.659,479.616z      "/>
			</g>
			<g>
				<g>
					<path style="fill:#9C3621;" d="M164.003,425.002c-0.286-0.686-0.836-1.249-1.557-1.389c-0.831-0.162-1.777,0.229-2.497-0.217       c-0.503-0.312-0.781-0.983-1.361-1.103c-0.474-0.099-0.926,0.224-1.284,0.55c-2.003,1.824-4.854,5.944-2.313,8.439       c1.117,1.097,2.913,1.297,4.39,0.778c1.478-0.519,2.67-1.649,3.6-2.909c0.66-0.894,1.228-1.923,1.241-3.034       C164.228,425.739,164.15,425.354,164.003,425.002z"/>
					<path style="fill:#9C3621;" d="M157.897,413.308c-0.164-0.192-0.338-0.376-0.516-0.552c-1.336-1.322-3.171-2.36-5.025-2.052       c-2.891,0.479-5.65,4.48-4.462,7.33c0.426,1.023,1.504,1.817,2.602,1.666c1.112-0.153,1.938-1.165,3.034-1.404       c1.353-0.294,2.804,0.653,4.103,0.174c1.07-0.394,1.609-1.684,1.444-2.812C158.947,414.777,158.481,413.992,157.897,413.308z"/>
				</g>
				<g>
					<path style="fill:#9C3621;" d="M361.244,425.002c-0.286-0.686-0.836-1.249-1.557-1.389c-0.831-0.162-1.777,0.229-2.497-0.217       c-0.503-0.312-0.781-0.983-1.36-1.103c-0.474-0.099-0.926,0.224-1.284,0.55c-2.003,1.824-4.854,5.944-2.314,8.439       c1.117,1.097,2.913,1.297,4.39,0.778c1.478-0.519,2.67-1.649,3.6-2.909c0.66-0.894,1.228-1.923,1.241-3.034       C361.469,425.739,361.391,425.354,361.244,425.002z"/>
					<path style="fill:#9C3621;" d="M355.138,413.308c-0.164-0.192-0.338-0.376-0.516-0.552c-1.336-1.322-3.171-2.36-5.025-2.052       c-2.891,0.479-5.65,4.48-4.462,7.33c0.426,1.023,1.504,1.817,2.602,1.666c1.112-0.153,1.938-1.165,3.034-1.404       c1.353-0.294,2.804,0.653,4.103,0.174c1.07-0.394,1.609-1.684,1.444-2.812C356.188,414.777,355.722,413.992,355.138,413.308z"/>
				</g>
				<g>
					<path style="fill:#9C3621;" d="M296.319,314.105c0.67-0.932,1.168-1.979,1.433-3.106c0.644-2.743-0.151-5.782-2.055-7.858       c-3.635-3.962-12.438-3.906-16.789-1.201c-2.599,1.616-4.408,4.694-3.94,7.718c0.384,2.481,2.174,4.538,4.219,5.995       c3.068,2.186,6.989,3.326,10.682,2.579C292.426,317.714,294.809,316.203,296.319,314.105z"/>
					<path style="fill:#9C3621;" d="M214.787,366.14c-0.237-0.277-0.488-0.543-0.744-0.797c-1.929-1.907-4.577-3.406-7.253-2.962       c-4.173,0.692-8.156,6.466-6.441,10.58c0.615,1.476,2.171,2.623,3.756,2.405c1.605-0.221,2.797-1.682,4.379-2.026       c1.953-0.424,4.047,0.942,5.922,0.251c1.545-0.569,2.323-2.431,2.084-4.059C216.303,368.261,215.63,367.127,214.787,366.14z"/>
					<path style="fill:#9C3621;" d="M304.247,376.449c-0.487-0.25-0.987-0.475-1.488-0.681c-3.766-1.545-8.297-2.112-11.758,0.032       c-5.395,3.343-7.625,13.631-2.895,18.361c1.697,1.697,4.511,2.4,6.585,1.193c2.101-1.223,2.92-3.931,4.92-5.312       c2.468-1.704,6.154-1.004,8.361-3.034c1.819-1.672,1.835-4.7,0.573-6.823C307.562,378.526,305.981,377.337,304.247,376.449z"/>
					<path style="fill:#9C3621;" d="M298.166,413.924c0.517-0.095,1.021-0.257,1.494-0.483c1.965-0.94,3.363-2.879,3.87-4.998       c0.515-2.15,0.023-4.706-1.779-5.987c-1.628-1.157-3.935-0.976-5.679,0c-3.442,1.926-6.365,7.216-2.569,10.357       C294.778,413.869,296.534,414.226,298.166,413.924z"/>
					<path style="fill:#9C3621;" d="M300.179,329.726c-0.385-2.458-2.351-4.532-4.722-5.286c-1.333-0.424-2.841-0.397-4.077,0.214       c-1.81,0.252-3.54,1.095-4.825,2.396c-0.897,0.909-1.609,2.178-1.319,3.422c0.273,1.171,1.333,1.963,2.32,2.651       c1.388,0.967,2.795,1.944,4.378,2.54c1.583,0.596,3.387,0.782,4.956,0.148C299.198,334.878,300.564,332.184,300.179,329.726z"/>
					<path style="fill:#9C3621;" d="M314.741,396.066c-0.385-2.458-2.351-4.532-4.722-5.286c-1.333-0.424-2.841-0.397-4.077,0.213       c-1.81,0.251-3.54,1.095-4.825,2.396c-0.897,0.909-1.609,2.179-1.319,3.422c0.273,1.171,1.333,1.963,2.32,2.651       c1.388,0.967,2.795,1.944,4.378,2.54c1.583,0.597,3.387,0.782,4.956,0.148C313.76,401.218,315.127,398.524,314.741,396.066z"/>
					<path style="fill:#9C3621;" d="M227.954,347.568c-0.385-2.458-2.351-4.532-4.723-5.286c-1.333-0.424-2.841-0.397-4.076,0.214       c-1.81,0.251-3.54,1.095-4.825,2.396c-0.897,0.909-1.609,2.179-1.319,3.422c0.273,1.171,1.333,1.963,2.32,2.651       c1.388,0.967,2.795,1.944,4.378,2.54c1.583,0.597,3.387,0.782,4.956,0.148C226.973,352.72,228.339,350.026,227.954,347.568z"/>
					<path style="fill:#9C3621;" d="M214.949,387.209c-0.385-2.458-2.351-4.532-4.722-5.286c-1.333-0.424-2.841-0.397-4.076,0.214       c-1.81,0.251-3.54,1.095-4.825,2.396c-0.897,0.909-1.609,2.178-1.319,3.422c0.273,1.171,1.334,1.963,2.321,2.651       c1.388,0.967,2.795,1.944,4.378,2.54c1.583,0.596,3.387,0.782,4.956,0.148C213.968,392.361,215.334,389.667,214.949,387.209z"/>
					<path style="fill:#9C3621;" d="M220.417,329.726c-0.385-2.458-2.351-4.532-4.722-5.286c-1.333-0.424-2.842-0.397-4.077,0.214       c-1.81,0.252-3.54,1.095-4.825,2.396c-0.897,0.909-1.609,2.178-1.319,3.422c0.273,1.171,1.333,1.963,2.32,2.651       c1.388,0.967,2.795,1.944,4.378,2.54c1.583,0.596,3.387,0.782,4.956,0.148C219.436,334.878,220.803,332.184,220.417,329.726z"/>
				</g>
			</g>
			<path style="fill:#9C3621;" d="M300.092,347.404c-0.375-1.967-1.832-3.62-3.606-4.549c-1.773-0.929-3.83-1.199-5.831-1.121     c-6.191,0.243-13.062,6.639-8.668,13.048c1.507,2.199,4.653,3.255,7.032,2.052c1.547-0.782,2.607-2.339,4.187-3.051     c1.456-0.657,3.191-0.519,4.608-1.257C299.577,351.606,300.455,349.4,300.092,347.404z"/>
			<g>
				<path style="fill:#9C3621;" d="M289.855,106.977c-0.107-0.491-0.237-0.977-0.383-1.453c-1.095-3.572-3.33-7.117-6.866-8.325      c-5.513-1.883-14.111,2.523-14.715,8.632c-0.217,2.192,0.922,4.598,2.987,5.368c2.09,0.779,4.49-0.216,6.634,0.4      c2.646,0.759,4.294,3.783,7.02,4.168c2.245,0.317,4.403-1.433,5.176-3.564C290.31,110.538,290.234,108.724,289.855,106.977z"/>
				<path style="fill:#9C3621;" d="M308.547,104.501c0.825-2.347,0.076-5.105-1.655-6.892c-0.973-1.005-2.314-1.696-3.691-1.743      c-1.713-0.636-3.636-0.713-5.384-0.175c-1.22,0.375-2.449,1.157-2.783,2.389c-0.314,1.161,0.245,2.36,0.788,3.434      c0.765,1.509,1.541,3.036,2.653,4.311c1.112,1.275,2.613,2.293,4.294,2.478C305.242,108.574,307.722,106.849,308.547,104.501z"/>
				<path style="fill:#9C3621;" d="M265.078,93.772c0.825-2.347,0.076-5.105-1.655-6.893c-0.973-1.005-2.314-1.696-3.691-1.743      c-1.713-0.636-3.636-0.713-5.384-0.175c-1.221,0.375-2.449,1.157-2.783,2.389c-0.314,1.161,0.244,2.361,0.788,3.434      c0.765,1.509,1.541,3.036,2.653,4.311c1.112,1.275,2.613,2.293,4.294,2.478C261.773,97.845,264.253,96.12,265.078,93.772z"/>
				<path style="fill:#9C3621;" d="M298.912,132.434c3.357-0.591,6.147-3.338,7.118-6.605c0.546-1.837,0.471-3.902-0.398-5.578      c-0.391-2.472-1.591-4.82-3.407-6.547c-1.268-1.205-3.026-2.147-4.721-1.718c-1.597,0.404-2.654,1.877-3.57,3.247      c-1.289,1.927-2.59,3.878-3.366,6.062c-0.776,2.184-0.984,4.66-0.075,6.792C291.829,131.223,295.555,133.025,298.912,132.434z"/>
				<path style="fill:#9C3621;" d="M286.544,83.092c0.042-0.246,0.071-0.494,0.087-0.743c0.311-4.806-4.952-8.304-9.515-7.404      c-2.606,0.514-4.93,2.464-5.701,5.006c-0.625,2.063-0.226,4.346,0.766,6.26c1.1,2.123,3.059,3.931,5.426,4.268      c2.521,0.359,5.039-1.013,6.716-2.928C285.431,86.287,286.264,84.742,286.544,83.092z"/>
				<path style="fill:#9C3621;" d="M266.914,115.537c0.03-0.175,0.051-0.352,0.062-0.529c0.222-3.422-3.527-5.914-6.776-5.273      c-1.856,0.366-3.511,1.755-4.06,3.565c-0.445,1.469-0.161,3.095,0.545,4.459c0.783,1.512,2.179,2.8,3.865,3.04      c1.795,0.256,3.588-0.721,4.783-2.085C266.121,117.812,266.715,116.712,266.914,115.537z"/>
			</g>
		</g>
	</g>
</g>















</svg>
