<?xml version="1.0" encoding="UTF-8"?>
<!-- Generator: Adobe Illustrator 27.1.1, SVG Export Plug-In . SVG Version: 6.00 Build 0)  -->
<svg xmlns="http://www.w3.org/2000/svg" xmlns:xlink="http://www.w3.org/1999/xlink" version="1.1" id="Capa_1" x="0px" y="0px" viewBox="0 0 512 512" style="enable-background:new 0 0 512 512;" xml:space="preserve" width="512" height="512">
<g>
	<path style="fill:#FFFFFF;" d="M494.977,348.414c-1.078-7.005-10.042-10.476-15.564-6.108c-3.599-2.726-9.223-2.372-12.448,0.763   c-0.313-3.838-2.791-7.154-6.269-8.485c14.987-125.05-65.833-208.693-193.512-193.579c-1.495-7.717,1.181-15.358,0.79-23.151   c0-7.143-0.813-14.221-2.425-21.14c47.344-29.905-0.439-96.154-43.719-60.672c-32.052-21.014-76.916-23.301-111.105-5.714   C95.907,13.881,67.562,14.866,54.038,32.43c-13.267,15.679-10.319,41.212,6.171,53.458c-3.749,10.255-5.644,20.971-5.644,31.966   c0.136,6.774-1.877,13.288-5.868,18.726c-1.687,2.304-3.693,4.365-5.962,6.123c-55.842,41.495-56.687,115.209-4.126,157.479   c-2.793-0.813-6.088-0.209-8.393,1.499c-6.196-4.917-16.131,0.131-15.728,8.083c0.451,25.384-5.373,51.067-9.363,65.53   c-11.759,12.959-1.37,31.535,16.202,33.057c5.254,1.003,12.206-0.949,17.31,1.327c-14.756,10.9-13.724,29.818,1.821,39.978   c8.299,5.082,17.959,5.447,25.013,5.713l85.041,3.214l45.509,1.72c9.774,0.369,12.167,2.198,12.724,3.255   c3.18,20.668,17.169,25.016,31.758,25.841c30.058,2.198,57.193,4.018,84.904,4.018c41.317,0.686,176.749-11.261,148.745-58.401   c9.437-5.476,22.909,0.02,33.009-12.217c6.737-8.215,6.367-20.945-0.648-30.324C502.012,380.696,497.512,362.058,494.977,348.414z"/>
	<g>
		<path style="fill:#00B2A7;" d="M497.991,397.404c-5.101-12.794-10-33.425-12.548-47.139l-8.056,18.503    c-2.457-5.714-3.694-12.077-3.579-18.415c-2.465,8.584-5.656,16.906-9.519,24.82c-4.109-9.791-5.587-20.662-7.019-31.358    c-2.714,9.639-4.205,19.708-4.415,29.811c-4.61-4.636-7.397-11.462-7.508-18.394c-1.178,5.925-3.494,11.563-6.745,16.424    c-3.679-2.234-6.151-6.761-6.247-11.44c-2.577,5.147-6.145,9.67-10.388,13.175L87.968,332.766    c-4.244-3.504-7.811-8.028-10.389-13.175c-0.096,4.679-2.569,9.207-6.247,11.44c-3.251-4.861-5.566-10.499-6.744-16.424    c-0.111,6.931-2.898,13.758-7.509,18.394c-0.21-10.103-1.701-20.171-4.415-29.81c-1.432,10.696-2.91,21.567-7.019,31.358    c-3.862-7.914-7.054-16.237-9.518-24.82c0.114,6.338-1.122,12.702-3.579,18.415l-8.057-18.503    c0.569,32.02-8.263,64.108-12.07,76.379c-0.788,2.543,0.905,5.193,3.312,5.173C15.734,391.193,499.013,399.966,497.991,397.404z"/>
		<g>
			<g>
				<path style="fill:#00B2A7;" d="M497.991,397.454c-4.545-5.279-11.272-8.072-17.81-10.477      c-77.288-28.432-161.967-27.434-244.204-23.085l-56.198,8.49c-51.012-3.486-102.707-6.934-152.912,2.75      c-7.852,1.515-17.621,5.941-16.669,13.882c0.672,5.609,6.798,8.956,12.41,9.602c5.612,0.647,11.388-0.424,16.892,0.85      c5.503,1.274,10.916,6.267,9.691,11.781c-1.149,5.167-7.192,7.628-9.793,12.238c-3.428,6.076,0.408,14.177,6.358,17.82      c5.949,3.643,13.269,4.007,20.24,4.271c43.517,1.645,87.033,3.289,130.549,4.934c7.951,0.301,17.364,1.471,21.07,8.511      c1.955,3.714,1.757,8.276,3.726,11.982c3.57,6.719,12.444,8.068,20.032,8.623c72.159,5.277,147.588,10.042,214.038-18.576      c6.372-2.744,13.675-7.56,12.861-14.45c-0.467-3.948-3.648-7.202-3.999-11.163c-0.64-7.244,7.972-11.614,15.195-12.455      c7.223-0.841,15.614-0.752,20.225-6.375C504.112,411.22,502.536,402.733,497.991,397.454z"/>
				<path style="opacity:0.42;fill:#FFFFFF;" d="M497.991,397.454c-4.545-5.279-11.272-8.072-17.81-10.477      c-77.288-28.432-161.967-27.434-244.204-23.085l-56.198,8.49c-51.012-3.486-102.707-6.934-152.912,2.75      c-7.852,1.515-17.621,5.941-16.669,13.882c0.672,5.609,6.798,8.956,12.41,9.602c5.612,0.647,11.388-0.424,16.892,0.85      c5.503,1.274,10.916,6.267,9.691,11.781c-1.149,5.167-7.192,7.628-9.793,12.238c-3.428,6.076,0.408,14.177,6.358,17.82      c5.949,3.643,13.269,4.007,20.24,4.271c43.517,1.645,87.033,3.289,130.549,4.934c7.951,0.301,17.364,1.471,21.07,8.511      c1.955,3.714,1.757,8.276,3.726,11.982c3.57,6.719,12.444,8.068,20.032,8.623c72.159,5.277,147.588,10.042,214.038-18.576      c6.372-2.744,13.675-7.56,12.861-14.45c-0.467-3.948-3.648-7.202-3.999-11.163c-0.64-7.244,7.972-11.614,15.195-12.455      c7.223-0.841,15.614-0.752,20.225-6.375C504.112,411.22,502.536,402.733,497.991,397.454z"/>
			</g>
			<g>
				<g>
					<path style="fill:#C2B2BC;" d="M205.757,327.53v78.855c0,8.361-6.764,15.466-16.023,17.027       c-7.571,1.274-15.143,2.207-22.714,2.835c-0.879,0.072-1.776,0.144-2.655,0.198c-8.487,0.628-16.555-5.8-25.041-6.016       c-1.543-0.036-54.891-5.736-54.891-14.044v-10.622v-90.35L205.757,327.53z"/>
					<path style="fill:#F7D7B6;" d="M146.781,403.138c-5.329,0-10.137,2.404-13.439,6.208c-3.176-5.436-8.917-9.079-15.466-9.079       c-3.337,0-6.423,0.933-9.097,2.548c-3.122-5.598-8.953-9.366-15.627-9.366c-3.158,0-6.137,0.843-8.72,2.315v10.622       c0,8.307,6.675,15.358,15.843,16.991c0.072,0.018,0.126,0.018,0.197,0.036c1.848,0.305,3.714,0.61,5.562,0.879       c0.287,0.036,0.592,0.072,0.879,0.126c0.233,0.018,0.466,0.054,0.7,0.09c7.212,1.023,14.444,1.74,21.656,2.153       c1.561,0.108,3.104,0.179,4.665,0.251c0.108,0,0.233,0.018,0.341,0.018c1.561,0.054,3.104,0.108,4.647,0.144       c8.487,0.215,16.955,0,25.442-0.628c0.341-1.436,0.52-2.943,0.52-4.504C164.885,411.553,156.775,403.138,146.781,403.138z"/>
					<path style="opacity:0.23;fill:#192037;" d="M186.609,351.358c-6.282,1.785-11.712,5.463-15.236,11.021       c-2.261,3.566-3.601,7.527-4.659,11.59c-1.334,5.12-2.251,10.344-2.798,15.605c-1.276,12.284-0.63,24.581,0.183,36.876       c0.088-0.005,0.177,0,0.265-0.006c0.879-0.054,1.776-0.126,2.655-0.198c7.572-0.628,15.143-1.561,22.714-2.835       c9.258-1.561,16.023-8.666,16.023-17.027V349.65C199.329,349.423,192.8,349.6,186.609,351.358z"/>
				</g>
				<g>
					<path style="fill:#C2B2BC;" d="M452.295,297.948l-3.889,109.326c0,8.361-6.764,15.466-16.022,17.027       c-7.571,1.274-15.143,2.207-22.715,2.835c-0.879,0.072-1.776,0.143-2.655,0.197c-8.487,0.628-16.555-5.8-25.041-6.016       c-1.543-0.036-54.891-5.736-54.891-14.044v-10.622v-68.233L452.295,297.948z"/>
					<path style="fill:#F7D7B6;" d="M407.533,422.83c0,1.561-0.179,3.068-0.52,4.503c-8.487,0.628-16.955,0.843-25.442,0.628       c-1.543-0.036-3.086-0.09-4.647-0.143c-0.108,0-0.233-0.018-0.341-0.018c-1.561-0.072-3.104-0.144-4.665-0.251       c-2.907-0.161-5.813-0.377-8.72-0.646c-4.306-0.395-8.63-0.897-12.936-1.507c-0.233-0.036-0.466-0.072-0.699-0.09       c-0.287-0.054-0.592-0.09-0.879-0.126c-1.848-0.269-3.714-0.574-5.562-0.879c-0.072-0.018-0.126-0.018-0.197-0.036       c-9.169-1.633-15.843-8.684-15.843-16.991v-10.622c2.584-1.471,5.562-2.314,8.72-2.314c6.675,0,12.506,3.768,15.628,9.366       c2.674-1.615,5.76-2.548,9.097-2.548c1.938,0,3.804,0.323,5.544,0.915c4.181,1.399,7.679,4.324,9.922,8.164       c3.302-3.804,8.11-6.208,13.439-6.208C399.423,404.026,407.533,412.441,407.533,422.83z"/>
					<path style="opacity:0.23;fill:#192037;" d="M367.559,382.639c-0.018,3.983-0.61,11.16-1.489,19.431       c-0.556,5.401-1.22,11.25-1.92,17.009c-0.305,2.655-0.628,5.275-0.951,7.823c-4.306-0.395-8.63-0.897-12.936-1.507       c-0.233-0.036-0.466-0.072-0.699-0.09c-0.287-0.054-0.592-0.09-0.879-0.126c-1.848-0.269-3.714-0.574-5.562-0.879       c-0.072-0.018-0.126-0.018-0.197-0.036c-9.169-1.633-15.843-8.684-15.843-16.991v-78.855h30.932       c1.364,2.35,2.494,4.844,3.355,7.5C366.23,350.882,367.595,366.994,367.559,382.639z"/>
				</g>
				<path style="fill:#C2B2BC;" d="M452.295,297.948c0,77.742-96.197,86.579-198.747,86.579S83.56,371.486,83.56,293.744      c0-77.742,110.364-144.518,212.913-144.518S452.295,220.206,452.295,297.948z"/>
				<path style="opacity:0.34;fill:#FFFFFF;" d="M372.888,188.198c-8.069,0.011-16.206,2.747-19.818,8.084      c-3.262,4.82-2.323,10.623-0.529,15.862c4.579,13.372,14.067,25.485,20.068,38.534c5.221,11.353,7.785,23.377,14.037,34.431      c2.489,4.4,5.63,8.697,10.288,11.949c4.658,3.252,11.034,5.356,17.338,4.766c5.994-0.561,11.264-3.48,14.871-7.127      c9.93-10.042,10.047-21.387,8.826-33.22c-0.768-7.44-2.629-14.815-5.519-21.953c-5.773-14.26-15.675-27.603-29.146-38.555      c-6.756-5.493-14.766-10.568-24.451-12.267C376.915,188.363,374.904,188.195,372.888,188.198z"/>
				<path style="opacity:0.23;fill:#192037;" d="M314.36,221.179c0,77.743-78.317,122.957-180.856,122.957      c-14.39,0-35.453,1.758-49.072,0c0,0,0-36.937,0-52.834c0-61.621,67.483-112.342,147.993-133.486      c41.08-10.789,81.742,20.127,81.933,62.6C314.36,220.67,314.36,220.924,314.36,221.179z"/>
				<g>
					<g>
						<g>
							
								<ellipse transform="matrix(0.9031 -0.4294 0.4294 0.9031 -16.042 41.2749)" style="fill:#C2B2BC;" cx="83.449" cy="56.188" rx="27.805" ry="27.805"/>
							
								<ellipse transform="matrix(0.9946 -0.1042 0.1042 0.9946 -5.6037 9.2806)" style="fill:#F57486;" cx="86.017" cy="58.269" rx="14.196" ry="14.196"/>
						</g>
						<g>
							
								<ellipse transform="matrix(0.944 -0.3299 0.3299 0.944 -7.189 85.2096)" style="fill:#C2B2BC;" cx="247.497" cy="63.789" rx="27.805" ry="27.805"/>
							<path style="fill:#F57486;" d="M235.992,54.841c-6.091,4.936-7.028,13.875-2.092,19.967         c4.936,6.091,13.875,7.028,19.966,2.092c6.091-4.936,7.028-13.875,2.092-19.967         C251.022,50.841,242.083,49.905,235.992,54.841z"/>
						</g>
						<path style="fill:#C2B2BC;" d="M284.406,226.275c0,6.298,7.186,15.322,7.186,15.305v0.018        c-11.77,49.341-69.92,86.822-139.876,86.822c-76.075,0-138.19-44.335-141.85-100.027c0,0,8.725-4.777,8.725-6.535        c0-28.169,14.927-53.754,39.239-72.629c3.032-2.35-1.028-6.778-1.028-6.778c5.042-6.89,7.823-15.304,7.769-24.078v-0.466        c0-49.43,43.366-89.513,96.851-89.513s96.851,40.083,96.851,89.513c0,4.163-0.305,8.236-0.897,12.237        c-0.825,5.616-0.377,11.285,1.22,16.596c0,0-4.494,14.3-0.224,18.785C274.771,182.693,284.406,203.65,284.406,226.275z"/>
						<path style="opacity:0.34;fill:#FFFFFF;" d="M192.864,54.599c-3.497,1.343-6.57,3.879-7.251,6.792        c-0.615,2.631,0.755,4.991,2.401,6.965c4.203,5.038,10.325,8.716,15.092,13.378c4.146,4.056,7.253,8.844,11.796,12.599        c1.809,1.495,3.883,2.837,6.442,3.474c2.559,0.637,5.672,0.492,8.308-0.809c2.506-1.237,4.306-3.377,5.265-5.557        c2.64-6.001,0.809-10.939-1.683-15.866c-1.567-3.098-3.597-5.987-6.034-8.602c-4.868-5.225-11.374-9.368-19.031-11.881        c-3.84-1.261-8.155-2.133-12.635-1.263C194.637,54.002,193.737,54.263,192.864,54.599z"/>
					</g>
					<g>
						<path style="fill:#192037;" d="M183.26,109.268c6.268,0.746,11.773,2.206,17.191,5.143c5.581,2.807,9.956,6.84,15.263,10.432        c0.313,0.236,0.774,0.169,0.98-0.174c-3.676-13.139-20.723-22.896-33.664-16.673        C182.439,108.271,182.613,109.222,183.26,109.268L183.26,109.268z"/>
					</g>
					<g>
						<path style="fill:#192037;" d="M98.864,125.904c3.967-4.91,8.132-8.795,13.501-11.82c5.347-3.232,11.088-4.79,16.954-7.373        c0.367-0.14,0.555-0.565,0.374-0.923c-13.081-3.878-30.412,5.364-32.029,19.632C97.583,126.069,98.481,126.427,98.864,125.904        L98.864,125.904z"/>
					</g>
					<g>
						<g>
							<path style="fill:#192037;" d="M185.49,161.05c0.372,9.759,4.483,17.526,9.182,17.348c4.699-0.178,8.206-8.233,7.834-17.992         c-0.372-9.759-4.484-17.526-9.182-17.348C188.625,143.236,185.117,151.291,185.49,161.05z"/>
						</g>
					</g>
					<g>
						<g>
							<path style="fill:#192037;" d="M109.42,161.05c0.372,9.759,4.483,17.526,9.182,17.348c4.699-0.178,8.206-8.233,7.834-17.992         c-0.372-9.759-4.484-17.526-9.182-17.348C112.555,143.236,109.048,151.291,109.42,161.05z"/>
						</g>
					</g>
					<g>
						<path style="fill:#192037;" d="M162.939,253.843c1.181-2.331,3.44-3.922,5.757-5.132c7.705-4.025,17.059-4.766,25.302-2.005        l-5.208,2.34c-4.889,2.197-9.486,5.04-13.455,8.642c-0.473,0.429-0.951,0.851-1.44,1.262        c-1.392,1.168-2.904,2.259-4.646,2.777c-1.742,0.517-3.762,0.38-5.195-0.737C161.992,259.382,161.758,256.174,162.939,253.843        z"/>
						<path style="fill:#192037;" d="M113,253.843c-1.181-2.331-3.44-3.922-5.757-5.132c-7.705-4.025-17.059-4.766-25.302-2.005        l5.208,2.34c4.889,2.197,9.486,5.04,13.455,8.642c0.473,0.429,0.951,0.851,1.44,1.262c1.392,1.168,2.904,2.259,4.646,2.777        c1.742,0.517,3.762,0.38,5.195-0.737C113.947,259.382,114.181,256.174,113,253.843z"/>
					</g>
					<path style="fill:#192037;" d="M228.607,254.735c8.167-2.442,17.206-2.358,18.226,12.133c0.016,0.232-0.429,0.176-0.592,0.017       c0,0-1.449-3.727-5.635-6.888c-1.618,25.208-29.57,45.123-53.819,41.815c-0.44-0.613-0.212-1.457,0.43-1.821       c0,0,17.658-1.728,33.183-17.015c10.967-10.799,15.489-20.53,17.109-24.889c-5.177-2.677-8.884-2.617-8.884-2.617       C228.249,255.391,228.234,254.842,228.607,254.735z"/>
					<g>
						<path style="fill:#F57486;" d="M93.476,190.839c0,27.738-22.499,50.238-50.238,50.238c-12.793,0-24.491-4.791-33.372-12.685        c-0.126-1.723-0.179-3.463-0.179-5.221c0-28.169,14.927-53.754,39.239-72.629c3.032-2.35,5.669-5.078,7.876-8.092        C77.955,148.352,93.476,167.783,93.476,190.839z"/>
						<path style="fill:#F57486;" d="M293.763,223.171c0,6.298-0.736,12.434-2.171,18.409v0.018        c-5.688,2.243-11.877,3.463-18.355,3.463c-27.756,0-50.256-22.499-50.256-50.256c0-22.643,14.999-41.805,35.615-48.067        c1.74,5.795,4.862,11.196,9.132,15.681C284.128,179.589,293.763,200.546,293.763,223.171z"/>
					</g>
				</g>
				<g>
					<path style="fill:#C2B2BC;" d="M327.081,341.875v78.855c0,8.361-6.764,15.466-16.023,17.027       c-7.571,1.274-15.143,2.207-22.715,2.835c-0.879,0.072-1.776,0.144-2.655,0.197c-8.487,0.628-16.555-5.8-25.041-6.016       c-1.543-0.036-54.891-5.737-54.891-14.044v-10.622v-68.234H327.081z"/>
					<g>
						<path style="fill:#F7D7B6;" d="M268.105,417.483c-5.329,0-10.137,2.404-13.439,6.208c-3.176-5.436-8.917-9.079-15.466-9.079        c-3.337,0-6.423,0.933-9.097,2.548c-3.122-5.598-8.953-9.366-15.628-9.366c-3.158,0-6.136,0.843-8.72,2.314v10.622        c0,8.307,6.675,15.358,15.843,16.991c0.072,0.018,0.126,0.018,0.197,0.036c1.849,0.305,3.714,0.61,5.562,0.879        c0.287,0.036,0.592,0.072,0.879,0.126c0.234,0.018,0.467,0.054,0.7,0.09c7.212,1.023,14.443,1.74,21.656,2.153        c1.561,0.108,3.104,0.179,4.665,0.251c0.108,0,0.233,0.018,0.341,0.018c1.561,0.054,3.104,0.108,4.647,0.144        c8.487,0.215,16.955,0,25.442-0.628c0.341-1.435,0.52-2.943,0.52-4.503C286.209,425.898,278.099,417.483,268.105,417.483z"/>
					</g>
				</g>
				<g>
					<path style="fill:#FFFFFF;" d="M247.235,114.825c-2.638-0.309-5.104,2.242-5.509,5.698c-0.405,3.455,1.405,6.507,4.043,6.817       c2.638,0.309,5.104-2.242,5.509-5.698C251.682,118.186,249.872,115.134,247.235,114.825z"/>
					<path style="fill:#FFFFFF;" d="M247.168,100.714c-1.7-0.199-3.291,1.445-3.552,3.673c-0.261,2.228,0.906,4.196,2.606,4.395       c1.7,0.199,3.29-1.445,3.551-3.673C250.035,102.881,248.868,100.913,247.168,100.714z"/>
				</g>
				<g>
					<path style="fill:#FFFFFF;" d="M267.758,57.868c1.851-0.262,3.073-2.44,2.729-4.864c-0.343-2.424-2.122-4.177-3.972-3.916       c-1.851,0.262-3.072,2.44-2.729,4.864C264.129,56.376,265.907,58.13,267.758,57.868z"/>
					<path style="fill:#FFFFFF;" d="M270.33,67.46c1.193-0.169,1.981-1.573,1.76-3.136c-0.221-1.563-1.368-2.693-2.561-2.524       c-1.193,0.169-1.981,1.573-1.759,3.136C267.99,66.498,269.137,67.629,270.33,67.46z"/>
				</g>
				<g>
					<path style="fill:#FFFFFF;" d="M358.092,170.42c0.943-1.614-0.007-3.923-2.121-5.159c-2.114-1.235-4.592-0.928-5.535,0.685       c-0.943,1.614,0.007,3.923,2.121,5.159C354.671,172.34,357.15,172.034,358.092,170.42z"/>
					<path style="fill:#FFFFFF;" d="M367.211,174.355c0.608-1.04-0.004-2.529-1.367-3.326c-1.363-0.796-2.961-0.598-3.569,0.442       s0.004,2.529,1.367,3.326C365.005,175.593,366.603,175.395,367.211,174.355z"/>
				</g>
				<g>
					<path style="fill:#FFFFFF;" d="M440.013,392.915c1.865,0.128,3.512-1.748,3.68-4.191c0.168-2.443-1.208-4.527-3.072-4.655       c-1.865-0.128-3.512,1.749-3.68,4.191C436.773,390.703,438.148,392.787,440.013,392.915z"/>
					<path style="fill:#FFFFFF;" d="M440.537,402.832c1.202,0.083,2.264-1.127,2.372-2.702c0.108-1.575-0.779-2.919-1.981-3.001       c-1.202-0.083-2.264,1.127-2.372,2.702C438.448,401.406,439.335,402.75,440.537,402.832z"/>
				</g>
				<g>
					<path style="fill:#FFFFFF;" d="M317.446,410.656c1.865,0.128,3.512-1.748,3.68-4.192c0.168-2.443-1.208-4.527-3.072-4.655       c-1.865-0.128-3.512,1.749-3.68,4.192C314.206,408.443,315.582,410.528,317.446,410.656z"/>
					<path style="fill:#FFFFFF;" d="M317.971,420.573c1.202,0.083,2.264-1.127,2.372-2.702c0.108-1.575-0.779-2.919-1.981-3.001       c-1.202-0.082-2.264,1.127-2.372,2.702C315.882,419.147,316.768,420.49,317.971,420.573z"/>
				</g>
				<g>
					<path style="fill:#FFFFFF;" d="M97.356,377.126c1.865,0.128,3.512-1.748,3.68-4.192c0.168-2.443-1.208-4.527-3.072-4.655       c-1.865-0.128-3.512,1.749-3.68,4.191C94.116,374.914,95.491,376.998,97.356,377.126z"/>
					<path style="fill:#FFFFFF;" d="M97.88,387.044c1.202,0.083,2.264-1.127,2.372-2.702c0.108-1.575-0.779-2.919-1.981-3.001       c-1.202-0.082-2.264,1.127-2.372,2.702C95.791,385.617,96.678,386.961,97.88,387.044z"/>
				</g>
			</g>
		</g>
	</g>
</g>















</svg>
