<?xml version="1.0" encoding="UTF-8"?>
<!-- Generator: Adobe Illustrator 27.1.1, SVG Export Plug-In . SVG Version: 6.00 Build 0)  -->
<svg xmlns="http://www.w3.org/2000/svg" xmlns:xlink="http://www.w3.org/1999/xlink" version="1.1" id="Capa_1" x="0px" y="0px" viewBox="0 0 512 512" style="enable-background:new 0 0 512 512;" xml:space="preserve" width="512" height="512">
<g>
	<path style="fill:#FFFFFF;" d="M448.633,442.938c-7.309-4.784-15.667-8.415-24.922-10.836l-4.136-51.218   c8.969,6.645,23.902,12.953,31.691,3.067c4.487-14.795-14.232-32.158-13.234-84.204c0.083-16.382-5.756-31.158-17.012-40.885   c-3.779-113.238-26.147-154.294-116.007-218.487c-48.787-34.254-110.66-55.26-165.079-27.633   C118.777,23.34,99.478,40.635,82.57,64.145c-4.36,8.025-17.268,18.428-9.644,27.949c10.283,7.871,10.133-0.802,26.671,0.116   c12.816-1.839,53.955,11.448,73.404,29.17c21.027,18.553,85.79,62.538,116.656,65.366c-37.065,34.795-89.75,37.497-157.593,41.384   c-6.639-0.013-11.528,7.391-8.885,13.492c21.497,30.803,85.746,27.733,132.705,27.411c-16.987,50.584-22.92,117.359,32.12,135.977   l0.298,17.515c-29.654-11.616-57.591-33.262-83.787-52.075c-0.463-13.405,7.479-30.18-6.972-49.139   c-9.995-13-25.634-21.352-41.833-22.341c-11.007-0.983-14.473,15.623-3.938,19.091c2.706,5.544-0.234,13.488,1.181,19.773   c-12.974-6.189-27.3-13.318-42.011-15.454c-11.417-0.186-20.255,11.321-17.16,22.06c-13.944-2.01-48.402,18.197-36.325,33.883   c3.025,3.139,7.749,3.896,11.577,1.929c11.812-1.208,20.343,13.122,32.477,14.768c-5.976,11.405,3.358,25.772,16.005,25.36   c4.678-0.161,8.891-1.704,13.748-2.262c19.558-2.719,39.836-1.281,58.704,4.573c-23.005,13.632-26.371,51.215-10.42,72.503   c1.893,2.745,4.962,4.256,8.109,4.256c6.504,0.148,11.557-6.784,9.343-12.936c1.928-4.588,8.283-6.898,12.029-10.512   c10.994-9.039,17.89-26.696,12.937-40.069c5.841,2.608,11.846,5.125,18.108,7.192c-23.051,4.971-23.021,35.407,0.692,36.701   c17.411-4.451,33.646-12.971,51.953-14.668c18.895-1.095,38.544,3.956,57.701,1.368c6.271,12.62,13.648,27.307,28.449,22.033   c3.779,5.152,9.744,8.817,16.235,7.404c5.576,11.851,18.955,22.557,29.96,11.231c7.448-6.25,1.445-28.023,1.794-36.111   C446.912,487.241,469.767,457.781,448.633,442.938z"/>
	<g>
		<g>
			<g>
				<path style="fill:#192037;" d="M378.154,474.639l-13.682-169.43l-24.674,20.641c2.196,108.15,19.208,142.034,30.043,152.634      C373.087,481.66,378.52,479.166,378.154,474.639z"/>
				<path style="fill:#F7D7B6;" d="M397.342,481.148l-13.682-169.43l-24.674,20.641c2.196,108.15,19.208,142.034,30.043,152.634      C392.274,488.169,397.707,485.674,397.342,481.148z"/>
				<path style="fill:#192037;" d="M419.204,496.881l-13.682-169.43l-24.674,20.641c2.196,108.15,19.208,142.034,30.043,152.634      C414.136,503.902,419.569,501.407,419.204,496.881z"/>
			</g>
			<g>
				<path style="fill:#9C3621;" d="M443.385,451.216c-20.249-13.252-45.618-14.061-68.975-12.277      c-11.588,0.885-23.142,2.283-34.766,2.66c-5.827,0.189-11.666,0.114-17.475-0.401c-0.599-0.053-1.197-0.115-1.795-0.173      c-0.08-0.008-0.121-0.011-0.184-0.017c-0.161-0.023-0.323-0.039-0.478-0.058c-1.484-0.186-2.965-0.398-4.442-0.636      c-2.748-0.443-5.481-0.975-8.196-1.588c-5.427-1.227-10.777-2.782-16.034-4.606c-1.318-0.457-2.629-0.931-3.935-1.421      c-0.654-0.245-1.306-0.495-1.957-0.748c-0.03-0.012-0.149-0.066-0.283-0.126c-0.113-0.036-0.27-0.092-0.528-0.197      c-0.005,0-0.023-0.007-0.026-0.005c0.002-0.001,0.006,0,0.008-0.001c-0.001,0-0.001,0-0.001,0      c-2.596-1.06-5.168-2.179-7.716-3.351c-10.385-4.776-20.359-10.409-30.034-16.488c-20.258-12.73-39.108-27.503-58.737-41.151      c-20.619-14.337-42.266-27.402-66.18-35.457c-2.891-0.974-5.809-1.86-8.749-2.669c-3.956-1.089-8.678,1.63-9.508,5.712      c-0.863,4.246,1.473,8.341,5.712,9.508c2.941,0.809,5.859,1.696,8.749,2.669c1.44,0.485,2.873,0.991,4.299,1.516      c0.611,0.225,1.22,0.453,1.828,0.684c0.405,0.154,0.809,0.313,1.214,0.468c0.142,0.054,0.239,0.091,0.318,0.12      c5.608,2.102,11.064,4.821,16.38,7.556c10.88,5.599,21.292,12.063,31.434,18.895c9.575,6.45,18.908,13.245,28.248,20.027      c-2.919-1-5.856-1.947-8.837-2.762c-15.851-4.332-32.535-6.189-48.95-5.463c-9.529,0.421-19.057,1.716-28.362,3.807      c-4.013,0.902-6.712,5.771-5.446,9.659c1.37,4.21,5.378,6.408,9.659,5.447c3.426-0.77,6.879-1.406,10.35-1.937      c12.353-1.698,24.885-1.866,37.282-0.533c12.6,1.549,24.971,4.653,36.796,9.273c14.044,5.729,27.424,13.135,41.993,17.535      c4.021,1.214,8.118,2.157,12.279,2.742c0.568,0.08,1.118,0.127,1.659,0.144c3.93,2.031,7.913,3.951,11.952,5.744      c-6.87,1.629-13.653,3.615-20.298,6.003c-5.086,1.827-10.09,3.883-15.024,6.087c-1.742,0.778-3.215,3.109-3.656,4.874      c-0.457,1.83-0.2,4.238,0.837,5.852c1.113,1.731,2.796,3.234,4.874,3.656c0.673,0.077,1.346,0.154,2.02,0.231      c1.369-0.028,2.646-0.385,3.832-1.069c0.891-0.398,1.788-0.782,2.685-1.167c11.241-4.669,22.919-8.264,34.848-10.687      c3.109-0.631,6.235-1.17,9.371-1.645c3.959-0.551,7.932-0.992,11.918-1.295c0.194-0.015,0.38-0.058,0.571-0.082      c8.279,1.826,16.723,2.922,25.192,3.219c11.613,0.407,23.207-0.692,34.759-1.745c11.4-1.038,22.84-2.044,34.297-1.514      c1.422,0.066,2.842,0.154,4.26,0.268c0.708,0.057,1.416,0.119,2.123,0.189c0.291,0.029,0.581,0.062,0.871,0.09      c0.045,0.006,0.079,0.01,0.13,0.017c2.8,0.371,5.586,0.817,8.348,1.415c2.737,0.592,5.448,1.314,8.108,2.187      c1.152,0.378,2.286,0.8,3.42,1.225c0.254,0.113,0.512,0.216,0.766,0.327c0.73,0.318,1.454,0.649,2.172,0.993      c2.527,1.212,4.96,2.598,7.304,4.133c3.439,2.251,8.854,0.63,10.681-2.979C448.389,457.896,447.069,453.627,443.385,451.216z"/>
				<g>
					<path style="fill:#00B2A7;" d="M155.251,308.835c13.476,0.823,26.399,7.812,34.629,18.515c13.251,17.234,3.2,40.573,3.2,40.573       c-8.65-9.512-13.423-6.164-19.809-11.801c-6.386-5.637-10.333-13.947-10.668-22.458c-0.182-4.644,0.659-9.315,0.091-13.927       C162.127,315.124,159.668,310.282,155.251,308.835z"/>
					<path style="fill:#9C3621;" d="M175.985,325.535c9.712,17.868,15.056,37.119,15.663,57.353c0,0,2.884,0.12,2.884,0.12       C196.816,362.543,189.907,340.685,175.985,325.535L175.985,325.535z"/>
				</g>
				<g>
					<path style="fill:#00B2A7;" d="M187.794,489.639c-7.667-11.113-10.14-25.595-6.794-38.676       c5.387-21.062,29.956-27.55,29.956-27.55c-2.149,12.676,3.431,14.367,2.934,22.87c-0.496,8.503-4.601,16.737-11.092,22.252       c-3.542,3.009-7.737,5.229-11.016,8.521C188.501,480.348,186.208,485.271,187.794,489.639z"/>
					<path style="fill:#9C3621;" d="M188.145,463.019c8.07-18.667,19.923-34.75,35.472-47.712c0,0-1.685-2.343-1.685-2.343       C204.416,423.792,191.478,442.715,188.145,463.019L188.145,463.019z"/>
				</g>
				<g>
					<path style="fill:#00B2A7;" d="M108.092,357.366c-7.6-3.489-16.521-4.003-24.472-1.41c-7.951,2.593-14.852,8.269-18.933,15.569       c5.675-2.907,12.681-1.092,18.231,2.047c5.55,3.14,10.377,7.52,16.178,10.167c9.031,4.122,19.769,3.579,28.963-0.167       c9.194-3.746,16.949-10.454,23.208-18.16c0,0-17.485,6.143-24.215,3.179C120.323,365.626,114.776,360.434,108.092,357.366z"/>
					<path style="fill:#9C3621;" d="M88.436,361.583c31.576-1.314,24.853,32.043,71.278-4.643c0,0,1.516,1.892,1.516,1.892       C114.829,396.697,117.468,361.756,88.436,361.583L88.436,361.583z"/>
				</g>
				<path style="fill:#192037;" d="M284.865,431.825c0.555,0.174-0.354-0.326-0.545-0.203c0.007,0.003,0.01,0.004,0.017,0.007      C284.402,431.624,284.65,431.729,284.865,431.825z"/>
			</g>
			<g>
				<path style="fill:#F77800;" d="M308.457,436.841c0,0,2.025-46.627,2.178-47.086l-12.844,3.363l0.727,42.805      c0,0-11.525-4.61-21.566,2.693c-1.645,1.196-2.17,3.424-1.205,5.215l0,0c0.903,1.677,2.843,2.5,4.671,1.966      c2.44-0.714,6.563-1.588,13.054-2.075c0,0-3.516,1.362-6.849,3.31c-3.323,1.941-2.846,6.88,0.799,8.114l0,0      c1.718,0.582,3.616,0.069,4.807-1.299l6.289-7.22v3.061c0,3.463,2.948,6.192,6.4,5.927l0,0c2.289-0.176,4.278-1.644,5.093-3.789      C311.711,447.358,313.563,439.863,308.457,436.841z"/>
				<path style="fill:#F77800;" d="M319.168,436.841c0,0,2.025-46.627,1.873-47.086l12.844,3.363l-4.778,42.805      c0,0,11.524-4.61,21.566,2.693c1.645,1.196,2.17,3.424,1.205,5.215l0,0c-0.903,1.677-2.843,2.5-4.671,1.966      c-2.44-0.714-6.563-1.588-13.054-2.075c0,0,3.516,1.362,6.849,3.31c3.323,1.941,2.846,6.88-0.799,8.114l0,0      c-1.717,0.582-3.616,0.069-4.807-1.299l-6.289-7.22v3.061c0,3.463-2.948,6.192-6.4,5.927l0,0      c-2.289-0.176-4.278-1.644-5.093-3.789C315.915,447.358,314.063,439.863,319.168,436.841z"/>
			</g>
		</g>
		<g>
			<g>
				<g>
					<path style="fill:#192037;" d="M409.237,381.342c-0.381,10.279-8.91,18.364-19.198,18.174l-81.033-1.505       c-19.823,0.906-38.613-9.662-47.523-27.401c-7.36-14.657-10.841-36.991-3.589-70.954c0,0,19.047-24.394,24.812-39.921       l56.901-159.399l5.801-13.188C421.12,136.102,413.597,263.109,409.237,381.342z"/>
				</g>
				<path style="fill:#FFFFFF;" d="M379.996,236.071c0,0-16.288,120.979-122.103,63.585c2.619-12.291,6.644-26.114,12.409-41.641      l69.305-157.68C356.031,106.136,395.496,131.135,379.996,236.071z"/>
				<path style="opacity:0.21;fill:#F7D7B6;" d="M379.996,236.071c0,0-16.288,120.979-122.103,63.585      c2.619-12.291,6.644-26.114,12.409-41.641l69.305-157.68C356.031,106.136,395.496,131.135,379.996,236.071z"/>
				<g>
					<g>
						<g>
							<path style="fill:#192037;" d="M343.241,121.501c5.472,2.564,10.035,5.546,14.075,9.844c4.227,4.23,6.989,9.21,10.732,14.071         c0.214,0.309,0.652,0.387,0.943,0.137c0.612-13.046-11.943-27.039-25.575-25.277         C342.794,120.348,342.667,121.264,343.241,121.501L343.241,121.501z"/>
						</g>
					</g>
					<g>
						<g>
							<path style="fill:#192037;" d="M333.979,151.744c-2.104,10.203,0.172,19.296,5.084,20.31         c4.912,1.014,10.6-6.434,12.704-16.637c2.105-10.202-0.172-19.295-5.084-20.309         C341.771,134.094,336.083,141.543,333.979,151.744z"/>
						</g>
					</g>
					<circle style="fill:#F57486;" cx="350.234" cy="203.431" r="29.52"/>
				</g>
				<g>
					<path style="fill:#192037;" d="M442.964,378.924c0,0-15.12-35.723-14.637-79.249c0.133-12-3.853-23.355-11.059-30.915l0,0       c-21.536-22.597-54.778,0.18-51.791,35.745c1.05,12.507,5.368,25.727,15.061,38.69l3.709-13.844       c0,0,2.673,33.501,27.395,41.941l0.749-14.987C412.392,356.306,424.047,380.634,442.964,378.924z"/>
					<path style="opacity:0.38;fill:#C2B2BC;" d="M442.964,378.924c0,0-15.12-35.723-14.637-79.249       c0.133-12-3.853-23.355-11.059-30.915l0,0c-21.536-22.597-54.778,0.18-51.791,35.745c1.05,12.507,5.368,25.727,15.061,38.69       l3.709-13.844c0,0,2.673,33.501,27.395,41.941l0.749-14.987C412.392,356.306,424.047,380.634,442.964,378.924z"/>
				</g>
				<path style="fill:#F77800;" d="M345.4,87.155c0.707,16.769-48.484,129.363-62.914,162.003c-2.42,5.466-7.696,9.118-13.66,9.454      c-125.366,6.943-136.361-20.603-136.361-20.603c169.191-4.46,172.5-60.068,172.5-60.068      c-39.9,2.62-105.035-47.433-125.611-64.165c-5.756-4.677-11.838-8.937-18.291-12.59c-51.285-29.032-80.589-15.753-80.589-15.753      c3.354-5.52,6.771-10.678,10.233-15.5c16.968-23.594,53.778-48.348,53.778-48.348C239.858-26.156,345.4,87.155,345.4,87.155z"/>
				<path style="opacity:0.19;fill:#FFFFFF;" d="M238.347,34.92c-2.941,2.599-4.503,6.816-3.073,11.102      c1.292,3.871,4.625,6.967,7.979,9.458c8.562,6.358,18.267,10.402,27.182,16.114c7.756,4.97,14.888,11.187,22.866,15.65      c3.176,1.777,6.537,3.283,9.913,3.69c3.376,0.407,6.789-0.41,8.788-2.781c1.9-2.255,2.321-5.658,1.759-8.952      c-1.547-9.071-7.349-15.752-13.892-22.288c-4.113-4.11-8.593-7.83-13.326-11.081c-9.455-6.495-19.946-11.126-30.509-13.209      c-5.297-1.045-10.838-1.443-15.25,0.675C239.903,33.723,239.082,34.271,238.347,34.92z"/>
				<g>
					<path style="fill:#192037;" d="M212.221,69.434c-9.318,6.155-20.857,8.013-32.015,8.33       c-23.585,0.689-46.871-4.596-70.365-6.862c-6.3-0.616-12.717-0.979-19.134-0.97c16.968-23.594,35.178-39.03,53.778-48.348       c13.805-4.623,28.443-6.562,43.191-5.275c0.154,0.009,0.308,0.027,0.462,0.036c8.022,0.743,16.098,2.311,23.159,6.218       c7.034,3.934,12.916,10.505,14.521,18.382C228.065,51.886,221.512,63.262,212.221,69.434z"/>
				</g>
			</g>
		</g>
	</g>
</g>















</svg>
