<svg width="126" height="126" viewBox="0 0 126 126" fill="none" xmlns="http://www.w3.org/2000/svg">
<g clip-path="url(#clip0_19_52)">
<path d="M108.815 57.9384C108.717 56.3668 107.699 55.1183 106.423 55.005C58.2098 50.7239 28.0869 53.9246 20.442 54.9302C19.2866 55.0822 18.3623 56.1637 18.1637 57.5747C14.1851 85.8133 17.1133 111.922 18.1756 119.695C18.3651 121.081 19.2683 122.153 20.3998 122.331C68.6817 129.897 98.4752 124.157 105.662 122.462C106.699 122.218 107.509 121.224 107.711 119.947C111.024 98.9975 109.405 67.3518 108.815 57.9384Z" fill="#B8E3C5"/>
<path d="M76.246 55.537C66.2306 55.2356 57.3342 55.2178 49.6379 55.3656C48.8034 66.8876 48.3347 79.6728 48.3347 93.1512C48.3347 104.57 48.6731 115.483 49.2832 125.56C59.7239 126.236 68.8345 126.262 76.5647 125.949C77.1897 115.765 77.5367 104.716 77.5367 93.1512C77.537 79.7395 77.073 67.0145 76.246 55.537Z" fill="#F8627F"/>
<path d="M24.3489 108.684C25.087 92.69 26.2364 69.6657 46.3789 67.3276C52.7752 66.5853 59.1572 67.6307 65.5146 68.2594C71.9785 68.8987 78.4932 69.3704 84.9887 69.4737C90.8884 69.5676 96.703 69.1267 102.545 68.3389C104.807 68.0338 107.07 67.6635 109.295 67.1409C109.128 63.2188 108.946 60.0287 108.815 57.9384C108.717 56.3668 107.699 55.1183 106.423 55.005C58.2098 50.7239 28.0869 53.9246 20.442 54.93C19.2866 55.0822 18.3623 56.1635 18.1637 57.5745C14.1851 85.8133 17.1133 111.922 18.1756 119.695C18.3651 121.081 19.2683 122.153 20.3995 122.331C21.6999 122.534 22.9804 122.724 24.2539 122.909C24.1366 118.17 24.1297 113.432 24.3489 108.684Z" fill="#9BD1A9"/>
<path d="M65.5146 68.2594C69.3387 68.6378 73.1811 68.9445 77.0264 69.164C76.8224 64.462 76.5607 59.9078 76.246 55.537C66.2305 55.2356 57.3342 55.2178 49.6379 55.3656C49.3637 59.1511 49.1334 63.0846 48.9417 67.1226C54.4802 66.8592 60.0064 67.7146 65.5146 68.2594Z" fill="#F44770"/>
<path d="M65.9891 8.06657C59.2274 16.8521 62.8996 31.0189 65.114 32.7233C68.1405 35.0525 81.9633 34.3502 88.725 25.5646C95.4867 16.7791 94.2877 7.80654 88.0094 2.97454C81.7311 -1.85745 72.7505 -0.719254 65.9891 8.06657ZM70.7405 11.8232C76.0182 4.96563 80.1206 5.71906 83.7483 8.51107C87.376 11.3028 89.1545 15.0758 83.8769 21.933C78.5993 28.7906 69.5015 30.6402 67.753 29.2945C66.4733 28.3097 65.4629 18.6804 70.7405 11.8232Z" fill="#F8627F"/>
<path d="M38.7076 2.97454C32.4293 7.80654 31.2303 16.7788 37.992 25.5646C44.7537 34.3502 58.5765 35.0525 61.603 32.7233C63.8174 31.0189 67.4896 16.8521 60.7279 8.06657C53.9662 -0.719253 44.9859 -1.85717 38.7076 2.97454ZM58.9638 29.2945C57.2152 30.6402 48.1171 28.7906 42.8398 21.933C37.5622 15.0758 39.341 11.3028 42.9684 8.51107C46.5958 5.71933 50.6986 4.9659 55.9762 11.8232C61.2538 18.6804 60.2434 28.3097 58.9638 29.2945Z" fill="#F8627F"/>
<path d="M62.9357 45.8869C67.6224 45.8869 71.4218 42.0875 71.4218 37.4008C71.4218 32.7141 67.6224 28.9147 62.9357 28.9147C58.249 28.9147 54.4496 32.7141 54.4496 37.4008C54.4496 42.0875 58.249 45.8869 62.9357 45.8869Z" fill="#F8627F"/>
<path d="M113.365 38.579C113.256 38.0498 112.138 37.6295 110.736 37.5911C57.7417 36.1495 24.632 37.2272 16.2293 37.5658C14.9594 37.617 13.9434 37.9812 13.7251 38.4565C9.35201 47.966 12.5705 56.758 13.7381 59.3758C13.9462 59.8425 14.9388 60.2037 16.1826 60.2634C69.2518 62.8115 101.999 60.8782 109.898 60.3079C111.038 60.2256 111.929 59.8909 112.151 59.4608C115.792 52.4058 114.012 41.7489 113.365 38.579Z" fill="#B8E3C5"/>
<path d="M30.8283 30.838C21.2349 39.083 11.9068 34.5571 8.50024 32.368C7.92155 31.996 7.19702 32.5324 7.36398 33.1997C7.78626 34.8874 8.98696 37.4792 12.3668 39.7178C12.893 40.0662 12.7816 40.8701 12.1813 41.0649L9.82707 41.8283C9.10087 42.0639 9.13671 43.1079 9.8793 43.2841C14.4921 44.3784 24.892 45.6238 33.1561 37.645C42.4692 28.6533 51.9768 34.3132 54.6196 36.2134C55.0016 36.4882 55.5378 36.3576 55.7434 35.9345L56.4132 34.5574C56.5604 34.2546 56.4921 33.8909 56.2415 33.6659C53.854 31.5234 41.6455 21.5416 30.8283 30.838Z" fill="#F8627F"/>
<path d="M95.2673 30.838C104.861 39.083 114.189 34.5571 117.595 32.368C118.174 31.996 118.898 32.5324 118.732 33.1997C118.309 34.8874 117.109 37.4792 113.729 39.7178C113.203 40.0662 113.314 40.8701 113.914 41.0649L116.269 41.8283C116.994 42.0639 116.959 43.1079 116.216 43.2841C111.604 44.3784 101.204 45.6238 92.9395 37.645C83.6264 28.6533 74.1188 34.3132 71.476 36.2134C71.094 36.4882 70.5578 36.3576 70.3522 35.9345L69.6824 34.5574C69.5352 34.2546 69.6035 33.8909 69.8541 33.6659C72.2416 31.5234 84.4501 21.5416 95.2673 30.838Z" fill="#F8627F"/>
<path d="M76.246 36.946C66.2306 36.8477 57.3342 36.8419 49.6379 36.8902C48.8034 40.6451 48.3347 44.8115 48.3347 49.2037C48.3347 53.5428 48.4675 57.6575 49.2832 61.3769C59.3167 61.5594 68.9365 61.5772 76.6352 61.4977C77.4675 57.7473 77.5367 53.5898 77.5367 49.2037C77.537 44.8334 77.073 40.6865 76.246 36.946Z" fill="#F8627F"/>
<path d="M71.6123 36.1106C65.9922 36.2498 60.372 36.389 54.7519 36.5282C54.2285 36.5413 54.2265 37.3558 54.7519 37.3427L71.6123 36.9252C72.1357 36.9124 72.1377 36.0976 71.6123 36.1106Z" fill="#4F021B"/>
<path d="M63.2002 12.9505C61.3608 19.1927 61.5936 25.931 63.8747 32.0271C64.0567 32.5138 64.8445 32.3029 64.6604 31.8107C62.4265 25.8405 62.1839 19.283 63.9858 13.1672C64.1342 12.6633 63.3482 12.448 63.2002 12.9505Z" fill="#4F021B"/>
<path d="M59.2855 36.9055C59.8641 34.6852 61.5135 32.653 63.9196 32.4041C66.1841 32.1699 68.3852 33.8981 68.118 36.2898C68.0599 36.8099 68.875 36.806 68.9325 36.2898C69.2395 33.5425 66.6944 31.4003 64.0716 31.5767C61.2299 31.7679 59.1874 34.0501 58.4998 36.6888C58.3676 37.1966 59.1532 37.413 59.2855 36.9055Z" fill="#4F021B"/>
<path d="M87.596 26.8775C80.3598 26.3844 73.0811 29.4226 68.3439 34.9149C68.003 35.31 68.5767 35.889 68.9198 35.4911C73.5303 30.1457 80.5529 27.2126 87.596 27.6924C88.1191 27.7277 88.1169 26.9128 87.596 26.8775Z" fill="#4F021B"/>
<path d="M39.266 27.4857C46.7658 26.8653 54.0329 30.426 58.0867 36.7721C58.3681 37.2127 59.0735 36.8046 58.7901 36.361C54.5896 29.786 47.052 26.0269 39.266 26.6711C38.7471 26.7139 38.7426 27.529 39.266 27.4857Z" fill="#4F021B"/>
<path d="M16.404 40.1878C23.102 40.6623 29.8298 38.1156 34.5479 33.3414C34.9169 32.968 34.3412 32.3918 33.972 32.7652C29.3939 37.3978 22.8984 39.8331 16.404 39.3733C15.8809 39.3361 15.8834 40.1509 16.404 40.1878Z" fill="#4F021B"/>
<path d="M37.1921 31.9782C39.1396 30.9261 41.3524 30.4861 43.5549 30.6866C44.0769 30.7341 44.0736 29.919 43.5549 29.8721C41.2132 29.659 38.8482 30.1582 36.781 31.275C36.3195 31.524 36.7304 32.2277 37.1921 31.9782Z" fill="#4F021B"/>
<path d="M110.927 39.0463C104.393 40.0384 97.5856 37.4803 93.2681 32.4938C92.9245 32.0968 92.3502 32.6752 92.6922 33.07C97.2136 38.2918 104.327 40.8668 111.144 39.8319C111.66 39.7536 111.441 38.9685 110.927 39.0463Z" fill="#4F021B"/>
<path d="M89.4148 30.8769C86.765 29.8993 83.8861 29.7023 81.1232 30.278C80.6104 30.3849 80.8273 31.1703 81.3399 31.0636C83.9641 30.5169 86.6856 30.7355 89.1984 31.6626C89.6907 31.8443 89.9032 31.0572 89.4148 30.8769Z" fill="#4F021B"/>
<path d="M102.53 105.921C104.239 105.927 105.614 108.953 105.6 112.679C105.586 116.404 104.189 119.419 102.479 119.413C100.77 119.407 99.3956 116.381 99.4095 112.655C99.4234 108.93 100.82 105.914 102.53 105.921Z" fill="white"/>
<path d="M100.918 99.4603C101.806 98.6507 103.182 98.7141 103.991 99.6017C104.801 100.489 104.737 101.865 103.85 102.675C102.962 103.484 101.586 103.421 100.777 102.533C99.967 101.646 100.03 100.27 100.918 99.4603Z" fill="white"/>
</g>
<defs>
<clipPath id="clip0_19_52">
<rect width="126" height="126" fill="white"/>
</clipPath>
</defs>
</svg>
